<svg xmlns="http://www.w3.org/2000/svg" xmlns:xlink="http://www.w3.org/1999/xlink" xmlns:lucid="lucid" width="1521" height="861"><g transform="translate(-179.5 -259.5)" lucid:page-tab-id="n~Q5TvFAI~Dv"><path d="M200 286a6 6 0 0 1 6-6h1468a6 6 0 0 1 6 6v808a6 6 0 0 1-6 6H206a6 6 0 0 1-6-6z" fill-opacity="0"/><path d="M216 280h9.97m5 0h9.98m5 0h9.98m5 0h9.98m5 0h10m4.98 0h10m4.98 0h10m4.98 0h10m4.98 0h10m4.98 0h10m4.98 0h10m4.98 0h10m4.98 0h10m4.98 0h10m4.98 0h10m4.98 0h10m4.98 0h10m4.98 0h10m4.98 0h10m4.98 0h9.98m5 0h10m4.98 0h9.98m5 0h9.98m5 0h9.98m5 0h9.98m5 0h9.98m5 0h9.98m5 0h9.98m5 0h9.98m5 0h9.98m5 0h9.98m5 0h9.98m5 0h9.98m5 0h9.98m5 0h9.98m5 0h9.98m5 0h9.98m5 0h9.98m5 0h9.98m5 0h9.98m5 0h9.98m5 0h9.98m5 0h9.98m5 0h9.98m5 0h9.98m5 0h9.97m5 0h9.98m5 0H930m5 0h10m5 0h9.97m5 0h9.98m5 0h9.98m5 0h9.98m5 0h10m4.98 0h10m4.98 0h10m4.98 0h10m4.98 0h10m4.98 0h10m4.98 0h10m4.98 0h10m4.98 0h10m4.98 0h10m4.98 0h10m4.98 0h10m4.98 0h10m4.98 0h10m4.98 0h10m4.98 0h10m4.98 0h10m4.98 0h9.98m5 0h9.98m5 0h9.98m5 0h9.98m5 0h9.98m5 0h9.98m5 0h9.98m5 0h9.98m5 0h9.98m5 0h9.98m5 0h9.98m5 0h9.98m5 0h9.98m5 0h9.98m5 0h9.98m5 0h9.98m5 0h9.98m5 0h9.98m5 0h9.98m5 0h9.98m5 0h9.98m5 0h9.98m5 0h9.98m5 0h9.98m5 0h9.97m5 0h9.98m5 0h9.98m5 0h5l.94.07.9.22.88.35.8.5.72.6.6.72.5.8.37.88.23.9.07.95v5m0 4.98v9.97m0 5v9.96m0 5v9.98m0 4.98v9.98m0 5v9.96m0 5v9.96m0 5v9.97m0 5v9.96m0 4.98v9.97m0 5v9.97m0 5v9.96m0 5v9.96m0 5v9.97m0 5v9.97m0 5v9.96m0 5v9.97m0 4.98v9.98m0 5v9.96m0 5v9.96m0 5v9.97m0 5v9.96m0 5v9.97m0 5v9.97m0 4.98v9.98m0 5v9.96m0 5v9.97m0 4.98v10m0 4.98v9.97m0 5v9.96m0 5v9.98m0 4.98v9.98m0 5v9.96m0 5v9.97m0 4.98v9.98m0 5v9.96m0 4.98v9.97m0 5v9.97m0 5v9.96m0 5v9.96m0 5v9.97m0 5v9.97m0 5v9.96m0 5v9.97m0 4.98v9.98m0 5v9.96m0 5v9.96m0 5v9.97m0 5v9.96m0 5v9.97m0 5v9.97m0 4.98v9.98m0 5v9.96m0 5v9.97m0 4.98v5l-.07.94-.22.9-.35.88-.5.8-.6.72-.72.6-.8.5-.88.37-.9.23-.95.07h-5m-5 0h-9.97m-5 0h-9.98m-5 0h-9.98m-5 0h-9.98m-5 0h-10m-4.98 0h-10m-4.98 0h-10m-4.98 0h-10m-4.98 0h-10m-4.98 0h-10m-4.98 0h-10m-4.98 0h-10m-4.98 0h-10m-4.98 0h-10m-4.98 0h-10m-4.98 0h-10m-4.98 0h-10m-4.98 0h-10m-4.98 0h-10m-4.98 0h-10m-4.98 0h-10m-4.98 0h-9.98m-5 0h-9.98m-5 0h-9.98m-5 0h-9.98m-5 0h-9.98m-5 0h-9.98m-5 0h-9.98m-5 0h-9.98m-5 0h-9.98m-5 0h-9.98m-5 0h-9.98m-5 0h-9.98m-5 0h-9.98m-5 0h-9.98m-5 0h-9.98m-5 0h-9.98m-5 0h-9.98m-5 0h-9.98m-5 0h-9.98m-5 0h-9.98m-5 0h-9.98m-5 0h-9.98m-5 0h-9.98m-5 0h-9.98m-5 0h-9.97m-5 0h-9.98m-5 0H950m-5 0h-10m-5 0h-9.97m-5 0h-9.98m-5 0h-9.98m-5 0h-9.98m-5 0h-10m-4.98 0h-10m-4.98 0h-10m-4.98 0h-10m-4.98 0h-10m-4.98 0h-10m-4.98 0h-10m-4.98 0h-10m-4.98 0h-10m-4.98 0h-10m-4.98 0h-10m-4.98 0h-10m-4.98 0h-10m-4.98 0h-10m-4.98 0h-10m-4.98 0h-10m-4.98 0h-10m-4.98 0h-9.98m-5 0h-9.98m-5 0h-9.98m-5 0h-9.98m-5 0h-9.98m-5 0h-9.98m-5 0h-9.98m-5 0h-9.98m-5 0h-9.98m-5 0h-9.98m-5 0h-9.98m-5 0h-9.98m-5 0h-9.98m-5 0h-9.98m-5 0h-9.98m-5 0h-9.98m-5 0h-9.98m-5 0h-9.98m-5 0h-9.98m-5 0h-9.98m-5 0h-9.98m-5 0h-9.98m-5 0h-9.98m-5 0h-9.97m-5 0h-9.98m-5 0h-9.98m-5 0H216m-5 0h-5l-.94-.07-.9-.22-.88-.35-.8-.5-.72-.6-.6-.72-.5-.8-.37-.88-.23-.9-.07-.95v-5m0-4.97v-9.98m0-5v-9.96m0-5v-9.98m0-4.98v-9.98m0-5v-9.96m0-5v-9.97m0-4.98v-9.98m0-5v-9.96m0-4.98v-9.97m0-5v-9.97m0-5v-9.96m0-5v-9.96m0-5v-9.97m0-5v-9.97m0-5v-9.96m0-5v-9.97m0-4.98v-9.98m0-5v-9.96m0-5v-9.96m0-5v-9.97m0-5v-9.96m0-5v-9.97m0-5v-9.97m0-4.98v-9.98m0-5v-9.96m0-5v-9.97m0-4.98v-10m0-4.98v-9.97m0-5v-9.96m0-5v-9.98m0-4.98v-9.98m0-5v-9.96m0-5v-9.97m0-4.98v-9.98m0-5v-9.96m0-4.98v-9.97m0-5v-9.97m0-5v-9.96m0-5v-9.96m0-5v-9.97m0-5v-9.97m0-5v-9.96m0-5v-9.96m0-4.98v-9.98m0-5v-9.96m0-5v-9.96m0-5v-9.97m0-5v-9.96m0-5v-9.97m0-5v-9.97m0-4.98v-9.98m0-5v-9.96m0-5V296m0-5V286l.07-.94.22-.9.35-.88.5-.8.6-.72.72-.6.8-.5.88-.37.9-.23.95-.07h5" stroke="#3a414a" fill="none"/><path d="M260 606a6 6 0 0 1 6-6h408a6 6 0 0 1 6 6v467.5a6 6 0 0 1-6 6H266a6 6 0 0 1-6-6z" stroke="#3a414a" fill="#fff"/><path d="M309.18 720.8a10 10 0 0 1 8.82-5.3h84a10 10 0 0 1 8.82 5.3l26.36 49.4a11.25 11.25 0 0 1 0 10.6l-26.36 49.4a10 10 0 0 1-8.82 5.3h-84a10 10 0 0 1-8.82-5.3l-26.36-49.4a11.25 11.25 0 0 1 0-10.6z" stroke="#3a414a" fill="#fff"/><use xlink:href="#a" transform="matrix(1,0,0,1,285,720.5000306222228) translate(21.486481481481484 59.02777777777778)"/><use xlink:href="#b" transform="matrix(1,0,0,1,285,720.5000306222228) translate(58.461790123456794 59.02777777777778)"/><path d="M420 1003c0 6.63-26.86 12-60 12s-60-5.37-60-12v-96c0-6.63 26.86-12 60-12s60 5.37 60 12z" stroke="#3a414a" fill="#fff"/><path d="M420 907c0 6.63-26.86 12-60 12s-60-5.37-60-12" stroke="#3a414a" fill="none"/><use xlink:href="#c" transform="matrix(1,0,0,1,305,924.0000741158719) translate(5.709876543209873 47.34027777777778)"/><path d="M721.83 606a6 6 0 0 1 6-6H1155a6 6 0 0 1 6 6v153.4a6 6 0 0 1-6 6H727.83a6 6 0 0 1-6-6z" stroke="#3a414a" fill-opacity="0"/><path d="M1180 606a6 6 0 0 1 6-6h468a6 6 0 0 1 6 6v468a6 6 0 0 1-6 6h-468a6 6 0 0 1-6-6z" stroke="#3a414a" fill="#c3f7c8"/><path d="M718.92 806a6 6 0 0 1 6-6H1155a6 6 0 0 1 6 6v267.5a6 6 0 0 1-6 6H724.92a6 6 0 0 1-6-6zM429.18 465.3A10 10 0 0 1 438 460h84a10 10 0 0 1 8.82 5.3l26.36 49.4a11.25 11.25 0 0 1 0 10.6l-26.36 49.4A10 10 0 0 1 522 580h-84a10 10 0 0 1-8.82-5.3l-26.36-49.4a11.25 11.25 0 0 1 0-10.6z" stroke="#3a414a" fill="#fff"/><use xlink:href="#d" transform="matrix(1,0,0,1,405,465) translate(47.90623456790123 34.96527777777778)"/><use xlink:href="#e" transform="matrix(1,0,0,1,405,465) translate(3.477222222222247 59.85416666666667)"/><path d="M360 836.5v41.62" stroke="#3a414a" fill="none"/><path d="M360.5 836.5h-1v-.5h1z" stroke="#3a414a" stroke-width=".05" fill="#3a414a"/><path d="M360 892.88l-4.63-14.26h9.26z" stroke="#3a414a" fill="#3a414a"/><path d="M1532 300c15.46 0 28 13.43 28 30s-12.54 30-28 30h-84c-15.46 0-28-13.43-28-30s12.54-30 28-30z" fill="#dfe3e8"/><path d="M1541.85 302l2.85 1.26 3.86 2.54 1.73 1.63m3.37 3.74l1.4 1.85 2.4 4.5.85 2.56m1.18 4.9l.42 2.72.08 2.3-.42 5.04m-1.2 4.9l-.12.5-2.08 4.7-2.46 3.73m-3.38 3.76l-.24.26-3.73 2.85-4 2.12-.5.17m-4.85 1.4l-3.14.5-1.88.06h-4.67m-4.66 0h-9.34m-4.66 0h-9.34m-4.66 0h-9.34m-4.66 0h-9.34m-4.66 0h-9.34m-4.66 0H1448l-4.38-.37-.64-.16m-4.83-1.46l-2.85-1.26-3.86-2.54-1.73-1.63m-3.37-3.74l-1.4-1.85-2.4-4.5-.85-2.56m-1.18-4.9l-.42-2.72-.08-2.3.42-5.04m1.2-4.9l.12-.5 2.08-4.7 2.46-3.73m3.38-3.76l.24-.26 3.73-2.85 4-2.12.5-.17m4.85-1.4l3.14-.5 1.88-.06h4.67m4.66 0h9.34m4.66 0h9.34m4.66 0h9.34m4.66 0h9.34m4.66 0h9.34m4.66 0h4.67l4.38.37.64.16" stroke="#3a414a" fill="none"/><use xlink:href="#f" transform="matrix(1,0,0,1,1425,305) translate(4.691358024691354 30.27777777777778)"/><path d="M839.5 420H486a6 6 0 0 0-6 6v17.12" stroke="#3a414a" fill="none"/><path d="M840 420l.05.5h-.56v-1h.55zm3 .5h-2.95l-.05-.5.05-.5H843z" stroke="#3a414a" stroke-width=".05" fill="#3a414a"/><path d="M480 457.88l-4.63-14.26h9.26z" stroke="#3a414a" fill="#3a414a"/><path d="M1419 330H906a6 6 0 0 0-6 6v7.62" stroke="#3a414a" fill="none"/><path d="M1419.5 330l.02.5h-.53v-1h.54z" stroke="#3a414a" stroke-width=".05" fill="#3a414a"/><path d="M900 358.4l-4.63-14.28h9.26z" stroke="#3a414a" fill="#3a414a"/><path d="M1259.68 665.3a10 10 0 0 1 8.82-5.3h84a10 10 0 0 1 8.82 5.3l26.36 49.4a11.25 11.25 0 0 1 0 10.6l-26.36 49.4a10 10 0 0 1-8.82 5.3h-84a10 10 0 0 1-8.82-5.3l-26.36-49.4a11.25 11.25 0 0 1 0-10.6z" stroke="#3a414a" fill="#fff"/><use xlink:href="#a" transform="matrix(1,0,0,1,1235.499705727308,665) translate(9.140802469135801 59.02777777777778)"/><use xlink:href="#g" transform="matrix(1,0,0,1,1235.499705727308,665) translate(46.11611111111111 59.02777777777778)"/><path d="M1310.5 781v62.12" stroke="#3a414a" fill="none"/><path d="M1311 781h-1v-.5h1z" stroke="#3a414a" stroke-width=".05" fill="#3a414a"/><path d="M1310.5 857.88l-4.64-14.26h9.28z" stroke="#3a414a" fill="#3a414a"/><path d="M1390.5 945.95c0 5.27-35.82 9.55-80 9.55s-80-4.28-80-9.55v-76.4c0-5.27 35.82-9.55 80-9.55s80 4.28 80 9.55z" stroke="#3a414a" fill="#fff"/><path d="M1390.5 869.55c0 5.27-35.82 9.55-80 9.55s-80-4.28-80-9.55" stroke="#3a414a" fill="none"/><use xlink:href="#h" transform="matrix(1,0,0,1,1235.499705727308,884.1000061244446) translate(1.7592592592592666 38.71527777777778)"/><path d="M940.22 444.95h364.28a6 6 0 0 1 6 6v192.17" stroke="#3a414a" fill="none"/><path d="M940.24 445.45h-1.02l1-1h.02z" stroke="#3a414a" stroke-width=".05" fill="#3a414a"/><path d="M1310.5 657.88l-4.64-14.26h9.28z" stroke="#3a414a" fill="#3a414a"/><path d="M954.68 661.2h-3.13v-14h-23.2v14h-3.12v-15.53c0-.84.7-1.52 1.56-1.52h26.32c.85 0 1.56.68 1.56 1.52zM938.16 664.74h3.6v3.04h-3.6v-3.04z" stroke="#fff" stroke-opacity="0" fill="#3f8624"/><path d="M939.95 659.2c-.4 0-.77-.13-1.05-.4l-13.17-12 2.13-2.24 12.1 11.04 12.08-11.04 2.14 2.23-13.17 12c-.28.27-.65.4-1.05.4z" stroke="#fff" stroke-opacity="0" fill="#3f8624"/><path d="M939.95 715.5c-12.1 0-24.95-3.38-24.95-9.6v-46.3c0-.38.05-.7.15-1.06.55-2.26 2.8-4.14 6.7-5.7l1.15 2.8c-2.8 1.08-4.55 2.4-4.85 3.6v46.66c0 2.7 8.35 6.53 21.85 6.53 13.5 0 21.85-3.82 21.85-6.52v-46.3-.38c-.3-1.2-2.05-2.5-4.85-3.57l1.15-2.82c3.9 1.5 6.15 3.45 6.75 5.7.05.38.1.7.1 1.07v46.3c-.1 6.22-12.95 9.6-25.05 9.6z" stroke="#fff" stroke-opacity="0" fill="#3f8624"/><path d="M939.95 667.8c-12.37 0-24.95-3.18-24.95-9.26h3.14c0 2.55 8.5 6.26 21.8 6.26 13.34 0 21.87-3.74 21.87-6.26h3.1c0 6.08-12.47 9.27-24.95 9.27z" stroke="#fff" stroke-opacity="0" fill="#3f8624"/><path d="M935.32 651.96h9.6c12.34 0 18.5 2.38 18.5 7.16v46.9c0 4.76-6.16 7.15-18.5 7.15h-9.6c-12.35 0-18.5-2.4-18.5-7.16v-46.88c0-4.78 6.15-7.16 18.5-7.16z" stroke="#fff" stroke-opacity="0" stroke-width=".39" fill="#fff" fill-opacity="0"/><path d="M926.6 646H953v16.1h-26.4V646z" stroke="#fff" stroke-opacity="0" stroke-width=".34" fill="#fff" fill-opacity="0"/><path d="M549.8 498.9H934a6 6 0 0 1 6 6v122.87" stroke="#3a414a" fill="none"/><path d="M549.83 499.4h-.25l-.53-1h.78z" stroke="#3a414a" stroke-width=".05" fill="#3a414a"/><path d="M940 642.53l-4.63-14.26h9.26z" stroke="#3a414a" fill="#3a414a"/><path d="M779.18 845.3A10 10 0 0 1 788 840h84a10 10 0 0 1 8.82 5.3l26.36 49.4a11.25 11.25 0 0 1 0 10.6l-26.36 49.4A10 10 0 0 1 872 960h-84a10 10 0 0 1-8.82-5.3l-26.36-49.4a11.25 11.25 0 0 1 0-10.6z" stroke="#3a414a" fill="#fff"/><use xlink:href="#i" transform="matrix(1,0,0,1,755,845) translate(20.69944444444446 43.5)"/><use xlink:href="#j" transform="matrix(1,0,0,1,755,845) translate(53.97722222222223 43.5)"/><use xlink:href="#k" transform="matrix(1,0,0,1,755,845) translate(6.366111111111147 67.5)"/><path d="M830 839V685.83a6 6 0 0 1 6-6h62.62" stroke="#3a414a" fill="none"/><path d="M830.5 839.5h-1v-.5h1z" stroke="#3a414a" stroke-width=".05" fill="#3a414a"/><path d="M913.38 679.83l-14.26 4.63v-9.27z" stroke="#3a414a" fill="#3a414a"/><path d="M899.88 480c-2.88 0-5.76-1.2-7.92-3.36l-48.6-48.72c-2.16-2.16-3.36-5.04-3.36-7.92s1.2-5.76 3.36-7.92l48.6-48.72c2.16-2.16 5.04-3.36 7.92-3.36s5.76 1.2 7.92 3.36l48.84 48.96c2.16 2.16 3.36 4.8 3.36 7.92 0 2.88-1.2 5.76-3.36 7.92l-48.84 48.48c-2.16 2.16-5.04 3.36-7.92 3.36" stroke="#000" stroke-opacity="0" fill="#7fba00"/><path d="M911.23 404.6c-3.36 2.56-7.28 3.8-11.2 3.8-5.57.02-11.08-2.5-14.7-7.24-6.2-8.1-4.66-19.73 3.44-25.95 3.36-2.58 7.3-3.8 11.23-3.8 5.54 0 11.05 2.52 14.67 7.25 6.2 8.15 4.66 19.73-3.44 25.95" stroke="#000" stroke-opacity="0" fill="#fff"/><path d="M907.8 363.34c-2.16-2.1-5.06-3.34-7.88-3.34-2.9 0-5.8 1.24-7.96 3.34l-48.64 48.72c-2.16 2.2-3.32 5.06-3.32 7.93 0 2.85 1.16 5.72 3.32 7.92l27.6 27.6 51.95-77.08-15.08-15.1z" stroke="#000" stroke-opacity="0" fill="#fff" fill-opacity=".15"/><path d="M899.88 469.44l15.8-15.87h-11.25v-47.6h-9.36v47.6h-11l15.8 15.87z" stroke="#000" stroke-opacity="0" fill="#fff"/><path d="M934.2 440.35v-22.4l-7.8 7.8-20.2-20.26-6.8 6.8 20.23 20.24-7.8 7.8h22.37z" stroke="#000" stroke-opacity="0" fill="#fff"/><path d="M865.6 440.44h22.34l-7.78-7.8 20.8-20.83-6.8-6.8-20.8 20.84-7.77-7.8v22.4z" stroke="#000" stroke-opacity="0" fill="#fff"/><path d="M909.74 402.65c-2.9 2.22-6.34 3.3-9.74 3.3-4.8 0-9.58-2.18-12.72-6.28-5.38-7.03-4.04-17.1 2.98-22.5 2.92-2.25 6.34-3.3 9.74-3.3 4.8 0 9.58 2.17 12.72 6.28 5.38 7.03 4.04 17.1-2.98 22.5" stroke="#000" stroke-opacity="0" fill="#59b4d9"/><path d="M906.8 392.72c1.16 1.52 3.3 1.8 4.82.66.1-.08.15-.14.2-.22 1.57 1.1 2.62 1.83 3.23 2.22.17-.45.32-.9.44-1.36-.65-.47-1.52-1.14-2.77-2.16.4-1.08.3-2.33-.47-3.33-1.07-1.38-2.96-1.74-4.44-.88-1.63-1.47-3.43-3.13-5.32-5.02 5.87-3.18 10.05-2.7 10.05-2.7-.7-.9-1.48-1.68-2.32-2.37-2.47-.4-6.3-.36-10.72 2-1.44-1.56-2.95-3.2-4.46-4.96-.73.22-1.42.52-2.12.86 1.13 1.85 2.64 3.68 4.33 5.5h.03c-1.43 1-3.02 2.34-4.48 3.9l-.52.57c-.87-.2-1.8-.14-2.64.2-1.45-3.16-1.34-5.7-1.1-6.96-.64.64-1.22 1.33-1.75 2.08-.4 1.55-.47 3.8.63 6.48-1.28 1.7-1.33 4.1 0 5.88.12.17.23.3.38.42-.6 2.02-.86 3.96-.95 5.63.14.22.14.38.32.58.75 1 1.7 1.83 2.64 2.57-.1-1.77.04-4.37 1.12-7.3.75.07 1.54-.07 2.23-.37.4.36.84.75 1.3 1.1 1.58 1.25 3.14 2.22 4.68 3-.08.78.12 1.58.6 2.25 1.1 1.4 3.1 1.66 4.5.58.28-.23.5-.47.68-.78 2.5.56 4.7.67 6.32.67.23 0 1.4-1.58 2.06-2.55-1 .22-3.92.6-7.9-.53-.1-.44-.3-.9-.58-1.27-1-1.33-2.85-1.6-4.24-.73-1.37-.74-2.82-1.7-4.33-2.88l-.87-.73c.93-1.44 1.02-3.3.2-4.85.18-.2.38-.36.55-.55 1.5-1.38 2.9-2.5 4.2-3.38l-.15-.18.15.17c2 1.85 4.12 3.6 6.12 5.17-.52 1.1-.43 2.5.38 3.55z" stroke="#000" stroke-opacity="0" fill="#fff"/><path d="M650.5 460h267.35v51.6H650.5z" fill="#fff" fill-opacity="0"/><use xlink:href="#l" transform="matrix(1,0,0,1,655.4997057273082,465) translate(0 19.73333333333333)"/><use xlink:href="#m" transform="matrix(1,0,0,1,655.4997057273082,465) translate(127.23888888888885 19.73333333333333)"/><path d="M761.55 606.52h3.43v11.2c0 .5-.34.92-.77.92h-3.42c-.42 0-.77-.4-.77-.9v-9.4c0-.98.65-1.8 1.5-1.82z" stroke="#000" stroke-opacity="0" fill="#a3a3a3"/><path d="M761.55 606.52h3.43v11.2c0 .5-.34.92-.77.92h-3.42c-.42 0-.77-.4-.77-.9v-9.4c0-.98.65-1.8 1.5-1.82z" stroke="#000" stroke-opacity="0" fill="#a3a3a3" fill-opacity=".5"/><path d="M800.18 606.52h3.42c.83 0 1.5.8 1.5 1.78v9.43c0 .5-.34.9-.76.9h-3.4c-.4 0-.76-.4-.76-.9v-11.2z" stroke="#000" stroke-opacity="0" fill="#a3a3a3"/><path d="M800.18 606.52h3.42c.83 0 1.5.8 1.5 1.78v9.43c0 .5-.34.9-.76.9h-3.4c-.4 0-.76-.4-.76-.9v-11.2z" stroke="#000" stroke-opacity="0" fill="#a3a3a3" fill-opacity=".5"/><path d="M805.1 608.28v3.92h-45v-3.92c0-.98.66-1.78 1.47-1.78h42c.86 0 1.54.8 1.54 1.77z" stroke="#000" stroke-opacity="0" fill="#949494"/><path d="M760.78 641.75h3.43c.44 0 .78.4.78.9v11.3h-3.43c-.83.03-1.52-.75-1.54-1.73v-.02-9.5c-.02-.5.3-.92.73-.96z" stroke="#000" stroke-opacity="0" fill="#a3a3a3"/><path d="M760.78 641.75h3.43c.44 0 .78.4.78.9v11.3h-3.43c-.83.03-1.52-.75-1.54-1.73v-.02-9.5c-.02-.5.3-.92.73-.96z" stroke="#000" stroke-opacity="0" fill="#a3a3a3" fill-opacity=".5"/><path d="M800.95 641.77h3.43c.43 0 .76.4.77.9v9.37c0 .97-.67 1.77-1.5 1.77h-3.47v-11.1c-.03-.48.3-.92.72-.96z" stroke="#000" stroke-opacity="0" fill="#a3a3a3"/><path d="M800.95 641.77h3.43c.43 0 .76.4.77.9v9.37c0 .97-.67 1.77-1.5 1.77h-3.47v-11.1c-.03-.48.3-.92.72-.96z" stroke="#000" stroke-opacity="0" fill="#a3a3a3" fill-opacity=".5"/><path d="M760 652.16v-3.9h45.03v3.9c0 1-.68 1.8-1.5 1.8H761.5c-.82 0-1.5-.8-1.5-1.8z" stroke="#000" stroke-opacity="0" fill="#949494"/><path d="M798.75 629.7l-5.38-6.4c-.07-.14-.25-.17-.38-.06-.08.07-.1.18-.1.3v3.93c.02.15-.06.3-.2.33 0 .02 0 .02-.03.02h-13.02c-.6-.93-1.46-1.43-2.44-1.43l-.32-.02c-1.67 0-3.05 1.48-3.2 3.45-.18 2.1 1.13 3.98 2.9 4.2h.62c1-.04 1.87-.54 2.48-1.48h12.94c.12 0 .25.12.25.28v3.9c0 .16.1.3.25.3.08 0 .15-.03.2-.1l5.38-6.3c.22-.26.22-.66.05-.94z" stroke="#000" stroke-opacity="0" fill="url(#n)"/><path d="M766.92 619.73v9.1h4.9c.46-2.44 2-4.22 4.1-4.7v-5.9h-7.75c-.7 0-1.26.68-1.25 1.5z" stroke="#000" stroke-opacity="0" fill="url(#o)"/><path d="M785.73 618.23H778v5.93c.95.18 1.73.6 2.47 1.34h6.5v-5.78c0-.83-.54-1.5-1.25-1.5z" stroke="#000" stroke-opacity="0" fill="url(#p)"/><path d="M778 636.27v5.86h7.73c.7 0 1.25-.67 1.25-1.5v-5.73h-6.47c-.75.76-1.54 1.2-2.5 1.37z" stroke="#000" stroke-opacity="0" fill="url(#q)"/><path d="M771.82 631.53h-4.9v9.1c0 .84.55 1.5 1.25 1.5h7.74v-5.88c-2.1-.46-3.65-2.25-4.08-4.72z" stroke="#000" stroke-opacity="0" fill="url(#r)"/><path d="M761.5 606.5h42.2c1 0 1.5.57 1.5 1.76v43.98c0 1.2-.5 1.76-1.5 1.76h-42.2c-1 0-1.5-.57-1.5-1.76v-43.98c0-1.2.5-1.76 1.5-1.76z" stroke="#000" stroke-opacity="0" fill-opacity="0"/><path d="M539.68 720.8a10 10 0 0 1 8.82-5.3h84a10 10 0 0 1 8.82 5.3l26.36 49.4a11.25 11.25 0 0 1 0 10.6l-26.36 49.4a10 10 0 0 1-8.82 5.3h-84a10 10 0 0 1-8.82-5.3l-26.36-49.4a11.25 11.25 0 0 1 0-10.6z" stroke="#3a414a" fill="#fff"/><use xlink:href="#a" transform="matrix(1,0,0,1,515.4997057273082,720.5000306222228) translate(24.511172839506173 59.02777777777778)"/><use xlink:href="#s" transform="matrix(1,0,0,1,515.4997057273082,720.5000306222228) translate(61.48648148148148 59.02777777777778)"/><path d="M650.5 1003c0 6.63-26.86 12-60 12s-60-5.37-60-12v-96c0-6.63 26.86-12 60-12s60 5.37 60 12z" stroke="#3a414a" fill="#fff"/><path d="M650.5 907c0 6.63-26.86 12-60 12s-60-5.37-60-12" stroke="#3a414a" fill="none"/><use xlink:href="#c" transform="matrix(1,0,0,1,535.4997057273082,924.0000741158719) translate(5.709876543209873 47.34027777777778)"/><path d="M559.5 520h25a6 6 0 0 1 6 6v172.62" stroke="#3a414a" fill="none"/><path d="M559.5 520.5H559l.02-.5-.02-.5h.53z" stroke="#3a414a" stroke-width=".05" fill="#3a414a"/><path d="M590.5 713.38l-4.64-14.26h9.27z" stroke="#3a414a" fill="#3a414a"/><path d="M400.5 520H366a6 6 0 0 0-6 6v172.62" stroke="#3a414a" fill="none"/><path d="M401 520l.02.5h-.53v-1h.52z" stroke="#3a414a" stroke-width=".05" fill="#3a414a"/><path d="M360 713.38l-4.63-14.26h9.26z" stroke="#3a414a" fill="#3a414a"/><path d="M590.5 836.5v41.62" stroke="#3a414a" fill="none"/><path d="M591 836.5h-1v-.5h1z" stroke="#3a414a" stroke-width=".05" fill="#3a414a"/><path d="M590.5 892.88l-4.64-14.26h9.27z" stroke="#3a414a" fill="#3a414a"/><path d="M815.43 727.3h240v20h-240z" fill="#fff" fill-opacity="0"/><use xlink:href="#t" transform="matrix(1,0,0,1,820.4330708661416,732.3001612168017) translate(0 17.77777777777778)"/><path d="M300 1037.4h320v37.1H300z" fill="#ced4db"/><use xlink:href="#u" transform="matrix(1,0,0,1,305,1042.4002352190423) translate(89.92777777777779 21.48333333333333)"/><path d="M1300 1035.5h300v37.1h-300z" fill="#ced4db"/><use xlink:href="#v" transform="matrix(1,0,0,1,1305,1040.5000306222228) translate(102.16203703703704 21.48333333333333)"/><path d="M220 289.97h561.2v95.86H220z" stroke="#4c535d" fill="url(#w)"/><use xlink:href="#x" transform="matrix(1,0,0,1,225,294.96663604444393) translate(64.71234567901246 28.622222222222213)"/><use xlink:href="#y" transform="matrix(1,0,0,1,225,294.96663604444393) translate(177.80987654320995 28.622222222222213)"/><use xlink:href="#z" transform="matrix(1,0,0,1,225,294.96663604444393) translate(199.57469135802475 28.622222222222213)"/><use xlink:href="#A" transform="matrix(1,0,0,1,225,294.96663604444393) translate(384.02901234567895 28.622222222222213)"/><use xlink:href="#B" transform="matrix(1,0,0,1,225,294.96663604444393) translate(41.009567901234675 71.55555555555554)"/><use xlink:href="#C" transform="matrix(1,0,0,1,225,294.96663604444393) translate(304.77129629629627 71.55555555555554)"/><path d="M1620 945.95c0 5.27-35.82 9.55-80 9.55s-80-4.28-80-9.55v-76.4c0-5.27 35.82-9.55 80-9.55s80 4.28 80 9.55z" stroke="#3a414a" fill="#fff"/><path d="M1620 869.55c0 5.27-35.82 9.55-80 9.55s-80-4.28-80-9.55" stroke="#3a414a" fill="none"/><use xlink:href="#D" transform="matrix(1,0,0,1,1465,884.1000061244446) translate(-1.2654320987654302 37.94444444444444)"/><path d="M830 961v33.5a6 6 0 0 0 6 6h698a6 6 0 0 0 6-6v-22.12" stroke="#3a414a" fill="none"/><path d="M830.5 961h-1v-.5h1z" stroke="#3a414a" stroke-width=".05" fill="#3a414a"/><path d="M1540 957.62l4.63 14.26h-9.27z" stroke="#3a414a" fill="#3a414a"/><path d="M1489.18 665.3a10 10 0 0 1 8.82-5.3h84a10 10 0 0 1 8.82 5.3l26.36 49.4a11.25 11.25 0 0 1 0 10.6l-26.36 49.4a10 10 0 0 1-8.82 5.3h-84a10 10 0 0 1-8.82-5.3l-26.36-49.4a11.25 11.25 0 0 1 0-10.6z" stroke="#3a414a" fill="#fff"/><use xlink:href="#E" transform="matrix(1,0,0,1,1465,665) translate(9.140802469135801 59.02777777777778)"/><use xlink:href="#F" transform="matrix(1,0,0,1,1465,665) translate(46.11611111111111 59.02777777777778)"/><path d="M1009.18 845.3a10 10 0 0 1 8.82-5.3h84a10 10 0 0 1 8.82 5.3l26.36 49.4a11.25 11.25 0 0 1 0 10.6l-26.36 49.4a10 10 0 0 1-8.82 5.3h-84a10 10 0 0 1-8.82-5.3l-26.36-49.4a11.25 11.25 0 0 1 0-10.6z" stroke="#3a414a" fill="#fff"/><use xlink:href="#G" transform="matrix(1,0,0,1,985,845) translate(20.69944444444446 46.9375)"/><use xlink:href="#H" transform="matrix(1,0,0,1,985,845) translate(53.97722222222223 46.9375)"/><use xlink:href="#I" transform="matrix(1,0,0,1,985,845) translate(9.088333333333361 70.9375)"/><path d="M1060 961v13a6 6 0 0 0 6 6h238.5a6 6 0 0 0 6-6v-1.62" stroke="#3a414a" fill="none"/><path d="M1060.5 961h-1v-.5h1z" stroke="#3a414a" stroke-width=".05" fill="#3a414a"/><path d="M1310.5 957.62l4.63 14.26h-9.27z" stroke="#3a414a" fill="#3a414a"/><path d="M1540 781v62.12" stroke="#3a414a" fill="none"/><path d="M1540.5 781h-1v-.5h1z" stroke="#3a414a" stroke-width=".05" fill="#3a414a"/><path d="M1540 857.88l-4.63-14.26h9.27z" stroke="#3a414a" fill="#3a414a"/><path d="M1060 839V685.83a6 6 0 0 0-6-6h-72.62" stroke="#3a414a" fill="none"/><path d="M1060.5 839.5h-1v-.5h1z" stroke="#3a414a" stroke-width=".05" fill="#3a414a"/><path d="M966.62 679.83l14.26-4.64v9.26z" stroke="#3a414a" fill="#3a414a"/><path d="M960.48 420H1534a6 6 0 0 1 6 6v217.12" stroke="#3a414a" fill="none"/><path d="M960.5 420.5h-.53l.03-.26-.07-.74h.56z" stroke="#3a414a" stroke-width=".05" fill="#3a414a"/><path d="M1540 657.88l-4.63-14.26h9.27z" stroke="#3a414a" fill="#3a414a"/><path d="M800 1037.4h320v37.1H800z" fill="#ced4db"/><g><use xlink:href="#J" transform="matrix(1,0,0,1,805,1042.4002352190423) translate(73.03796296296296 21.48333333333333)"/></g><path d="M1320 606.5h200v37.65h-200z" fill="#ced4db"/><g><use xlink:href="#K" transform="matrix(1,0,0,1,1325,611.5) translate(15.47037037037039 21.48333333333333)"/><use xlink:href="#L" transform="matrix(1,0,0,1,1325,611.5) translate(59.253703703703714 21.48333333333333)"/><use xlink:href="#M" transform="matrix(1,0,0,1,1325,611.5) translate(74.25925925925927 21.48333333333333)"/></g><defs><path d="M230 0l2-204L168 0h-37L68-204 70 0H24v-248h70l56 185 57-185h69V0h-46" id="N"/><path d="M137-138c1-29-70-34-71-4 15 46 118 7 119 86 1 83-164 76-172 9l43-7c4 19 20 25 44 25 33 8 57-30 24-41C81-84 22-81 20-136c-2-80 154-74 161-7" id="O"/><g id="a"><use transform="matrix(0.06172839506172839,0,0,0.06172839506172839,0,0)" xlink:href="#N"/><use transform="matrix(0.06172839506172839,0,0,0.06172839506172839,18.456790123456788,0)" xlink:href="#O"/></g><path d="M199 0l-22-63H83L61 0H9l90-248h61L250 0h-51zm-33-102l-36-108c-10 38-24 72-36 108h72" id="P"/><path d="M135-194c52 0 70 43 70 98 0 56-19 99-73 100-30 1-46-15-58-35L72 0H24l1-261h50v104c11-23 29-37 60-37zM114-30c31 0 40-27 40-66 0-37-7-63-39-63s-41 28-41 65c0 36 8 64 40 64" id="Q"/><path d="M110-194c64 0 96 36 96 99 0 64-35 99-97 99-61 0-95-36-95-99 0-62 34-99 96-99zm-1 164c35 0 45-28 45-65 0-40-10-65-43-65-34 0-45 26-45 65 0 36 10 65 43 65" id="R"/><path d="M135-194c87-1 58 113 63 194h-50c-7-57 23-157-34-157-59 0-34 97-39 157H25l-1-190h47c2 12-1 28 3 38 12-26 28-41 61-42" id="S"/><g id="b"><use transform="matrix(0.06172839506172839,0,0,0.06172839506172839,0,0)" xlink:href="#P"/><use transform="matrix(0.06172839506172839,0,0,0.06172839506172839,15.987654320987653,0)" xlink:href="#Q"/><use transform="matrix(0.06172839506172839,0,0,0.06172839506172839,29.50617283950617,0)" xlink:href="#R"/><use transform="matrix(0.06172839506172839,0,0,0.06172839506172839,43.02469135802469,0)" xlink:href="#S"/><use transform="matrix(0.06172839506172839,0,0,0.06172839506172839,56.54320987654321,0)" xlink:href="#R"/></g><path d="M24-248c120-7 223 5 221 122C244-46 201 0 124 0H24v-248zM76-40c74 7 117-18 117-86 0-67-45-88-117-82v168" id="T"/><path d="M133-34C117-15 103 5 69 4 32 3 11-16 11-54c-1-60 55-63 116-61 1-26-3-47-28-47-18 1-26 9-28 27l-52-2c7-38 36-58 82-57s74 22 75 68l1 82c-1 14 12 18 25 15v27c-30 8-71 5-69-32zm-48 3c29 0 43-24 42-57-32 0-66-3-65 30 0 17 8 27 23 27" id="U"/><path d="M115-3C79 11 28 4 28-45v-112H4v-33h27l15-45h31v45h36v33H77v99c-1 23 16 31 38 25v30" id="V"/><path d="M185-48c-13 30-37 53-82 52C43 2 14-33 14-96s30-98 90-98c62 0 83 45 84 108H66c0 31 8 55 39 56 18 0 30-7 34-22zm-45-69c5-46-57-63-70-21-2 6-4 13-4 21h74" id="W"/><g id="c"><use transform="matrix(0.06172839506172839,0,0,0.06172839506172839,0,0)" xlink:href="#T"/><use transform="matrix(0.06172839506172839,0,0,0.06172839506172839,15.987654320987653,0)" xlink:href="#U"/><use transform="matrix(0.06172839506172839,0,0,0.06172839506172839,28.333333333333332,0)" xlink:href="#V"/><use transform="matrix(0.06172839506172839,0,0,0.06172839506172839,35.67901234567901,0)" xlink:href="#U"/><use transform="matrix(0.06172839506172839,0,0,0.06172839506172839,48.02469135802469,0)" xlink:href="#Q"/><use transform="matrix(0.06172839506172839,0,0,0.06172839506172839,61.54320987654321,0)" xlink:href="#U"/><use transform="matrix(0.06172839506172839,0,0,0.06172839506172839,73.88888888888889,0)" xlink:href="#O"/><use transform="matrix(0.06172839506172839,0,0,0.06172839506172839,86.23456790123457,0)" xlink:href="#W"/></g><path d="M24-248c93 1 206-16 204 79-1 75-69 88-152 82V0H24v-248zm52 121c47 0 100 7 100-41 0-47-54-39-100-39v80" id="X"/><path d="M195-6C206 82 75 100 31 46c-4-6-6-13-8-21l49-6c3 16 16 24 34 25 40 0 42-37 40-79-11 22-30 35-61 35-53 0-70-43-70-97 0-56 18-96 73-97 30 0 46 14 59 34l2-30h47zm-90-29c32 0 41-27 41-63 0-35-9-62-40-62-32 0-39 29-40 63 0 36 9 62 39 62" id="Y"/><g id="d"><use transform="matrix(0.06172839506172839,0,0,0.06172839506172839,0,0)" xlink:href="#X"/><use transform="matrix(0.06172839506172839,0,0,0.06172839506172839,14.814814814814813,0)" xlink:href="#U"/><use transform="matrix(0.06172839506172839,0,0,0.06172839506172839,27.160493827160494,0)" xlink:href="#Y"/><use transform="matrix(0.06172839506172839,0,0,0.06172839506172839,40.67901234567901,0)" xlink:href="#R"/></g><path d="M190-63c-7 42-38 67-86 67-59 0-84-38-90-98-12-110 154-137 174-36l-49 2c-2-19-15-32-35-32-30 0-35 28-38 64-6 74 65 87 74 30" id="Z"/><path d="M84 4C32 4 15-41 15-95c0-55 18-99 73-99 29 0 47 12 58 34l2-30h48l-1 265h-49V-32C136-9 114 4 84 4zm21-34c32 0 41-29 41-66 0-36-9-64-40-64-33 0-39 30-40 65 0 43 13 65 39 65" id="aa"/><path d="M135-150c-39-12-60 13-60 57V0H25l-1-190h47c2 13-1 29 3 40 6-28 27-53 61-41v41" id="ab"/><path d="M14-72v-43h91v43H14" id="ac"/><path d="M220-157c-53 9-28 100-34 157h-49v-107c1-27-5-49-29-50C55-147 81-57 75 0H25l-1-190h47c2 12-1 28 3 38 10-53 101-56 108 0 13-22 24-43 59-42 82 1 51 116 57 194h-49v-107c-1-25-5-48-29-50" id="ad"/><path d="M88-194c31-1 46 15 58 34l-1-101h50l1 261h-48c-2-10 0-23-3-31C134-8 116 4 84 4 32 4 16-41 15-95c0-56 19-97 73-99zm17 164c33 0 40-30 41-66 1-37-9-64-41-64s-38 30-39 65c0 43 13 65 39 65" id="ae"/><g id="e"><use transform="matrix(0.055555555555555546,0,0,0.055555555555555546,0,0)" xlink:href="#Z"/><use transform="matrix(0.055555555555555546,0,0,0.055555555555555546,11.111111111111109,0)" xlink:href="#aa"/><use transform="matrix(0.055555555555555546,0,0,0.055555555555555546,23.27777777777777,0)" xlink:href="#ab"/><use transform="matrix(0.055555555555555546,0,0,0.055555555555555546,31.05555555555555,0)" xlink:href="#O"/><use transform="matrix(0.055555555555555546,0,0,0.055555555555555546,42.16666666666666,0)" xlink:href="#ac"/><use transform="matrix(0.055555555555555546,0,0,0.055555555555555546,48.777777777777764,0)" xlink:href="#Z"/><use transform="matrix(0.055555555555555546,0,0,0.055555555555555546,59.888888888888864,0)" xlink:href="#R"/><use transform="matrix(0.055555555555555546,0,0,0.055555555555555546,72.05555555555554,0)" xlink:href="#ad"/><use transform="matrix(0.055555555555555546,0,0,0.055555555555555546,89.83333333333331,0)" xlink:href="#ad"/><use transform="matrix(0.055555555555555546,0,0,0.055555555555555546,107.61111111111109,0)" xlink:href="#U"/><use transform="matrix(0.055555555555555546,0,0,0.055555555555555546,118.7222222222222,0)" xlink:href="#S"/><use transform="matrix(0.055555555555555546,0,0,0.055555555555555546,130.88888888888886,0)" xlink:href="#ae"/></g><path fill="#3a414a" d="M199 0l-22-63H83L61 0H9l90-248h61L250 0h-51zm-33-102l-36-108c-10 38-24 72-36 108h72" id="af"/><path fill="#3a414a" d="M135-194c53 0 70 44 70 98 0 56-19 98-73 100-31 1-45-17-59-34 3 33 2 69 2 105H25l-1-265h48c2 10 0 23 3 31 11-24 29-35 60-35zM114-30c33 0 39-31 40-66 0-38-9-64-40-64-56 0-55 130 0 130" id="ag"/><path fill="#3a414a" d="M25 0v-261h50V0H25" id="ah"/><path fill="#3a414a" d="M25-224v-37h50v37H25zM25 0v-190h50V0H25" id="ai"/><path fill="#3a414a" d="M190-63c-7 42-38 67-86 67-59 0-84-38-90-98-12-110 154-137 174-36l-49 2c-2-19-15-32-35-32-30 0-35 28-38 64-6 74 65 87 74 30" id="aj"/><path fill="#3a414a" d="M133-34C117-15 103 5 69 4 32 3 11-16 11-54c-1-60 55-63 116-61 1-26-3-47-28-47-18 1-26 9-28 27l-52-2c7-38 36-58 82-57s74 22 75 68l1 82c-1 14 12 18 25 15v27c-30 8-71 5-69-32zm-48 3c29 0 43-24 42-57-32 0-66-3-65 30 0 17 8 27 23 27" id="ak"/><path fill="#3a414a" d="M115-3C79 11 28 4 28-45v-112H4v-33h27l15-45h31v45h36v33H77v99c-1 23 16 31 38 25v30" id="al"/><path fill="#3a414a" d="M110-194c64 0 96 36 96 99 0 64-35 99-97 99-61 0-95-36-95-99 0-62 34-99 96-99zm-1 164c35 0 45-28 45-65 0-40-10-65-43-65-34 0-45 26-45 65 0 36 10 65 43 65" id="am"/><path fill="#3a414a" d="M135-194c87-1 58 113 63 194h-50c-7-57 23-157-34-157-59 0-34 97-39 157H25l-1-190h47c2 12-1 28 3 38 12-26 28-41 61-42" id="an"/><g id="f"><use transform="matrix(0.06172839506172839,0,0,0.06172839506172839,0,0)" xlink:href="#af"/><use transform="matrix(0.06172839506172839,0,0,0.06172839506172839,15.987654320987653,0)" xlink:href="#ag"/><use transform="matrix(0.06172839506172839,0,0,0.06172839506172839,29.50617283950617,0)" xlink:href="#ag"/><use transform="matrix(0.06172839506172839,0,0,0.06172839506172839,43.02469135802469,0)" xlink:href="#ah"/><use transform="matrix(0.06172839506172839,0,0,0.06172839506172839,49.19753086419753,0)" xlink:href="#ai"/><use transform="matrix(0.06172839506172839,0,0,0.06172839506172839,55.370370370370374,0)" xlink:href="#aj"/><use transform="matrix(0.06172839506172839,0,0,0.06172839506172839,67.71604938271605,0)" xlink:href="#ak"/><use transform="matrix(0.06172839506172839,0,0,0.06172839506172839,80.06172839506173,0)" xlink:href="#al"/><use transform="matrix(0.06172839506172839,0,0,0.06172839506172839,87.40740740740742,0)" xlink:href="#ai"/><use transform="matrix(0.06172839506172839,0,0,0.06172839506172839,93.58024691358025,0)" xlink:href="#am"/><use transform="matrix(0.06172839506172839,0,0,0.06172839506172839,107.09876543209877,0)" xlink:href="#an"/></g><path d="M67-125c0 53 21 87 73 88 37 1 54-22 65-47l45 17C233-25 199 4 140 4 58 4 20-42 15-125 8-235 124-281 211-232c18 10 29 29 36 50l-46 12c-8-25-30-41-62-41-52 0-71 34-72 86" id="ao"/><path d="M85 4C-2 5 27-109 22-190h50c7 57-23 150 33 157 60-5 35-97 40-157h50l1 190h-47c-2-12 1-28-3-38-12 25-28 42-61 42" id="ap"/><path d="M25 0v-261h50V0H25" id="aq"/><g id="g"><use transform="matrix(0.06172839506172839,0,0,0.06172839506172839,0,0)" xlink:href="#ao"/><use transform="matrix(0.06172839506172839,0,0,0.06172839506172839,15.987654320987653,0)" xlink:href="#R"/><use transform="matrix(0.06172839506172839,0,0,0.06172839506172839,29.50617283950617,0)" xlink:href="#S"/><use transform="matrix(0.06172839506172839,0,0,0.06172839506172839,43.02469135802469,0)" xlink:href="#O"/><use transform="matrix(0.06172839506172839,0,0,0.06172839506172839,55.37037037037037,0)" xlink:href="#ap"/><use transform="matrix(0.06172839506172839,0,0,0.06172839506172839,68.88888888888889,0)" xlink:href="#aq"/><use transform="matrix(0.06172839506172839,0,0,0.06172839506172839,75.06172839506172,0)" xlink:href="#V"/><use transform="matrix(0.06172839506172839,0,0,0.06172839506172839,82.4074074074074,0)" xlink:href="#U"/></g><path d="M175 0L67-191c6 58 2 128 3 191H24v-248h59L193-55c-6-58-2-129-3-193h46V0h-61" id="ar"/><path d="M169-182c-1-43-94-46-97-3 18 66 151 10 154 114 3 95-165 93-204 36-6-8-10-19-12-30l50-8c3 46 112 56 116 5-17-69-150-10-154-114-4-87 153-88 188-35 5 8 8 18 10 28" id="as"/><path d="M140-251c80 0 125 45 125 126 0 70-33 111-92 124 6 28 34 38 68 31l-1 36C177 83 129 55 120 2 51-6 15-50 15-125c0-81 44-126 125-126zm-1 214c52 0 73-35 73-88 0-50-21-86-72-86-52 0-73 35-73 86s22 88 72 88" id="at"/><path d="M24 0v-248h52v208h133V0H24" id="au"/><g id="h"><use transform="matrix(0.06172839506172839,0,0,0.06172839506172839,0,0)" xlink:href="#ar"/><use transform="matrix(0.06172839506172839,0,0,0.06172839506172839,15.987654320987653,0)" xlink:href="#R"/><use transform="matrix(0.06172839506172839,0,0,0.06172839506172839,29.50617283950617,0)" xlink:href="#as"/><use transform="matrix(0.06172839506172839,0,0,0.06172839506172839,44.32098765432099,0)" xlink:href="#at"/><use transform="matrix(0.06172839506172839,0,0,0.06172839506172839,61.60493827160494,0)" xlink:href="#au"/><use transform="matrix(0.06172839506172839,0,0,0.06172839506172839,75.12345679012346,0)" xlink:href="#ac"/><use transform="matrix(0.06172839506172839,0,0,0.06172839506172839,82.46913580246914,0)" xlink:href="#ao"/><use transform="matrix(0.06172839506172839,0,0,0.06172839506172839,98.4567901234568,0)" xlink:href="#U"/><use transform="matrix(0.06172839506172839,0,0,0.06172839506172839,110.80246913580248,0)" xlink:href="#ab"/><use transform="matrix(0.06172839506172839,0,0,0.06172839506172839,119.44444444444446,0)" xlink:href="#Y"/><use transform="matrix(0.06172839506172839,0,0,0.06172839506172839,132.96296296296296,0)" xlink:href="#R"/></g><g id="i"><use transform="matrix(0.055555555555555546,0,0,0.055555555555555546,0,0)" xlink:href="#N"/><use transform="matrix(0.055555555555555546,0,0,0.055555555555555546,16.611111111111107,0)" xlink:href="#O"/></g><path d="M135-194c53 0 70 44 70 98 0 56-19 98-73 100-31 1-45-17-59-34 3 33 2 69 2 105H25l-1-265h48c2 10 0 23 3 31 11-24 29-35 60-35zM114-30c33 0 39-31 40-66 0-38-9-64-40-64-56 0-55 130 0 130" id="av"/><g id="j"><use transform="matrix(0.055555555555555546,0,0,0.055555555555555546,0,0)" xlink:href="#P"/><use transform="matrix(0.055555555555555546,0,0,0.055555555555555546,14.388888888888886,0)" xlink:href="#ae"/><use transform="matrix(0.055555555555555546,0,0,0.055555555555555546,26.55555555555555,0)" xlink:href="#U"/><use transform="matrix(0.055555555555555546,0,0,0.055555555555555546,37.66666666666666,0)" xlink:href="#av"/><use transform="matrix(0.055555555555555546,0,0,0.055555555555555546,49.83333333333332,0)" xlink:href="#V"/><use transform="matrix(0.055555555555555546,0,0,0.055555555555555546,56.44444444444443,0)" xlink:href="#W"/><use transform="matrix(0.055555555555555546,0,0,0.055555555555555546,67.55555555555554,0)" xlink:href="#ab"/></g><g id="k"><use transform="matrix(0.055555555555555546,0,0,0.055555555555555546,0,0)" xlink:href="#ar"/><use transform="matrix(0.055555555555555546,0,0,0.055555555555555546,14.388888888888886,0)" xlink:href="#R"/><use transform="matrix(0.055555555555555546,0,0,0.055555555555555546,26.55555555555555,0)" xlink:href="#as"/><use transform="matrix(0.055555555555555546,0,0,0.055555555555555546,39.88888888888888,0)" xlink:href="#at"/><use transform="matrix(0.055555555555555546,0,0,0.055555555555555546,55.44444444444443,0)" xlink:href="#au"/><use transform="matrix(0.055555555555555546,0,0,0.055555555555555546,67.61111111111109,0)" xlink:href="#ac"/><use transform="matrix(0.055555555555555546,0,0,0.055555555555555546,74.2222222222222,0)" xlink:href="#P"/><use transform="matrix(0.055555555555555546,0,0,0.055555555555555546,88.61111111111109,0)" xlink:href="#Q"/><use transform="matrix(0.055555555555555546,0,0,0.055555555555555546,100.77777777777774,0)" xlink:href="#R"/><use transform="matrix(0.055555555555555546,0,0,0.055555555555555546,112.9444444444444,0)" xlink:href="#S"/><use transform="matrix(0.055555555555555546,0,0,0.055555555555555546,125.11111111111106,0)" xlink:href="#R"/></g><path d="M205 0l-28-72H64L36 0H1l101-248h38L239 0h-34zm-38-99l-47-123c-12 45-31 82-46 123h93" id="aw"/><path d="M115-194c55 1 70 41 70 98S169 2 115 4C84 4 66-9 55-30l1 105H24l-1-265h31l2 30c10-21 28-34 59-34zm-8 174c40 0 45-34 45-75s-6-73-45-74c-42 0-51 32-51 76 0 43 10 73 51 73" id="ax"/><path d="M24 0v-261h32V0H24" id="ay"/><path d="M24-231v-30h32v30H24zM24 0v-190h32V0H24" id="az"/><path d="M96-169c-40 0-48 33-48 73s9 75 48 75c24 0 41-14 43-38l32 2c-6 37-31 61-74 61-59 0-76-41-82-99-10-93 101-131 147-64 4 7 5 14 7 22l-32 3c-4-21-16-35-41-35" id="aA"/><path d="M141-36C126-15 110 5 73 4 37 3 15-17 15-53c-1-64 63-63 125-63 3-35-9-54-41-54-24 1-41 7-42 31l-33-3c5-37 33-52 76-52 45 0 72 20 72 64v82c-1 20 7 32 28 27v20c-31 9-61-2-59-35zM48-53c0 20 12 33 32 33 41-3 63-29 60-74-43 2-92-5-92 41" id="aB"/><path d="M59-47c-2 24 18 29 38 22v24C64 9 27 4 27-40v-127H5v-23h24l9-43h21v43h35v23H59v120" id="aC"/><path d="M100-194c62-1 85 37 85 99 1 63-27 99-86 99S16-35 15-95c0-66 28-99 85-99zM99-20c44 1 53-31 53-75 0-43-8-75-51-75s-53 32-53 75 10 74 51 75" id="aD"/><path d="M117-194c89-4 53 116 60 194h-32v-121c0-31-8-49-39-48C34-167 62-67 57 0H25l-1-190h30c1 10-1 24 2 32 11-22 29-35 61-36" id="aE"/><g id="l"><use transform="matrix(0.0685185185185185,0,0,0.0685185185185185,0,0)" xlink:href="#aw"/><use transform="matrix(0.0685185185185185,0,0,0.0685185185185185,16.444444444444443,0)" xlink:href="#ax"/><use transform="matrix(0.0685185185185185,0,0,0.0685185185185185,30.148148148148145,0)" xlink:href="#ax"/><use transform="matrix(0.0685185185185185,0,0,0.0685185185185185,43.85185185185185,0)" xlink:href="#ay"/><use transform="matrix(0.0685185185185185,0,0,0.0685185185185185,49.26481481481481,0)" xlink:href="#az"/><use transform="matrix(0.0685185185185185,0,0,0.0685185185185185,54.67777777777778,0)" xlink:href="#aA"/><use transform="matrix(0.0685185185185185,0,0,0.0685185185185185,67.0111111111111,0)" xlink:href="#aB"/><use transform="matrix(0.0685185185185185,0,0,0.0685185185185185,80.7148148148148,0)" xlink:href="#aC"/><use transform="matrix(0.0685185185185185,0,0,0.0685185185185185,87.56666666666665,0)" xlink:href="#az"/><use transform="matrix(0.0685185185185185,0,0,0.0685185185185185,92.97962962962961,0)" xlink:href="#aD"/><use transform="matrix(0.0685185185185185,0,0,0.0685185185185185,106.68333333333331,0)" xlink:href="#aE"/></g><path d="M143 4C61 4 22-44 18-125c-5-107 100-154 193-111 17 8 29 25 37 43l-32 9c-13-25-37-40-76-40-61 0-88 39-88 99 0 61 29 100 91 101 35 0 62-11 79-27v-45h-74v-28h105v86C228-13 192 4 143 4" id="aF"/><path d="M100-194c63 0 86 42 84 106H49c0 40 14 67 53 68 26 1 43-12 49-29l28 8c-11 28-37 45-77 45C44 4 14-33 15-96c1-61 26-98 85-98zm52 81c6-60-76-77-97-28-3 7-6 17-6 28h103" id="aG"/><path d="M206 0h-36l-40-164L89 0H53L-1-190h32L70-26l43-164h34l41 164 42-164h31" id="aH"/><path d="M179-190L93 31C79 59 56 82 12 73V49c39 6 53-20 64-50L1-190h34L92-34l54-156h33" id="aI"/><g id="m"><use transform="matrix(0.0685185185185185,0,0,0.0685185185185185,0,0)" xlink:href="#aF"/><use transform="matrix(0.0685185185185185,0,0,0.0685185185185185,19.185185185185183,0)" xlink:href="#aB"/><use transform="matrix(0.0685185185185185,0,0,0.0685185185185185,32.888888888888886,0)" xlink:href="#aC"/><use transform="matrix(0.0685185185185185,0,0,0.0685185185185185,39.74074074074073,0)" xlink:href="#aG"/><use transform="matrix(0.0685185185185185,0,0,0.0685185185185185,53.444444444444436,0)" xlink:href="#aH"/><use transform="matrix(0.0685185185185185,0,0,0.0685185185185185,71.19074074074072,0)" xlink:href="#aB"/><use transform="matrix(0.0685185185185185,0,0,0.0685185185185185,84.89444444444442,0)" xlink:href="#aI"/></g><linearGradient gradientUnits="userSpaceOnUse" id="n" x1="782.61" y1="640.59" x2="782.61" y2="615.45"><stop offset="0%" stop-color="#773adc"/><stop offset="100%" stop-color="#a67af4"/></linearGradient><linearGradient gradientUnits="userSpaceOnUse" id="o" x1="779.45" y1="714.18" x2="783.13" y2="607.64"><stop offset="0%" stop-color="#5e9624"/><stop offset="100%" stop-color="#76bc2d"/></linearGradient><linearGradient gradientUnits="userSpaceOnUse" id="p" x1="779.37" y1="767.16" x2="783.05" y2="611.19"><stop offset="0%" stop-color="#5e9624"/><stop offset="100%" stop-color="#76bc2d"/></linearGradient><linearGradient gradientUnits="userSpaceOnUse" id="q" x1="781.94" y1="658.15" x2="785.63" y2="501.47"><stop offset="0%" stop-color="#5e9624"/><stop offset="100%" stop-color="#76bc2d"/></linearGradient><linearGradient gradientUnits="userSpaceOnUse" id="r" x1="781.75" y1="654.68" x2="785.44" y2="548.01"><stop offset="0%" stop-color="#5e9624"/><stop offset="100%" stop-color="#76bc2d"/></linearGradient><g id="s"><use transform="matrix(0.06172839506172839,0,0,0.06172839506172839,0,0)" xlink:href="#ao"/><use transform="matrix(0.06172839506172839,0,0,0.06172839506172839,15.987654320987653,0)" xlink:href="#U"/><use transform="matrix(0.06172839506172839,0,0,0.06172839506172839,28.333333333333332,0)" xlink:href="#ab"/><use transform="matrix(0.06172839506172839,0,0,0.06172839506172839,36.9753086419753,0)" xlink:href="#Y"/><use transform="matrix(0.06172839506172839,0,0,0.06172839506172839,50.49382716049382,0)" xlink:href="#R"/></g><path d="M128 0H69L1-190h53L99-40l48-150h52" id="aJ"/><path d="M25-224v-37h50v37H25zM25 0v-190h50V0H25" id="aK"/><g id="t"><use transform="matrix(0.06172839506172839,0,0,0.06172839506172839,0,0)" xlink:href="#av"/><use transform="matrix(0.06172839506172839,0,0,0.06172839506172839,13.518518518518517,0)" xlink:href="#U"/><use transform="matrix(0.06172839506172839,0,0,0.06172839506172839,25.864197530864196,0)" xlink:href="#Y"/><use transform="matrix(0.06172839506172839,0,0,0.06172839506172839,39.382716049382715,0)" xlink:href="#R"/><use transform="matrix(0.06172839506172839,0,0,0.06172839506172839,52.901234567901234,0)" xlink:href="#ac"/><use transform="matrix(0.06172839506172839,0,0,0.06172839506172839,60.24691358024691,0)" xlink:href="#W"/><use transform="matrix(0.06172839506172839,0,0,0.06172839506172839,72.5925925925926,0)" xlink:href="#aJ"/><use transform="matrix(0.06172839506172839,0,0,0.06172839506172839,84.93827160493828,0)" xlink:href="#W"/><use transform="matrix(0.06172839506172839,0,0,0.06172839506172839,97.28395061728396,0)" xlink:href="#S"/><use transform="matrix(0.06172839506172839,0,0,0.06172839506172839,110.80246913580248,0)" xlink:href="#V"/><use transform="matrix(0.06172839506172839,0,0,0.06172839506172839,118.14814814814817,0)" xlink:href="#O"/><use transform="matrix(0.06172839506172839,0,0,0.06172839506172839,130.49382716049385,0)" xlink:href="#ac"/><use transform="matrix(0.06172839506172839,0,0,0.06172839506172839,137.83950617283952,0)" xlink:href="#ab"/><use transform="matrix(0.06172839506172839,0,0,0.06172839506172839,146.4814814814815,0)" xlink:href="#W"/><use transform="matrix(0.06172839506172839,0,0,0.06172839506172839,158.82716049382717,0)" xlink:href="#av"/><use transform="matrix(0.06172839506172839,0,0,0.06172839506172839,172.34567901234567,0)" xlink:href="#aq"/><use transform="matrix(0.06172839506172839,0,0,0.06172839506172839,178.5185185185185,0)" xlink:href="#aK"/><use transform="matrix(0.06172839506172839,0,0,0.06172839506172839,184.69135802469134,0)" xlink:href="#Z"/><use transform="matrix(0.06172839506172839,0,0,0.06172839506172839,197.037037037037,0)" xlink:href="#U"/><use transform="matrix(0.06172839506172839,0,0,0.06172839506172839,209.38271604938268,0)" xlink:href="#V"/><use transform="matrix(0.06172839506172839,0,0,0.06172839506172839,216.72839506172835,0)" xlink:href="#W"/></g><path d="M140-251c80 0 125 45 125 126S219 4 139 4C58 4 15-44 15-125s44-126 125-126zm-1 214c52 0 73-35 73-88 0-50-21-86-72-86-52 0-73 35-73 86s22 88 72 88" id="aL"/><g id="u"><use transform="matrix(0.0685185185185185,0,0,0.0685185185185185,0,0)" xlink:href="#ao"/><use transform="matrix(0.0685185185185185,0,0,0.0685185185185185,17.746296296296293,0)" xlink:href="#aL"/><use transform="matrix(0.0685185185185185,0,0,0.0685185185185185,36.93148148148148,0)" xlink:href="#N"/><use transform="matrix(0.0685185185185185,0,0,0.0685185185185185,57.41851851851851,0)" xlink:href="#N"/><use transform="matrix(0.0685185185185185,0,0,0.0685185185185185,77.90555555555554,0)" xlink:href="#P"/><use transform="matrix(0.0685185185185185,0,0,0.0685185185185185,95.65185185185183,0)" xlink:href="#ar"/><use transform="matrix(0.0685185185185185,0,0,0.0685185185185185,113.39814814814812,0)" xlink:href="#T"/></g><path d="M238-95c0 69-44 99-111 99C63 4 22-25 22-93v-155h51v151c-1 38 19 59 55 60 90 1 49-130 58-211h52v153" id="aM"/><path d="M24 0v-248h195v40H76v63h132v40H76v65h150V0H24" id="aN"/><path d="M240-174c0 40-23 61-54 70L253 0h-59l-57-94H76V0H24v-248c93 4 217-23 216 74zM76-134c48-2 112 12 112-38 0-48-66-32-112-35v73" id="aO"/><path d="M146-102V0H94v-102L6-248h54l60 105 60-105h54" id="aP"/><g id="v"><use transform="matrix(0.0685185185185185,0,0,0.0685185185185185,0,0)" xlink:href="#at"/><use transform="matrix(0.0685185185185185,0,0,0.0685185185185185,19.185185185185183,0)" xlink:href="#aM"/><use transform="matrix(0.0685185185185185,0,0,0.0685185185185185,36.93148148148148,0)" xlink:href="#aN"/><use transform="matrix(0.0685185185185185,0,0,0.0685185185185185,53.37592592592592,0)" xlink:href="#aO"/><use transform="matrix(0.0685185185185185,0,0,0.0685185185185185,70.23148148148147,0)" xlink:href="#aP"/></g><radialGradient gradientUnits="userSpaceOnUse" id="w" fx="500.6" fy="337.9" cx="500.6" cy="337.9" r="280.6"><stop offset="0%" stop-color="#fff" stop-opacity="0"/><stop offset="20%" stop-color="#fff" stop-opacity="0"/><stop offset="100%" stop-color="#dbdbdb" stop-opacity="0"/></radialGradient><g id="x"><use transform="matrix(0.09938271604938267,0,0,0.09938271604938267,0,0)" xlink:href="#ao"/><use transform="matrix(0.09938271604938267,0,0,0.09938271604938267,25.740123456790112,0)" xlink:href="#at"/><use transform="matrix(0.09938271604938267,0,0,0.09938271604938267,53.56728395061726,0)" xlink:href="#aO"/><use transform="matrix(0.09938271604938267,0,0,0.09938271604938267,79.30740740740737,0)" xlink:href="#as"/></g><use transform="matrix(0.09938271604938267,0,0,0.09938271604938267,0,0)" xlink:href="#ac" id="y"/><g id="z"><use transform="matrix(0.09938271604938267,0,0,0.09938271604938267,0,0)" xlink:href="#ao"/><use transform="matrix(0.09938271604938267,0,0,0.09938271604938267,25.740123456790112,0)" xlink:href="#R"/><use transform="matrix(0.09938271604938267,0,0,0.09938271604938267,47.504938271604914,0)" xlink:href="#ad"/><use transform="matrix(0.09938271604938267,0,0,0.09938271604938267,79.30740740740737,0)" xlink:href="#ad"/><use transform="matrix(0.09938271604938267,0,0,0.09938271604938267,111.10987654320984,0)" xlink:href="#U"/><use transform="matrix(0.09938271604938267,0,0,0.09938271604938267,130.98641975308635,0)" xlink:href="#S"/><use transform="matrix(0.09938271604938267,0,0,0.09938271604938267,152.75123456790115,0)" xlink:href="#ae"/></g><path d="M123 10C108 53 80 86 19 72V37c35 8 53-11 59-39L3-190h52l48 148c12-52 28-100 44-148h51" id="aQ"/><g id="A"><use transform="matrix(0.09938271604938267,0,0,0.09938271604938267,0,0)" xlink:href="#at"/><use transform="matrix(0.09938271604938267,0,0,0.09938271604938267,27.827160493827147,0)" xlink:href="#ap"/><use transform="matrix(0.09938271604938267,0,0,0.09938271604938267,49.59197530864195,0)" xlink:href="#W"/><use transform="matrix(0.09938271604938267,0,0,0.09938271604938267,69.46851851851848,0)" xlink:href="#ab"/><use transform="matrix(0.09938271604938267,0,0,0.09938271604938267,83.38209876543205,0)" xlink:href="#aQ"/></g><g id="B"><use transform="matrix(0.09938271604938267,0,0,0.09938271604938267,0,0)" xlink:href="#aO"/><use transform="matrix(0.09938271604938267,0,0,0.09938271604938267,25.740123456790112,0)" xlink:href="#W"/><use transform="matrix(0.09938271604938267,0,0,0.09938271604938267,45.616666666666646,0)" xlink:href="#O"/><use transform="matrix(0.09938271604938267,0,0,0.09938271604938267,65.49320987654318,0)" xlink:href="#av"/><use transform="matrix(0.09938271604938267,0,0,0.09938271604938267,87.25802469135797,0)" xlink:href="#R"/><use transform="matrix(0.09938271604938267,0,0,0.09938271604938267,109.02283950617277,0)" xlink:href="#S"/><use transform="matrix(0.09938271604938267,0,0,0.09938271604938267,130.78765432098757,0)" xlink:href="#O"/><use transform="matrix(0.09938271604938267,0,0,0.09938271604938267,150.6641975308641,0)" xlink:href="#U"/><use transform="matrix(0.09938271604938267,0,0,0.09938271604938267,170.54074074074063,0)" xlink:href="#Q"/><use transform="matrix(0.09938271604938267,0,0,0.09938271604938267,192.30555555555543,0)" xlink:href="#aK"/><use transform="matrix(0.09938271604938267,0,0,0.09938271604938267,202.2438271604937,0)" xlink:href="#aq"/><use transform="matrix(0.09938271604938267,0,0,0.09938271604938267,212.18209876543202,0)" xlink:href="#aK"/><use transform="matrix(0.09938271604938267,0,0,0.09938271604938267,222.12037037037027,0)" xlink:href="#V"/><use transform="matrix(0.09938271604938267,0,0,0.09938271604938267,233.94691358024681,0)" xlink:href="#aQ"/></g><g id="C"><use transform="matrix(0.09938271604938267,0,0,0.09938271604938267,0,0)" xlink:href="#as"/><use transform="matrix(0.09938271604938267,0,0,0.09938271604938267,23.85185185185184,0)" xlink:href="#W"/><use transform="matrix(0.09938271604938267,0,0,0.09938271604938267,43.72839506172838,0)" xlink:href="#Y"/><use transform="matrix(0.09938271604938267,0,0,0.09938271604938267,65.49320987654318,0)" xlink:href="#ab"/><use transform="matrix(0.09938271604938267,0,0,0.09938271604938267,79.40679012345674,0)" xlink:href="#W"/><use transform="matrix(0.09938271604938267,0,0,0.09938271604938267,99.28333333333327,0)" xlink:href="#Y"/><use transform="matrix(0.09938271604938267,0,0,0.09938271604938267,121.04814814814807,0)" xlink:href="#U"/><use transform="matrix(0.09938271604938267,0,0,0.09938271604938267,140.9246913580246,0)" xlink:href="#V"/><use transform="matrix(0.09938271604938267,0,0,0.09938271604938267,152.75123456790115,0)" xlink:href="#aK"/><use transform="matrix(0.09938271604938267,0,0,0.09938271604938267,162.68950617283943,0)" xlink:href="#R"/><use transform="matrix(0.09938271604938267,0,0,0.09938271604938267,184.45432098765423,0)" xlink:href="#S"/></g><g id="D"><use transform="matrix(0.06172839506172839,0,0,0.06172839506172839,0,0)" xlink:href="#ar"/><use transform="matrix(0.06172839506172839,0,0,0.06172839506172839,15.987654320987653,0)" xlink:href="#R"/><use transform="matrix(0.06172839506172839,0,0,0.06172839506172839,29.50617283950617,0)" xlink:href="#as"/><use transform="matrix(0.06172839506172839,0,0,0.06172839506172839,44.32098765432099,0)" xlink:href="#at"/><use transform="matrix(0.06172839506172839,0,0,0.06172839506172839,61.60493827160494,0)" xlink:href="#au"/><use transform="matrix(0.06172839506172839,0,0,0.06172839506172839,75.12345679012346,0)" xlink:href="#ac"/><use transform="matrix(0.06172839506172839,0,0,0.06172839506172839,82.46913580246914,0)" xlink:href="#P"/><use transform="matrix(0.06172839506172839,0,0,0.06172839506172839,98.4567901234568,0)" xlink:href="#Q"/><use transform="matrix(0.06172839506172839,0,0,0.06172839506172839,111.97530864197532,0)" xlink:href="#R"/><use transform="matrix(0.06172839506172839,0,0,0.06172839506172839,125.49382716049384,0)" xlink:href="#S"/><use transform="matrix(0.06172839506172839,0,0,0.06172839506172839,139.01234567901236,0)" xlink:href="#R"/></g><g id="E"><use transform="matrix(0.06172839506172839,0,0,0.06172839506172839,0,0)" xlink:href="#N"/><use transform="matrix(0.06172839506172839,0,0,0.06172839506172839,18.456790123456788,0)" xlink:href="#O"/></g><g id="F"><use transform="matrix(0.06172839506172839,0,0,0.06172839506172839,0,0)" xlink:href="#ao"/><use transform="matrix(0.06172839506172839,0,0,0.06172839506172839,15.987654320987653,0)" xlink:href="#R"/><use transform="matrix(0.06172839506172839,0,0,0.06172839506172839,29.50617283950617,0)" xlink:href="#S"/><use transform="matrix(0.06172839506172839,0,0,0.06172839506172839,43.02469135802469,0)" xlink:href="#O"/><use transform="matrix(0.06172839506172839,0,0,0.06172839506172839,55.37037037037037,0)" xlink:href="#ap"/><use transform="matrix(0.06172839506172839,0,0,0.06172839506172839,68.88888888888889,0)" xlink:href="#aq"/><use transform="matrix(0.06172839506172839,0,0,0.06172839506172839,75.06172839506172,0)" xlink:href="#V"/><use transform="matrix(0.06172839506172839,0,0,0.06172839506172839,82.4074074074074,0)" xlink:href="#U"/></g><g id="G"><use transform="matrix(0.055555555555555546,0,0,0.055555555555555546,0,0)" xlink:href="#N"/><use transform="matrix(0.055555555555555546,0,0,0.055555555555555546,16.611111111111107,0)" xlink:href="#O"/></g><g id="H"><use transform="matrix(0.055555555555555546,0,0,0.055555555555555546,0,0)" xlink:href="#P"/><use transform="matrix(0.055555555555555546,0,0,0.055555555555555546,14.388888888888886,0)" xlink:href="#ae"/><use transform="matrix(0.055555555555555546,0,0,0.055555555555555546,26.55555555555555,0)" xlink:href="#U"/><use transform="matrix(0.055555555555555546,0,0,0.055555555555555546,37.66666666666666,0)" xlink:href="#av"/><use transform="matrix(0.055555555555555546,0,0,0.055555555555555546,49.83333333333332,0)" xlink:href="#V"/><use transform="matrix(0.055555555555555546,0,0,0.055555555555555546,56.44444444444443,0)" xlink:href="#W"/><use transform="matrix(0.055555555555555546,0,0,0.055555555555555546,67.55555555555554,0)" xlink:href="#ab"/></g><g id="I"><use transform="matrix(0.055555555555555546,0,0,0.055555555555555546,0,0)" xlink:href="#ar"/><use transform="matrix(0.055555555555555546,0,0,0.055555555555555546,14.388888888888886,0)" xlink:href="#R"/><use transform="matrix(0.055555555555555546,0,0,0.055555555555555546,26.55555555555555,0)" xlink:href="#as"/><use transform="matrix(0.055555555555555546,0,0,0.055555555555555546,39.88888888888888,0)" xlink:href="#at"/><use transform="matrix(0.055555555555555546,0,0,0.055555555555555546,55.44444444444443,0)" xlink:href="#au"/><use transform="matrix(0.055555555555555546,0,0,0.055555555555555546,67.61111111111109,0)" xlink:href="#ac"/><use transform="matrix(0.055555555555555546,0,0,0.055555555555555546,74.2222222222222,0)" xlink:href="#ao"/><use transform="matrix(0.055555555555555546,0,0,0.055555555555555546,88.61111111111109,0)" xlink:href="#U"/><use transform="matrix(0.055555555555555546,0,0,0.055555555555555546,99.7222222222222,0)" xlink:href="#ab"/><use transform="matrix(0.055555555555555546,0,0,0.055555555555555546,107.49999999999997,0)" xlink:href="#Y"/><use transform="matrix(0.055555555555555546,0,0,0.055555555555555546,119.66666666666661,0)" xlink:href="#R"/></g><path d="M24 0v-248h52V0H24" id="aR"/><path d="M136-208V0H84v-208H4v-40h212v40h-80" id="aS"/><g id="J"><use transform="matrix(0.0685185185185185,0,0,0.0685185185185185,0,0)" xlink:href="#aO"/><use transform="matrix(0.0685185185185185,0,0,0.0685185185185185,17.746296296296293,0)" xlink:href="#aN"/><use transform="matrix(0.0685185185185185,0,0,0.0685185185185185,34.190740740740736,0)" xlink:href="#X"/><use transform="matrix(0.0685185185185185,0,0,0.0685185185185185,50.63518518518518,0)" xlink:href="#au"/><use transform="matrix(0.0685185185185185,0,0,0.0685185185185185,65.64074074074074,0)" xlink:href="#aR"/><use transform="matrix(0.0685185185185185,0,0,0.0685185185185185,72.49259259259259,0)" xlink:href="#ao"/><use transform="matrix(0.0685185185185185,0,0,0.0685185185185185,90.23888888888887,0)" xlink:href="#P"/><use transform="matrix(0.0685185185185185,0,0,0.0685185185185185,106.13518518518518,0)" xlink:href="#aS"/><use transform="matrix(0.0685185185185185,0,0,0.0685185185185185,121.14074074074074,0)" xlink:href="#aR"/><use transform="matrix(0.0685185185185185,0,0,0.0685185185185185,127.99259259259259,0)" xlink:href="#aL"/><use transform="matrix(0.0685185185185185,0,0,0.0685185185185185,147.17777777777778,0)" xlink:href="#ar"/></g><g id="K"><use transform="matrix(0.0685185185185185,0,0,0.0685185185185185,0,0)" xlink:href="#N"/><use transform="matrix(0.0685185185185185,0,0,0.0685185185185185,20.487037037037034,0)" xlink:href="#as"/></g><use transform="matrix(0.0685185185185185,0,0,0.0685185185185185,0,0)" xlink:href="#ac" id="L"/><g id="M"><use transform="matrix(0.0685185185185185,0,0,0.0685185185185185,0,0)" xlink:href="#aO"/><use transform="matrix(0.0685185185185185,0,0,0.0685185185185185,17.746296296296293,0)" xlink:href="#W"/><use transform="matrix(0.0685185185185185,0,0,0.0685185185185185,31.449999999999996,0)" xlink:href="#U"/><use transform="matrix(0.0685185185185185,0,0,0.0685185185185185,45.1537037037037,0)" xlink:href="#Z"/><use transform="matrix(0.0685185185185185,0,0,0.0685185185185185,58.8574074074074,0)" xlink:href="#V"/><use transform="matrix(0.0685185185185185,0,0,0.0685185185185185,67.0111111111111,0)" xlink:href="#aK"/><use transform="matrix(0.0685185185185185,0,0,0.0685185185185185,73.86296296296295,0)" xlink:href="#aJ"/><use transform="matrix(0.0685185185185185,0,0,0.0685185185185185,87.56666666666665,0)" xlink:href="#W"/></g></defs></g></svg>