<svg xmlns="http://www.w3.org/2000/svg" xmlns:xlink="http://www.w3.org/1999/xlink" xmlns:lucid="lucid" width="1880.5" height="2472.67"><g transform="translate(500.5 -119.5)" lucid:page-tab-id="EqH~R-yRumkU"><path d="M-220 280h440v29.2h-440z" fill="none"/><use xlink:href="#a" transform="matrix(1,0,0,1,-220,280) translate(19.537037037037095 19.444444444444443)"/><path d="M640 166a6 6 0 0 1 6-6h148a6 6 0 0 1 6 6v108a6 6 0 0 1-6 6H646a6 6 0 0 1-6-6z" stroke="#3a414a" fill="#fff"/><use xlink:href="#b" transform="matrix(1,0,0,1,652,172) translate(49.48148148148148 53.77777777777778)"/><path d="M801 220h382.12" stroke="#3a414a" fill="none"/><path d="M801 220.5h-.5v-1h.5z" stroke="#3a414a" stroke-width=".05" fill="#3a414a"/><path d="M1197.88 220l-14.26 4.63v-9.26z" stroke="#3a414a" fill="#3a414a"/><path d="M1320 268c0 6.63-26.86 12-60 12s-60-5.37-60-12v-96c0-6.63 26.86-12 60-12s60 5.37 60 12z" stroke="#3a414a" fill="#fff"/><path d="M1320 172c0 6.63-26.86 12-60 12s-60-5.37-60-12" stroke="#3a414a" fill="none"/><use xlink:href="#c" transform="matrix(1,0,0,1,1205,189) translate(7.5 47.34027777777778)"/><path d="M720.5 373.98l.07.88.2.84.33.8.45.73.56.66.67.55.73.45.8.33.84.2.88.07H990.5v1H725.98l-1-.08-1-.24-.93-.4-.87-.52-.78-.66-.66-.78-.53-.87-.38-.94-.24-.98-.08-1V281h1zm464.12 5.52v1h-160.74v-1z" stroke="#3a414a" stroke-width=".05" fill="#3a414a"/><path d="M720.5 281h-1v-.5h1z" fill="#3a414a"/><path d="M720.52 281.04h-1.04v-.56h1.04zm-1-.52v.47h.96v-.48z" stroke="#3a414a" stroke-width=".05" fill="#3a414a"/><path d="M1199.38 380l-14.26 4.63v-9.26z" fill="#3a414a"/><path d="M1201 380l-16.38 5.32v-10.64zm-15.38 3.95l12.14-3.95-12.14-3.95z" stroke="#3a414a" stroke-width=".05" fill="#3a414a"/><use xlink:href="#d" transform="matrix(1,0,0,1,990.4979518323079,369.3333333333333) translate(0 14.222222222222223)"/><path d="M1229.18 325.3a10 10 0 0 1 8.82-5.3h84a10 10 0 0 1 8.82 5.3l26.36 49.4a11.25 11.25 0 0 1 0 10.6l-26.36 49.4a10 10 0 0 1-8.82 5.3h-84a10 10 0 0 1-8.82-5.3l-26.36-49.4a11.25 11.25 0 0 1 0-10.6z" stroke="#3a414a" fill="#fff"/><use xlink:href="#e" transform="matrix(1,0,0,1,1205,325) translate(58.3691975308642 59.02777777777778)"/><path d="M240 146a6 6 0 0 1 6-6h188a6 6 0 0 1 6 6v48a6 6 0 0 1-6 6H246a6 6 0 0 1-6-6z" stroke="#000" stroke-opacity="0" fill="#fff" fill-opacity="0"/><use xlink:href="#f" transform="matrix(1,0,0,1,245,145) translate(33.981481481481474 30.27777777777778)"/><path d="M340 200.5v102.62" stroke="#3a414a" fill="none"/><path d="M340.5 200.5h-1v-.5h1z" stroke="#3a414a" stroke-width=".05" fill="#3a414a"/><path d="M340 317.88l-4.63-14.26h9.26z" stroke="#3a414a" fill="#3a414a"/><path d="M260 326a6 6 0 0 1 6-6h148a6 6 0 0 1 6 6v48a6 6 0 0 1-6 6H266a6 6 0 0 1-6-6z" stroke="#3a414a" fill="#fff"/><use xlink:href="#g" transform="matrix(1,0,0,1,265,325) translate(26.265432098765423 30.27777777777778)"/><path d="M340.5 474.48l.07.88.2.84.33.8.45.73.56.66.67.55.73.45.8.33.84.2.88.07h57.34v1h-57.38l-1-.08-1-.24-.93-.4-.87-.52-.78-.66-.66-.78-.53-.87-.38-.94-.24-.98-.08-1V381h1zm940 .04l-.08 1-.24 1-.4.93-.52.87-.66.78-.78.66-.87.53-.94.38-.98.24-1 .08H835.04v-1h438.94l.88-.07.84-.2.8-.33.73-.45.66-.56.55-.67.45-.73.33-.8.2-.84.07-.88v-17.6h1z" stroke="#3a414a" stroke-width=".05" fill="#3a414a"/><path d="M340.5 381h-1v-.5h1z" fill="#3a414a"/><path d="M340.52 381.04h-1.04v-.56h1.04zm-1-.52v.47h.96v-.48z" stroke="#3a414a" stroke-width=".05" fill="#3a414a"/><path d="M1284.63 456.38h-9.27l4.64-14.26z" fill="#3a414a"/><path d="M1285.32 456.88h-10.64l5.32-16.38zm-9.27-1h7.9l-3.95-12.14z" stroke="#3a414a" stroke-width=".05" fill="#3a414a"/><use xlink:href="#h" transform="matrix(1,0,0,1,403.3555555555556,470.8999735000001) translate(0 12.8)"/><path d="M-200 140h367.4v36.67H-200z" fill="#fff" fill-opacity="0"/><use xlink:href="#i" transform="matrix(1,0,0,1,-195,145) translate(0.29629629629636156 19.46527777777778)"/><path d="M-340 466a6 6 0 0 1 6-6h148a6 6 0 0 1 6 6v148a6 6 0 0 1-6 6h-148a6 6 0 0 1-6-6z" stroke="#3a414a" fill="#f2f3f5"/><use xlink:href="#j" transform="matrix(1,0,0,1,-335,465) translate(60.833333333333336 78.71527777777777)"/><path d="M-200.5 158.33H-254a6 6 0 0 0-6 6v278.8" stroke="#3a414a" fill="none"/><path d="M-200 158.83h-.5v-1h.5z" stroke="#3a414a" stroke-width=".05" fill="#3a414a"/><path d="M-260 457.88l-4.63-14.26h9.26z" stroke="#3a414a" fill="#3a414a"/><path d="M-153.02 213.73H0v29.2h-153.02z" fill="#333"/><use xlink:href="#k" transform="matrix(1,0,0,1,-148.0222222222222,218.73333333333335) translate(0 12.8)"/><path d="M-16.3 177.17v12.03a6 6 0 0 1-6 6h-64.87a2.15 2.15 0 0 0-2.15 2.15" stroke="#3a414a" fill="none"/><path d="M-15.8 177.18h-1v-.5h1z" stroke="#3a414a" stroke-width=".05" fill="#3a414a"/><path d="M-89.32 212.12l-4.63-14.27h9.27z" stroke="#3a414a" fill="#3a414a"/><path d="M-76.5 243.43v12.04a6 6 0 0 1-6 6h-31.75a2.15 2.15 0 0 0-2.15 2.15" stroke="#3a414a" fill="none"/><path d="M-76 243.45h-1v-.52h1z" stroke="#3a414a" stroke-width=".05" fill="#3a414a"/><path d="M-116.4 278.38l-4.63-14.26h9.27z" stroke="#3a414a" fill="#3a414a"/><path d="M-220 286a6 6 0 0 1 6-6h448a6 6 0 0 1 6 6v28a6 6 0 0 1-6 6h-448a6 6 0 0 1-6-6z" stroke="#3a414a" fill-opacity="0"/><path d="M10.5 553.98l.07.88.2.84.33.8.45.73.56.66.67.55.73.45.8.33.84.2.88.07h590.56l.88-.07.84-.2.8-.33.73-.45.66-.56.55-.67.45-.73.33-.8.2-.84.07-.88v-27.96l-.07-.88-.2-.84-.33-.8-.45-.73-.56-.66-.67-.55-.73-.45-.8-.33-.84-.2-.88-.07h-68l-1-.08-1-.24-.93-.4-.87-.52-.78-.66-.66-.78-.53-.87-.38-.94-.24-.98-.08-1V490.1h1v23.88l.07.88.2.84.33.8.45.73.56.66.67.55.73.45.8.33.84.2.88.07h68l1 .08 1 .24.93.4.87.52.78.66.66.78.53.87.38.94.24.98.08 1v28.04l-.08 1-.24 1-.4.93-.52.87-.66.78-.78.66-.87.53-.94.38-.98.24-1 .08H15.98l-1-.08-1-.24-.93-.4-.87-.52-.78-.66-.66-.78-.53-.87-.38-.94-.24-.98-.08-1V321h1zm557.12-113.9l1 .24.93.4.87.52.78.66.66.78.53.87.38.94.24.98.08 1v17.64h-1v-17.6l-.07-.88-.2-.84-.33-.8-.45-.73-.56-.66-.67-.55-.73-.45-.8-.33-.84-.2-.88-.07h-27.96l-.88.07-.84.2-.8.33-.73.45-.66.56-.55.67-.45.73-.33.8-.2.84-.07.88v24.38h-1v-24.42l.08-1 .24-1 .4-.93.52-.87.66-.78.78-.66.87-.53.94-.38.98-.24 1-.08h28.04z" stroke="#3a414a" stroke-width=".05" fill="#3a414a"/><path d="M10.5 321h-1v-.5h1z" fill="#3a414a"/><path d="M10.53 321.04H9.47v-.56h1.04zm-1-.52v.47h.95v-.48z" stroke="#3a414a" stroke-width=".05" fill="#3a414a"/><path d="M575.2 470.9H570l-2.03-6.28h9.27z" fill="#3a414a"/><path d="M575.72 470.9h-1.05l1.88-5.78h-7.9l1.88 5.78h-1.05l-2.2-6.78h10.64z" stroke="#3a414a" stroke-width=".05" fill="#3a414a"/><path d="M200 746a6 6 0 0 1 6-6h448a6 6 0 0 1 6 6v28a6 6 0 0 1-6 6H206a6 6 0 0 1-6-6z" stroke="#3a414a" fill="#fff"/><use xlink:href="#l" transform="matrix(1,0,0,1,212,752) translate(193.95679012345678 17.77777777777778)"/><path d="M620 820c22.1 0 40 17.9 40 40s-17.9 40-40 40h-80c-22.1 0-40-17.9-40-40s17.9-40 40-40z" stroke="#3a414a" fill="#fff"/><use xlink:href="#m" transform="matrix(1,0,0,1,505,825) translate(56.48148148148148 39.65277777777778)"/><path d="M620 920c22.1 0 40 17.9 40 40s-17.9 40-40 40h-80c-22.1 0-40-17.9-40-40s17.9-40 40-40z" stroke="#3a414a" fill="#fff"/><use xlink:href="#n" transform="matrix(1,0,0,1,505,925) translate(60.83333333333333 39.65277777777778)"/><path d="M620 1040c22.1 0 40 17.9 40 40s-17.9 40-40 40h-80c-22.1 0-40-17.9-40-40s17.9-40 40-40z" stroke="#3a414a" fill="#fff"/><use xlink:href="#o" transform="matrix(1,0,0,1,505,1045) translate(52.839506172839506 39.65277777777778)"/><path d="M620 1140c22.1 0 40 17.9 40 40s-17.9 40-40 40h-80c-22.1 0-40-17.9-40-40s17.9-40 40-40z" stroke="#3a414a" fill="#fff"/><use xlink:href="#p" transform="matrix(1,0,0,1,505,1145) translate(62.65432098765432 39.65277777777778)"/><path d="M661 860h102.62" stroke="#3a414a" fill="none"/><path d="M661 860.5h-.53l.03-.5-.02-.5h.53z" stroke="#3a414a" stroke-width=".05" fill="#3a414a"/><path d="M778.38 860l-14.26 4.63v-9.26z" stroke="#3a414a" fill="#3a414a"/><path d="M661 960h102.62" stroke="#3a414a" fill="none"/><path d="M661 960.5h-.53l.03-.5-.02-.5h.53z" stroke="#3a414a" stroke-width=".05" fill="#3a414a"/><path d="M778.38 960l-14.26 4.63v-9.26z" stroke="#3a414a" fill="#3a414a"/><path d="M661 1080h142.62" stroke="#3a414a" fill="none"/><path d="M661 1080.5h-.53l.03-.5-.02-.5h.53z" stroke="#3a414a" stroke-width=".05" fill="#3a414a"/><path d="M818.38 1080l-14.26 4.63v-9.27z" stroke="#3a414a" fill="#3a414a"/><path d="M661 1180h142.62" stroke="#3a414a" fill="none"/><path d="M661 1180.5h-.53l.03-.5-.02-.5h.53z" stroke="#3a414a" stroke-width=".05" fill="#3a414a"/><path d="M818.38 1180l-14.26 4.63v-9.27z" stroke="#3a414a" fill="#3a414a"/><path d="M200 800h160v340H200z" stroke="#000" fill="#fff" fill-opacity="0"/><use xlink:href="#q" transform="matrix(1,0,0,1,205,805) translate(41.666666666666664 167.76215277777777)"/><path d="M200 1226a6 6 0 0 1 6-6h288a6 6 0 0 1 6 6v108a6 6 0 0 1-6 6H206a6 6 0 0 1-6-6z" stroke="#3a414a" fill="#fff"/><use xlink:href="#r" transform="matrix(1,0,0,1,212,1232) translate(114.82098765432099 53.77777777777778)"/><path d="M280 1141V1203.12" stroke="#3a414a" fill="none"/><path d="M280.5 1141h-1v-.5h1z" stroke="#3a414a" stroke-width=".05" fill="#3a414a"/><path d="M280 1217.88l-4.63-14.27 9.26.02z" stroke="#3a414a" fill="#3a414a"/><path d="M361 851.47h123.08" stroke="#3a414a" fill="none"/><path d="M361 851.97h-.5v-1h.5z" stroke="#3a414a" stroke-width=".05" fill="#3a414a"/><path d="M498.85 851.47l-14.27 4.63v-9.27z" stroke="#3a414a" fill="#3a414a"/><path d="M361 970h123.44" stroke="#3a414a" fill="none"/><path d="M361 970.5h-.5v-1h.5z" stroke="#3a414a" stroke-width=".05" fill="#3a414a"/><path d="M499.2 970l-14.26 4.63v-9.26z" stroke="#3a414a" fill="#3a414a"/><path d="M361 1072.8h122.83" stroke="#3a414a" fill="none"/><path d="M361 1073.3h-.5v-1h.5z" stroke="#3a414a" stroke-width=".05" fill="#3a414a"/><path d="M498.6 1072.8l-14.27 4.63v-9.27z" stroke="#3a414a" fill="#3a414a"/><path d="M361 1116.8h63a6 6 0 0 1 6 6v51.2a6 6 0 0 0 6 6h47.12" stroke="#3a414a" fill="none"/><path d="M361 1117.3h-.5v-1h.5z" stroke="#3a414a" stroke-width=".05" fill="#3a414a"/><path d="M497.88 1180l-14.26 4.63v-9.27z" stroke="#3a414a" fill="#3a414a"/><path d="M-96.3 2146a6 6 0 0 1 6-6h148a6 6 0 0 1 6 6v108a6 6 0 0 1-6 6h-148a6 6 0 0 1-6-6z" stroke="#3a414a" fill="#fff"/><use xlink:href="#s" transform="matrix(1,0,0,1,-84.29629629629636,2152) translate(43.95679012345679 53.77777777777778)"/><path d="M64.7 2200h61.15a6 6 0 0 0 6-6v-8a6 6 0 0 1 6-6h45.27" stroke="#3a414a" fill="none"/><path d="M64.72 2200.5h-.52v-1h.52z" stroke="#3a414a" stroke-width=".05" fill="#3a414a"/><path d="M197.88 2180l-14.26 4.64v-9.28z" stroke="#3a414a" fill="#3a414a"/><path d="M600 2160c11.05 0 20 8.95 20 20s-8.95 20-20 20H220c-11.05 0-20-8.95-20-20s8.95-20 20-20z" stroke="#3a414a" fill="#fff"/><use xlink:href="#t" transform="matrix(1,0,0,1,205,2165) translate(44.81981481481487 19.65277777777778)"/><path d="M869.18 2105.3a10 10 0 0 1 8.82-5.3h84a10 10 0 0 1 8.82 5.3l26.36 49.4a11.25 11.25 0 0 1 0 10.6l-26.36 49.4a10 10 0 0 1-8.82 5.3h-84a10 10 0 0 1-8.82-5.3l-26.36-49.4a11.25 11.25 0 0 1 0-10.6z" stroke="#3a414a" fill="#fff"/><use xlink:href="#u" transform="matrix(1,0,0,1,845,2105) translate(36.17783950617284 59.02777777777778)"/><use xlink:href="#v" transform="matrix(1,0,0,1,845,2105) translate(84.26425925925926 59.02777777777778)"/><path d="M621 2180h212.72" stroke="#3a414a" fill="none"/><path d="M621 2180.5h-.56l.06-.48-.02-.52h.53z" stroke="#3a414a" stroke-width=".05" fill="#3a414a"/><path d="M848.48 2180l-14.26 4.64v-9.28z" stroke="#3a414a" fill="#3a414a"/><path d="M920 2221v73.5a6 6 0 0 1-6 6H-10.3a6 6 0 0 1-6-6v-17.62" stroke="#3a414a" fill="none"/><path d="M920.5 2221h-1v-.5h1z" stroke="#3a414a" stroke-width=".05" fill="#3a414a"/><path d="M-16.3 2262.12l4.64 14.26h-9.27z" stroke="#3a414a" fill="#3a414a"/><path d="M620 2280c11.05 0 20 8.95 20 20s-8.95 20-20 20H240c-11.05 0-20-8.95-20-20s8.95-20 20-20z" stroke="#3a414a" fill="#fff"/><use xlink:href="#w" transform="matrix(1,0,0,1,225,2285) translate(133.4617901234568 19.65277777777778)"/><path d="M-97.3 2200h-33.5a6 6 0 0 0-6 6v147.5a6 6 0 0 0 6 6H-46a6 6 0 0 1 6 6v17.62" stroke="#3a414a" fill="none"/><path d="M-96.8 2200.5h-.5v-1h.5z" stroke="#3a414a" stroke-width=".05" fill="#3a414a"/><path d="M-40 2397.88l-4.63-14.26h9.27z" stroke="#3a414a" fill="#3a414a"/><path d="M0 2400c22.1 0 40 17.9 40 40s-17.9 40-40 40h-80c-22.1 0-40-17.9-40-40s17.9-40 40-40z" stroke="#3a414a" fill="#fff"/><use xlink:href="#x" transform="matrix(1,0,0,1,-115,2405) translate(-146.4197530864197 39.44444444444444)"/><path d="M-40 2481v9.53a3.64 3.64 0 0 1-3.64 3.64h-3.64" stroke="#3a414a" fill="none"/><path d="M-39.5 2481h-1v-.5h1z" stroke="#3a414a" stroke-width=".05" fill="#3a414a"/><path d="M-49.68 2506.25l-1.77-14.9 9.1 1.8z" stroke="#3a414a" fill="#3a414a"/><path d="M-480 2514.33a6 6 0 0 1 6-6h848a6 6 0 0 1 6 6v51.34a6 6 0 0 1-6 6h-848a6 6 0 0 1-6-6z" stroke="#3a414a" fill-opacity="0"/><use xlink:href="#y" transform="matrix(1,0,0,1,-475,2513.3333333333335) translate(104.25925925925912 21.15277777777778)"/><use xlink:href="#z" transform="matrix(1,0,0,1,-475,2513.3333333333335) translate(348.48765432098764 47.81944444444444)"/><use xlink:href="#A" transform="matrix(1,0,0,1,-475,2513.3333333333335) translate(402.80864197530866 47.81944444444444)"/><defs><path fill="#3a414a" d="M0 4l72-265h28L28 4H0" id="B"/><path fill="#3a414a" d="M210-169c-67 3-38 105-44 169h-31v-121c0-29-5-50-35-48C34-165 62-65 56 0H25l-1-190h30c1 10-1 24 2 32 10-44 99-50 107 0 11-21 27-35 58-36 85-2 47 119 55 194h-31v-121c0-29-5-49-35-48" id="C"/><path fill="#3a414a" d="M135-143c-3-34-86-38-87 0 15 53 115 12 119 90S17 21 10-45l28-5c4 36 97 45 98 0-10-56-113-15-118-90-4-57 82-63 122-42 12 7 21 19 24 35" id="D"/><path fill="#3a414a" d="M141-36C126-15 110 5 73 4 37 3 15-17 15-53c-1-64 63-63 125-63 3-35-9-54-41-54-24 1-41 7-42 31l-33-3c5-37 33-52 76-52 45 0 72 20 72 64v82c-1 20 7 32 28 27v20c-31 9-61-2-59-35zM48-53c0 20 12 33 32 33 41-3 63-29 60-74-43 2-92-5-92 41" id="E"/><path fill="#3a414a" d="M115-194c53 0 69 39 70 98 0 66-23 100-70 100C84 3 66-7 56-30L54 0H23l1-261h32v101c10-23 28-34 59-34zm-8 174c40 0 45-34 45-75 0-40-5-75-45-74-42 0-51 32-51 76 0 43 10 73 51 73" id="F"/><path fill="#3a414a" d="M100-194c62-1 85 37 85 99 1 63-27 99-86 99S16-35 15-95c0-66 28-99 85-99zM99-20c44 1 53-31 53-75 0-43-8-75-51-75s-53 32-53 75 10 74 51 75" id="G"/><path fill="#3a414a" d="M117-194c89-4 53 116 60 194h-32v-121c0-31-8-49-39-48C34-167 62-67 57 0H25l-1-190h30c1 10-1 24 2 32 11-22 29-35 61-36" id="H"/><path fill="#3a414a" d="M115-194c55 1 70 41 70 98S169 2 115 4C84 4 66-9 55-30l1 105H24l-1-265h31l2 30c10-21 28-34 59-34zm-8 174c40 0 45-34 45-75s-6-73-45-74c-42 0-51 32-51 76 0 43 10 73 51 73" id="I"/><path fill="#3a414a" d="M114-163C36-179 61-72 57 0H25l-1-190h30c1 12-1 29 2 39 6-27 23-49 58-41v29" id="J"/><path fill="#3a414a" d="M96-169c-40 0-48 33-48 73s9 75 48 75c24 0 41-14 43-38l32 2c-6 37-31 61-74 61-59 0-76-41-82-99-10-93 101-131 147-64 4 7 5 14 7 22l-32 3c-4-21-16-35-41-35" id="K"/><path fill="#3a414a" d="M100-194c63 0 86 42 84 106H49c0 40 14 67 53 68 26 1 43-12 49-29l28 8c-11 28-37 45-77 45C44 4 14-33 15-96c1-61 26-98 85-98zm52 81c6-60-76-77-97-28-3 7-6 17-6 28h103" id="L"/><path fill="#3a414a" d="M59-47c-2 24 18 29 38 22v24C64 9 27 4 27-40v-127H5v-23h24l9-43h21v43h35v23H59v120" id="M"/><path fill="#3a414a" d="M84 4C-5 8 30-112 23-190h32v120c0 31 7 50 39 49 72-2 45-101 50-169h31l1 190h-30c-1-10 1-25-2-33-11 22-28 36-60 37" id="N"/><path fill="#3a414a" d="M85-194c31 0 48 13 60 33l-1-100h32l1 261h-30c-2-10 0-23-3-31C134-8 116 4 85 4 32 4 16-35 15-94c0-66 23-100 70-100zm9 24c-40 0-46 34-46 75 0 40 6 74 45 74 42 0 51-32 51-76 0-42-9-74-50-73" id="O"/><g id="a"><use transform="matrix(0.06172839506172839,0,0,0.06172839506172839,0,0)" xlink:href="#B"/><use transform="matrix(0.06172839506172839,0,0,0.06172839506172839,6.172839506172839,0)" xlink:href="#C"/><use transform="matrix(0.06172839506172839,0,0,0.06172839506172839,24.629629629629626,0)" xlink:href="#D"/><use transform="matrix(0.06172839506172839,0,0,0.06172839506172839,35.74074074074073,0)" xlink:href="#E"/><use transform="matrix(0.06172839506172839,0,0,0.06172839506172839,48.08641975308641,0)" xlink:href="#F"/><use transform="matrix(0.06172839506172839,0,0,0.06172839506172839,60.43209876543209,0)" xlink:href="#G"/><use transform="matrix(0.06172839506172839,0,0,0.06172839506172839,72.77777777777777,0)" xlink:href="#H"/><use transform="matrix(0.06172839506172839,0,0,0.06172839506172839,85.12345679012346,0)" xlink:href="#G"/><use transform="matrix(0.06172839506172839,0,0,0.06172839506172839,97.46913580246914,0)" xlink:href="#B"/><use transform="matrix(0.06172839506172839,0,0,0.06172839506172839,103.64197530864197,0)" xlink:href="#I"/><use transform="matrix(0.06172839506172839,0,0,0.06172839506172839,115.98765432098766,0)" xlink:href="#J"/><use transform="matrix(0.06172839506172839,0,0,0.06172839506172839,123.33333333333334,0)" xlink:href="#G"/><use transform="matrix(0.06172839506172839,0,0,0.06172839506172839,135.679012345679,0)" xlink:href="#K"/><use transform="matrix(0.06172839506172839,0,0,0.06172839506172839,146.79012345679013,0)" xlink:href="#L"/><use transform="matrix(0.06172839506172839,0,0,0.06172839506172839,159.1358024691358,0)" xlink:href="#D"/><use transform="matrix(0.06172839506172839,0,0,0.06172839506172839,170.2469135802469,0)" xlink:href="#E"/><use transform="matrix(0.06172839506172839,0,0,0.06172839506172839,182.59259259259258,0)" xlink:href="#J"/><use transform="matrix(0.06172839506172839,0,0,0.06172839506172839,189.93827160493825,0)" xlink:href="#B"/><use transform="matrix(0.06172839506172839,0,0,0.06172839506172839,196.1111111111111,0)" xlink:href="#E"/><use transform="matrix(0.06172839506172839,0,0,0.06172839506172839,208.45679012345676,0)" xlink:href="#F"/><use transform="matrix(0.06172839506172839,0,0,0.06172839506172839,220.80246913580243,0)" xlink:href="#G"/><use transform="matrix(0.06172839506172839,0,0,0.06172839506172839,233.1481481481481,0)" xlink:href="#H"/><use transform="matrix(0.06172839506172839,0,0,0.06172839506172839,245.49382716049377,0)" xlink:href="#G"/><use transform="matrix(0.06172839506172839,0,0,0.06172839506172839,257.83950617283944,0)" xlink:href="#B"/><use transform="matrix(0.06172839506172839,0,0,0.06172839506172839,264.0123456790123,0)" xlink:href="#M"/><use transform="matrix(0.06172839506172839,0,0,0.06172839506172839,270.18518518518516,0)" xlink:href="#G"/><use transform="matrix(0.06172839506172839,0,0,0.06172839506172839,282.53086419753083,0)" xlink:href="#B"/><use transform="matrix(0.06172839506172839,0,0,0.06172839506172839,288.7037037037037,0)" xlink:href="#J"/><use transform="matrix(0.06172839506172839,0,0,0.06172839506172839,296.04938271604937,0)" xlink:href="#L"/><use transform="matrix(0.06172839506172839,0,0,0.06172839506172839,308.39506172839504,0)" xlink:href="#K"/><use transform="matrix(0.06172839506172839,0,0,0.06172839506172839,319.5061728395061,0)" xlink:href="#E"/><use transform="matrix(0.06172839506172839,0,0,0.06172839506172839,331.8518518518518,0)" xlink:href="#N"/><use transform="matrix(0.06172839506172839,0,0,0.06172839506172839,344.19753086419746,0)" xlink:href="#O"/><use transform="matrix(0.06172839506172839,0,0,0.06172839506172839,356.54320987654313,0)" xlink:href="#E"/><use transform="matrix(0.06172839506172839,0,0,0.06172839506172839,368.8888888888888,0)" xlink:href="#O"/><use transform="matrix(0.06172839506172839,0,0,0.06172839506172839,381.23456790123447,0)" xlink:href="#G"/><use transform="matrix(0.06172839506172839,0,0,0.06172839506172839,393.58024691358014,0)" xlink:href="#J"/></g><g id="b"><use transform="matrix(0.06172839506172839,0,0,0.06172839506172839,0,0)" xlink:href="#O"/><use transform="matrix(0.06172839506172839,0,0,0.06172839506172839,12.345679012345679,0)" xlink:href="#E"/><use transform="matrix(0.06172839506172839,0,0,0.06172839506172839,24.691358024691358,0)" xlink:href="#G"/></g><path fill="#3a414a" d="M30-248c118-7 216 8 213 122C240-48 200 0 122 0H30v-248zM63-27c89 8 146-16 146-99s-60-101-146-95v194" id="P"/><g id="c"><use transform="matrix(0.06172839506172839,0,0,0.06172839506172839,0,0)" xlink:href="#P"/><use transform="matrix(0.06172839506172839,0,0,0.06172839506172839,15.987654320987653,0)" xlink:href="#E"/><use transform="matrix(0.06172839506172839,0,0,0.06172839506172839,28.333333333333332,0)" xlink:href="#M"/><use transform="matrix(0.06172839506172839,0,0,0.06172839506172839,34.50617283950617,0)" xlink:href="#E"/><use transform="matrix(0.06172839506172839,0,0,0.06172839506172839,46.85185185185185,0)" xlink:href="#F"/><use transform="matrix(0.06172839506172839,0,0,0.06172839506172839,59.197530864197525,0)" xlink:href="#E"/><use transform="matrix(0.06172839506172839,0,0,0.06172839506172839,71.5432098765432,0)" xlink:href="#D"/><use transform="matrix(0.06172839506172839,0,0,0.06172839506172839,82.65432098765432,0)" xlink:href="#L"/></g><path fill="#333" d="M114-157C55-157 80-60 75 0H25v-261h50l-1 109c12-26 28-41 61-42 86-1 58 113 63 194h-50c-7-57 23-157-34-157" id="Q"/><path fill="#333" d="M115-3C79 11 28 4 28-45v-112H4v-33h27l15-45h31v45h36v33H77v99c-1 23 16 31 38 25v30" id="R"/><path fill="#333" d="M135-194c53 0 70 44 70 98 0 56-19 98-73 100-31 1-45-17-59-34 3 33 2 69 2 105H25l-1-265h48c2 10 0 23 3 31 11-24 29-35 60-35zM114-30c33 0 39-31 40-66 0-38-9-64-40-64-56 0-55 130 0 130" id="S"/><g id="d"><use transform="matrix(0.04938271604938272,0,0,0.04938271604938272,0,0)" xlink:href="#Q"/><use transform="matrix(0.04938271604938272,0,0,0.04938271604938272,10.814814814814815,0)" xlink:href="#R"/><use transform="matrix(0.04938271604938272,0,0,0.04938271604938272,16.691358024691358,0)" xlink:href="#R"/><use transform="matrix(0.04938271604938272,0,0,0.04938271604938272,22.567901234567902,0)" xlink:href="#S"/></g><path fill="#3a414a" d="M240 0l2-218c-23 76-54 145-80 218h-23L58-218 59 0H30v-248h44l77 211c21-75 51-140 76-211h43V0h-30" id="T"/><path fill="#3a414a" d="M185-189c-5-48-123-54-124 2 14 75 158 14 163 119 3 78-121 87-175 55-17-10-28-26-33-46l33-7c5 56 141 63 141-1 0-78-155-14-162-118-5-82 145-84 179-34 5 7 8 16 11 25" id="U"/><g id="e"><use transform="matrix(0.06172839506172839,0,0,0.06172839506172839,0,0)" xlink:href="#T"/><use transform="matrix(0.06172839506172839,0,0,0.06172839506172839,18.456790123456788,0)" xlink:href="#U"/></g><path fill="#3a414a" d="M24 0v-261h32V0H24" id="V"/><g id="f"><use transform="matrix(0.06172839506172839,0,0,0.06172839506172839,0,0)" xlink:href="#J"/><use transform="matrix(0.06172839506172839,0,0,0.06172839506172839,7.345679012345679,0)" xlink:href="#L"/><use transform="matrix(0.06172839506172839,0,0,0.06172839506172839,19.691358024691358,0)" xlink:href="#D"/><use transform="matrix(0.06172839506172839,0,0,0.06172839506172839,30.80246913580247,0)" xlink:href="#M"/><use transform="matrix(0.06172839506172839,0,0,0.06172839506172839,36.97530864197531,0)" xlink:href="#M"/><use transform="matrix(0.06172839506172839,0,0,0.06172839506172839,43.14814814814815,0)" xlink:href="#L"/><use transform="matrix(0.06172839506172839,0,0,0.06172839506172839,55.49382716049383,0)" xlink:href="#C"/><use transform="matrix(0.06172839506172839,0,0,0.06172839506172839,73.95061728395062,0)" xlink:href="#I"/><use transform="matrix(0.06172839506172839,0,0,0.06172839506172839,86.2962962962963,0)" xlink:href="#V"/><use transform="matrix(0.06172839506172839,0,0,0.06172839506172839,91.17283950617285,0)" xlink:href="#E"/><use transform="matrix(0.06172839506172839,0,0,0.06172839506172839,103.51851851851853,0)" xlink:href="#M"/><use transform="matrix(0.06172839506172839,0,0,0.06172839506172839,109.69135802469137,0)" xlink:href="#L"/></g><path fill="#3a414a" d="M101-234c-31-9-42 10-38 44h38v23H63V0H32v-167H5v-23h27c-7-52 17-82 69-68v24" id="W"/><path fill="#3a414a" d="M24-231v-30h32v30H24zM24 0v-190h32V0H24" id="X"/><path fill="#3a414a" d="M177-190C167-65 218 103 67 71c-23-6-38-20-44-43l32-5c15 47 100 32 89-28v-30C133-14 115 1 83 1 29 1 15-40 15-95c0-56 16-97 71-98 29-1 48 16 59 35 1-10 0-23 2-32h30zM94-22c36 0 50-32 50-73 0-42-14-75-50-75-39 0-46 34-46 75s6 73 46 73" id="Y"/><g id="g"><use transform="matrix(0.06172839506172839,0,0,0.06172839506172839,0,0)" xlink:href="#G"/><use transform="matrix(0.06172839506172839,0,0,0.06172839506172839,12.345679012345679,0)" xlink:href="#I"/><use transform="matrix(0.06172839506172839,0,0,0.06172839506172839,24.691358024691358,0)" xlink:href="#L"/><use transform="matrix(0.06172839506172839,0,0,0.06172839506172839,37.03703703703704,0)" xlink:href="#H"/><use transform="matrix(0.06172839506172839,0,0,0.06172839506172839,49.382716049382715,0)" xlink:href="#W"/><use transform="matrix(0.06172839506172839,0,0,0.06172839506172839,55.55555555555556,0)" xlink:href="#L"/><use transform="matrix(0.06172839506172839,0,0,0.06172839506172839,67.90123456790124,0)" xlink:href="#X"/><use transform="matrix(0.06172839506172839,0,0,0.06172839506172839,72.77777777777779,0)" xlink:href="#Y"/><use transform="matrix(0.06172839506172839,0,0,0.06172839506172839,85.12345679012347,0)" xlink:href="#H"/></g><path d="M106-169C34-169 62-67 57 0H25v-261h32l-1 103c12-21 28-36 61-36 89 0 53 116 60 194h-32v-121c2-32-8-49-39-48" id="Z"/><path d="M59-47c-2 24 18 29 38 22v24C64 9 27 4 27-40v-127H5v-23h24l9-43h21v43h35v23H59v120" id="aa"/><path d="M115-194c55 1 70 41 70 98S169 2 115 4C84 4 66-9 55-30l1 105H24l-1-265h31l2 30c10-21 28-34 59-34zm-8 174c40 0 45-34 45-75s-6-73-45-74c-42 0-51 32-51 76 0 43 10 73 51 73" id="ab"/><path d="M33-154v-36h34v36H33zM33 0v-36h34V0H33" id="ac"/><path d="M0 4l72-265h28L28 4H0" id="ad"/><path d="M24 0v-261h32V0H24" id="ae"/><path d="M100-194c62-1 85 37 85 99 1 63-27 99-86 99S16-35 15-95c0-66 28-99 85-99zM99-20c44 1 53-31 53-75 0-43-8-75-51-75s-53 32-53 75 10 74 51 75" id="af"/><path d="M96-169c-40 0-48 33-48 73s9 75 48 75c24 0 41-14 43-38l32 2c-6 37-31 61-74 61-59 0-76-41-82-99-10-93 101-131 147-64 4 7 5 14 7 22l-32 3c-4-21-16-35-41-35" id="ag"/><path d="M141-36C126-15 110 5 73 4 37 3 15-17 15-53c-1-64 63-63 125-63 3-35-9-54-41-54-24 1-41 7-42 31l-33-3c5-37 33-52 76-52 45 0 72 20 72 64v82c-1 20 7 32 28 27v20c-31 9-61-2-59-35zM48-53c0 20 12 33 32 33 41-3 63-29 60-74-43 2-92-5-92 41" id="ah"/><path d="M135-143c-3-34-86-38-87 0 15 53 115 12 119 90S17 21 10-45l28-5c4 36 97 45 98 0-10-56-113-15-118-90-4-57 82-63 122-42 12 7 21 19 24 35" id="ai"/><path d="M134-131c28 9 52 24 51 62-1 50-34 73-85 73S17-19 16-69c0-36 21-54 49-61-75-25-45-126 34-121 46 3 78 18 79 63 0 33-17 51-44 57zm-34-11c31 1 46-15 46-44 0-28-17-43-47-42-29 0-46 13-45 42 1 28 16 44 46 44zm1 122c35 0 51-18 51-52 0-30-18-46-53-46-33 0-51 17-51 47 0 34 19 51 53 51" id="aj"/><path d="M101-251c68 0 85 55 85 127S166 4 100 4C33 4 14-52 14-124c0-73 17-127 87-127zm-1 229c47 0 54-49 54-102s-4-102-53-102c-51 0-55 48-55 102 0 53 5 102 54 102" id="ak"/><path d="M110-160c48 1 74 30 74 79 0 53-28 85-80 85-65 0-83-55-86-122-5-90 50-162 133-122 14 7 22 21 27 39l-31 6c-5-40-67-38-82-6-9 19-15 44-15 74 11-20 30-34 60-33zm-7 138c34 0 49-23 49-58s-16-56-50-56c-29 0-50 16-49 49 1 36 15 65 50 65" id="al"/><path d="M27 0v-27h64v-190l-56 39v-29l58-41h29v221h61V0H27" id="am"/><path d="M210-169c-67 3-38 105-44 169h-31v-121c0-29-5-50-35-48C34-165 62-65 56 0H25l-1-190h30c1 10-1 24 2 32 10-44 99-50 107 0 11-21 27-35 58-36 85-2 47 119 55 194h-31v-121c0-29-5-49-35-48" id="an"/><path d="M115-194c53 0 69 39 70 98 0 66-23 100-70 100C84 3 66-7 56-30L54 0H23l1-261h32v101c10-23 28-34 59-34zm-8 174c40 0 45-34 45-75 0-40-5-75-45-74-42 0-51 32-51 76 0 43 10 73 51 73" id="ao"/><path d="M117-194c89-4 53 116 60 194h-32v-121c0-31-8-49-39-48C34-167 62-67 57 0H25l-1-190h30c1 10-1 24 2 32 11-22 29-35 61-36" id="ap"/><path d="M114-163C36-179 61-72 57 0H25l-1-190h30c1 12-1 29 2 39 6-27 23-49 58-41v29" id="aq"/><path d="M100-194c63 0 86 42 84 106H49c0 40 14 67 53 68 26 1 43-12 49-29l28 8c-11 28-37 45-77 45C44 4 14-33 15-96c1-61 26-98 85-98zm52 81c6-60-76-77-97-28-3 7-6 17-6 28h103" id="ar"/><path d="M84 4C-5 8 30-112 23-190h32v120c0 31 7 50 39 49 72-2 45-101 50-169h31l1 190h-30c-1-10 1-25-2-33-11 22-28 36-60 37" id="as"/><path d="M85-194c31 0 48 13 60 33l-1-100h32l1 261h-30c-2-10 0-23-3-31C134-8 116 4 85 4 32 4 16-35 15-94c0-66 23-100 70-100zm9 24c-40 0-46 34-46 75 0 40 6 74 45 74 42 0 51-32 51-76 0-42-9-74-50-73" id="at"/><g id="h"><use transform="matrix(0.044444444444444446,0,0,0.044444444444444446,0,0)" xlink:href="#Z"/><use transform="matrix(0.044444444444444446,0,0,0.044444444444444446,8.88888888888889,0)" xlink:href="#aa"/><use transform="matrix(0.044444444444444446,0,0,0.044444444444444446,13.333333333333334,0)" xlink:href="#aa"/><use transform="matrix(0.044444444444444446,0,0,0.044444444444444446,17.77777777777778,0)" xlink:href="#ab"/><use transform="matrix(0.044444444444444446,0,0,0.044444444444444446,26.666666666666668,0)" xlink:href="#ac"/><use transform="matrix(0.044444444444444446,0,0,0.044444444444444446,31.11111111111111,0)" xlink:href="#ad"/><use transform="matrix(0.044444444444444446,0,0,0.044444444444444446,35.55555555555556,0)" xlink:href="#ad"/><use transform="matrix(0.044444444444444446,0,0,0.044444444444444446,40,0)" xlink:href="#ae"/><use transform="matrix(0.044444444444444446,0,0,0.044444444444444446,43.51111111111111,0)" xlink:href="#af"/><use transform="matrix(0.044444444444444446,0,0,0.044444444444444446,52.4,0)" xlink:href="#ag"/><use transform="matrix(0.044444444444444446,0,0,0.044444444444444446,60.400000000000006,0)" xlink:href="#ah"/><use transform="matrix(0.044444444444444446,0,0,0.044444444444444446,69.28888888888889,0)" xlink:href="#ae"/><use transform="matrix(0.044444444444444446,0,0,0.044444444444444446,72.8,0)" xlink:href="#Z"/><use transform="matrix(0.044444444444444446,0,0,0.044444444444444446,81.68888888888888,0)" xlink:href="#af"/><use transform="matrix(0.044444444444444446,0,0,0.044444444444444446,90.57777777777777,0)" xlink:href="#ai"/><use transform="matrix(0.044444444444444446,0,0,0.044444444444444446,98.57777777777775,0)" xlink:href="#aa"/><use transform="matrix(0.044444444444444446,0,0,0.044444444444444446,103.02222222222221,0)" xlink:href="#ac"/><use transform="matrix(0.044444444444444446,0,0,0.044444444444444446,107.46666666666665,0)" xlink:href="#aj"/><use transform="matrix(0.044444444444444446,0,0,0.044444444444444446,116.35555555555554,0)" xlink:href="#ak"/><use transform="matrix(0.044444444444444446,0,0,0.044444444444444446,125.24444444444443,0)" xlink:href="#al"/><use transform="matrix(0.044444444444444446,0,0,0.044444444444444446,134.13333333333333,0)" xlink:href="#am"/><use transform="matrix(0.044444444444444446,0,0,0.044444444444444446,143.0222222222222,0)" xlink:href="#ad"/><use transform="matrix(0.044444444444444446,0,0,0.044444444444444446,147.46666666666667,0)" xlink:href="#an"/><use transform="matrix(0.044444444444444446,0,0,0.044444444444444446,160.75555555555556,0)" xlink:href="#ai"/><use transform="matrix(0.044444444444444446,0,0,0.044444444444444446,168.75555555555556,0)" xlink:href="#ah"/><use transform="matrix(0.044444444444444446,0,0,0.044444444444444446,177.64444444444445,0)" xlink:href="#ao"/><use transform="matrix(0.044444444444444446,0,0,0.044444444444444446,186.53333333333333,0)" xlink:href="#af"/><use transform="matrix(0.044444444444444446,0,0,0.044444444444444446,195.42222222222222,0)" xlink:href="#ap"/><use transform="matrix(0.044444444444444446,0,0,0.044444444444444446,204.31111111111113,0)" xlink:href="#af"/><use transform="matrix(0.044444444444444446,0,0,0.044444444444444446,213.20000000000002,0)" xlink:href="#ad"/><use transform="matrix(0.044444444444444446,0,0,0.044444444444444446,217.64444444444445,0)" xlink:href="#ab"/><use transform="matrix(0.044444444444444446,0,0,0.044444444444444446,226.53333333333333,0)" xlink:href="#aq"/><use transform="matrix(0.044444444444444446,0,0,0.044444444444444446,231.82222222222222,0)" xlink:href="#af"/><use transform="matrix(0.044444444444444446,0,0,0.044444444444444446,240.7111111111111,0)" xlink:href="#ag"/><use transform="matrix(0.044444444444444446,0,0,0.044444444444444446,248.7111111111111,0)" xlink:href="#ar"/><use transform="matrix(0.044444444444444446,0,0,0.044444444444444446,257.6,0)" xlink:href="#ai"/><use transform="matrix(0.044444444444444446,0,0,0.044444444444444446,265.6,0)" xlink:href="#ah"/><use transform="matrix(0.044444444444444446,0,0,0.044444444444444446,274.48888888888894,0)" xlink:href="#aq"/><use transform="matrix(0.044444444444444446,0,0,0.044444444444444446,279.7777777777778,0)" xlink:href="#ad"/><use transform="matrix(0.044444444444444446,0,0,0.044444444444444446,284.2222222222223,0)" xlink:href="#ah"/><use transform="matrix(0.044444444444444446,0,0,0.044444444444444446,293.1111111111112,0)" xlink:href="#ao"/><use transform="matrix(0.044444444444444446,0,0,0.044444444444444446,302.0000000000001,0)" xlink:href="#af"/><use transform="matrix(0.044444444444444446,0,0,0.044444444444444446,310.888888888889,0)" xlink:href="#ap"/><use transform="matrix(0.044444444444444446,0,0,0.044444444444444446,319.77777777777794,0)" xlink:href="#af"/><use transform="matrix(0.044444444444444446,0,0,0.044444444444444446,328.66666666666686,0)" xlink:href="#ad"/><use transform="matrix(0.044444444444444446,0,0,0.044444444444444446,333.1111111111113,0)" xlink:href="#aa"/><use transform="matrix(0.044444444444444446,0,0,0.044444444444444446,337.55555555555577,0)" xlink:href="#af"/><use transform="matrix(0.044444444444444446,0,0,0.044444444444444446,346.4444444444447,0)" xlink:href="#ad"/><use transform="matrix(0.044444444444444446,0,0,0.044444444444444446,350.88888888888914,0)" xlink:href="#aq"/><use transform="matrix(0.044444444444444446,0,0,0.044444444444444446,356.17777777777803,0)" xlink:href="#ar"/><use transform="matrix(0.044444444444444446,0,0,0.044444444444444446,365.06666666666695,0)" xlink:href="#ag"/><use transform="matrix(0.044444444444444446,0,0,0.044444444444444446,373.06666666666695,0)" xlink:href="#ah"/><use transform="matrix(0.044444444444444446,0,0,0.044444444444444446,381.9555555555559,0)" xlink:href="#as"/><use transform="matrix(0.044444444444444446,0,0,0.044444444444444446,390.8444444444448,0)" xlink:href="#at"/><use transform="matrix(0.044444444444444446,0,0,0.044444444444444446,399.7333333333337,0)" xlink:href="#ah"/><use transform="matrix(0.044444444444444446,0,0,0.044444444444444446,408.62222222222266,0)" xlink:href="#at"/><use transform="matrix(0.044444444444444446,0,0,0.044444444444444446,417.5111111111115,0)" xlink:href="#af"/><use transform="matrix(0.044444444444444446,0,0,0.044444444444444446,426.40000000000043,0)" xlink:href="#aq"/></g><path fill="#3a414a" d="M16-82v-28h88v28H16" id="au"/><path fill="#3a414a" d="M106-169C34-169 62-67 57 0H25v-261h32l-1 103c12-21 28-36 61-36 89 0 53 116 60 194h-32v-121c2-32-8-49-39-48" id="av"/><g id="i"><use transform="matrix(0.06172839506172839,0,0,0.06172839506172839,0,0)" xlink:href="#D"/><use transform="matrix(0.06172839506172839,0,0,0.06172839506172839,11.11111111111111,0)" xlink:href="#I"/><use transform="matrix(0.06172839506172839,0,0,0.06172839506172839,23.45679012345679,0)" xlink:href="#J"/><use transform="matrix(0.06172839506172839,0,0,0.06172839506172839,30.80246913580247,0)" xlink:href="#X"/><use transform="matrix(0.06172839506172839,0,0,0.06172839506172839,35.67901234567901,0)" xlink:href="#H"/><use transform="matrix(0.06172839506172839,0,0,0.06172839506172839,48.02469135802469,0)" xlink:href="#Y"/><use transform="matrix(0.06172839506172839,0,0,0.06172839506172839,60.37037037037037,0)" xlink:href="#au"/><use transform="matrix(0.06172839506172839,0,0,0.06172839506172839,67.71604938271605,0)" xlink:href="#C"/><use transform="matrix(0.06172839506172839,0,0,0.06172839506172839,86.17283950617283,0)" xlink:href="#D"/><use transform="matrix(0.06172839506172839,0,0,0.06172839506172839,97.28395061728395,0)" xlink:href="#au"/><use transform="matrix(0.06172839506172839,0,0,0.06172839506172839,104.62962962962963,0)" xlink:href="#D"/><use transform="matrix(0.06172839506172839,0,0,0.06172839506172839,115.74074074074075,0)" xlink:href="#E"/><use transform="matrix(0.06172839506172839,0,0,0.06172839506172839,128.08641975308643,0)" xlink:href="#Y"/><use transform="matrix(0.06172839506172839,0,0,0.06172839506172839,140.4320987654321,0)" xlink:href="#E"/><use transform="matrix(0.06172839506172839,0,0,0.06172839506172839,152.77777777777777,0)" xlink:href="#au"/><use transform="matrix(0.06172839506172839,0,0,0.06172839506172839,160.12345679012344,0)" xlink:href="#G"/><use transform="matrix(0.06172839506172839,0,0,0.06172839506172839,172.4691358024691,0)" xlink:href="#J"/><use transform="matrix(0.06172839506172839,0,0,0.06172839506172839,179.81481481481478,0)" xlink:href="#K"/><use transform="matrix(0.06172839506172839,0,0,0.06172839506172839,190.9259259259259,0)" xlink:href="#av"/><use transform="matrix(0.06172839506172839,0,0,0.06172839506172839,203.27160493827157,0)" xlink:href="#L"/><use transform="matrix(0.06172839506172839,0,0,0.06172839506172839,215.61728395061724,0)" xlink:href="#D"/><use transform="matrix(0.06172839506172839,0,0,0.06172839506172839,226.72839506172835,0)" xlink:href="#M"/><use transform="matrix(0.06172839506172839,0,0,0.06172839506172839,232.90123456790118,0)" xlink:href="#J"/><use transform="matrix(0.06172839506172839,0,0,0.06172839506172839,240.24691358024685,0)" xlink:href="#E"/><use transform="matrix(0.06172839506172839,0,0,0.06172839506172839,252.59259259259252,0)" xlink:href="#M"/><use transform="matrix(0.06172839506172839,0,0,0.06172839506172839,258.76543209876536,0)" xlink:href="#X"/><use transform="matrix(0.06172839506172839,0,0,0.06172839506172839,263.6419753086419,0)" xlink:href="#G"/><use transform="matrix(0.06172839506172839,0,0,0.06172839506172839,275.9876543209876,0)" xlink:href="#H"/><use transform="matrix(0.06172839506172839,0,0,0.06172839506172839,288.33333333333326,0)" xlink:href="#au"/><use transform="matrix(0.06172839506172839,0,0,0.06172839506172839,295.6790123456789,0)" xlink:href="#E"/><use transform="matrix(0.06172839506172839,0,0,0.06172839506172839,308.0246913580246,0)" xlink:href="#F"/><use transform="matrix(0.06172839506172839,0,0,0.06172839506172839,320.37037037037027,0)" xlink:href="#G"/><use transform="matrix(0.06172839506172839,0,0,0.06172839506172839,332.71604938271594,0)" xlink:href="#H"/><use transform="matrix(0.06172839506172839,0,0,0.06172839506172839,345.0617283950616,0)" xlink:href="#G"/></g><g id="j"><use transform="matrix(0.06172839506172839,0,0,0.06172839506172839,0,0)" xlink:href="#F"/><use transform="matrix(0.06172839506172839,0,0,0.06172839506172839,12.345679012345679,0)" xlink:href="#V"/><use transform="matrix(0.06172839506172839,0,0,0.06172839506172839,17.22222222222222,0)" xlink:href="#K"/></g><path fill="#a2fca2" d="M106-169C34-169 62-67 57 0H25v-261h32l-1 103c12-21 28-36 61-36 89 0 53 116 60 194h-32v-121c2-32-8-49-39-48" id="aw"/><path fill="#a2fca2" d="M59-47c-2 24 18 29 38 22v24C64 9 27 4 27-40v-127H5v-23h24l9-43h21v43h35v23H59v120" id="ax"/><path fill="#a2fca2" d="M115-194c55 1 70 41 70 98S169 2 115 4C84 4 66-9 55-30l1 105H24l-1-265h31l2 30c10-21 28-34 59-34zm-8 174c40 0 45-34 45-75s-6-73-45-74c-42 0-51 32-51 76 0 43 10 73 51 73" id="ay"/><path fill="#a2fca2" d="M33-154v-36h34v36H33zM33 0v-36h34V0H33" id="az"/><path fill="#a2fca2" d="M0 4l72-265h28L28 4H0" id="aA"/><path fill="#a2fca2" d="M24 0v-261h32V0H24" id="aB"/><path fill="#a2fca2" d="M100-194c62-1 85 37 85 99 1 63-27 99-86 99S16-35 15-95c0-66 28-99 85-99zM99-20c44 1 53-31 53-75 0-43-8-75-51-75s-53 32-53 75 10 74 51 75" id="aC"/><path fill="#a2fca2" d="M96-169c-40 0-48 33-48 73s9 75 48 75c24 0 41-14 43-38l32 2c-6 37-31 61-74 61-59 0-76-41-82-99-10-93 101-131 147-64 4 7 5 14 7 22l-32 3c-4-21-16-35-41-35" id="aD"/><path fill="#a2fca2" d="M141-36C126-15 110 5 73 4 37 3 15-17 15-53c-1-64 63-63 125-63 3-35-9-54-41-54-24 1-41 7-42 31l-33-3c5-37 33-52 76-52 45 0 72 20 72 64v82c-1 20 7 32 28 27v20c-31 9-61-2-59-35zM48-53c0 20 12 33 32 33 41-3 63-29 60-74-43 2-92-5-92 41" id="aE"/><path fill="#a2fca2" d="M135-143c-3-34-86-38-87 0 15 53 115 12 119 90S17 21 10-45l28-5c4 36 97 45 98 0-10-56-113-15-118-90-4-57 82-63 122-42 12 7 21 19 24 35" id="aF"/><path fill="#a2fca2" d="M134-131c28 9 52 24 51 62-1 50-34 73-85 73S17-19 16-69c0-36 21-54 49-61-75-25-45-126 34-121 46 3 78 18 79 63 0 33-17 51-44 57zm-34-11c31 1 46-15 46-44 0-28-17-43-47-42-29 0-46 13-45 42 1 28 16 44 46 44zm1 122c35 0 51-18 51-52 0-30-18-46-53-46-33 0-51 17-51 47 0 34 19 51 53 51" id="aG"/><path fill="#a2fca2" d="M101-251c68 0 85 55 85 127S166 4 100 4C33 4 14-52 14-124c0-73 17-127 87-127zm-1 229c47 0 54-49 54-102s-4-102-53-102c-51 0-55 48-55 102 0 53 5 102 54 102" id="aH"/><path fill="#a2fca2" d="M110-160c48 1 74 30 74 79 0 53-28 85-80 85-65 0-83-55-86-122-5-90 50-162 133-122 14 7 22 21 27 39l-31 6c-5-40-67-38-82-6-9 19-15 44-15 74 11-20 30-34 60-33zm-7 138c34 0 49-23 49-58s-16-56-50-56c-29 0-50 16-49 49 1 36 15 65 50 65" id="aI"/><path fill="#a2fca2" d="M27 0v-27h64v-190l-56 39v-29l58-41h29v221h61V0H27" id="aJ"/><g id="k"><use transform="matrix(0.044444444444444446,0,0,0.044444444444444446,0,0)" xlink:href="#aw"/><use transform="matrix(0.044444444444444446,0,0,0.044444444444444446,8.88888888888889,0)" xlink:href="#ax"/><use transform="matrix(0.044444444444444446,0,0,0.044444444444444446,13.333333333333334,0)" xlink:href="#ax"/><use transform="matrix(0.044444444444444446,0,0,0.044444444444444446,17.77777777777778,0)" xlink:href="#ay"/><use transform="matrix(0.044444444444444446,0,0,0.044444444444444446,26.666666666666668,0)" xlink:href="#az"/><use transform="matrix(0.044444444444444446,0,0,0.044444444444444446,31.11111111111111,0)" xlink:href="#aA"/><use transform="matrix(0.044444444444444446,0,0,0.044444444444444446,35.55555555555556,0)" xlink:href="#aA"/><use transform="matrix(0.044444444444444446,0,0,0.044444444444444446,40,0)" xlink:href="#aB"/><use transform="matrix(0.044444444444444446,0,0,0.044444444444444446,43.51111111111111,0)" xlink:href="#aC"/><use transform="matrix(0.044444444444444446,0,0,0.044444444444444446,52.4,0)" xlink:href="#aD"/><use transform="matrix(0.044444444444444446,0,0,0.044444444444444446,60.400000000000006,0)" xlink:href="#aE"/><use transform="matrix(0.044444444444444446,0,0,0.044444444444444446,69.28888888888889,0)" xlink:href="#aB"/><use transform="matrix(0.044444444444444446,0,0,0.044444444444444446,72.8,0)" xlink:href="#aw"/><use transform="matrix(0.044444444444444446,0,0,0.044444444444444446,81.68888888888888,0)" xlink:href="#aC"/><use transform="matrix(0.044444444444444446,0,0,0.044444444444444446,90.57777777777777,0)" xlink:href="#aF"/><use transform="matrix(0.044444444444444446,0,0,0.044444444444444446,98.57777777777775,0)" xlink:href="#ax"/><use transform="matrix(0.044444444444444446,0,0,0.044444444444444446,103.02222222222221,0)" xlink:href="#az"/><use transform="matrix(0.044444444444444446,0,0,0.044444444444444446,107.46666666666665,0)" xlink:href="#aG"/><use transform="matrix(0.044444444444444446,0,0,0.044444444444444446,116.35555555555554,0)" xlink:href="#aH"/><use transform="matrix(0.044444444444444446,0,0,0.044444444444444446,125.24444444444443,0)" xlink:href="#aI"/><use transform="matrix(0.044444444444444446,0,0,0.044444444444444446,134.13333333333333,0)" xlink:href="#aJ"/></g><path fill="#3a414a" d="M205 0l-28-72H64L36 0H1l101-248h38L239 0h-34zm-38-99l-47-123c-12 45-31 82-46 123h93" id="aK"/><path fill="#3a414a" d="M140-251c81 0 123 46 123 126C263-46 219 4 140 4 59 4 17-45 17-125s42-126 123-126zm0 227c63 0 89-41 89-101s-29-99-89-99c-61 0-89 39-89 99S79-25 140-24" id="aL"/><g id="l"><use transform="matrix(0.06172839506172839,0,0,0.06172839506172839,0,0)" xlink:href="#P"/><use transform="matrix(0.06172839506172839,0,0,0.06172839506172839,15.987654320987653,0)" xlink:href="#aK"/><use transform="matrix(0.06172839506172839,0,0,0.06172839506172839,30.80246913580247,0)" xlink:href="#aL"/></g><g id="m"><use transform="matrix(0.06172839506172839,0,0,0.06172839506172839,0,0)" xlink:href="#av"/><use transform="matrix(0.06172839506172839,0,0,0.06172839506172839,12.345679012345679,0)" xlink:href="#M"/><use transform="matrix(0.06172839506172839,0,0,0.06172839506172839,18.51851851851852,0)" xlink:href="#M"/><use transform="matrix(0.06172839506172839,0,0,0.06172839506172839,24.691358024691358,0)" xlink:href="#I"/></g><path fill="#3a414a" d="M145-31C134-9 116 4 85 4 32 4 16-35 15-94c0-59 17-99 70-100 32-1 48 14 60 33 0-11-1-24 2-32h30l-1 268h-32zM93-21c41 0 51-33 51-76s-8-73-50-73c-40 0-46 35-46 75s5 74 45 74" id="aM"/><g id="n"><use transform="matrix(0.06172839506172839,0,0,0.06172839506172839,0,0)" xlink:href="#D"/><use transform="matrix(0.06172839506172839,0,0,0.06172839506172839,11.11111111111111,0)" xlink:href="#aM"/><use transform="matrix(0.06172839506172839,0,0,0.06172839506172839,23.45679012345679,0)" xlink:href="#V"/></g><path fill="#3a414a" d="M190 0L58-211 59 0H30v-248h39L202-35l-2-213h31V0h-41" id="aN"/><g id="o"><use transform="matrix(0.06172839506172839,0,0,0.06172839506172839,0,0)" xlink:href="#aN"/><use transform="matrix(0.06172839506172839,0,0,0.06172839506172839,15.987654320987653,0)" xlink:href="#D"/><use transform="matrix(0.06172839506172839,0,0,0.06172839506172839,27.098765432098766,0)" xlink:href="#aM"/><use transform="matrix(0.06172839506172839,0,0,0.06172839506172839,39.44444444444444,0)" xlink:href="#V"/></g><g id="p"><use transform="matrix(0.06172839506172839,0,0,0.06172839506172839,0,0)" xlink:href="#W"/><use transform="matrix(0.06172839506172839,0,0,0.06172839506172839,6.172839506172839,0)" xlink:href="#M"/><use transform="matrix(0.06172839506172839,0,0,0.06172839506172839,12.345679012345679,0)" xlink:href="#I"/></g><g id="q"><use transform="matrix(0.06172839506172839,0,0,0.06172839506172839,0,0)" xlink:href="#W"/><use transform="matrix(0.06172839506172839,0,0,0.06172839506172839,6.172839506172839,0)" xlink:href="#E"/><use transform="matrix(0.06172839506172839,0,0,0.06172839506172839,18.51851851851852,0)" xlink:href="#K"/><use transform="matrix(0.06172839506172839,0,0,0.06172839506172839,29.62962962962963,0)" xlink:href="#E"/><use transform="matrix(0.06172839506172839,0,0,0.06172839506172839,41.97530864197531,0)" xlink:href="#O"/><use transform="matrix(0.06172839506172839,0,0,0.06172839506172839,54.32098765432099,0)" xlink:href="#L"/></g><path fill="#3a414a" d="M127-220V0H93v-220H8v-28h204v28h-85" id="aO"/><g id="r"><use transform="matrix(0.06172839506172839,0,0,0.06172839506172839,0,0)" xlink:href="#P"/><use transform="matrix(0.06172839506172839,0,0,0.06172839506172839,15.987654320987653,0)" xlink:href="#aO"/><use transform="matrix(0.06172839506172839,0,0,0.06172839506172839,29.074074074074073,0)" xlink:href="#aL"/></g><g id="s"><use transform="matrix(0.06172839506172839,0,0,0.06172839506172839,0,0)" xlink:href="#W"/><use transform="matrix(0.06172839506172839,0,0,0.06172839506172839,6.172839506172839,0)" xlink:href="#L"/><use transform="matrix(0.06172839506172839,0,0,0.06172839506172839,18.51851851851852,0)" xlink:href="#X"/><use transform="matrix(0.06172839506172839,0,0,0.06172839506172839,23.395061728395063,0)" xlink:href="#Y"/><use transform="matrix(0.06172839506172839,0,0,0.06172839506172839,35.74074074074074,0)" xlink:href="#H"/></g><g id="t"><use transform="matrix(0.06172839506172839,0,0,0.06172839506172839,0,0)" xlink:href="#D"/><use transform="matrix(0.06172839506172839,0,0,0.06172839506172839,11.11111111111111,0)" xlink:href="#I"/><use transform="matrix(0.06172839506172839,0,0,0.06172839506172839,23.45679012345679,0)" xlink:href="#J"/><use transform="matrix(0.06172839506172839,0,0,0.06172839506172839,30.80246913580247,0)" xlink:href="#X"/><use transform="matrix(0.06172839506172839,0,0,0.06172839506172839,35.67901234567901,0)" xlink:href="#H"/><use transform="matrix(0.06172839506172839,0,0,0.06172839506172839,48.02469135802469,0)" xlink:href="#Y"/><use transform="matrix(0.06172839506172839,0,0,0.06172839506172839,60.37037037037037,0)" xlink:href="#au"/><use transform="matrix(0.06172839506172839,0,0,0.06172839506172839,67.71604938271605,0)" xlink:href="#C"/><use transform="matrix(0.06172839506172839,0,0,0.06172839506172839,86.17283950617283,0)" xlink:href="#D"/><use transform="matrix(0.06172839506172839,0,0,0.06172839506172839,97.28395061728395,0)" xlink:href="#au"/><use transform="matrix(0.06172839506172839,0,0,0.06172839506172839,104.62962962962963,0)" xlink:href="#K"/><use transform="matrix(0.06172839506172839,0,0,0.06172839506172839,115.74074074074075,0)" xlink:href="#aM"/><use transform="matrix(0.06172839506172839,0,0,0.06172839506172839,128.08641975308643,0)" xlink:href="#J"/><use transform="matrix(0.06172839506172839,0,0,0.06172839506172839,135.4320987654321,0)" xlink:href="#D"/><use transform="matrix(0.06172839506172839,0,0,0.06172839506172839,146.54320987654322,0)" xlink:href="#au"/><use transform="matrix(0.06172839506172839,0,0,0.06172839506172839,153.88888888888889,0)" xlink:href="#K"/><use transform="matrix(0.06172839506172839,0,0,0.06172839506172839,165,0)" xlink:href="#G"/><use transform="matrix(0.06172839506172839,0,0,0.06172839506172839,177.34567901234567,0)" xlink:href="#C"/><use transform="matrix(0.06172839506172839,0,0,0.06172839506172839,195.80246913580245,0)" xlink:href="#C"/><use transform="matrix(0.06172839506172839,0,0,0.06172839506172839,214.25925925925924,0)" xlink:href="#E"/><use transform="matrix(0.06172839506172839,0,0,0.06172839506172839,226.6049382716049,0)" xlink:href="#H"/><use transform="matrix(0.06172839506172839,0,0,0.06172839506172839,238.95061728395058,0)" xlink:href="#O"/><use transform="matrix(0.06172839506172839,0,0,0.06172839506172839,251.29629629629625,0)" xlink:href="#au"/><use transform="matrix(0.06172839506172839,0,0,0.06172839506172839,258.6419753086419,0)" xlink:href="#E"/><use transform="matrix(0.06172839506172839,0,0,0.06172839506172839,270.9876543209876,0)" xlink:href="#F"/><use transform="matrix(0.06172839506172839,0,0,0.06172839506172839,283.33333333333326,0)" xlink:href="#G"/><use transform="matrix(0.06172839506172839,0,0,0.06172839506172839,295.6790123456789,0)" xlink:href="#H"/><use transform="matrix(0.06172839506172839,0,0,0.06172839506172839,308.0246913580246,0)" xlink:href="#G"/></g><g id="u"><use transform="matrix(0.06172839506172839,0,0,0.06172839506172839,0,0)" xlink:href="#V"/><use transform="matrix(0.06172839506172839,0,0,0.06172839506172839,4.876543209876543,0)" xlink:href="#G"/><use transform="matrix(0.06172839506172839,0,0,0.06172839506172839,17.22222222222222,0)" xlink:href="#E"/><use transform="matrix(0.06172839506172839,0,0,0.06172839506172839,29.5679012345679,0)" xlink:href="#O"/></g><g id="v"><use transform="matrix(0.06172839506172839,0,0,0.06172839506172839,0,0)" xlink:href="#F"/><use transform="matrix(0.06172839506172839,0,0,0.06172839506172839,12.345679012345679,0)" xlink:href="#E"/><use transform="matrix(0.06172839506172839,0,0,0.06172839506172839,24.691358024691358,0)" xlink:href="#V"/></g><path fill="#3a414a" d="M33-154v-36h34v36H33zM33 0v-36h34V0H33" id="aP"/><path fill="#3a414a" d="M134-131c28 9 52 24 51 62-1 50-34 73-85 73S17-19 16-69c0-36 21-54 49-61-75-25-45-126 34-121 46 3 78 18 79 63 0 33-17 51-44 57zm-34-11c31 1 46-15 46-44 0-28-17-43-47-42-29 0-46 13-45 42 1 28 16 44 46 44zm1 122c35 0 51-18 51-52 0-30-18-46-53-46-33 0-51 17-51 47 0 34 19 51 53 51" id="aQ"/><path fill="#3a414a" d="M101-251c68 0 85 55 85 127S166 4 100 4C33 4 14-52 14-124c0-73 17-127 87-127zm-1 229c47 0 54-49 54-102s-4-102-53-102c-51 0-55 48-55 102 0 53 5 102 54 102" id="aR"/><path fill="#3a414a" d="M54-142c48-35 137-8 131 61C196 18 31 33 14-55l32-4c7 23 22 37 52 37 35-1 51-22 54-58 4-55-73-65-99-34H22l8-134h141v27H59" id="aS"/><g id="w"><use transform="matrix(0.06172839506172839,0,0,0.06172839506172839,0,0)" xlink:href="#V"/><use transform="matrix(0.06172839506172839,0,0,0.06172839506172839,4.876543209876543,0)" xlink:href="#G"/><use transform="matrix(0.06172839506172839,0,0,0.06172839506172839,17.22222222222222,0)" xlink:href="#K"/><use transform="matrix(0.06172839506172839,0,0,0.06172839506172839,28.333333333333332,0)" xlink:href="#E"/><use transform="matrix(0.06172839506172839,0,0,0.06172839506172839,40.67901234567901,0)" xlink:href="#V"/><use transform="matrix(0.06172839506172839,0,0,0.06172839506172839,45.55555555555556,0)" xlink:href="#av"/><use transform="matrix(0.06172839506172839,0,0,0.06172839506172839,57.901234567901234,0)" xlink:href="#G"/><use transform="matrix(0.06172839506172839,0,0,0.06172839506172839,70.24691358024691,0)" xlink:href="#D"/><use transform="matrix(0.06172839506172839,0,0,0.06172839506172839,81.35802469135803,0)" xlink:href="#M"/><use transform="matrix(0.06172839506172839,0,0,0.06172839506172839,87.53086419753086,0)" xlink:href="#aP"/><use transform="matrix(0.06172839506172839,0,0,0.06172839506172839,93.7037037037037,0)" xlink:href="#aQ"/><use transform="matrix(0.06172839506172839,0,0,0.06172839506172839,106.04938271604938,0)" xlink:href="#aR"/><use transform="matrix(0.06172839506172839,0,0,0.06172839506172839,118.39506172839506,0)" xlink:href="#aQ"/><use transform="matrix(0.06172839506172839,0,0,0.06172839506172839,130.74074074074073,0)" xlink:href="#aS"/></g><g id="x"><use transform="matrix(0.06172839506172839,0,0,0.06172839506172839,0,0)" xlink:href="#B"/><use transform="matrix(0.06172839506172839,0,0,0.06172839506172839,6.172839506172839,0)" xlink:href="#C"/><use transform="matrix(0.06172839506172839,0,0,0.06172839506172839,24.629629629629626,0)" xlink:href="#D"/><use transform="matrix(0.06172839506172839,0,0,0.06172839506172839,35.74074074074073,0)" xlink:href="#K"/><use transform="matrix(0.06172839506172839,0,0,0.06172839506172839,46.85185185185185,0)" xlink:href="#aM"/><use transform="matrix(0.06172839506172839,0,0,0.06172839506172839,59.197530864197525,0)" xlink:href="#J"/><use transform="matrix(0.06172839506172839,0,0,0.06172839506172839,66.5432098765432,0)" xlink:href="#D"/><use transform="matrix(0.06172839506172839,0,0,0.06172839506172839,77.65432098765432,0)" xlink:href="#E"/><use transform="matrix(0.06172839506172839,0,0,0.06172839506172839,90,0)" xlink:href="#F"/><use transform="matrix(0.06172839506172839,0,0,0.06172839506172839,102.34567901234568,0)" xlink:href="#G"/><use transform="matrix(0.06172839506172839,0,0,0.06172839506172839,114.69135802469137,0)" xlink:href="#H"/><use transform="matrix(0.06172839506172839,0,0,0.06172839506172839,127.03703703703705,0)" xlink:href="#G"/><use transform="matrix(0.06172839506172839,0,0,0.06172839506172839,139.38271604938274,0)" xlink:href="#B"/><use transform="matrix(0.06172839506172839,0,0,0.06172839506172839,145.55555555555557,0)" xlink:href="#I"/><use transform="matrix(0.06172839506172839,0,0,0.06172839506172839,157.90123456790124,0)" xlink:href="#J"/><use transform="matrix(0.06172839506172839,0,0,0.06172839506172839,165.2469135802469,0)" xlink:href="#G"/><use transform="matrix(0.06172839506172839,0,0,0.06172839506172839,177.59259259259258,0)" xlink:href="#K"/><use transform="matrix(0.06172839506172839,0,0,0.06172839506172839,188.7037037037037,0)" xlink:href="#L"/><use transform="matrix(0.06172839506172839,0,0,0.06172839506172839,201.04938271604937,0)" xlink:href="#D"/><use transform="matrix(0.06172839506172839,0,0,0.06172839506172839,212.16049382716048,0)" xlink:href="#E"/><use transform="matrix(0.06172839506172839,0,0,0.06172839506172839,224.50617283950615,0)" xlink:href="#J"/><use transform="matrix(0.06172839506172839,0,0,0.06172839506172839,231.85185185185182,0)" xlink:href="#B"/><use transform="matrix(0.06172839506172839,0,0,0.06172839506172839,238.02469135802465,0)" xlink:href="#E"/><use transform="matrix(0.06172839506172839,0,0,0.06172839506172839,250.37037037037032,0)" xlink:href="#F"/><use transform="matrix(0.06172839506172839,0,0,0.06172839506172839,262.716049382716,0)" xlink:href="#G"/><use transform="matrix(0.06172839506172839,0,0,0.06172839506172839,275.06172839506166,0)" xlink:href="#H"/><use transform="matrix(0.06172839506172839,0,0,0.06172839506172839,287.40740740740733,0)" xlink:href="#G"/><use transform="matrix(0.06172839506172839,0,0,0.06172839506172839,299.753086419753,0)" xlink:href="#B"/><use transform="matrix(0.06172839506172839,0,0,0.06172839506172839,305.92592592592587,0)" xlink:href="#M"/><use transform="matrix(0.06172839506172839,0,0,0.06172839506172839,312.09876543209873,0)" xlink:href="#G"/><use transform="matrix(0.06172839506172839,0,0,0.06172839506172839,324.4444444444444,0)" xlink:href="#B"/><use transform="matrix(0.06172839506172839,0,0,0.06172839506172839,330.61728395061726,0)" xlink:href="#J"/><use transform="matrix(0.06172839506172839,0,0,0.06172839506172839,337.96296296296293,0)" xlink:href="#L"/><use transform="matrix(0.06172839506172839,0,0,0.06172839506172839,350.3086419753086,0)" xlink:href="#K"/><use transform="matrix(0.06172839506172839,0,0,0.06172839506172839,361.4197530864197,0)" xlink:href="#E"/><use transform="matrix(0.06172839506172839,0,0,0.06172839506172839,373.76543209876536,0)" xlink:href="#N"/><use transform="matrix(0.06172839506172839,0,0,0.06172839506172839,386.11111111111103,0)" xlink:href="#O"/><use transform="matrix(0.06172839506172839,0,0,0.06172839506172839,398.4567901234567,0)" xlink:href="#E"/><use transform="matrix(0.06172839506172839,0,0,0.06172839506172839,410.80246913580237,0)" xlink:href="#O"/><use transform="matrix(0.06172839506172839,0,0,0.06172839506172839,423.14814814814804,0)" xlink:href="#G"/><use transform="matrix(0.06172839506172839,0,0,0.06172839506172839,435.4938271604937,0)" xlink:href="#J"/></g><g id="y"><use transform="matrix(0.06172839506172839,0,0,0.06172839506172839,0,0)" xlink:href="#av"/><use transform="matrix(0.06172839506172839,0,0,0.06172839506172839,12.345679012345679,0)" xlink:href="#M"/><use transform="matrix(0.06172839506172839,0,0,0.06172839506172839,18.51851851851852,0)" xlink:href="#M"/><use transform="matrix(0.06172839506172839,0,0,0.06172839506172839,24.691358024691358,0)" xlink:href="#I"/><use transform="matrix(0.06172839506172839,0,0,0.06172839506172839,37.03703703703704,0)" xlink:href="#aP"/><use transform="matrix(0.06172839506172839,0,0,0.06172839506172839,43.20987654320988,0)" xlink:href="#B"/><use transform="matrix(0.06172839506172839,0,0,0.06172839506172839,49.38271604938272,0)" xlink:href="#B"/><use transform="matrix(0.06172839506172839,0,0,0.06172839506172839,55.555555555555564,0)" xlink:href="#V"/><use transform="matrix(0.06172839506172839,0,0,0.06172839506172839,60.43209876543211,0)" xlink:href="#G"/><use transform="matrix(0.06172839506172839,0,0,0.06172839506172839,72.77777777777779,0)" xlink:href="#K"/><use transform="matrix(0.06172839506172839,0,0,0.06172839506172839,83.8888888888889,0)" xlink:href="#E"/><use transform="matrix(0.06172839506172839,0,0,0.06172839506172839,96.23456790123458,0)" xlink:href="#V"/><use transform="matrix(0.06172839506172839,0,0,0.06172839506172839,101.11111111111113,0)" xlink:href="#av"/><use transform="matrix(0.06172839506172839,0,0,0.06172839506172839,113.45679012345681,0)" xlink:href="#G"/><use transform="matrix(0.06172839506172839,0,0,0.06172839506172839,125.8024691358025,0)" xlink:href="#D"/><use transform="matrix(0.06172839506172839,0,0,0.06172839506172839,136.9135802469136,0)" xlink:href="#M"/><use transform="matrix(0.06172839506172839,0,0,0.06172839506172839,143.08641975308643,0)" xlink:href="#aP"/><use transform="matrix(0.06172839506172839,0,0,0.06172839506172839,149.25925925925927,0)" xlink:href="#aQ"/><use transform="matrix(0.06172839506172839,0,0,0.06172839506172839,161.60493827160494,0)" xlink:href="#aR"/><use transform="matrix(0.06172839506172839,0,0,0.06172839506172839,173.9506172839506,0)" xlink:href="#aQ"/><use transform="matrix(0.06172839506172839,0,0,0.06172839506172839,186.29629629629628,0)" xlink:href="#aS"/><use transform="matrix(0.06172839506172839,0,0,0.06172839506172839,198.64197530864195,0)" xlink:href="#B"/><use transform="matrix(0.06172839506172839,0,0,0.06172839506172839,204.81481481481478,0)" xlink:href="#C"/><use transform="matrix(0.06172839506172839,0,0,0.06172839506172839,223.27160493827157,0)" xlink:href="#D"/><use transform="matrix(0.06172839506172839,0,0,0.06172839506172839,234.38271604938268,0)" xlink:href="#K"/><use transform="matrix(0.06172839506172839,0,0,0.06172839506172839,245.4938271604938,0)" xlink:href="#aM"/><use transform="matrix(0.06172839506172839,0,0,0.06172839506172839,257.8395061728395,0)" xlink:href="#J"/><use transform="matrix(0.06172839506172839,0,0,0.06172839506172839,265.18518518518516,0)" xlink:href="#D"/><use transform="matrix(0.06172839506172839,0,0,0.06172839506172839,276.29629629629625,0)" xlink:href="#E"/><use transform="matrix(0.06172839506172839,0,0,0.06172839506172839,288.6419753086419,0)" xlink:href="#F"/><use transform="matrix(0.06172839506172839,0,0,0.06172839506172839,300.9876543209876,0)" xlink:href="#G"/><use transform="matrix(0.06172839506172839,0,0,0.06172839506172839,313.33333333333326,0)" xlink:href="#H"/><use transform="matrix(0.06172839506172839,0,0,0.06172839506172839,325.6790123456789,0)" xlink:href="#G"/><use transform="matrix(0.06172839506172839,0,0,0.06172839506172839,338.0246913580246,0)" xlink:href="#B"/><use transform="matrix(0.06172839506172839,0,0,0.06172839506172839,344.19753086419746,0)" xlink:href="#I"/><use transform="matrix(0.06172839506172839,0,0,0.06172839506172839,356.54320987654313,0)" xlink:href="#J"/><use transform="matrix(0.06172839506172839,0,0,0.06172839506172839,363.8888888888888,0)" xlink:href="#G"/><use transform="matrix(0.06172839506172839,0,0,0.06172839506172839,376.23456790123447,0)" xlink:href="#K"/><use transform="matrix(0.06172839506172839,0,0,0.06172839506172839,387.34567901234556,0)" xlink:href="#L"/><use transform="matrix(0.06172839506172839,0,0,0.06172839506172839,399.6913580246912,0)" xlink:href="#D"/><use transform="matrix(0.06172839506172839,0,0,0.06172839506172839,410.8024691358023,0)" xlink:href="#E"/><use transform="matrix(0.06172839506172839,0,0,0.06172839506172839,423.148148148148,0)" xlink:href="#J"/><use transform="matrix(0.06172839506172839,0,0,0.06172839506172839,430.49382716049365,0)" xlink:href="#B"/><use transform="matrix(0.06172839506172839,0,0,0.06172839506172839,436.6666666666665,0)" xlink:href="#E"/><use transform="matrix(0.06172839506172839,0,0,0.06172839506172839,449.0123456790122,0)" xlink:href="#F"/><use transform="matrix(0.06172839506172839,0,0,0.06172839506172839,461.35802469135785,0)" xlink:href="#G"/><use transform="matrix(0.06172839506172839,0,0,0.06172839506172839,473.7037037037035,0)" xlink:href="#H"/><use transform="matrix(0.06172839506172839,0,0,0.06172839506172839,486.0493827160492,0)" xlink:href="#G"/><use transform="matrix(0.06172839506172839,0,0,0.06172839506172839,498.39506172839486,0)" xlink:href="#B"/><use transform="matrix(0.06172839506172839,0,0,0.06172839506172839,504.5679012345677,0)" xlink:href="#M"/><use transform="matrix(0.06172839506172839,0,0,0.06172839506172839,510.7407407407406,0)" xlink:href="#G"/><use transform="matrix(0.06172839506172839,0,0,0.06172839506172839,523.0864197530863,0)" xlink:href="#B"/><use transform="matrix(0.06172839506172839,0,0,0.06172839506172839,529.2592592592591,0)" xlink:href="#J"/><use transform="matrix(0.06172839506172839,0,0,0.06172839506172839,536.6049382716049,0)" xlink:href="#L"/><use transform="matrix(0.06172839506172839,0,0,0.06172839506172839,548.9506172839506,0)" xlink:href="#K"/><use transform="matrix(0.06172839506172839,0,0,0.06172839506172839,560.0617283950617,0)" xlink:href="#E"/><use transform="matrix(0.06172839506172839,0,0,0.06172839506172839,572.4074074074074,0)" xlink:href="#N"/><use transform="matrix(0.06172839506172839,0,0,0.06172839506172839,584.7530864197531,0)" xlink:href="#O"/><use transform="matrix(0.06172839506172839,0,0,0.06172839506172839,597.0987654320988,0)" xlink:href="#E"/><use transform="matrix(0.06172839506172839,0,0,0.06172839506172839,609.4444444444446,0)" xlink:href="#O"/><use transform="matrix(0.06172839506172839,0,0,0.06172839506172839,621.7901234567903,0)" xlink:href="#G"/><use transform="matrix(0.06172839506172839,0,0,0.06172839506172839,634.135802469136,0)" xlink:href="#J"/></g><path fill="#3a414a" d="M179-190L93 31C79 59 56 82 12 73V49c39 6 53-20 64-50L1-190h34L92-34l54-156h33" id="aT"/><g id="z"><use transform="matrix(0.06172839506172839,0,0,0.06172839506172839,0,0)" xlink:href="#F"/><use transform="matrix(0.06172839506172839,0,0,0.06172839506172839,12.345679012345679,0)" xlink:href="#G"/><use transform="matrix(0.06172839506172839,0,0,0.06172839506172839,24.691358024691358,0)" xlink:href="#O"/><use transform="matrix(0.06172839506172839,0,0,0.06172839506172839,37.03703703703704,0)" xlink:href="#aT"/></g><g id="A"><use transform="matrix(0.06172839506172839,0,0,0.06172839506172839,0,0)" xlink:href="#aK"/><use transform="matrix(0.06172839506172839,0,0,0.06172839506172839,14.814814814814813,0)" xlink:href="#F"/><use transform="matrix(0.06172839506172839,0,0,0.06172839506172839,27.160493827160494,0)" xlink:href="#G"/><use transform="matrix(0.06172839506172839,0,0,0.06172839506172839,39.50617283950617,0)" xlink:href="#H"/><use transform="matrix(0.06172839506172839,0,0,0.06172839506172839,51.85185185185185,0)" xlink:href="#G"/><use transform="matrix(0.06172839506172839,0,0,0.06172839506172839,64.19753086419753,0)" xlink:href="#P"/><use transform="matrix(0.06172839506172839,0,0,0.06172839506172839,80.18518518518519,0)" xlink:href="#M"/><use transform="matrix(0.06172839506172839,0,0,0.06172839506172839,86.35802469135803,0)" xlink:href="#G"/></g></defs></g></svg>