<svg xmlns="http://www.w3.org/2000/svg" xmlns:xlink="http://www.w3.org/1999/xlink" xmlns:lucid="lucid" width="1521" height="861"><g transform="translate(-119.5 -259.5)" lucid:page-tab-id="_xT5uW7_4gdH"><path d="M140 286a6 6 0 0 1 6-6h1468a6 6 0 0 1 6 6v808a6 6 0 0 1-6 6H146a6 6 0 0 1-6-6z" fill-opacity="0"/><path d="M156 280h9.97m5 0h9.98m5 0h9.98m5 0h9.98m5 0h10m4.98 0h10m4.98 0h10m4.98 0h10m4.98 0h10m4.98 0h10m4.98 0h10m4.98 0h10m4.98 0h10m4.98 0h10m4.98 0h10m4.98 0h10m4.98 0h10m4.98 0h10m4.98 0h10m4.98 0h9.98m5 0h10m4.98 0h9.98m5 0h9.98m5 0h9.98m5 0h9.98m5 0h9.98m5 0h9.98m5 0h9.98m5 0h9.98m5 0h9.98m5 0h9.98m5 0h9.98m5 0h9.98m5 0h9.98m5 0h9.98m5 0h9.98m5 0h9.98m5 0h9.98m5 0h9.98m5 0h9.98m5 0h9.98m5 0h9.98m5 0h9.98m5 0h9.98m5 0h9.98m5 0h9.97m5 0h9.98m5 0H870m5 0h10m5 0h9.97m5 0h9.98m5 0h9.98m5 0h9.98m5 0h10m4.98 0h10m4.98 0h10m4.98 0h10m4.98 0h10m4.98 0h10m4.98 0h10m4.98 0h10m4.98 0h10m4.98 0h10m4.98 0h10m4.98 0h10m4.98 0h10m4.98 0h10m4.98 0h10m4.98 0h10m4.98 0h10m4.98 0h9.98m5 0h9.98m5 0h9.98m5 0h9.98m5 0h9.98m5 0h9.98m5 0h9.98m5 0h9.98m5 0h9.98m5 0h9.98m5 0h9.98m5 0h9.98m5 0h9.98m5 0h9.98m5 0h9.98m5 0h9.98m5 0h9.98m5 0h9.98m5 0h9.98m5 0h9.98m5 0h9.98m5 0h9.98m5 0h9.98m5 0h9.98m5 0h9.97m5 0h9.98m5 0h9.98m5 0h5l.94.07.9.22.88.35.8.5.72.6.6.72.5.8.37.88.23.9.07.95v5m0 4.98v9.97m0 5v9.96m0 5v9.98m0 4.98v9.98m0 5v9.96m0 5v9.96m0 5v9.97m0 5v9.96m0 4.98v9.97m0 5v9.97m0 5v9.96m0 5v9.96m0 5v9.97m0 5v9.97m0 5v9.96m0 5v9.97m0 4.98v9.98m0 5v9.96m0 5v9.96m0 5v9.97m0 5v9.96m0 5v9.97m0 5v9.97m0 4.98v9.98m0 5v9.96m0 5v9.97m0 4.98v10m0 4.98v9.97m0 5v9.96m0 5v9.98m0 4.98v9.98m0 5v9.96m0 5v9.97m0 4.98v9.98m0 5v9.96m0 4.98v9.97m0 5v9.97m0 5v9.96m0 5v9.96m0 5v9.97m0 5v9.97m0 5v9.96m0 5v9.97m0 4.98v9.98m0 5v9.96m0 5v9.96m0 5v9.97m0 5v9.96m0 5v9.97m0 5v9.97m0 4.98v9.98m0 5v9.96m0 5v9.97m0 4.98v5l-.07.94-.22.9-.35.88-.5.8-.6.72-.72.6-.8.5-.88.37-.9.23-.95.07h-5m-5 0h-9.97m-5 0h-9.98m-5 0h-9.98m-5 0h-9.98m-5 0h-10m-4.98 0h-10m-4.98 0h-10m-4.98 0h-10m-4.98 0h-10m-4.98 0h-10m-4.98 0h-10m-4.98 0h-10m-4.98 0h-10m-4.98 0h-10m-4.98 0h-10m-4.98 0h-10m-4.98 0h-10m-4.98 0h-10m-4.98 0h-10m-4.98 0h-10m-4.98 0h-10m-4.98 0h-9.98m-5 0h-9.98m-5 0h-9.98m-5 0h-9.98m-5 0h-9.98m-5 0h-9.98m-5 0h-9.98m-5 0h-9.98m-5 0h-9.98m-5 0h-9.98m-5 0h-9.98m-5 0h-9.98m-5 0h-9.98m-5 0h-9.98m-5 0h-9.98m-5 0h-9.98m-5 0h-9.98m-5 0h-9.98m-5 0h-9.98m-5 0h-9.98m-5 0h-9.98m-5 0h-9.98m-5 0h-9.98m-5 0h-9.98m-5 0h-9.97m-5 0h-9.98m-5 0H890m-5 0h-10m-5 0h-9.97m-5 0h-9.98m-5 0h-9.98m-5 0h-9.98m-5 0h-10m-4.98 0h-10m-4.98 0h-10m-4.98 0h-10m-4.98 0h-10m-4.98 0h-10m-4.98 0h-10m-4.98 0h-10m-4.98 0h-10m-4.98 0h-10m-4.98 0h-10m-4.98 0h-10m-4.98 0h-10m-4.98 0h-10m-4.98 0h-10m-4.98 0h-10m-4.98 0h-10m-4.98 0h-9.98m-5 0h-9.98m-5 0h-9.98m-5 0h-9.98m-5 0h-9.98m-5 0h-9.98m-5 0h-9.98m-5 0h-9.98m-5 0h-9.98m-5 0h-9.98m-5 0h-9.98m-5 0h-9.98m-5 0h-9.98m-5 0h-9.98m-5 0h-9.98m-5 0h-9.98m-5 0h-9.98m-5 0h-9.98m-5 0h-9.98m-5 0h-9.98m-5 0h-9.98m-5 0h-9.98m-5 0h-9.97m-5 0h-9.97m-5 0h-9.98m-5 0h-9.98m-5 0H156m-5 0h-5l-.94-.07-.9-.22-.88-.35-.8-.5-.72-.6-.6-.72-.5-.8-.37-.88-.23-.9-.07-.95v-5m0-4.97v-9.98m0-5v-9.96m0-5v-9.98m0-4.98v-9.98m0-5v-9.96m0-5v-9.97m0-4.98v-9.98m0-5v-9.96m0-4.98v-9.97m0-5v-9.97m0-5v-9.96m0-5v-9.96m0-5v-9.97m0-5v-9.97m0-5v-9.96m0-5v-9.97m0-4.98v-9.98m0-5v-9.96m0-5v-9.96m0-5v-9.97m0-5v-9.96m0-5v-9.97m0-5v-9.97m0-4.98v-9.98m0-5v-9.96m0-5v-9.97m0-4.98v-10m0-4.98v-9.97m0-5v-9.96m0-5v-9.98m0-4.98v-9.98m0-5v-9.96m0-5v-9.97m0-4.98v-9.98m0-5v-9.96m0-4.98v-9.97m0-5v-9.97m0-5v-9.96m0-5v-9.96m0-5v-9.97m0-5v-9.97m0-5v-9.96m0-5v-9.96m0-4.98v-9.98m0-5v-9.96m0-5v-9.96m0-5v-9.97m0-5v-9.96m0-5v-9.97m0-5v-9.97m0-4.98v-9.98m0-5v-9.96m0-5V296m0-5V286l.07-.94.22-.9.35-.88.5-.8.6-.72.72-.6.8-.5.88-.37.9-.23.95-.07h5" stroke="#3a414a" fill="none"/><path d="M260 666a6 6 0 0 1 6-6h408a6 6 0 0 1 6 6v407.5a6 6 0 0 1-6 6H266a6 6 0 0 1-6-6z" stroke="#3a414a" fill="#fff"/><path d="M309.18 720.8a10 10 0 0 1 8.82-5.3h84a10 10 0 0 1 8.82 5.3l26.36 49.4a11.25 11.25 0 0 1 0 10.6l-26.36 49.4a10 10 0 0 1-8.82 5.3h-84a10 10 0 0 1-8.82-5.3l-26.36-49.4a11.25 11.25 0 0 1 0-10.6z" stroke="#3a414a" fill="#fff"/><use xlink:href="#a" transform="matrix(1,0,0,1,285,720.5000306222228) translate(21.486481481481484 59.02777777777778)"/><use xlink:href="#b" transform="matrix(1,0,0,1,285,720.5000306222228) translate(58.461790123456794 59.02777777777778)"/><path d="M420 1003c0 6.63-26.86 12-60 12s-60-5.37-60-12v-96c0-6.63 26.86-12 60-12s60 5.37 60 12z" stroke="#3a414a" fill="#fff"/><path d="M420 907c0 6.63-26.86 12-60 12s-60-5.37-60-12" stroke="#3a414a" fill="none"/><use xlink:href="#c" transform="matrix(1,0,0,1,305,924.0000741158719) translate(5.709876543209873 47.34027777777778)"/><path d="M829.18 496.9a10 10 0 0 1 8.82-5.3h84a10 10 0 0 1 8.82 5.3l26.36 49.4a11.25 11.25 0 0 1 0 10.6l-26.36 49.4a10 10 0 0 1-8.82 5.3h-84a10 10 0 0 1-8.82-5.3l-26.36-49.4a11.25 11.25 0 0 1 0-10.6z" stroke="#3a414a" fill="#fff"/><use xlink:href="#d" transform="matrix(1,0,0,1,805,496.6) translate(47.90623456790123 59.02777777777778)"/><path d="M360 836.5v41.62" stroke="#3a414a" fill="none"/><path d="M360.5 836.5h-1v-.5h1z" stroke="#3a414a" stroke-width=".05" fill="#3a414a"/><path d="M360 892.88l-4.63-14.26h9.26z" stroke="#3a414a" fill="#3a414a"/><path d="M1532 300c15.46 0 28 13.43 28 30s-12.54 30-28 30h-84c-15.46 0-28-13.43-28-30s12.54-30 28-30z" fill="#dfe3e8"/><path d="M1541.85 302l2.85 1.26 3.86 2.54 1.73 1.63m3.37 3.74l1.4 1.85 2.4 4.5.85 2.56m1.18 4.9l.42 2.72.08 2.3-.42 5.04m-1.2 4.9l-.12.5-2.08 4.7-2.46 3.73m-3.38 3.76l-.24.26-3.73 2.85-4 2.12-.5.17m-4.85 1.4l-3.14.5-1.88.06h-4.67m-4.66 0h-9.34m-4.66 0h-9.34m-4.66 0h-9.34m-4.66 0h-9.34m-4.66 0h-9.34m-4.66 0H1448l-4.38-.37-.64-.16m-4.83-1.46l-2.85-1.26-3.86-2.54-1.73-1.63m-3.37-3.74l-1.4-1.85-2.4-4.5-.85-2.56m-1.18-4.9l-.42-2.72-.08-2.3.42-5.04m1.2-4.9l.12-.5 2.08-4.7 2.46-3.73m3.38-3.76l.24-.26 3.73-2.85 4-2.12.5-.17m4.85-1.4l3.14-.5 1.88-.06h4.67m4.66 0h9.34m4.66 0h9.34m4.66 0h9.34m4.66 0h9.34m4.66 0h9.34m4.66 0h4.67l4.38.37.64.16" stroke="#3a414a" fill="none"/><use xlink:href="#e" transform="matrix(1,0,0,1,1425,305) translate(4.691358024691354 30.27777777777778)"/><path d="M919.5 431.6H886a6 6 0 0 0-6 6v37.12" stroke="#3a414a" fill="none"/><path d="M920 431.6l.05.5h-.56v-1h.55zm3 .5h-2.95l-.05-.5.05-.5H923z" stroke="#3a414a" stroke-width=".05" fill="#3a414a"/><path d="M880 489.48l-4.63-14.26h9.26z" stroke="#3a414a" fill="#3a414a"/><path d="M1419 330H986a6 6 0 0 0-6 6v19.22" stroke="#3a414a" fill="none"/><path d="M1419.5 330l.02.5h-.53v-1h.54z" stroke="#3a414a" stroke-width=".05" fill="#3a414a"/><path d="M980 370l-4.63-14.28h9.26z" stroke="#3a414a" fill="#3a414a"/><path d="M979.88 491.6c-2.88 0-5.76-1.2-7.92-3.36l-48.6-48.72c-2.16-2.16-3.36-5.04-3.36-7.92s1.2-5.76 3.36-7.92l48.6-48.72c2.16-2.16 5.04-3.36 7.92-3.36s5.76 1.2 7.92 3.36l48.84 48.96c2.16 2.16 3.36 4.8 3.36 7.92 0 2.88-1.2 5.76-3.36 7.92l-48.84 48.48c-2.16 2.16-5.04 3.36-7.92 3.36" stroke="#000" stroke-opacity="0" fill="#7fba00"/><path d="M991.23 416.2c-3.36 2.56-7.28 3.8-11.2 3.8-5.57 0-11.08-2.5-14.7-7.24-6.2-8.1-4.66-19.73 3.44-25.95 3.36-2.58 7.3-3.8 11.23-3.8 5.54 0 11.05 2.5 14.67 7.25 6.2 8.15 4.66 19.73-3.44 25.95" stroke="#000" stroke-opacity="0" fill="#fff"/><path d="M987.8 374.94c-2.16-2.1-5.06-3.34-7.88-3.34-2.9 0-5.8 1.24-7.96 3.34l-48.64 48.72c-2.16 2.2-3.32 5.06-3.32 7.93 0 2.85 1.16 5.72 3.32 7.9l27.6 27.62 51.95-77.08-15.08-15.1z" stroke="#000" stroke-opacity="0" fill="#fff" fill-opacity=".15"/><path d="M979.88 481.04l15.8-15.87h-11.25v-47.6h-9.36v47.6h-11l15.8 15.87z" stroke="#000" stroke-opacity="0" fill="#fff"/><path d="M1014.2 451.95v-22.4l-7.8 7.8-20.2-20.26-6.8 6.8 20.23 20.24-7.8 7.8h22.37z" stroke="#000" stroke-opacity="0" fill="#fff"/><path d="M945.6 452.04h22.34l-7.78-7.8 20.8-20.83-6.8-6.8-20.8 20.84-7.77-7.8v22.4z" stroke="#000" stroke-opacity="0" fill="#fff"/><path d="M989.74 414.25c-2.9 2.22-6.34 3.3-9.74 3.3-4.8 0-9.58-2.18-12.72-6.28-5.38-7.03-4.04-17.1 2.98-22.5 2.92-2.25 6.34-3.3 9.74-3.3 4.8 0 9.58 2.17 12.72 6.28 5.38 7.03 4.04 17.1-2.98 22.5" stroke="#000" stroke-opacity="0" fill="#59b4d9"/><path d="M986.8 404.32c1.16 1.52 3.3 1.8 4.82.66.1-.08.15-.14.2-.22 1.57 1.1 2.62 1.83 3.23 2.22.17-.45.32-.9.44-1.36-.65-.47-1.52-1.14-2.77-2.16.4-1.08.3-2.33-.47-3.33-1.07-1.38-2.96-1.74-4.44-.88-1.63-1.47-3.43-3.13-5.32-5.02 5.87-3.18 10.05-2.7 10.05-2.7-.7-.9-1.48-1.68-2.32-2.37-2.47-.4-6.3-.36-10.72 2-1.44-1.56-2.95-3.2-4.46-4.96-.73.22-1.42.52-2.12.86 1.13 1.85 2.64 3.68 4.33 5.5h.03c-1.43 1-3.02 2.34-4.48 3.9l-.52.57c-.87-.2-1.8-.14-2.64.2-1.45-3.16-1.34-5.7-1.1-6.96-.64.64-1.22 1.33-1.75 2.08-.4 1.55-.47 3.8.63 6.48-1.28 1.7-1.33 4.1 0 5.88.12.17.23.3.38.42-.6 2.02-.86 3.96-.95 5.63.14.22.14.38.32.58.75 1 1.7 1.83 2.64 2.57-.1-1.77.04-4.37 1.12-7.3.75.07 1.54-.07 2.23-.37.4.36.84.75 1.3 1.1 1.58 1.25 3.14 2.23 4.68 3-.08.78.12 1.58.6 2.25 1.1 1.4 3.1 1.66 4.5.58.28-.23.5-.47.68-.78 2.5.56 4.7.67 6.32.67.23 0 1.4-1.58 2.06-2.55-1 .22-3.92.6-7.9-.53-.1-.44-.3-.9-.58-1.27-1-1.33-2.85-1.6-4.24-.72-1.37-.75-2.82-1.7-4.33-2.9l-.87-.7c.93-1.45 1.02-3.3.2-4.86.18-.2.38-.36.55-.55 1.5-1.4 2.9-2.5 4.2-3.38l-.15-.18.15.17c2 1.85 4.12 3.6 6.12 5.17-.52 1.1-.43 2.5.38 3.55z" stroke="#000" stroke-opacity="0" fill="#fff"/><path d="M1060 420h267.35v51.6H1060z" fill="#fff" fill-opacity="0"/><use xlink:href="#f" transform="matrix(1,0,0,1,1065,425) translate(0 19.73333333333333)"/><use xlink:href="#g" transform="matrix(1,0,0,1,1065,425) translate(127.23888888888885 19.73333333333333)"/><path d="M539.68 720.8a10 10 0 0 1 8.82-5.3h84a10 10 0 0 1 8.82 5.3l26.36 49.4a11.25 11.25 0 0 1 0 10.6l-26.36 49.4a10 10 0 0 1-8.82 5.3h-84a10 10 0 0 1-8.82-5.3l-26.36-49.4a11.25 11.25 0 0 1 0-10.6z" stroke="#3a414a" fill="#fff"/><use xlink:href="#a" transform="matrix(1,0,0,1,515.4997057273082,720.5000306222228) translate(24.511172839506173 59.02777777777778)"/><use xlink:href="#h" transform="matrix(1,0,0,1,515.4997057273082,720.5000306222228) translate(61.48648148148148 59.02777777777778)"/><path d="M650.5 1003c0 6.63-26.86 12-60 12s-60-5.37-60-12v-96c0-6.63 26.86-12 60-12s60 5.37 60 12z" stroke="#3a414a" fill="#fff"/><path d="M650.5 907c0 6.63-26.86 12-60 12s-60-5.37-60-12" stroke="#3a414a" fill="none"/><use xlink:href="#c" transform="matrix(1,0,0,1,535.4997057273082,924.0000741158719) translate(5.709876543209873 47.34027777777778)"/><path d="M824.84 600.16H596.5a6 6 0 0 0-6 6v92.46" stroke="#3a414a" fill="none"/><path d="M825.6 600.66h-.78v-1h.25z" stroke="#3a414a" stroke-width=".05" fill="#3a414a"/><path d="M590.5 713.38l-4.64-14.26h9.27z" stroke="#3a414a" fill="#3a414a"/><path d="M800.5 551.6H366a6 6 0 0 0-6 6v141.02" stroke="#3a414a" fill="none"/><path d="M801 551.6l.02.5h-.53v-1h.52z" stroke="#3a414a" stroke-width=".05" fill="#3a414a"/><path d="M360 713.38l-4.63-14.26h9.26z" stroke="#3a414a" fill="#3a414a"/><path d="M590.5 836.5v41.62" stroke="#3a414a" fill="none"/><path d="M591 836.5h-1v-.5h1z" stroke="#3a414a" stroke-width=".05" fill="#3a414a"/><path d="M590.5 892.88l-4.64-14.26h9.27z" stroke="#3a414a" fill="#3a414a"/><path d="M300 1037.4h320v37.1H300z" fill="#ced4db"/><use xlink:href="#i" transform="matrix(1,0,0,1,305,1042.4002352190423) translate(19.593518518518522 21.48333333333333)"/><use xlink:href="#j" transform="matrix(1,0,0,1,305,1042.4002352190423) translate(61.937962962962956 21.48333333333333)"/><path d="M170 300h550v106.53H170z" stroke="#4c535d" fill="url(#k)"/><use xlink:href="#l" transform="matrix(1,0,0,1,175,305) translate(60.07993827160513 36.66736111111109)"/><use xlink:href="#m" transform="matrix(1,0,0,1,175,305) translate(157.02932098765442 36.66736111111109)"/><use xlink:href="#n" transform="matrix(1,0,0,1,175,305) translate(265.8546296296296 36.66736111111109)"/><use xlink:href="#o" transform="matrix(1,0,0,1,175,305) translate(453.10586419753065 36.66736111111109)"/><use xlink:href="#p" transform="matrix(1,0,0,1,175,305) translate(111.99043209876555 68.93402777777773)"/><use xlink:href="#q" transform="matrix(1,0,0,1,175,305) translate(299.6898148148148 68.93402777777773)"/><path d="M740 666a6 6 0 0 1 6-6h268a6 6 0 0 1 6 6v402.5a6 6 0 0 1-6 6H746a6 6 0 0 1-6-6z" stroke="#3a414a" fill="#edf5ff"/><path d="M1150.16 666a6 6 0 0 1 6-6H1574a6 6 0 0 1 6 6v407.5a6 6 0 0 1-6 6h-417.84a6 6 0 0 1-6-6z" stroke="#3a414a" fill="#fff"/><path d="M894.68 757.06h-3.13v-14.02h-23.2v14.02h-3.12v-15.54c0-.84.7-1.52 1.56-1.52h26.32c.85 0 1.56.68 1.56 1.52zM878.16 760.6h3.6v3.03h-3.6v-3.04z" stroke="#fff" stroke-opacity="0" fill="#3f8624"/><path d="M879.95 755.05c-.4 0-.77-.13-1.05-.4l-13.17-12 2.13-2.24 12.1 11.05 12.08-11.04 2.14 2.24-13.17 12c-.28.28-.65.4-1.05.4z" stroke="#fff" stroke-opacity="0" fill="#3f8624"/><path d="M879.95 811.35c-12.1 0-24.95-3.38-24.95-9.6v-46.3c0-.38.05-.7.15-1.06.55-2.27 2.8-4.15 6.7-5.72l1.15 2.82c-2.8 1.07-4.55 2.38-4.85 3.58V801.75c0 2.7 8.35 6.53 21.85 6.53 13.5 0 21.85-3.82 21.85-6.52v-46.3-.38c-.3-1.2-2.05-2.5-4.85-3.58l1.15-2.82c3.9 1.5 6.15 3.45 6.75 5.7.05.38.1.7.1 1.07v46.3c-.1 6.22-12.95 9.6-25.05 9.6z" stroke="#fff" stroke-opacity="0" fill="#3f8624"/><path d="M879.95 763.66c-12.37 0-24.95-3.2-24.95-9.27h3.14c0 2.54 8.5 6.25 21.8 6.25 13.34 0 21.87-3.74 21.87-6.26h3.1c0 6.07-12.47 9.26-24.95 9.26z" stroke="#fff" stroke-opacity="0" fill="#3f8624"/><path d="M875.32 747.8h9.6c12.34 0 18.5 2.4 18.5 7.17v46.9c0 4.76-6.16 7.15-18.5 7.15h-9.6c-12.35 0-18.5-2.4-18.5-7.16v-46.9c0-4.77 6.15-7.15 18.5-7.15z" stroke="#fff" stroke-opacity="0" stroke-width=".39" fill="#fff" fill-opacity="0"/><path d="M866.6 741.86H893v16.1h-26.4v-16.1z" stroke="#fff" stroke-opacity="0" stroke-width=".34" fill="#fff" fill-opacity="0"/><path d="M1239.34 786.33a10 10 0 0 1 8.82-5.3h84a10 10 0 0 1 8.82 5.3l26.36 49.4a11.25 11.25 0 0 1 0 10.6l-26.36 49.4a10 10 0 0 1-8.82 5.3h-84a10 10 0 0 1-8.83-5.3l-26.35-49.4a11.25 11.25 0 0 1 0-10.6z" stroke="#3a414a" fill="#fff"/><use xlink:href="#r" transform="matrix(1,0,0,1,1215.1587422377715,786.0378634767673) translate(20.69944444444446 43.5)"/><use xlink:href="#s" transform="matrix(1,0,0,1,1215.1587422377715,786.0378634767673) translate(53.97722222222223 43.5)"/><use xlink:href="#t" transform="matrix(1,0,0,1,1215.1587422377715,786.0378634767673) translate(6.366111111111147 67.5)"/><path d="M761.55 1015.02h3.43v11.2c0 .5-.34.92-.77.92h-3.42c-.42 0-.77-.4-.77-.9v-9.4c0-.98.65-1.8 1.5-1.82z" stroke="#000" stroke-opacity="0" fill="#a3a3a3"/><path d="M761.55 1015.02h3.43v11.2c0 .5-.34.92-.77.92h-3.42c-.42 0-.77-.4-.77-.9v-9.4c0-.98.65-1.8 1.5-1.82z" stroke="#000" stroke-opacity="0" fill="#a3a3a3" fill-opacity=".5"/><path d="M800.18 1015.02h3.42c.83 0 1.5.8 1.5 1.78v9.43c0 .5-.34.9-.76.9h-3.4c-.4 0-.76-.4-.76-.9v-11.2z" stroke="#000" stroke-opacity="0" fill="#a3a3a3"/><path d="M800.18 1015.02h3.42c.83 0 1.5.8 1.5 1.78v9.43c0 .5-.34.9-.76.9h-3.4c-.4 0-.76-.4-.76-.9v-11.2z" stroke="#000" stroke-opacity="0" fill="#a3a3a3" fill-opacity=".5"/><path d="M805.1 1016.78v3.92h-45v-3.92c0-.98.66-1.78 1.47-1.78h42c.86 0 1.54.8 1.54 1.77z" stroke="#000" stroke-opacity="0" fill="#949494"/><path d="M760.78 1050.24h3.43c.44 0 .78.4.78.9v11.3h-3.43c-.83.04-1.52-.74-1.54-1.72v-.03-9.5c-.02-.5.3-.92.73-.96z" stroke="#000" stroke-opacity="0" fill="#a3a3a3"/><path d="M760.78 1050.24h3.43c.44 0 .78.4.78.9v11.3h-3.43c-.83.04-1.52-.74-1.54-1.72v-.03-9.5c-.02-.5.3-.92.73-.96z" stroke="#000" stroke-opacity="0" fill="#a3a3a3" fill-opacity=".5"/><path d="M800.95 1050.27h3.43c.43 0 .76.4.77.9v9.37c0 .97-.67 1.77-1.5 1.77h-3.47v-11.1c-.03-.48.3-.92.72-.96z" stroke="#000" stroke-opacity="0" fill="#a3a3a3"/><path d="M800.95 1050.27h3.43c.43 0 .76.4.77.9v9.37c0 .97-.67 1.77-1.5 1.77h-3.47v-11.1c-.03-.48.3-.92.72-.96z" stroke="#000" stroke-opacity="0" fill="#a3a3a3" fill-opacity=".5"/><path d="M760 1060.66v-3.9h45.03v3.9c0 1-.68 1.8-1.5 1.8H761.5c-.82 0-1.5-.8-1.5-1.8z" stroke="#000" stroke-opacity="0" fill="#949494"/><path d="M798.75 1038.2l-5.38-6.4c-.07-.14-.25-.17-.38-.06-.08.07-.1.18-.1.3v3.93c.02.15-.06.3-.2.34 0 .02 0 .02-.03.02h-13.02c-.6-.93-1.46-1.43-2.44-1.43l-.32-.02c-1.67 0-3.05 1.48-3.2 3.45-.18 2.1 1.13 3.98 2.9 4.2h.62c1-.04 1.87-.54 2.48-1.48h12.94c.12 0 .25.12.25.28v3.9c0 .16.1.3.25.3.08 0 .15-.03.2-.1l5.38-6.3c.22-.26.22-.66.05-.94z" stroke="#000" stroke-opacity="0" fill="url(#u)"/><path d="M766.92 1028.23v9.1h4.9c.46-2.44 2-4.22 4.1-4.7v-5.9h-7.75c-.7 0-1.26.68-1.25 1.5z" stroke="#000" stroke-opacity="0" fill="url(#v)"/><path d="M785.73 1026.73H778v5.93c.95.18 1.73.6 2.47 1.34h6.5v-5.8c0-.8-.54-1.47-1.25-1.47z" stroke="#000" stroke-opacity="0" fill="url(#w)"/><path d="M778 1044.77v5.86h7.73c.7 0 1.25-.67 1.25-1.5v-5.73h-6.47c-.75.76-1.54 1.2-2.5 1.37z" stroke="#000" stroke-opacity="0" fill="url(#x)"/><path d="M771.82 1040.03h-4.9v9.1c0 .84.55 1.5 1.25 1.5h7.74v-5.88c-2.1-.46-3.65-2.25-4.08-4.72z" stroke="#000" stroke-opacity="0" fill="url(#y)"/><path d="M761.5 1015h42.2c1 0 1.5.57 1.5 1.76v43.98c0 1.2-.5 1.76-1.5 1.76h-42.2c-1 0-1.5-.57-1.5-1.76v-43.98c0-1.2.5-1.76 1.5-1.76z" stroke="#000" stroke-opacity="0" fill-opacity="0"/><path d="M765.54 831.04h240v20h-240z" fill="#fff" fill-opacity="0"/><use xlink:href="#z" transform="matrix(1,0,0,1,770.5410891089111,836.0378634767673) translate(0 17.77777777777778)"/><path d="M1399.34 685.3a10 10 0 0 1 8.82-5.3h84a10 10 0 0 1 8.82 5.3l26.36 49.4a11.25 11.25 0 0 1 0 10.6l-26.36 49.4a10 10 0 0 1-8.82 5.3h-84a10 10 0 0 1-8.83-5.3L1373 745.3a11.25 11.25 0 0 1 0-10.6z" stroke="#3a414a" fill="#fff"/><use xlink:href="#r" transform="matrix(1,0,0,1,1375.1587422377715,685) translate(20.69944444444446 46.9375)"/><use xlink:href="#s" transform="matrix(1,0,0,1,1375.1587422377715,685) translate(53.97722222222223 46.9375)"/><use xlink:href="#A" transform="matrix(1,0,0,1,1375.1587422377715,685) translate(9.088333333333361 70.9375)"/><path d="M1231.24 1037.4h320v37.1h-320z" fill="#ced4db"/><use xlink:href="#B" transform="matrix(1,0,0,1,1236.2409204555934,1042.4002352190423) translate(37.785185185185185 21.48333333333333)"/><use xlink:href="#C" transform="matrix(1,0,0,1,1236.2409204555934,1042.4002352190423) translate(108.29074074074073 21.48333333333333)"/><path d="M1360.16 1007.95c0 5.27-31.34 9.55-70 9.55s-70-4.28-70-9.55v-76.4c0-5.27 31.34-9.55 70-9.55s70 4.28 70 9.55z" stroke="#3a414a" fill="#fff"/><path d="M1360.16 931.55c0 5.27-31.34 9.55-70 9.55s-70-4.28-70-9.55" stroke="#3a414a" fill="none"/><use xlink:href="#D" transform="matrix(1,0,0,1,1225.1587422377715,946.0999320085726) translate(-0.916666666666643 37.5)"/><path d="M1530.16 945.95c0 5.27-31.34 9.55-70 9.55s-70-4.28-70-9.55v-76.4c0-5.27 31.34-9.55 70-9.55s70 4.28 70 9.55z" stroke="#3a414a" fill="#fff"/><path d="M1530.16 869.55c0 5.27-31.34 9.55-70 9.55s-70-4.28-70-9.55" stroke="#3a414a" fill="none"/><use xlink:href="#E" transform="matrix(1,0,0,1,1395.1587422377715,884.1000061244446) translate(-3.6388888888888573 37.5)"/><path d="M811.08 1017.5h194.46v47.5H811.08z" fill="#dedeff"/><use xlink:href="#F" transform="matrix(1,0,0,1,816.0821782178219,1022.4999565063508) translate(32.12962962962963 22.52777777777778)"/><use xlink:href="#G" transform="matrix(1,0,0,1,816.0821782178219,1022.4999565063508) translate(111.01851851851852 22.52777777777778)"/><path d="M1066.55 802.4H921.37v-1h145.18zm163.42 0h-70.73v-1h70.73z" stroke="#3a414a" stroke-width=".05" fill="#3a414a"/><path d="M1230.2 802.4h-.25v-1h.78z" fill="#3a414a"/><path d="M1230.2 802.42h-.27v-1.05h.85zm-.22-1v.95h.2l.5-.95z" stroke="#3a414a" stroke-width=".05" fill="#3a414a"/><path d="M920.87 806.53l-14.27-4.63 14.27-4.64z" fill="#3a414a"/><path d="M921.37 807.22l-16.4-5.32 16.4-5.32zm-13.15-5.32l12.15 3.95v-7.9z" stroke="#3a414a" stroke-width=".05" fill="#3a414a"/><use xlink:href="#H" transform="matrix(1,0,0,1,1066.552635377826,791.2318125070533) translate(0 14.222222222222223)"/><path d="M1075.6 704.46l-.3.02-.84.2-.8.34-.73.45-.66.56-.56.65-.44.74-.33.8-.2.84-.07.88v37.32l-.08 1-.24 1-.4.93-.52.86-.66.78-.78.66-.87.53-.93.4-1 .23-1 .08H920.75v-1h143.4l.88-.07.84-.2.8-.33.73-.45.65-.57.56-.66.46-.73.33-.8.2-.84.06-.88V709.9l.08-1 .23-1 .4-.94.53-.87.66-.78.78-.66.87-.54.95-.4 1-.23.44-.04zm312.74-.04h-220.06v-1h220.06z" stroke="#3a414a" stroke-width=".05" fill="#3a414a"/><path d="M1388.57 704.42h-.25v-1h.78z" fill="#3a414a"/><path d="M1388.6 704.44h-.3v-1.05h.85zm-.25-1v.95h.2l.5-.96z" stroke="#3a414a" stroke-width=".05" fill="#3a414a"/><path d="M920.24 757.88l-14.26-4.64 14.26-4.63z" fill="#3a414a"/><path d="M920.74 758.57l-16.38-5.33 16.38-5.32zm-13.15-5.33l12.14 3.95v-7.9z" stroke="#3a414a" stroke-width=".05" fill="#3a414a"/><g><use xlink:href="#H" transform="matrix(1,0,0,1,1075.5882349759265,693.2493494236477) translate(0 14.222222222222223)"/></g><path d="M1450.16 801v42.45" stroke="#3a414a" fill="none"/><path d="M1450.66 801h-1v-.5h1z" stroke="#3a414a" stroke-width=".05" fill="#3a414a"/><path d="M1450.16 858.2l-4.64-14.25h9.27z" stroke="#3a414a" fill="#3a414a"/><path d="M1290.16 902.04v3.08" stroke="#3a414a" fill="none"/><path d="M1290.66 902.05h-1v-.5h1z" stroke="#3a414a" stroke-width=".05" fill="#3a414a"/><path d="M1290.16 919.88l-4.64-14.26h9.27z" stroke="#3a414a" fill="#3a414a"/><path d="M880.5 723.62h-1v-75.17h1zm0-96.5h-1V612.6h1z" stroke="#3a414a" stroke-width=".05" fill="#3a414a"/><path d="M880.5 612.6h-1v-.5h1z" fill="#3a414a"/><path d="M880.52 612.64h-1.04v-.56h1.04zm-1-.5v.45h.96v-.48z" stroke="#3a414a" stroke-width=".05" fill="#3a414a"/><path d="M880 738.38l-4.63-14.26h9.26z" fill="#3a414a"/><path d="M880 740l-5.32-16.38h10.64zm-3.95-15.38l3.95 12.14 3.95-12.14z" stroke="#3a414a" stroke-width=".05" fill="#3a414a"/><g><use xlink:href="#I" transform="matrix(1,0,0,1,839.5802469135803,627.1166805704053) translate(0 14.222222222222223)"/></g><defs><path d="M230 0l2-204L168 0h-37L68-204 70 0H24v-248h70l56 185 57-185h69V0h-46" id="J"/><path d="M137-138c1-29-70-34-71-4 15 46 118 7 119 86 1 83-164 76-172 9l43-7c4 19 20 25 44 25 33 8 57-30 24-41C81-84 22-81 20-136c-2-80 154-74 161-7" id="K"/><g id="a"><use transform="matrix(0.06172839506172839,0,0,0.06172839506172839,0,0)" xlink:href="#J"/><use transform="matrix(0.06172839506172839,0,0,0.06172839506172839,18.456790123456788,0)" xlink:href="#K"/></g><path d="M199 0l-22-63H83L61 0H9l90-248h61L250 0h-51zm-33-102l-36-108c-10 38-24 72-36 108h72" id="L"/><path d="M135-194c52 0 70 43 70 98 0 56-19 99-73 100-30 1-46-15-58-35L72 0H24l1-261h50v104c11-23 29-37 60-37zM114-30c31 0 40-27 40-66 0-37-7-63-39-63s-41 28-41 65c0 36 8 64 40 64" id="M"/><path d="M110-194c64 0 96 36 96 99 0 64-35 99-97 99-61 0-95-36-95-99 0-62 34-99 96-99zm-1 164c35 0 45-28 45-65 0-40-10-65-43-65-34 0-45 26-45 65 0 36 10 65 43 65" id="N"/><path d="M135-194c87-1 58 113 63 194h-50c-7-57 23-157-34-157-59 0-34 97-39 157H25l-1-190h47c2 12-1 28 3 38 12-26 28-41 61-42" id="O"/><g id="b"><use transform="matrix(0.06172839506172839,0,0,0.06172839506172839,0,0)" xlink:href="#L"/><use transform="matrix(0.06172839506172839,0,0,0.06172839506172839,15.987654320987653,0)" xlink:href="#M"/><use transform="matrix(0.06172839506172839,0,0,0.06172839506172839,29.50617283950617,0)" xlink:href="#N"/><use transform="matrix(0.06172839506172839,0,0,0.06172839506172839,43.02469135802469,0)" xlink:href="#O"/><use transform="matrix(0.06172839506172839,0,0,0.06172839506172839,56.54320987654321,0)" xlink:href="#N"/></g><path d="M24-248c120-7 223 5 221 122C244-46 201 0 124 0H24v-248zM76-40c74 7 117-18 117-86 0-67-45-88-117-82v168" id="P"/><path d="M133-34C117-15 103 5 69 4 32 3 11-16 11-54c-1-60 55-63 116-61 1-26-3-47-28-47-18 1-26 9-28 27l-52-2c7-38 36-58 82-57s74 22 75 68l1 82c-1 14 12 18 25 15v27c-30 8-71 5-69-32zm-48 3c29 0 43-24 42-57-32 0-66-3-65 30 0 17 8 27 23 27" id="Q"/><path d="M115-3C79 11 28 4 28-45v-112H4v-33h27l15-45h31v45h36v33H77v99c-1 23 16 31 38 25v30" id="R"/><path d="M185-48c-13 30-37 53-82 52C43 2 14-33 14-96s30-98 90-98c62 0 83 45 84 108H66c0 31 8 55 39 56 18 0 30-7 34-22zm-45-69c5-46-57-63-70-21-2 6-4 13-4 21h74" id="S"/><g id="c"><use transform="matrix(0.06172839506172839,0,0,0.06172839506172839,0,0)" xlink:href="#P"/><use transform="matrix(0.06172839506172839,0,0,0.06172839506172839,15.987654320987653,0)" xlink:href="#Q"/><use transform="matrix(0.06172839506172839,0,0,0.06172839506172839,28.333333333333332,0)" xlink:href="#R"/><use transform="matrix(0.06172839506172839,0,0,0.06172839506172839,35.67901234567901,0)" xlink:href="#Q"/><use transform="matrix(0.06172839506172839,0,0,0.06172839506172839,48.02469135802469,0)" xlink:href="#M"/><use transform="matrix(0.06172839506172839,0,0,0.06172839506172839,61.54320987654321,0)" xlink:href="#Q"/><use transform="matrix(0.06172839506172839,0,0,0.06172839506172839,73.88888888888889,0)" xlink:href="#K"/><use transform="matrix(0.06172839506172839,0,0,0.06172839506172839,86.23456790123457,0)" xlink:href="#S"/></g><path d="M24-248c93 1 206-16 204 79-1 75-69 88-152 82V0H24v-248zm52 121c47 0 100 7 100-41 0-47-54-39-100-39v80" id="T"/><path d="M195-6C206 82 75 100 31 46c-4-6-6-13-8-21l49-6c3 16 16 24 34 25 40 0 42-37 40-79-11 22-30 35-61 35-53 0-70-43-70-97 0-56 18-96 73-97 30 0 46 14 59 34l2-30h47zm-90-29c32 0 41-27 41-63 0-35-9-62-40-62-32 0-39 29-40 63 0 36 9 62 39 62" id="U"/><g id="d"><use transform="matrix(0.06172839506172839,0,0,0.06172839506172839,0,0)" xlink:href="#T"/><use transform="matrix(0.06172839506172839,0,0,0.06172839506172839,14.814814814814813,0)" xlink:href="#Q"/><use transform="matrix(0.06172839506172839,0,0,0.06172839506172839,27.160493827160494,0)" xlink:href="#U"/><use transform="matrix(0.06172839506172839,0,0,0.06172839506172839,40.67901234567901,0)" xlink:href="#N"/></g><path fill="#3a414a" d="M199 0l-22-63H83L61 0H9l90-248h61L250 0h-51zm-33-102l-36-108c-10 38-24 72-36 108h72" id="V"/><path fill="#3a414a" d="M135-194c53 0 70 44 70 98 0 56-19 98-73 100-31 1-45-17-59-34 3 33 2 69 2 105H25l-1-265h48c2 10 0 23 3 31 11-24 29-35 60-35zM114-30c33 0 39-31 40-66 0-38-9-64-40-64-56 0-55 130 0 130" id="W"/><path fill="#3a414a" d="M25 0v-261h50V0H25" id="X"/><path fill="#3a414a" d="M25-224v-37h50v37H25zM25 0v-190h50V0H25" id="Y"/><path fill="#3a414a" d="M190-63c-7 42-38 67-86 67-59 0-84-38-90-98-12-110 154-137 174-36l-49 2c-2-19-15-32-35-32-30 0-35 28-38 64-6 74 65 87 74 30" id="Z"/><path fill="#3a414a" d="M133-34C117-15 103 5 69 4 32 3 11-16 11-54c-1-60 55-63 116-61 1-26-3-47-28-47-18 1-26 9-28 27l-52-2c7-38 36-58 82-57s74 22 75 68l1 82c-1 14 12 18 25 15v27c-30 8-71 5-69-32zm-48 3c29 0 43-24 42-57-32 0-66-3-65 30 0 17 8 27 23 27" id="aa"/><path fill="#3a414a" d="M115-3C79 11 28 4 28-45v-112H4v-33h27l15-45h31v45h36v33H77v99c-1 23 16 31 38 25v30" id="ab"/><path fill="#3a414a" d="M110-194c64 0 96 36 96 99 0 64-35 99-97 99-61 0-95-36-95-99 0-62 34-99 96-99zm-1 164c35 0 45-28 45-65 0-40-10-65-43-65-34 0-45 26-45 65 0 36 10 65 43 65" id="ac"/><path fill="#3a414a" d="M135-194c87-1 58 113 63 194h-50c-7-57 23-157-34-157-59 0-34 97-39 157H25l-1-190h47c2 12-1 28 3 38 12-26 28-41 61-42" id="ad"/><g id="e"><use transform="matrix(0.06172839506172839,0,0,0.06172839506172839,0,0)" xlink:href="#V"/><use transform="matrix(0.06172839506172839,0,0,0.06172839506172839,15.987654320987653,0)" xlink:href="#W"/><use transform="matrix(0.06172839506172839,0,0,0.06172839506172839,29.50617283950617,0)" xlink:href="#W"/><use transform="matrix(0.06172839506172839,0,0,0.06172839506172839,43.02469135802469,0)" xlink:href="#X"/><use transform="matrix(0.06172839506172839,0,0,0.06172839506172839,49.19753086419753,0)" xlink:href="#Y"/><use transform="matrix(0.06172839506172839,0,0,0.06172839506172839,55.370370370370374,0)" xlink:href="#Z"/><use transform="matrix(0.06172839506172839,0,0,0.06172839506172839,67.71604938271605,0)" xlink:href="#aa"/><use transform="matrix(0.06172839506172839,0,0,0.06172839506172839,80.06172839506173,0)" xlink:href="#ab"/><use transform="matrix(0.06172839506172839,0,0,0.06172839506172839,87.40740740740742,0)" xlink:href="#Y"/><use transform="matrix(0.06172839506172839,0,0,0.06172839506172839,93.58024691358025,0)" xlink:href="#ac"/><use transform="matrix(0.06172839506172839,0,0,0.06172839506172839,107.09876543209877,0)" xlink:href="#ad"/></g><path d="M205 0l-28-72H64L36 0H1l101-248h38L239 0h-34zm-38-99l-47-123c-12 45-31 82-46 123h93" id="ae"/><path d="M115-194c55 1 70 41 70 98S169 2 115 4C84 4 66-9 55-30l1 105H24l-1-265h31l2 30c10-21 28-34 59-34zm-8 174c40 0 45-34 45-75s-6-73-45-74c-42 0-51 32-51 76 0 43 10 73 51 73" id="af"/><path d="M24 0v-261h32V0H24" id="ag"/><path d="M24-231v-30h32v30H24zM24 0v-190h32V0H24" id="ah"/><path d="M96-169c-40 0-48 33-48 73s9 75 48 75c24 0 41-14 43-38l32 2c-6 37-31 61-74 61-59 0-76-41-82-99-10-93 101-131 147-64 4 7 5 14 7 22l-32 3c-4-21-16-35-41-35" id="ai"/><path d="M141-36C126-15 110 5 73 4 37 3 15-17 15-53c-1-64 63-63 125-63 3-35-9-54-41-54-24 1-41 7-42 31l-33-3c5-37 33-52 76-52 45 0 72 20 72 64v82c-1 20 7 32 28 27v20c-31 9-61-2-59-35zM48-53c0 20 12 33 32 33 41-3 63-29 60-74-43 2-92-5-92 41" id="aj"/><path d="M59-47c-2 24 18 29 38 22v24C64 9 27 4 27-40v-127H5v-23h24l9-43h21v43h35v23H59v120" id="ak"/><path d="M100-194c62-1 85 37 85 99 1 63-27 99-86 99S16-35 15-95c0-66 28-99 85-99zM99-20c44 1 53-31 53-75 0-43-8-75-51-75s-53 32-53 75 10 74 51 75" id="al"/><path d="M117-194c89-4 53 116 60 194h-32v-121c0-31-8-49-39-48C34-167 62-67 57 0H25l-1-190h30c1 10-1 24 2 32 11-22 29-35 61-36" id="am"/><g id="f"><use transform="matrix(0.0685185185185185,0,0,0.0685185185185185,0,0)" xlink:href="#ae"/><use transform="matrix(0.0685185185185185,0,0,0.0685185185185185,16.444444444444443,0)" xlink:href="#af"/><use transform="matrix(0.0685185185185185,0,0,0.0685185185185185,30.148148148148145,0)" xlink:href="#af"/><use transform="matrix(0.0685185185185185,0,0,0.0685185185185185,43.85185185185185,0)" xlink:href="#ag"/><use transform="matrix(0.0685185185185185,0,0,0.0685185185185185,49.26481481481481,0)" xlink:href="#ah"/><use transform="matrix(0.0685185185185185,0,0,0.0685185185185185,54.67777777777778,0)" xlink:href="#ai"/><use transform="matrix(0.0685185185185185,0,0,0.0685185185185185,67.0111111111111,0)" xlink:href="#aj"/><use transform="matrix(0.0685185185185185,0,0,0.0685185185185185,80.7148148148148,0)" xlink:href="#ak"/><use transform="matrix(0.0685185185185185,0,0,0.0685185185185185,87.56666666666665,0)" xlink:href="#ah"/><use transform="matrix(0.0685185185185185,0,0,0.0685185185185185,92.97962962962961,0)" xlink:href="#al"/><use transform="matrix(0.0685185185185185,0,0,0.0685185185185185,106.68333333333331,0)" xlink:href="#am"/></g><path d="M143 4C61 4 22-44 18-125c-5-107 100-154 193-111 17 8 29 25 37 43l-32 9c-13-25-37-40-76-40-61 0-88 39-88 99 0 61 29 100 91 101 35 0 62-11 79-27v-45h-74v-28h105v86C228-13 192 4 143 4" id="an"/><path d="M100-194c63 0 86 42 84 106H49c0 40 14 67 53 68 26 1 43-12 49-29l28 8c-11 28-37 45-77 45C44 4 14-33 15-96c1-61 26-98 85-98zm52 81c6-60-76-77-97-28-3 7-6 17-6 28h103" id="ao"/><path d="M206 0h-36l-40-164L89 0H53L-1-190h32L70-26l43-164h34l41 164 42-164h31" id="ap"/><path d="M179-190L93 31C79 59 56 82 12 73V49c39 6 53-20 64-50L1-190h34L92-34l54-156h33" id="aq"/><g id="g"><use transform="matrix(0.0685185185185185,0,0,0.0685185185185185,0,0)" xlink:href="#an"/><use transform="matrix(0.0685185185185185,0,0,0.0685185185185185,19.185185185185183,0)" xlink:href="#aj"/><use transform="matrix(0.0685185185185185,0,0,0.0685185185185185,32.888888888888886,0)" xlink:href="#ak"/><use transform="matrix(0.0685185185185185,0,0,0.0685185185185185,39.74074074074073,0)" xlink:href="#ao"/><use transform="matrix(0.0685185185185185,0,0,0.0685185185185185,53.444444444444436,0)" xlink:href="#ap"/><use transform="matrix(0.0685185185185185,0,0,0.0685185185185185,71.19074074074072,0)" xlink:href="#aj"/><use transform="matrix(0.0685185185185185,0,0,0.0685185185185185,84.89444444444442,0)" xlink:href="#aq"/></g><path d="M67-125c0 53 21 87 73 88 37 1 54-22 65-47l45 17C233-25 199 4 140 4 58 4 20-42 15-125 8-235 124-281 211-232c18 10 29 29 36 50l-46 12c-8-25-30-41-62-41-52 0-71 34-72 86" id="ar"/><path d="M135-150c-39-12-60 13-60 57V0H25l-1-190h47c2 13-1 29 3 40 6-28 27-53 61-41v41" id="as"/><g id="h"><use transform="matrix(0.06172839506172839,0,0,0.06172839506172839,0,0)" xlink:href="#ar"/><use transform="matrix(0.06172839506172839,0,0,0.06172839506172839,15.987654320987653,0)" xlink:href="#Q"/><use transform="matrix(0.06172839506172839,0,0,0.06172839506172839,28.333333333333332,0)" xlink:href="#as"/><use transform="matrix(0.06172839506172839,0,0,0.06172839506172839,36.9753086419753,0)" xlink:href="#U"/><use transform="matrix(0.06172839506172839,0,0,0.06172839506172839,50.49382716049382,0)" xlink:href="#N"/></g><path d="M182-130c37 4 62 22 62 59C244 23 116-4 24 0v-248c84 5 203-23 205 63 0 31-19 50-47 55zM76-148c40-3 101 13 101-30 0-44-60-28-101-31v61zm0 110c48-3 116 14 116-37 0-48-69-32-116-35v72" id="at"/><g id="i"><use transform="matrix(0.0685185185185185,0,0,0.0685185185185185,0,0)" xlink:href="#P"/><use transform="matrix(0.0685185185185185,0,0,0.0685185185185185,17.746296296296293,0)" xlink:href="#at"/></g><path d="M136-208V0H84v-208H4v-40h212v40h-80" id="au"/><path d="M240-174c0 40-23 61-54 70L253 0h-59l-57-94H76V0H24v-248c93 4 217-23 216 74zM76-134c48-2 112 12 112-38 0-48-66-32-112-35v73" id="av"/><path d="M175 0L67-191c6 58 2 128 3 191H24v-248h59L193-55c-6-58-2-129-3-193h46V0h-61" id="aw"/><path d="M169-182c-1-43-94-46-97-3 18 66 151 10 154 114 3 95-165 93-204 36-6-8-10-19-12-30l50-8c3 46 112 56 116 5-17-69-150-10-154-114-4-87 153-88 188-35 5 8 8 18 10 28" id="ax"/><path d="M24 0v-248h52V0H24" id="ay"/><path d="M140-251c80 0 125 45 125 126S219 4 139 4C58 4 15-44 15-125s44-126 125-126zm-1 214c52 0 73-35 73-88 0-50-21-86-72-86-52 0-73 35-73 86s22 88 72 88" id="az"/><path d="M24 0v-248h52v208h133V0H24" id="aA"/><g id="j"><use transform="matrix(0.0685185185185185,0,0,0.0685185185185185,0,0)" xlink:href="#au"/><use transform="matrix(0.0685185185185185,0,0,0.0685185185185185,15.005555555555553,0)" xlink:href="#av"/><use transform="matrix(0.0685185185185185,0,0,0.0685185185185185,32.751851851851846,0)" xlink:href="#L"/><use transform="matrix(0.0685185185185185,0,0,0.0685185185185185,50.49814814814814,0)" xlink:href="#aw"/><use transform="matrix(0.0685185185185185,0,0,0.0685185185185185,68.24444444444444,0)" xlink:href="#ax"/><use transform="matrix(0.0685185185185185,0,0,0.0685185185185185,84.68888888888888,0)" xlink:href="#L"/><use transform="matrix(0.0685185185185185,0,0,0.0685185185185185,102.43518518518518,0)" xlink:href="#ar"/><use transform="matrix(0.0685185185185185,0,0,0.0685185185185185,120.18148148148147,0)" xlink:href="#ar"/><use transform="matrix(0.0685185185185185,0,0,0.0685185185185185,137.92777777777775,0)" xlink:href="#au"/><use transform="matrix(0.0685185185185185,0,0,0.0685185185185185,152.9333333333333,0)" xlink:href="#ay"/><use transform="matrix(0.0685185185185185,0,0,0.0685185185185185,159.78518518518516,0)" xlink:href="#az"/><use transform="matrix(0.0685185185185185,0,0,0.0685185185185185,178.97037037037035,0)" xlink:href="#aw"/><use transform="matrix(0.0685185185185185,0,0,0.0685185185185185,196.71666666666664,0)" xlink:href="#L"/><use transform="matrix(0.0685185185185185,0,0,0.0685185185185185,214.46296296296293,0)" xlink:href="#aA"/></g><radialGradient gradientUnits="userSpaceOnUse" id="k" fx="445" fy="353.27" cx="445" cy="353.27" r="275"><stop offset="0%" stop-color="#fff" stop-opacity="0"/><stop offset="20%" stop-color="#fff" stop-opacity="0"/><stop offset="100%" stop-color="#dbdbdb" stop-opacity="0"/></radialGradient><path d="M24 0v-248h195v40H76v63h132v40H76v65h150V0H24" id="aB"/><path d="M147 0H94L2-248h55l64 206c17-72 42-137 63-206h54" id="aC"/><g id="l"><use transform="matrix(0.07469135802469129,0,0,0.07469135802469129,0,0)" xlink:href="#aB"/><use transform="matrix(0.07469135802469129,0,0,0.07469135802469129,17.92592592592591,0)" xlink:href="#aC"/><use transform="matrix(0.07469135802469129,0,0,0.07469135802469129,35.85185185185182,0)" xlink:href="#aB"/><use transform="matrix(0.07469135802469129,0,0,0.07469135802469129,53.77777777777773,0)" xlink:href="#aw"/><use transform="matrix(0.07469135802469129,0,0,0.07469135802469129,73.12283950617277,0)" xlink:href="#au"/></g><g id="m"><use transform="matrix(0.07469135802469129,0,0,0.07469135802469129,0,0)" xlink:href="#P"/><use transform="matrix(0.07469135802469129,0,0,0.07469135802469129,19.345061728395045,0)" xlink:href="#av"/><use transform="matrix(0.07469135802469129,0,0,0.07469135802469129,38.69012345679009,0)" xlink:href="#ay"/><use transform="matrix(0.07469135802469129,0,0,0.07469135802469129,46.159259259259215,0)" xlink:href="#aC"/><use transform="matrix(0.07469135802469129,0,0,0.07469135802469129,64.08518518518513,0)" xlink:href="#aB"/><use transform="matrix(0.07469135802469129,0,0,0.07469135802469129,82.01111111111103,0)" xlink:href="#aw"/></g><g id="n"><use transform="matrix(0.07469135802469129,0,0,0.07469135802469129,0,0)" xlink:href="#av"/><use transform="matrix(0.07469135802469129,0,0,0.07469135802469129,19.345061728395045,0)" xlink:href="#aB"/><use transform="matrix(0.07469135802469129,0,0,0.07469135802469129,37.270987654320955,0)" xlink:href="#T"/><use transform="matrix(0.07469135802469129,0,0,0.07469135802469129,55.196913580246864,0)" xlink:href="#aA"/><use transform="matrix(0.07469135802469129,0,0,0.07469135802469129,71.55432098765425,0)" xlink:href="#ay"/><use transform="matrix(0.07469135802469129,0,0,0.07469135802469129,79.02345679012336,0)" xlink:href="#ar"/><use transform="matrix(0.07469135802469129,0,0,0.07469135802469129,98.36851851851841,0)" xlink:href="#L"/><use transform="matrix(0.07469135802469129,0,0,0.07469135802469129,115.69691358024679,0)" xlink:href="#au"/><use transform="matrix(0.07469135802469129,0,0,0.07469135802469129,132.0543209876542,0)" xlink:href="#ay"/><use transform="matrix(0.07469135802469129,0,0,0.07469135802469129,139.52345679012333,0)" xlink:href="#az"/><use transform="matrix(0.07469135802469129,0,0,0.07469135802469129,160.4370370370369,0)" xlink:href="#aw"/></g><g id="o"><use transform="matrix(0.07469135802469129,0,0,0.07469135802469129,0,0)" xlink:href="#ay"/><use transform="matrix(0.07469135802469129,0,0,0.07469135802469129,7.469135802469129,0)" xlink:href="#aw"/></g><path d="M238-95c0 69-44 99-111 99C63 4 22-25 22-93v-155h51v151c-1 38 19 59 55 60 90 1 49-130 58-211h52v153" id="aD"/><g id="p"><use transform="matrix(0.07469135802469129,0,0,0.07469135802469129,0,0)" xlink:href="#P"/><use transform="matrix(0.07469135802469129,0,0,0.07469135802469129,19.345061728395045,0)" xlink:href="#ay"/><use transform="matrix(0.07469135802469129,0,0,0.07469135802469129,26.814197530864174,0)" xlink:href="#ax"/><use transform="matrix(0.07469135802469129,0,0,0.07469135802469129,44.740123456790094,0)" xlink:href="#au"/><use transform="matrix(0.07469135802469129,0,0,0.07469135802469129,61.09753086419748,0)" xlink:href="#av"/><use transform="matrix(0.07469135802469129,0,0,0.07469135802469129,80.44259259259252,0)" xlink:href="#ay"/><use transform="matrix(0.07469135802469129,0,0,0.07469135802469129,87.91172839506164,0)" xlink:href="#at"/><use transform="matrix(0.07469135802469129,0,0,0.07469135802469129,107.25679012345668,0)" xlink:href="#aD"/><use transform="matrix(0.07469135802469129,0,0,0.07469135802469129,126.60185185185173,0)" xlink:href="#au"/><use transform="matrix(0.07469135802469129,0,0,0.07469135802469129,142.9592592592591,0)" xlink:href="#aB"/><use transform="matrix(0.07469135802469129,0,0,0.07469135802469129,160.88518518518504,0)" xlink:href="#P"/></g><path d="M146-102V0H94v-102L6-248h54l60 105 60-105h54" id="aE"/><g id="q"><use transform="matrix(0.07469135802469129,0,0,0.07469135802469129,0,0)" xlink:href="#ax"/><use transform="matrix(0.07469135802469129,0,0,0.07469135802469129,17.92592592592591,0)" xlink:href="#aE"/><use transform="matrix(0.07469135802469129,0,0,0.07469135802469129,35.85185185185182,0)" xlink:href="#ax"/><use transform="matrix(0.07469135802469129,0,0,0.07469135802469129,53.77777777777773,0)" xlink:href="#au"/><use transform="matrix(0.07469135802469129,0,0,0.07469135802469129,70.13518518518512,0)" xlink:href="#aB"/><use transform="matrix(0.07469135802469129,0,0,0.07469135802469129,88.06111111111103,0)" xlink:href="#J"/><use transform="matrix(0.07469135802469129,0,0,0.07469135802469129,110.39382716049373,0)" xlink:href="#ax"/></g><g id="r"><use transform="matrix(0.055555555555555546,0,0,0.055555555555555546,0,0)" xlink:href="#J"/><use transform="matrix(0.055555555555555546,0,0,0.055555555555555546,16.611111111111107,0)" xlink:href="#K"/></g><path d="M88-194c31-1 46 15 58 34l-1-101h50l1 261h-48c-2-10 0-23-3-31C134-8 116 4 84 4 32 4 16-41 15-95c0-56 19-97 73-99zm17 164c33 0 40-30 41-66 1-37-9-64-41-64s-38 30-39 65c0 43 13 65 39 65" id="aF"/><path d="M135-194c53 0 70 44 70 98 0 56-19 98-73 100-31 1-45-17-59-34 3 33 2 69 2 105H25l-1-265h48c2 10 0 23 3 31 11-24 29-35 60-35zM114-30c33 0 39-31 40-66 0-38-9-64-40-64-56 0-55 130 0 130" id="aG"/><g id="s"><use transform="matrix(0.055555555555555546,0,0,0.055555555555555546,0,0)" xlink:href="#L"/><use transform="matrix(0.055555555555555546,0,0,0.055555555555555546,14.388888888888886,0)" xlink:href="#aF"/><use transform="matrix(0.055555555555555546,0,0,0.055555555555555546,26.55555555555555,0)" xlink:href="#Q"/><use transform="matrix(0.055555555555555546,0,0,0.055555555555555546,37.66666666666666,0)" xlink:href="#aG"/><use transform="matrix(0.055555555555555546,0,0,0.055555555555555546,49.83333333333332,0)" xlink:href="#R"/><use transform="matrix(0.055555555555555546,0,0,0.055555555555555546,56.44444444444443,0)" xlink:href="#S"/><use transform="matrix(0.055555555555555546,0,0,0.055555555555555546,67.55555555555554,0)" xlink:href="#as"/></g><path d="M140-251c80 0 125 45 125 126 0 70-33 111-92 124 6 28 34 38 68 31l-1 36C177 83 129 55 120 2 51-6 15-50 15-125c0-81 44-126 125-126zm-1 214c52 0 73-35 73-88 0-50-21-86-72-86-52 0-73 35-73 86s22 88 72 88" id="aH"/><path d="M14-72v-43h91v43H14" id="aI"/><g id="t"><use transform="matrix(0.055555555555555546,0,0,0.055555555555555546,0,0)" xlink:href="#aw"/><use transform="matrix(0.055555555555555546,0,0,0.055555555555555546,14.388888888888886,0)" xlink:href="#N"/><use transform="matrix(0.055555555555555546,0,0,0.055555555555555546,26.55555555555555,0)" xlink:href="#ax"/><use transform="matrix(0.055555555555555546,0,0,0.055555555555555546,39.88888888888888,0)" xlink:href="#aH"/><use transform="matrix(0.055555555555555546,0,0,0.055555555555555546,55.44444444444443,0)" xlink:href="#aA"/><use transform="matrix(0.055555555555555546,0,0,0.055555555555555546,67.61111111111109,0)" xlink:href="#aI"/><use transform="matrix(0.055555555555555546,0,0,0.055555555555555546,74.2222222222222,0)" xlink:href="#L"/><use transform="matrix(0.055555555555555546,0,0,0.055555555555555546,88.61111111111109,0)" xlink:href="#M"/><use transform="matrix(0.055555555555555546,0,0,0.055555555555555546,100.77777777777774,0)" xlink:href="#N"/><use transform="matrix(0.055555555555555546,0,0,0.055555555555555546,112.9444444444444,0)" xlink:href="#O"/><use transform="matrix(0.055555555555555546,0,0,0.055555555555555546,125.11111111111106,0)" xlink:href="#N"/></g><linearGradient gradientUnits="userSpaceOnUse" id="u" x1="782.61" y1="1049.09" x2="782.61" y2="1023.95"><stop offset="0%" stop-color="#773adc"/><stop offset="100%" stop-color="#a67af4"/></linearGradient><linearGradient gradientUnits="userSpaceOnUse" id="v" x1="779.45" y1="1122.68" x2="783.13" y2="1016.14"><stop offset="0%" stop-color="#5e9624"/><stop offset="100%" stop-color="#76bc2d"/></linearGradient><linearGradient gradientUnits="userSpaceOnUse" id="w" x1="779.37" y1="1175.66" x2="783.05" y2="1019.69"><stop offset="0%" stop-color="#5e9624"/><stop offset="100%" stop-color="#76bc2d"/></linearGradient><linearGradient gradientUnits="userSpaceOnUse" id="x" x1="781.94" y1="1066.65" x2="785.63" y2="909.97"><stop offset="0%" stop-color="#5e9624"/><stop offset="100%" stop-color="#76bc2d"/></linearGradient><linearGradient gradientUnits="userSpaceOnUse" id="y" x1="781.75" y1="1063.18" x2="785.44" y2="956.51"><stop offset="0%" stop-color="#5e9624"/><stop offset="100%" stop-color="#76bc2d"/></linearGradient><path d="M128 0H69L1-190h53L99-40l48-150h52" id="aJ"/><path d="M25 0v-261h50V0H25" id="aK"/><path d="M25-224v-37h50v37H25zM25 0v-190h50V0H25" id="aL"/><path d="M190-63c-7 42-38 67-86 67-59 0-84-38-90-98-12-110 154-137 174-36l-49 2c-2-19-15-32-35-32-30 0-35 28-38 64-6 74 65 87 74 30" id="aM"/><g id="z"><use transform="matrix(0.06172839506172839,0,0,0.06172839506172839,0,0)" xlink:href="#aG"/><use transform="matrix(0.06172839506172839,0,0,0.06172839506172839,13.518518518518517,0)" xlink:href="#Q"/><use transform="matrix(0.06172839506172839,0,0,0.06172839506172839,25.864197530864196,0)" xlink:href="#U"/><use transform="matrix(0.06172839506172839,0,0,0.06172839506172839,39.382716049382715,0)" xlink:href="#N"/><use transform="matrix(0.06172839506172839,0,0,0.06172839506172839,52.901234567901234,0)" xlink:href="#aI"/><use transform="matrix(0.06172839506172839,0,0,0.06172839506172839,60.24691358024691,0)" xlink:href="#S"/><use transform="matrix(0.06172839506172839,0,0,0.06172839506172839,72.5925925925926,0)" xlink:href="#aJ"/><use transform="matrix(0.06172839506172839,0,0,0.06172839506172839,84.93827160493828,0)" xlink:href="#S"/><use transform="matrix(0.06172839506172839,0,0,0.06172839506172839,97.28395061728396,0)" xlink:href="#O"/><use transform="matrix(0.06172839506172839,0,0,0.06172839506172839,110.80246913580248,0)" xlink:href="#R"/><use transform="matrix(0.06172839506172839,0,0,0.06172839506172839,118.14814814814817,0)" xlink:href="#K"/><use transform="matrix(0.06172839506172839,0,0,0.06172839506172839,130.49382716049385,0)" xlink:href="#aI"/><use transform="matrix(0.06172839506172839,0,0,0.06172839506172839,137.83950617283952,0)" xlink:href="#as"/><use transform="matrix(0.06172839506172839,0,0,0.06172839506172839,146.4814814814815,0)" xlink:href="#S"/><use transform="matrix(0.06172839506172839,0,0,0.06172839506172839,158.82716049382717,0)" xlink:href="#aG"/><use transform="matrix(0.06172839506172839,0,0,0.06172839506172839,172.34567901234567,0)" xlink:href="#aK"/><use transform="matrix(0.06172839506172839,0,0,0.06172839506172839,178.5185185185185,0)" xlink:href="#aL"/><use transform="matrix(0.06172839506172839,0,0,0.06172839506172839,184.69135802469134,0)" xlink:href="#aM"/><use transform="matrix(0.06172839506172839,0,0,0.06172839506172839,197.037037037037,0)" xlink:href="#Q"/><use transform="matrix(0.06172839506172839,0,0,0.06172839506172839,209.38271604938268,0)" xlink:href="#R"/><use transform="matrix(0.06172839506172839,0,0,0.06172839506172839,216.72839506172835,0)" xlink:href="#S"/></g><g id="A"><use transform="matrix(0.055555555555555546,0,0,0.055555555555555546,0,0)" xlink:href="#aw"/><use transform="matrix(0.055555555555555546,0,0,0.055555555555555546,14.388888888888886,0)" xlink:href="#N"/><use transform="matrix(0.055555555555555546,0,0,0.055555555555555546,26.55555555555555,0)" xlink:href="#ax"/><use transform="matrix(0.055555555555555546,0,0,0.055555555555555546,39.88888888888888,0)" xlink:href="#aH"/><use transform="matrix(0.055555555555555546,0,0,0.055555555555555546,55.44444444444443,0)" xlink:href="#aA"/><use transform="matrix(0.055555555555555546,0,0,0.055555555555555546,67.61111111111109,0)" xlink:href="#aI"/><use transform="matrix(0.055555555555555546,0,0,0.055555555555555546,74.2222222222222,0)" xlink:href="#ar"/><use transform="matrix(0.055555555555555546,0,0,0.055555555555555546,88.61111111111109,0)" xlink:href="#Q"/><use transform="matrix(0.055555555555555546,0,0,0.055555555555555546,99.7222222222222,0)" xlink:href="#as"/><use transform="matrix(0.055555555555555546,0,0,0.055555555555555546,107.49999999999997,0)" xlink:href="#U"/><use transform="matrix(0.055555555555555546,0,0,0.055555555555555546,119.66666666666661,0)" xlink:href="#N"/></g><g id="B"><use transform="matrix(0.0685185185185185,0,0,0.0685185185185185,0,0)" xlink:href="#P"/><use transform="matrix(0.0685185185185185,0,0,0.0685185185185185,17.746296296296293,0)" xlink:href="#L"/><use transform="matrix(0.0685185185185185,0,0,0.0685185185185185,33.642592592592585,0)" xlink:href="#au"/><use transform="matrix(0.0685185185185185,0,0,0.0685185185185185,46.79814814814814,0)" xlink:href="#L"/></g><g id="C"><use transform="matrix(0.0685185185185185,0,0,0.0685185185185185,0,0)" xlink:href="#av"/><use transform="matrix(0.0685185185185185,0,0,0.0685185185185185,17.746296296296293,0)" xlink:href="#aB"/><use transform="matrix(0.0685185185185185,0,0,0.0685185185185185,34.190740740740736,0)" xlink:href="#T"/><use transform="matrix(0.0685185185185185,0,0,0.0685185185185185,50.63518518518518,0)" xlink:href="#aA"/><use transform="matrix(0.0685185185185185,0,0,0.0685185185185185,65.64074074074074,0)" xlink:href="#ay"/><use transform="matrix(0.0685185185185185,0,0,0.0685185185185185,72.49259259259259,0)" xlink:href="#ar"/><use transform="matrix(0.0685185185185185,0,0,0.0685185185185185,90.23888888888887,0)" xlink:href="#L"/><use transform="matrix(0.0685185185185185,0,0,0.0685185185185185,106.13518518518518,0)" xlink:href="#au"/><use transform="matrix(0.0685185185185185,0,0,0.0685185185185185,121.14074074074074,0)" xlink:href="#ay"/><use transform="matrix(0.0685185185185185,0,0,0.0685185185185185,127.99259259259259,0)" xlink:href="#az"/><use transform="matrix(0.0685185185185185,0,0,0.0685185185185185,147.17777777777778,0)" xlink:href="#aw"/></g><g id="D"><use transform="matrix(0.055555555555555546,0,0,0.055555555555555546,0,0)" xlink:href="#aw"/><use transform="matrix(0.055555555555555546,0,0,0.055555555555555546,14.388888888888886,0)" xlink:href="#N"/><use transform="matrix(0.055555555555555546,0,0,0.055555555555555546,26.55555555555555,0)" xlink:href="#ax"/><use transform="matrix(0.055555555555555546,0,0,0.055555555555555546,39.88888888888888,0)" xlink:href="#aH"/><use transform="matrix(0.055555555555555546,0,0,0.055555555555555546,55.44444444444443,0)" xlink:href="#aA"/><use transform="matrix(0.055555555555555546,0,0,0.055555555555555546,67.61111111111109,0)" xlink:href="#aI"/><use transform="matrix(0.055555555555555546,0,0,0.055555555555555546,74.2222222222222,0)" xlink:href="#ar"/><use transform="matrix(0.055555555555555546,0,0,0.055555555555555546,88.61111111111109,0)" xlink:href="#Q"/><use transform="matrix(0.055555555555555546,0,0,0.055555555555555546,99.7222222222222,0)" xlink:href="#as"/><use transform="matrix(0.055555555555555546,0,0,0.055555555555555546,107.49999999999997,0)" xlink:href="#U"/><use transform="matrix(0.055555555555555546,0,0,0.055555555555555546,119.66666666666661,0)" xlink:href="#N"/></g><g id="E"><use transform="matrix(0.055555555555555546,0,0,0.055555555555555546,0,0)" xlink:href="#aw"/><use transform="matrix(0.055555555555555546,0,0,0.055555555555555546,14.388888888888886,0)" xlink:href="#N"/><use transform="matrix(0.055555555555555546,0,0,0.055555555555555546,26.55555555555555,0)" xlink:href="#ax"/><use transform="matrix(0.055555555555555546,0,0,0.055555555555555546,39.88888888888888,0)" xlink:href="#aH"/><use transform="matrix(0.055555555555555546,0,0,0.055555555555555546,55.44444444444443,0)" xlink:href="#aA"/><use transform="matrix(0.055555555555555546,0,0,0.055555555555555546,67.61111111111109,0)" xlink:href="#aI"/><use transform="matrix(0.055555555555555546,0,0,0.055555555555555546,74.2222222222222,0)" xlink:href="#L"/><use transform="matrix(0.055555555555555546,0,0,0.055555555555555546,88.61111111111109,0)" xlink:href="#M"/><use transform="matrix(0.055555555555555546,0,0,0.055555555555555546,100.77777777777774,0)" xlink:href="#N"/><use transform="matrix(0.055555555555555546,0,0,0.055555555555555546,112.9444444444444,0)" xlink:href="#O"/><use transform="matrix(0.055555555555555546,0,0,0.055555555555555546,125.11111111111106,0)" xlink:href="#N"/></g><g id="F"><use transform="matrix(0.06172839506172839,0,0,0.06172839506172839,0,0)" xlink:href="#aB"/><use transform="matrix(0.06172839506172839,0,0,0.06172839506172839,14.814814814814813,0)" xlink:href="#aJ"/><use transform="matrix(0.06172839506172839,0,0,0.06172839506172839,27.160493827160494,0)" xlink:href="#S"/><use transform="matrix(0.06172839506172839,0,0,0.06172839506172839,39.50617283950617,0)" xlink:href="#O"/><use transform="matrix(0.06172839506172839,0,0,0.06172839506172839,53.02469135802469,0)" xlink:href="#R"/><use transform="matrix(0.06172839506172839,0,0,0.06172839506172839,60.37037037037037,0)" xlink:href="#K"/></g><path d="M85 4C-2 5 27-109 22-190h50c7 57-23 150 33 157 60-5 35-97 40-157h50l1 190h-47c-2-12 1-28-3-38-12 25-28 42-61 42" id="aN"/><g id="G"><use transform="matrix(0.06172839506172839,0,0,0.06172839506172839,0,0)" xlink:href="#at"/><use transform="matrix(0.06172839506172839,0,0,0.06172839506172839,15.987654320987653,0)" xlink:href="#aN"/><use transform="matrix(0.06172839506172839,0,0,0.06172839506172839,29.50617283950617,0)" xlink:href="#K"/></g><path fill="#333" d="M169-182c-1-43-94-46-97-3 18 66 151 10 154 114 3 95-165 93-204 36-6-8-10-19-12-30l50-8c3 46 112 56 116 5-17-69-150-10-154-114-4-87 153-88 188-35 5 8 8 18 10 28" id="aO"/><path fill="#333" d="M85 4C-2 5 27-109 22-190h50c7 57-23 150 33 157 60-5 35-97 40-157h50l1 190h-47c-2-12 1-28-3-38-12 25-28 42-61 42" id="aP"/><path fill="#333" d="M135-194c52 0 70 43 70 98 0 56-19 99-73 100-30 1-46-15-58-35L72 0H24l1-261h50v104c11-23 29-37 60-37zM114-30c31 0 40-27 40-66 0-37-7-63-39-63s-41 28-41 65c0 36 8 64 40 64" id="aQ"/><path fill="#333" d="M137-138c1-29-70-34-71-4 15 46 118 7 119 86 1 83-164 76-172 9l43-7c4 19 20 25 44 25 33 8 57-30 24-41C81-84 22-81 20-136c-2-80 154-74 161-7" id="aR"/><path fill="#333" d="M190-63c-7 42-38 67-86 67-59 0-84-38-90-98-12-110 154-137 174-36l-49 2c-2-19-15-32-35-32-30 0-35 28-38 64-6 74 65 87 74 30" id="aS"/><path fill="#333" d="M135-150c-39-12-60 13-60 57V0H25l-1-190h47c2 13-1 29 3 40 6-28 27-53 61-41v41" id="aT"/><path fill="#333" d="M25-224v-37h50v37H25zM25 0v-190h50V0H25" id="aU"/><path fill="#333" d="M185-48c-13 30-37 53-82 52C43 2 14-33 14-96s30-98 90-98c62 0 83 45 84 108H66c0 31 8 55 39 56 18 0 30-7 34-22zm-45-69c5-46-57-63-70-21-2 6-4 13-4 21h74" id="aV"/><g id="H"><use transform="matrix(0.04938271604938272,0,0,0.04938271604938272,0,0)" xlink:href="#aO"/><use transform="matrix(0.04938271604938272,0,0,0.04938271604938272,11.851851851851853,0)" xlink:href="#aP"/><use transform="matrix(0.04938271604938272,0,0,0.04938271604938272,22.666666666666668,0)" xlink:href="#aQ"/><use transform="matrix(0.04938271604938272,0,0,0.04938271604938272,33.48148148148148,0)" xlink:href="#aR"/><use transform="matrix(0.04938271604938272,0,0,0.04938271604938272,43.358024691358025,0)" xlink:href="#aS"/><use transform="matrix(0.04938271604938272,0,0,0.04938271604938272,53.23456790123457,0)" xlink:href="#aT"/><use transform="matrix(0.04938271604938272,0,0,0.04938271604938272,60.14814814814815,0)" xlink:href="#aU"/><use transform="matrix(0.04938271604938272,0,0,0.04938271604938272,65.08641975308643,0)" xlink:href="#aQ"/><use transform="matrix(0.04938271604938272,0,0,0.04938271604938272,75.90123456790124,0)" xlink:href="#aV"/><use transform="matrix(0.04938271604938272,0,0,0.04938271604938272,85.77777777777779,0)" xlink:href="#aT"/></g><path fill="#333" d="M24-248c93 1 206-16 204 79-1 75-69 88-152 82V0H24v-248zm52 121c47 0 100 7 100-41 0-47-54-39-100-39v80" id="aW"/><path fill="#333" d="M25 0v-261h50V0H25" id="aX"/><path fill="#333" d="M114-157C55-157 80-60 75 0H25v-261h50l-1 109c12-26 28-41 61-42 86-1 58 113 63 194h-50c-7-57 23-157-34-157" id="aY"/><g id="I"><use transform="matrix(0.04938271604938272,0,0,0.04938271604938272,0,0)" xlink:href="#aW"/><use transform="matrix(0.04938271604938272,0,0,0.04938271604938272,11.851851851851853,0)" xlink:href="#aP"/><use transform="matrix(0.04938271604938272,0,0,0.04938271604938272,22.666666666666668,0)" xlink:href="#aQ"/><use transform="matrix(0.04938271604938272,0,0,0.04938271604938272,33.48148148148148,0)" xlink:href="#aX"/><use transform="matrix(0.04938271604938272,0,0,0.04938271604938272,38.41975308641975,0)" xlink:href="#aU"/><use transform="matrix(0.04938271604938272,0,0,0.04938271604938272,43.358024691358025,0)" xlink:href="#aR"/><use transform="matrix(0.04938271604938272,0,0,0.04938271604938272,53.23456790123457,0)" xlink:href="#aY"/><use transform="matrix(0.04938271604938272,0,0,0.04938271604938272,64.04938271604938,0)" xlink:href="#aV"/><use transform="matrix(0.04938271604938272,0,0,0.04938271604938272,73.92592592592592,0)" xlink:href="#aT"/></g></defs></g></svg>