<svg xmlns="http://www.w3.org/2000/svg" xmlns:xlink="http://www.w3.org/1999/xlink" xmlns:lucid="lucid" width="1441" height="992.1"><g transform="translate(1740.5 1151.6)" lucid:page-tab-id="-cy5drQ4znLO"><path d="M-1720-1074a6 6 0 0 1 6-6h1388a6 6 0 0 1 6 6v888a6 6 0 0 1-6 6h-1388a6 6 0 0 1-6-6z" fill-opacity="0"/><path d="M-1704.05-1080h9.95m4.97 0h9.95m4.98 0h9.95m4.97 0h9.95m4.98 0h9.95m4.97 0h9.95m4.98 0h9.95m4.97 0h9.95m4.98 0h9.95m4.97 0h9.95m4.98 0h9.95m4.97 0h9.95m4.98 0h9.95m4.97 0h9.95m4.98 0h9.95m4.97 0h9.95m4.98 0h9.94m4.97 0h9.95m4.98 0h9.95m4.97 0h9.95m4.97 0h9.95m4.97 0h9.95m4.97 0h9.94m4.98 0h9.95m4.97 0h9.95m4.97 0h9.95m4.97 0h9.94m4.98 0h9.95m4.97 0h9.95m4.97 0h9.95m4.97 0h9.94m4.98 0h9.95m4.97 0h9.95m4.97 0h9.95m4.97 0h9.94m4.98 0h9.95m4.97 0h9.95m4.96 0h9.95m5 0h9.94m4.97 0h9.96m4.98 0h9.95m4.96 0h9.95m5 0h9.94m4.97 0h9.96m4.98 0h9.95m4.96 0h9.95m5 0h9.94m4.97 0h9.96m4.98 0h9.95m4.96 0h9.95m5 0h9.94m4.97 0h9.96m4.98 0h9.95m4.96 0h9.95m5 0h9.94m4.97 0h9.96m4.98 0h9.94m4.98 0h9.95m4.98 0h9.95m4.98 0h9.96m4.97 0h9.95m4.98 0h9.95m4.98 0h9.95m4.98 0h9.96m4.97 0h9.95m4.98 0h9.95m4.98 0h9.95m4.98 0h9.96m4.97 0h9.95m4.98 0h9.95m4.98 0h9.95m4.98 0h9.96m4.97 0h9.95m4.98 0h9.94m4.98 0h9.95m4.97 0h9.95m4.98 0h9.95m4.97 0h9.95m4.98 0h9.95m4.97 0h9.95m4.98 0h9.95m4.97 0h9.95m4.98 0h9.95m4.97 0h9.95m4.98 0h9.95m4.97 0h9.95m4.98 0h9.95m4.97 0h9.95m4.98 0h9.95m4.97 0h9.95m4.98 0h9.94m4.98 0h9.95m4.97 0h4.98l.94.07.9.22.88.35.8.5.72.6.6.72.5.8.37.88.23.9.07.95v5.02m0 5v10.05m0 5.02v10.02m0 5.02v10.03m0 5.02v10.02m0 5.02v10.03m0 5.02v10.02m0 5.02v10.03m0 5.02v10.02m0 5.02v10.03m0 5.02v10.02m0 5.02v10.04m0 5v10.05m0 5v10.05m0 5.02v10.03m0 5.02v10.03m0 5.02v10.03m0 5.02v10.03m0 5.02v10.03m0 5.02v10.03m0 5.02v10.03m0 5.02v10.04m0 5v10.04m0 5v10.05m0 5v10.04m0 5v10.05m0 5v10.04m0 5.02v10.03m0 5v10.04m0 5.02v10.03m0 5v10.04m0 5.02v10.03m0 5v10.04m0 5.02v10.04m0 5v10.05m0 5v10.05m0 5v10.05m0 5v10.05m0 5.02v10.03m0 5.02V-482m0 5.02v10.03m0 5.02v10.03m0 5.02v10.03m0 5.02v10.03m0 5.02v10.03m0 5.02v10.04m0 5.02v10.04m0 5v10.05m0 5.02v10.04m0 5.02v10.03m0 5.02v10.04m0 5.02v10.03m0 5.03v10.03m0 5.02v10.03m0 5.03v10.03m0 5.02v10.03m0 5.03v10.03m0 5.02v10.03m0 5.03v10.04m0 5v5.03l-.07.94-.22.9-.35.88-.5.8-.6.72-.72.6-.8.5-.88.37-.9.23-.95.07h-4.98m-4.97 0h-9.95m-4.98 0h-9.94m-4.98 0h-9.95m-4.97 0h-9.95m-4.98 0h-9.95m-4.97 0h-9.95m-4.98 0h-9.95m-4.97 0h-9.95m-4.98 0h-9.95m-4.97 0h-9.95m-4.98 0h-9.95m-4.97 0h-9.95m-4.98 0H-525m-4.97 0h-9.95m-4.98 0h-9.95m-4.97 0h-9.95m-4.98 0h-9.95m-4.97 0h-9.95m-4.98 0h-9.94m-4.98 0h-9.95m-4.97 0h-9.95m-4.97 0h-9.95m-4.97 0h-9.94m-4.98 0h-9.95m-4.97 0h-9.95m-4.97 0h-9.95m-4.97 0h-9.94m-4.98 0h-9.95m-4.97 0h-9.95m-4.97 0h-9.95m-4.97 0h-9.94m-4.98 0h-9.95m-4.97 0h-9.95m-4.97 0h-9.95m-4.97 0h-9.94m-4.98 0h-9.94m-4.98 0h-9.95m-4.96 0h-9.96m-4.97 0h-9.94m-4.97 0h-9.96m-4.98 0h-9.95m-4.96 0h-9.95m-5 0h-9.94m-4.97 0h-9.96m-4.98 0h-9.95m-4.96 0h-9.95m-5 0h-9.94m-4.97 0h-9.96m-4.98 0h-9.95m-4.96 0h-9.95m-5 0h-9.94m-4.97 0h-9.96m-4.98 0h-9.95m-4.96 0h-9.95m-4.98 0h-9.95m-4.98 0h-9.96m-4.97 0h-9.95m-4.98 0h-9.95m-4.98 0h-9.95m-4.98 0h-9.96m-4.97 0h-9.95m-4.98 0h-9.95m-4.98 0h-9.95m-4.98 0h-9.96m-4.97 0h-9.95m-4.98 0h-9.95m-4.98 0h-9.95m-4.98 0h-9.96m-4.97 0h-9.95m-4.98 0h-9.95m-4.98 0h-9.95m-4.98 0h-9.96m-4.97 0h-9.95m-4.97 0h-9.95m-4.98 0h-9.95m-4.98 0h-9.95m-4.98 0h-9.95m-4.97 0h-9.95m-4.98 0h-9.95m-4.97 0h-9.95m-4.98 0h-9.95m-4.97 0h-9.95m-4.98 0h-9.95m-4.97 0h-9.95m-4.98 0h-9.95m-4.97 0h-9.95m-4.98 0h-9.95m-4.97 0h-9.95m-4.98 0h-9.95m-4.97 0h-9.95m-4.98 0h-9.94m-4.98 0h-9.95m-4.98 0h-4.97l-.94-.07-.9-.22-.88-.35-.8-.5-.72-.6-.6-.72-.5-.8-.37-.88-.23-.9-.07-.95v-5.02m0-5v-10.05m0-5.02v-10.02m0-5.02v-10.03m0-5.02v-10.02m0-5.02v-10.03m0-5.02v-10.02m0-5.02v-10.03m0-5.02v-10.02m0-5.02v-10.04m0-5v-10.04m0-5.02v-10.04m0-5v-10.05m0-5v-10.05m0-5v-10.05m0-5.02v-10.03m0-5.02v-10.03m0-5.02v-10.03m0-5.02v-10.03m0-5.02v-10.03m0-5.02v-10.03m0-5.02v-10.03m0-5.02v-10.04m0-5v-10.05m0-5v-10.04m0-5v-10.05m0-5v-10.04m0-5.02v-10.03m0-5v-10.04m0-5.02v-10.03m0-5v-10.04m0-5.02v-10.03m0-5v-10.04m0-5.02v-10.04m0-5v-10.05m0-5v-10.05m0-5v-10.05m0-5v-10.05m0-5v-10.05m0-5.02V-778m0-5.02v-10.03m0-5.02v-10.03m0-5.02v-10.03m0-5.02v-10.03m0-5.02v-10.03m0-5.02v-10.03m0-5.02v-10.04m0-5v-10.05m0-5.02v-10.04m0-5v-10.05m0-5.02v-10.04m0-5.02v-10.03m0-5.03v-10.03m0-5.02v-10.03m0-5.03v-10.03m0-5.02v-10.03m0-5.03v-10.03m0-5.02v-10.03m0-5.03v-10.04m0-5v-5.03l.07-.94.22-.9.35-.88.5-.8.6-.72.72-.6.8-.5.88-.37.9-.23.95-.07h4.97" stroke="#3a414a" fill="none"/><path d="M-879.84-654a6 6 0 0 1 6-6H-526a6 6 0 0 1 6 6v408a6 6 0 0 1-6 6h-347.84a6 6 0 0 1-6-6z" stroke="#4c535d" fill="#f2f3f5"/><path d="M-854.9-622.92a6 6 0 0 1 6-6h268a6 6 0 0 1 6 6v210.9a6 6 0 0 1-6 6h-268a6 6 0 0 1-6-6z" fill-opacity="0"/><path d="M-838.97-628.92h9.93m4.96 0h9.92m4.97 0h9.93m4.97 0h9.92m4.97 0h9.9m4.97 0h9.93m4.96 0h9.93m4.95 0h9.93m4.96 0h9.93m4.96 0h9.93m4.96 0h9.92m4.97 0h9.93m4.97 0h9.92m4.97 0h9.9m4.97 0h9.93m4.96 0h9.93m4.95 0h9.93m4.96 0h4.96l.94.07.92.22.87.36.8.5.72.6.6.72.5.8.36.87.23.92.07.94v5.02m0 5.02v10.04m0 5.02v10.05m0 5.02v10.04m0 5.02v10.04m0 5.02v10.05m0 5.02v10.04m0 5v10.06m0 5.02v10.04m0 5.02v10.05m0 5v10.05m0 5.02v10.05m0 5.02v10.04m0 5.03v10.05m0 5.02v5.02l-.07.93-.22.92-.35.87-.5.8-.6.72-.72.6-.8.5-.87.36-.92.22-.94.07h-4.96m-4.96 0h-9.93m-4.96 0h-9.94m-4.96 0h-9.93m-4.96 0h-9.9m-4.98 0h-9.92m-4.97 0h-9.92m-4.96 0h-9.92m-4.96 0h-9.93m-4.96 0h-9.93m-4.96 0h-9.93m-4.96 0h-9.94m-4.96 0h-9.93m-4.96 0h-9.9m-4.98 0h-9.92m-4.97 0h-9.92m-4.96 0h-9.92m-4.96 0h-9.93m-4.96 0h-4.97l-.94-.08-.9-.22-.88-.36-.8-.5-.72-.6-.6-.72-.5-.8-.36-.87-.22-.92-.08-.94v-5.03m0-5.02v-10.04m0-5.02v-10.04m0-5.02v-10.05m0-5.02v-10.04m0-5v-10.06m0-5.02v-10.04m0-5.02v-10.05m0-5v-10.05m0-5.02v-10.05m0-5.02v-10.04m0-5.03v-10.05m0-5.02v-10.05m0-5.02v-10.04m0-5.02v-5.02l.08-.94.22-.92.36-.87.5-.8.6-.72.72-.6.8-.5.87-.36.9-.22.95-.07h4.97" stroke="#4c535d" fill="none"/><path d="M-1439.68-654a6 6 0 0 1 6-6h347.84a6 6 0 0 1 6 6v408a6 6 0 0 1-6 6h-347.84a6 6 0 0 1-6-6z" stroke="#3a414a" fill="#f2f3f5"/><path d="M-1379.52-622.92a6 6 0 0 1 6-6h267.84a6 6 0 0 1 6 6V-406a6 6 0 0 1-6 6h-267.84a6 6 0 0 1-6-6z" fill-opacity="0"/><path d="M-1363.6-628.92h9.92m4.96 0h9.92m4.96 0h9.92m4.96 0h9.92m4.96 0h9.92m4.96 0h9.92m4.96 0h9.92m4.96 0h9.92m4.96 0h9.92m4.96 0h9.92m4.96 0h9.92m4.96 0h9.92m4.96 0h9.92m4.96 0h9.92m4.96 0h9.92m4.96 0h9.92m4.96 0h9.92m4.96 0h4.96l.94.07.9.22.88.36.8.5.72.6.62.72.5.8.35.87.22.92.07.94v5.16m0 5.17v10.34m0 5.16v10.33m0 5.16v10.33m0 5.16v10.32m0 5.16v10.33m0 5.18v10.33m0 5.17v10.33m0 5.17v10.33m0 5.16v10.33m0 5.16v10.33m0 5.15v10.33m0 5.17v10.33m0 5.16v10.33m0 5.16v5.17l-.07.94-.22.9-.36.88-.5.8-.6.72-.72.6-.8.5-.88.37-.9.23-.95.07h-4.96m-4.96 0h-9.92m-4.96 0h-9.92m-4.96 0h-9.92m-4.96 0h-9.92m-4.96 0h-9.92m-4.96 0h-9.92m-4.96 0h-9.92m-4.96 0h-9.92m-4.96 0h-9.92m-4.96 0h-9.92m-4.96 0h-9.92m-4.96 0h-9.92m-4.96 0h-9.92m-4.96 0h-9.92m-4.96 0h-9.92m-4.96 0h-9.92m-4.96 0h-9.92m-4.96 0h-4.96l-.94-.07-.9-.22-.88-.35-.8-.5-.72-.6-.6-.72-.5-.8-.37-.88-.2-.9-.1-.95v-5.17m0-5.16v-10.33m0-5.16v-10.33m0-5.17v-10.33m0-5.16v-10.34m0-5.17v-10.34m0-5.16v-10.33m0-5.17v-10.33m0-5.16v-10.32m0-5.17v-10.32m0-5.16v-10.33m0-5.17v-10.34m0-5.17v-10.33m0-5.16v-10.33m0-5.16v-5.16l.1-.94.2-.92.37-.87.5-.8.6-.72.7-.6.82-.5.87-.36.9-.22.95-.07h4.96" stroke="#4c535d" fill="none"/><path d="M-1066.52-914.94a10.95 10.95 0 0 1 9.23-5.06h97.18a10.95 10.95 0 0 1 9.23 5.06l29.94 46.85a9.4 9.4 0 0 1 0 10.12l-29.93 46.85a10.95 10.95 0 0 1-9.22 5.05h-97.17a10.95 10.95 0 0 1-9.22-5.05l-29.93-46.85a9.4 9.4 0 0 1 0-10.1z" stroke="#3a414a" fill-opacity="0"/><use xlink:href="#a" transform="matrix(1,0,0,1,-1094.679516611934,-915) translate(41.005 43.77777777777778)"/><use xlink:href="#b" transform="matrix(1,0,0,1,-1094.679516611934,-915) translate(77.98030864197531 43.77777777777778)"/><use xlink:href="#c" transform="matrix(1,0,0,1,-1094.679516611934,-915) translate(13.319814814814828 70.44444444444446)"/><path d="M-1279.18-636.88h-1v-184.85h1zm180.25-225.66h-174.73l-.88.07-.84.2-.8.33-.73.45-.67.57-.56.66-.45.74-.33.8-.2.83-.08.88v13.96h-1v-14l.08-1 .24-1 .4-.93.52-.86.66-.77.78-.67.87-.53.94-.4 1-.23 1-.08h174.77z" stroke="#000" stroke-width=".05"/><path d="M-1098.43-863.04l.03.5h-.54v-1h.54z"/><path d="M-1098.4-863.04l.03.53h-.6v-1.06h.6zm-.5-.47v.94h.48l-.03-.48.03-.47z" stroke="#000" stroke-width=".05"/><path d="M-1279.68-622.12l-4.63-14.26h9.26z"/><path d="M-1279.68-620.5l-5.32-16.38h10.64zm-3.95-15.38l3.95 12.14 3.95-12.14z" stroke="#000" stroke-width=".05"/><use xlink:href="#d" transform="matrix(1,0,0,1,-1284.6177882168724,-843.0617714040815) translate(0 14.222222222222223)"/><path d="M-1330.5-614.7a10 10 0 0 1 8.82-5.3h84a10 10 0 0 1 8.82 5.3l26.36 49.4a11.25 11.25 0 0 1 0 10.6l-26.36 49.4a10 10 0 0 1-8.82 5.3h-84a10 10 0 0 1-8.82-5.3l-26.36-49.4a11.25 11.25 0 0 1 0-10.6z" stroke="#3a414a" fill-opacity="0"/><use xlink:href="#a" transform="matrix(1,0,0,1,-1354.679516611934,-615) translate(24.511172839506173 59.02777777777778)"/><use xlink:href="#e" transform="matrix(1,0,0,1,-1354.679516611934,-615) translate(61.48648148148148 59.02777777777778)"/><path d="M-694.4-636.88h-1v-165.18h1zm-5.48-226.58l1 .24.93.4.88.52.77.66.66.78.54.87.4.95.23 1 .07 1v33.65h-1V-857l-.07-.88-.2-.84-.33-.8-.45-.73-.56-.66-.66-.56-.74-.44-.8-.33-.84-.2-.88-.07h-217.56v-1h217.6z" stroke="#000" stroke-width=".05"/><path d="M-918.47-862.54h-.54l.02-.5-.03-.5h.53z"/><path d="M-918.44-862.5h-.6l.04-.54-.03-.52h.6zm-.54-1l.03.46-.03.48h.5v-.95z" stroke="#000" stroke-width=".05"/><path d="M-694.9-622.12l-4.63-14.26h9.27z"/><path d="M-694.9-620.5l-5.32-16.38h10.65zm-3.94-15.38l3.94 12.14 3.95-12.14z" stroke="#000" stroke-width=".05"/><use xlink:href="#f" transform="matrix(1,0,0,1,-699.8347696562811,-823.3948326491553) translate(0 14.222222222222223)"/><path d="M-745.72-614.7a10 10 0 0 1 8.82-5.3h84a10 10 0 0 1 8.83 5.3l26.35 49.4a11.25 11.25 0 0 1 0 10.6l-26.35 49.4a10 10 0 0 1-8.83 5.3h-84a10 10 0 0 1-8.82-5.3l-26.35-49.4a11.25 11.25 0 0 1 0-10.6z" stroke="#3a414a" fill-opacity="0"/><use xlink:href="#a" transform="matrix(1,0,0,1,-769.8964980513429,-615) translate(21.486481481481484 59.02777777777778)"/><use xlink:href="#g" transform="matrix(1,0,0,1,-769.8964980513429,-615) translate(58.461790123456794 59.02777777777778)"/><path d="M-1279.18-396.88h-1v-57.33h1zm0-78.66h-1V-499h1z" stroke="#3a414a" stroke-width=".05" fill="#3a414a"/><path d="M-1279.18-499h-1v-.5h1z" fill="#3a414a"/><path d="M-1279.15-498.96h-1.05v-.56h1.05zm-1-.52v.47h.95v-.48z" stroke="#3a414a" stroke-width=".05" fill="#3a414a"/><path d="M-1279.68-382.12l-4.63-14.26h9.26z" fill="#3a414a"/><path d="M-1279.68-380.5l-5.32-16.38h10.64zm-3.95-15.38l3.95 12.14 3.95-12.14z" stroke="#3a414a" stroke-width=".05" fill="#3a414a"/><use xlink:href="#h" transform="matrix(1,0,0,1,-1292.9634672292182,-475.5421342537663) translate(0 14.222222222222223)"/><path d="M-1189.52-308c0 4.42-40.37 8-90.16 8-49.8 0-90.16-3.58-90.16-8v-64c0-4.42 40.37-8 90.16-8 49.8 0 90.16 3.58 90.16 8z" stroke="#3a414a" fill-opacity="0"/><path d="M-1189.52-372c0 4.42-40.37 8-90.16 8-49.8 0-90.16-3.58-90.16-8" stroke="#3a414a" fill="none"/><use xlink:href="#i" transform="matrix(1,0,0,1,-1364.839758305967,-358.9999999999999) translate(69.51234567901234 17.77777777777778)"/><use xlink:href="#j" transform="matrix(1,0,0,1,-1364.839758305967,-358.9999999999999) translate(7.876543209876544 44.44444444444444)"/><path d="M-694.9-499v92.62" stroke="#3a414a" fill="none"/><path d="M-694.4-499h-1v-.5h1z" stroke="#3a414a" stroke-width=".05" fill="#3a414a"/><path d="M-694.9-391.6l-4.63-14.28h9.27z" stroke="#3a414a" fill="#3a414a"/><path d="M-597.45-305.8c0 5.13-43.63 9.3-97.45 9.3s-97.45-4.17-97.45-9.3v-74.4c0-5.13 43.63-9.3 97.45-9.3s97.45 4.17 97.45 9.3z" stroke="#3a414a" fill-opacity="0"/><path d="M-597.45-380.2c0 5.14-43.63 9.3-97.45 9.3s-97.45-4.16-97.45-9.3" stroke="#3a414a" fill="none"/><use xlink:href="#i" transform="matrix(1,0,0,1,-787.3447470770143,-365.89936265149987) translate(76.51234567901234 23.87152777777778)"/><use xlink:href="#j" transform="matrix(1,0,0,1,-787.3447470770143,-365.89936265149987) translate(14.876543209876544 50.53819444444445)"/><path d="M-879.84-274a6 6 0 0 1 6-6h325.37a6 6 0 0 1 6 6v8a6 6 0 0 1-6 6h-325.37a6 6 0 0 1-6-6z" stroke="#000" stroke-opacity="0" fill="#fff" fill-opacity="0"/><use xlink:href="#k" transform="matrix(1,0,0,1,-874.8397583059673,-275.00000000000017) translate(6.80864197530866 17.77777777777778)"/><use xlink:href="#l" transform="matrix(1,0,0,1,-874.8397583059673,-275.00000000000017) translate(95.51234567901236 17.77777777777778)"/><use xlink:href="#m" transform="matrix(1,0,0,1,-874.8397583059673,-275.00000000000017) translate(195.45061728395063 17.77777777777778)"/><path d="M-1439.68-274a6 6 0 0 1 6-6h328a6 6 0 0 1 6 6v28a6 6 0 0 1-6 6h-328a6 6 0 0 1-6-6z" stroke="#000" stroke-opacity="0" fill="#fff" fill-opacity="0"/><use xlink:href="#k" transform="matrix(1,0,0,1,-1434.6795166119343,-275.00000000000006) translate(25.18518518518519 19.71527777777778)"/><use xlink:href="#n" transform="matrix(1,0,0,1,-1434.6795166119343,-275.00000000000006) translate(113.88888888888889 19.71527777777778)"/><use xlink:href="#o" transform="matrix(1,0,0,1,-1434.6795166119343,-275.00000000000006) translate(193.9506172839506 19.71527777777778)"/><path d="M-1349.68-774a6 6 0 0 1 6-6h128a6 6 0 0 1 6 6v28a6 6 0 0 1-6 6h-128a6 6 0 0 1-6-6z" fill="#fff"/><path d="M-1348.43-777.65l.5-.6.6-.5m2.87-1.2l.78-.05h1.02m4.06 0h2.03m4.06 0h2.03m4.06 0h2.02m4.07 0h2.02m4.06 0h2.03m4.08 0h2.03m4.07 0h2.03m4.07 0h2.03m4.06 0h2.03m4.06 0h2.03m4.05 0h2.03m4.07 0h2.03m4.06 0h2.03m4.07 0h2.03m4.06 0h2.04m4.06 0h2.03m4.06 0h2.03m4.07 0h2.03m4.06 0h2.05m4.06 0h2.04m4.07 0h1.02l.78.06m2.87 1.2l.6.5.5.6m1.2 2.86l.05.78v.93m0 3.74v1.86m0 3.74v1.86m0 3.74v1.86m0 3.74v1.86m0 3.74v.93l-.06.78m-1.2 2.87l-.5.6-.6.5m-2.86 1.2l-.78.05h-1m-4.08 0h-2.03m-4.05 0h-2.04m-4.05 0h-2.03m-4.07 0h-2.03m-4.06 0h-2.03m-4.06 0h-2.04m-4.06 0h-2.03m-4.07 0h-2.03m-4.06 0h-2.03m-4.07 0h-2.03m-4.06 0h-2.04m-4.07 0h-2.04m-4.06 0h-2.03m-4.07 0h-2.03m-4.06 0h-2.02m-4.07 0h-2.02m-4.06 0h-2.03m-4.08 0h-2.03m-4.07 0h-2.04m-4.07 0h-2.03m-4.06 0h-1.02l-.78-.06m-2.87-1.2l-.6-.5-.5-.6m-1.2-2.86l-.05-.78v-.93m0-3.74v-1.86m0-3.74v-1.86m0-3.74v-1.86m0-3.74v-1.86m0-3.74v-.93l.06-.78" stroke="#000" fill="none"/><use xlink:href="#p" transform="matrix(1,0,0,1,-1344.679516611934,-775) translate(38.51851851851852 19.65277777777778)"/><path d="M-754.9-774a6 6 0 0 1 6-6h128a6 6 0 0 1 6 6v28a6 6 0 0 1-6 6h-128a6 6 0 0 1-6-6z" fill="#fff"/><path d="M-753.65-777.65l.5-.6.6-.5m2.87-1.2l.78-.05h1.02m4.06 0h2.04m4.06 0h2.03m4.07 0h2.03m4.07 0h2.03m4.06 0h2.04m4.06 0h2.03m4.05 0h2.04m4.05 0h2.03m4.07 0h2.03m4.06 0h2.03m4.06 0h2.04m4.06 0h2.03m4.07 0h2.03m4.06 0h2.03m4.07 0h2.03m4.06 0h2.04m4.07 0h2.04m4.06 0h2.03m4.07 0h2.03m4.06 0h2.02m4.07 0h1l.8.06m2.85 1.2l.6.5.5.6m1.2 2.86l.05.78v.93m0 3.74v1.86m0 3.74v1.86m0 3.74v1.86m0 3.74v1.86m0 3.74v.93l-.06.78m-1.18 2.87l-.5.6-.6.5m-2.87 1.2l-.8.05h-1m-4.08 0H-628m-4.07 0h-2.03m-4.07 0h-2.03m-4.06 0h-2.03m-4.06 0h-2.03m-4.05 0h-2.03m-4.07 0h-2.03m-4.06 0h-2.03m-4.07 0h-2.03m-4.06 0h-2.03m-4.07 0h-2.03m-4.06 0h-2.03m-4.07 0h-2.03m-4.06 0h-2.05m-4.06 0h-2.04m-4.06 0h-2.04m-4.06 0h-2.03m-4.07 0h-2.03m-4.06 0h-2.02m-4.06 0h-2.04m-4.06 0h-1.02l-.78-.06m-2.86-1.2l-.6-.5-.5-.6m-1.2-2.86l-.06-.78v-.93m0-3.74v-1.86m0-3.74v-1.86m0-3.74v-1.86m0-3.74v-1.86m0-3.74v-.93l.06-.78" stroke="#000" fill="none"/><use xlink:href="#p" transform="matrix(1,0,0,1,-749.8964980513429,-775) translate(38.51851851851852 19.65277777777778)"/><path d="M-1218.77-494.86a10.6 10.6 0 0 1 9.1-5.14h60a10.6 10.6 0 0 1 9.08 5.14l17.83 29.72a10 10 0 0 1 0 10.28l-17.82 29.72a10.6 10.6 0 0 1-9.08 5.14h-60a10.6 10.6 0 0 1-9.1-5.14l-17.8-29.72a10 10 0 0 1 0-10.28z" stroke="#4c535d" fill-opacity="0"/><use xlink:href="#q" transform="matrix(1,0,0,1,-1234.679516611934,-495) translate(40.22104938271605 26.52777777777778)"/><use xlink:href="#r" transform="matrix(1,0,0,1,-1234.679516611934,-495) translate(13.7087037037037 53.19444444444445)"/><path d="M-823.98-494.86a10.6 10.6 0 0 1 9.08-5.14h60a10.6 10.6 0 0 1 9.1 5.14l17.82 29.72a10 10 0 0 1 0 10.28l-17.83 29.72a10.6 10.6 0 0 1-9.1 5.14h-60a10.6 10.6 0 0 1-9.08-5.14l-17.83-29.72a10 10 0 0 1 0-10.28z" stroke="#4c535d" fill-opacity="0"/><use xlink:href="#q" transform="matrix(1,0,0,1,-839.8964980513426,-495) translate(40.22104938271605 26.52777777777778)"/><use xlink:href="#r" transform="matrix(1,0,0,1,-839.8964980513426,-495) translate(13.7087037037037 53.19444444444445)"/><path d="M-977.56-464.4l.07.88.2.84.34.8.45.74.55.65.66.57.74.45.8.33.84.2.88.07h112.06v1h-112.1l-1-.07-1-.24-.93-.38-.88-.54-.78-.66-.66-.78-.53-.87-.4-.94-.23-1-.08-1v-216.9h1zm0-238.2h-1V-805.1h1z" stroke="#000" stroke-width=".05"/><path d="M-977.56-805.06h-1v-.52h1z"/><path d="M-977.54-805.04h-1.05v-.56h1.06zm-1-.5v.45h.95v-.45z" stroke="#000" stroke-width=".05"/><path d="M-845.2-458.38l-14.28 4.64V-463z"/><path d="M-843.6-458.38l-16.38 5.33v-10.65zm-15.38 3.95l12.15-3.95-12.15-3.94z" stroke="#000" stroke-width=".05"/><use xlink:href="#s" transform="matrix(1,0,0,1,-982.9989585707211,-702.6045831217942) translate(0 14.222222222222223)"/><path d="M-502.37-993.76h-435.97" stroke="#08438c" stroke-width="2" fill="none"/><path d="M-498.9-992.76h-3.5v-1.42zm.53 0h-.46l-3.56-1.45v-.56h4.03z" stroke="#08438c" stroke-width=".05" fill="#08438c"/><path d="M-953.6-993.76l14.26-4.64v9.27z" stroke="#08438c" stroke-width="2" fill="#08438c"/><path d="M-1008.7-949v10" stroke="#08438c" stroke-width="2" fill="none"/><path d="M-1008.8-950l1.1-.07v1.1h-2v-1.12z" stroke="#08438c" stroke-width=".05" fill="#08438c"/><path d="M-1008.7-923.74l-4.64-14.26h9.27z" stroke="#08438c" stroke-width="2" fill="#08438c"/><path d="M-803.47-887.28h-128.97v-1h128.97zm146.6-.02h-61.37v-1h61.36z" stroke="#000" stroke-width=".05"/><path d="M-932.43-887.28h-.2l-.63-1h.83z"/><path d="M-932.4-887.25h-.23l-.67-1.05h.9zm-.8-1l.6.95h.15v-.96z" stroke="#000" stroke-width=".05"/><path d="M-642.12-887.8l-14.26 4.64v-9.27z"/><path d="M-640.5-887.8l-16.38 5.33v-10.65zm-15.38 3.95l12.14-3.95-12.14-3.94z" stroke="#000" stroke-width=".05"/><use xlink:href="#t" transform="matrix(1,0,0,1,-803.4741567292906,-898.4625757187446) translate(0 14.222222222222223)"/><use xlink:href="#u" transform="matrix(1,0,0,1,-803.4741567292906,-898.4625757187446) translate(31.506172839506178 14.222222222222223)"/><use xlink:href="#v" transform="matrix(1,0,0,1,-803.4741567292906,-898.4625757187446) translate(46.814814814814824 14.222222222222223)"/><path d="M-480-855.8c0 4.42-35.82 8-80 8s-80-3.58-80-8v-64c0-4.4 35.82-8 80-8s80 3.6 80 8z" stroke="#000" fill-opacity="0"/><path d="M-480-919.8c0 4.42-35.82 8-80 8s-80-3.58-80-8" stroke="#000" fill="none"/><use xlink:href="#w" transform="matrix(1,0,0,1,-635,-906.795909052078) translate(25.709876543209873 31.27777777777778)"/><path d="M-824.93-424.92H-834l-.94.08-.9.22-.88.36-.8.5-.72.6-.6.72-.5.8-.37.87-.23.92-.07.94v4.65m0 4.66v9.33m0 4.66v9.3m0 4.67v9.32m0 4.65v9.32m0 4.67v4.66l.07.94.22.9.35.88.5.8.6.72.72.6.8.5.88.36.9.22.95.08h4.13m4.13 0h8.25m4.14 0h4.13" stroke="#3a414a" fill="none"/><path d="M-824.4-424.88l.3.46h-.84v-1h.2z" stroke="#3a414a" stroke-width=".05" fill="#3a414a"/><path d="M-794.46-343l-14.27 4.63v-9.27z" stroke="#3a414a" fill="#3a414a"/><path d="M-470.82-567.17a10 10 0 0 1 8.82-5.3h84a10 10 0 0 1 8.82 5.3l26.36 49.4a11.25 11.25 0 0 1 0 10.6l-26.36 49.4a10 10 0 0 1-8.82 5.3h-84a10 10 0 0 1-8.82-5.3l-26.36-49.4a11.25 11.25 0 0 1 0-10.6z" stroke="#3a414a" fill="#d7faf5"/><use xlink:href="#x" transform="matrix(1,0,0,1,-495,-567.4651360492682) translate(40.4370987654321 45.27777777777778)"/><use xlink:href="#y" transform="matrix(1,0,0,1,-495,-567.4651360492682) translate(22.042037037037034 71.94444444444446)"/><path d="M-573.9-517.47h59.65" stroke="#000" fill="none"/><path d="M-573.88-516.97h-.52v-1h.52z" stroke="#000" stroke-width=".05"/><path d="M-499.5-517.47l-14.25 4.64v-9.27z" stroke="#000"/><path d="M-424.98-830.17l1 .24.93.4.87.52.78.66.66.77.53.87.38.94.24 1 .08 1v234.4h-1v-234.37l-.07-.88-.2-.85-.33-.8-.45-.73-.56-.65-.67-.57-.73-.45-.8-.33-.84-.2-.88-.07H-937.9v-1h511.92z" stroke="#000" stroke-width=".05"/><path d="M-937.9-829.25h-.82l.64-1h.2z"/><path d="M-937.86-829.22h-.9l.66-1.05h.24zm-.2-1l-.62.95h.77v-.95z" stroke="#000" stroke-width=".05"/><path d="M-420-574.58l-4.63-14.27h9.26z"/><path d="M-420-572.97l-5.32-16.38h10.64zm-3.95-15.38l3.95 12.15 3.95-12.15z" stroke="#000" stroke-width=".05"/><path d="M-1630.98-474.7a10 10 0 0 1 8.82-5.3h84a10 10 0 0 1 8.82 5.3l26.36 49.4a11.25 11.25 0 0 1 0 10.6l-26.36 49.4a10 10 0 0 1-8.82 5.3h-84a10 10 0 0 1-8.82-5.3l-26.36-49.4a11.25 11.25 0 0 1 0-10.6z" stroke="#3a414a" fill="#fc9432"/><use xlink:href="#z" transform="matrix(1,0,0,1,-1655.160241694033,-475) translate(2.319814814814814 59.02777777777778)"/><use xlink:href="#A" transform="matrix(1,0,0,1,-1655.160241694033,-475) translate(78.55438271604937 59.02777777777778)"/><path d="M-1513.76-513.96h-60.38l-.88.07-.84.2-.8.34-.73.45-.65.55-.56.66-.46.74-.33.8-.2.84-.06.88v11.56h-1v-11.6l.08-1 .24-1 .4-.93.52-.88.66-.78.78-.66.87-.53.93-.4 1-.23 1-.08h60.4zm133.24 0h-99.86v-1h99.86z" stroke="#000" stroke-width=".05"/><path d="M-1380.02-513.96h-.5v-1h.5z"/><path d="M-1380-513.94h-.56V-515h.57zm-.5-1v.95h.46v-.94z" stroke="#000" stroke-width=".05"/><path d="M-1580.16-482.12l-4.64-14.26h9.27z"/><path d="M-1580.16-480.5l-5.32-16.38h10.64zm-3.95-15.38l3.94 12.14 3.95-12.14z" stroke="#000" stroke-width=".05"/><use xlink:href="#B" transform="matrix(1,0,0,1,-1513.7620792340424,-525.1286159734342) translate(0 14.222222222222223)"/><path d="M-1670.82-654.7a10 10 0 0 1 8.82-5.3h84a10 10 0 0 1 8.82 5.3l26.36 49.4a11.25 11.25 0 0 1 0 10.6l-26.36 49.4a10 10 0 0 1-8.82 5.3h-84a10 10 0 0 1-8.82-5.3l-26.36-49.4a11.25 11.25 0 0 1 0-10.6z" stroke="#3a414a" fill="#edf5ff"/><use xlink:href="#C" transform="matrix(1,0,0,1,-1695,-655) translate(10.930925925925942 59.02777777777778)"/><path d="M-1499.5-597.75l.07.88.2.84.33.8.45.73.56.65.67.57.73.44.8.34.84.2.88.07h113.46v1h-113.5l-1-.08-1-.25-.93-.4-.87-.52-.78-.67-.66-.77-.53-.88-.38-.95-.24-1-.08-.98v-12.72h1zm0-34h-1v-31.37h1z" stroke="#000" stroke-width=".05"/><path d="M-1380.02-591.23h-.5v-1h.5z"/><path d="M-1380-591.2h-.56v-1.06h.57zm-.5-1v.94h.46v-.95z" stroke="#000" stroke-width=".05"/><path d="M-1495.37-663.62h-9.27l4.64-14.26z"/><path d="M-1494.68-663.12h-10.64l5.32-16.38zm-9.27-1h7.9l-3.95-12.14z" stroke="#000" stroke-width=".05"/><use xlink:href="#D" transform="matrix(1,0,0,1,-1523.6543209876543,-631.7530931578757) translate(0 14.222222222222223)"/><path d="M-1087.58-883.2h-406.4l-.88.07-.84.2-.8.33-.73.46-.66.56-.55.65-.45.74-.33.8-.2.84-.07.88v100.8h-1v-100.84l.08-1 .24-1 .4-.93.52-.87.66-.77.78-.66.87-.53.94-.38.98-.24 1-.08h406.44z" stroke="#000" stroke-width=".05"/><path d="M-1087.4-883.2h-.2v-1h.84z"/><path d="M-1087.38-883.17h-.23v-1.05h.9zm-.18-1v.95h.15l.6-.95z" stroke="#000" stroke-width=".05"/><path d="M-1500-762.12l-4.63-14.26h9.27z"/><path d="M-1500-760.5l-5.32-16.38h10.64zm-3.95-15.38l3.95 12.14 3.95-12.14z" stroke="#000" stroke-width=".05"/><path d="M-1620-661v-53a6 6 0 0 1 6-6h17.12" stroke="#000" fill="none"/><path d="M-1619.5-660.5h-1v-.5h1z" stroke="#000" stroke-width=".05"/><path d="M-1582.12-720l-14.26 4.63v-9.26z" stroke="#000"/><path d="M-1562.16-285.04l-52.44-52.8c-3-2.88-7.68-2.88-10.44 0l-11.52 11.28 13.68 13.68c.84-.36 2.04-.6 3.24-.6 5.04 0 9.12 4.08 9.12 9.12 0 1.2-.24 2.4-.6 3.36l13.32 13.32c.84-.36 2.16-.6 3.24-.6 5.04 0 9.24 4.08 9.24 9.12 0 5.04-4.2 9.24-9.24 9.24s-9.12-4.2-9.12-9.24c0-1.2.24-2.4.6-3.24l-12.48-12.48v32.64c3 1.44 5.04 4.68 5.04 8.04 0 5.04-4.08 9.12-9.12 9.12-5.04 0-9.24-4.08-9.24-9.12 0-3.96 2.4-7.2 6-8.64v-33.24c-3.6-1.08-6-4.68-6-8.52 0-1.2.36-2.4.6-3.24l-13.56-13.68-35.88 36.48c-3 2.88-3 7.68 0 10.32l52.44 52.44c3 3 7.68 3 10.32 0l52.44-52.44c3.36-2.88 3.36-7.68.36-10.32z" stroke="#000" stroke-opacity="0" fill="#6f7681"/><use xlink:href="#E" transform="matrix(1,0,0,1,-1710,-211) translate(17.224999999999994 14.4)"/><use xlink:href="#F" transform="matrix(1,0,0,1,-1710,-211) translate(48.175 14.4)"/><path d="M-855.9-422.7H-894a6 6 0 0 0-6 6V-216a6 6 0 0 1-6 6h-635.68a6 6 0 0 1-6-6v-127.12" stroke="#000" fill="none"/><path d="M-855.4-422.2h-.5v-1h.5z" stroke="#000" stroke-width=".05"/><path d="M-1547.68-357.88l4.63 14.26h-9.27z" stroke="#000"/><path d="M-1008.8-950c-2.62 0-5.23-1-7.2-2.8l-44-40.6c-1.97-1.8-3.05-4.2-3.05-6.6 0-2.4 1.08-4.8 3.04-6.6l44-40.6c1.97-1.8 4.58-2.8 7.2-2.8 2.6 0 5.2 1 7.16 2.8l44.25 40.8c1.96 1.8 3.05 4 3.05 6.6 0 2.4-1.1 4.8-3.04 6.6l-44.24 40.4c-1.95 1.8-4.56 2.8-7.17 2.8" stroke="#000" stroke-opacity="0" fill="#7fba00"/><path d="M-998.53-1012.83c-3.04 2.13-6.6 3.18-10.14 3.18-5.05 0-10.04-2.1-13.32-6.05-5.62-6.76-4.2-16.44 3.12-21.63 3.05-2.15 6.63-3.17 10.18-3.17 5.02 0 10 2.1 13.3 6.04 5.6 6.8 4.2 16.45-3.13 21.63" stroke="#000" stroke-opacity="0" fill="#fff"/><path d="M-1001.64-1047.2c-1.96-1.76-4.6-2.8-7.14-2.8-2.63 0-5.25 1.04-7.2 2.8l-44.07 40.58c-1.95 1.83-3 4.22-3 6.6 0 2.4 1.05 4.78 3 6.62l25 23 47.07-64.24-13.66-12.57z" stroke="#000" stroke-opacity="0" fill="#fff" fill-opacity=".15"/><path d="M-1008.8-958.8l14.3-13.23h-10.2v-39.67h-8.46v39.68h-9.97l14.32 13.22z" stroke="#000" stroke-opacity="0" fill="#fff"/><path d="M-977.72-983.04v-18.68l-7.06 6.5-18.3-16.87-6.15 5.68 18.3 16.87-7.05 6.5h20.26z" stroke="#000" stroke-opacity="0" fill="#fff"/><path d="M-1039.87-982.97h20.24l-7.04-6.5 18.83-17.36-6.15-5.66-18.83 17.37-7.04-6.5v18.66z" stroke="#000" stroke-opacity="0" fill="#fff"/><path d="M-999.88-1014.46c-2.64 1.85-5.75 2.76-8.82 2.76-4.36 0-8.68-1.82-11.52-5.25-4.88-5.85-3.66-14.25 2.7-18.75 2.63-1.87 5.74-2.75 8.82-2.75 4.35 0 8.68 1.82 11.52 5.24 4.88 5.85 3.66 14.25-2.7 18.74" stroke="#000" stroke-opacity="0" fill="#59b4d9"/><path d="M-1002.54-1022.74c1.05 1.27 3 1.5 4.37.56.07-.07.13-.12.18-.2 1.43.94 2.38 1.54 2.93 1.86.16-.37.3-.74.4-1.13-.58-.4-1.37-.95-2.5-1.8.36-.9.26-1.94-.43-2.77-.97-1.16-2.68-1.46-4.02-.74-1.47-1.22-3.1-2.6-4.8-4.18 5.3-2.65 9.1-2.26 9.1-2.26-.64-.74-1.35-1.4-2.12-1.96-2.23-.33-5.7-.3-9.7 1.66-1.32-1.3-2.7-2.66-4.06-4.14-.65.2-1.28.44-1.92.72 1.03 1.55 2.4 3.07 3.92 4.6h.03c-1.3.83-2.74 1.93-4.05 3.23l-.48.5c-.78-.17-1.63-.12-2.4.15-1.3-2.63-1.2-4.73-1-5.8-.57.54-1.1 1.12-1.57 1.74-.34 1.28-.42 3.15.58 5.4-1.15 1.4-1.2 3.4 0 4.9.12.13.22.24.35.33-.55 1.7-.8 3.3-.87 4.7.14.18.14.32.3.48.68.84 1.55 1.53 2.4 2.15-.12-1.47 0-3.64 1-6.1.67.08 1.38-.04 2-.3.38.3.78.63 1.2.93 1.42 1.04 2.84 1.85 4.23 2.5-.07.64.12 1.3.57 1.87.97 1.17 2.78 1.38 4.05.48.26-.18.47-.4.63-.65 2.26.47 4.23.56 5.7.56.22 0 1.27-1.32 1.88-2.13-.9.2-3.56.52-7.16-.42-.08-.37-.26-.74-.53-1.07-.9-1.1-2.57-1.33-3.84-.6-1.23-.6-2.55-1.4-3.92-2.4l-.8-.6c.85-1.2.93-2.74.2-4.03.15-.16.34-.3.5-.46 1.34-1.15 2.6-2.07 3.8-2.8l-.15-.15c.06.05.08.1.14.14 1.8 1.54 3.73 3 5.55 4.3-.48.93-.4 2.1.34 2.97z" stroke="#000" stroke-opacity="0" fill="#fff"/><path d="M-1499.1-691.6h38.94v31.6h-38.95z" fill="#fff" fill-opacity="0"/><path d="M-852.3-700.44l1 .24.95.4.87.52.77.66.66.78.53.87.38.94.24 1 .08 1v64.1h-1V-694l-.07-.88-.2-.84-.33-.8-.45-.73-.56-.66-.67-.57-.74-.45-.8-.33-.84-.2-.88-.07h-119.8v-1h119.84zm-151.47.92v-1H-983v1zm-399.35 0v-1h389.48v1z" stroke="#000" stroke-width=".05"/><path d="M-846.8-629.42h-1v-.52h1z"/><path d="M-846.78-629.4h-1.05v-.56h1.05zm-1-.5v.45h.95v-.46z" stroke="#000" stroke-width=".05"/><path d="M-1403.62-695.4l-14.26-4.62 14.26-4.64z"/><path d="M-1403.12-694.7l-16.38-5.32 16.38-5.32zm-13.14-5.32l12.14 3.95v-7.9zM-1008.2-465.98l-.08 1-.24 1-.4.93-.52.87-.67.78-.78.66-.87.53-.94.38-1 .24-.98.08h-89.78v-1h89.74l.88-.07.84-.2.8-.33.73-.45.65-.56.57-.67.45-.73.33-.8.2-.84.07-.88v-213.5h1zm0-234.86h-1v-104.24h1z" stroke="#000" stroke-width=".05"/><path d="M-1008.2-805.06h-1v-.52h1z"/><path d="M-1008.18-805.04h-1.05v-.56h1.05zm-1-.5v.45h.95v-.45z" stroke="#000" stroke-width=".05"/><path d="M-1104.96-455.37l-14.26-4.63 14.26-4.63z"/><path d="M-1104.46-454.68l-16.38-5.32 16.38-5.32zm-13.14-5.32l12.14 3.95v-7.9z" stroke="#000" stroke-width=".05"/><use xlink:href="#s" transform="matrix(1,0,0,1,-1013.6412321756153,-700.8424483802377) translate(0 14.222222222222223)"/><path d="M-1659.66-420h-33.5a6 6 0 0 0-6 6v104.1a6 6 0 0 0 6 6h17.62" stroke="#000" fill="none"/><path d="M-1659.16-420l.02.5h-.53v-1h.53z" stroke="#000" stroke-width=".05"/><path d="M-1660.78-303.9l-14.27 4.63v-9.28z" stroke="#000"/><path d="M-1157.78-419v4.87m0 4.86v9.74m0 4.86v9.74m0 4.86v9.74m0 4.86v9.74m0 4.86v4.87l-.07.94-.22.9-.36.88-.5.8-.6.72-.72.6-.8.5-.87.37-.92.23-.94.07h-8.86" stroke="#3a414a" fill="none"/><path d="M-1157.28-419h-1v-.5h1z" stroke="#3a414a" stroke-width=".05" fill="#3a414a"/><path d="M-1187.4-340l14.27-4.63v9.26z" stroke="#3a414a" fill="#3a414a"/><path d="M-1098.68-419.5h33.5a6 6 0 0 1 6 6V-226a6 6 0 0 0 6 6H-426a6 6 0 0 0 6-6v-209.58" stroke="#000" fill="none"/><path d="M-1098.67-419h-.5v-1h.5z" stroke="#000" stroke-width=".05"/><path d="M-420-450.35l4.63 14.27h-9.26z" stroke="#000"/><path d="M-1068.7-774a6 6 0 0 1 6-6h128a6 6 0 0 1 6 6v28a6 6 0 0 1-6 6h-128a6 6 0 0 1-6-6z" fill="#fff"/><path d="M-1067.45-777.65l.5-.6.6-.5m2.87-1.2l.78-.05h1m4.08 0h2.03m4.07 0h2.03m4.07 0h2.03m4.06 0h2.03m4.06 0h2.03m4.05 0h2.03m4.07 0h2.03m4.06 0h2.04m4.06 0h2.03m4.06 0h2.03m4.07 0h2.03m4.06 0h2.04m4.06 0h2.03m4.06 0h2.05m4.06 0h2.04m4.06 0h2.04m4.06 0h2.03m4.07 0h2.03m4.06 0h2.02m4.07 0h2.02m4.06 0h1.02l.78.06m2.86 1.2l.6.5.5.6m1.2 2.86l.06.78v.93m0 3.74v1.86m0 3.74v1.86m0 3.74v1.86m0 3.74v1.86m0 3.74v.93l-.06.78m-1.2 2.87l-.5.6-.6.5m-2.86 1.2l-.78.05h-1.02m-4.06 0h-2.03m-4.08 0h-2.03m-4.07 0H-954m-4.07 0h-2.03m-4.06 0h-2.04m-4.06 0h-2.03m-4.05 0h-2.04m-4.05 0h-2.03m-4.06 0h-2.04m-4.06 0h-2.03m-4.07 0h-2.03m-4.06 0h-2.03m-4.06 0h-2.04m-4.06 0h-2.03m-4.07 0h-2.03m-4.06 0h-2.04m-4.07 0h-2.04m-4.06 0h-2.03m-4.07 0h-2.03m-4.06 0h-2.02m-4.07 0h-1l-.78-.06m-2.87-1.2l-.6-.5-.5-.6m-1.2-2.86l-.05-.78v-.93m0-3.74v-1.86m0-3.74v-1.86m0-3.74v-1.86m0-3.74v-1.86m0-3.74v-.93l.06-.78" stroke="#000" fill="none"/><use xlink:href="#p" transform="matrix(1,0,0,1,-1063.7029605706773,-775) translate(38.51851851851852 19.65277777777778)"/><path d="M-439.56-1035.36v21.44l-26.52 10.75v-21.47l26.52-10.72z" stroke="#000" stroke-opacity="0" fill="#6f7681"/><path d="M-439.67-1035.4l-26.47 10.75-26.47-10.75 26.46-10.74 26.47 10.74z" stroke="#000" stroke-opacity="0" fill="#ada68a"/><path d="M-466.08-1024.6v21.43l-26.53-10.75v-21.44l26.52 10.75z" stroke="#000" stroke-opacity="0" fill="#7f9087"/><path d="M-466.95-1001.32v21.44l-26.53 10.76v-21.48l26.53-10.72z" stroke="#000" stroke-opacity="0" fill="#6f7681"/><path d="M-467.06-1001.36l-26.47 10.75-26.47-10.76 26.47-10.74 26.47 10.74z" stroke="#000" stroke-opacity="0" fill="#ada68a"/><path d="M-493.48-990.57v21.45L-520-979.88v-21.44l26.52 10.75z" stroke="#000" stroke-opacity="0" fill="#7f9087"/><path d="M-411.3-1001.32v21.44l-26.52 10.76v-21.48l26.52-10.72z" stroke="#000" stroke-opacity="0" fill="#6f7681"/><path d="M-411.3-1001.36l-26.47 10.75-26.47-10.76 26.47-10.74 26.47 10.74z" stroke="#000" stroke-opacity="0" fill="#ada68a"/><path d="M-437.7-990.57v21.45l-26.54-10.76v-21.44l26.53 10.75z" stroke="#000" stroke-opacity="0" fill="#7f9087"/><path d="M-493.48-1012.08l.95-1.87 26.43 10.76 26.5-10.75 1.9 1.87-26.5 10.76v21.4h-2.8v-21.4z" stroke="#000" stroke-opacity="0" fill="#000054" fill-opacity="0"/><path d="M-954.35-1040h186.65v31.6h-186.65z" fill="#fff" fill-opacity="0"/><use xlink:href="#G" transform="matrix(1,0,0,1,-949.3514802853385,-1035) translate(0 14.4)"/><use xlink:href="#H" transform="matrix(1,0,0,1,-949.3514802853385,-1035) translate(102.7 14.4)"/><path d="M-928.7-1131.6H-821v36.93h-107.7z" fill="#fff" fill-opacity="0"/><use xlink:href="#I" transform="matrix(1,0,0,1,-923.7029605706773,-1126.6) translate(0 17.955555555555552)"/><path d="M-1700-1064.4h579.68v95.28H-1700z" stroke="#000" fill-opacity="0"/><g><use xlink:href="#J" transform="matrix(1,0,0,1,-1695,-1059.390642483451) translate(233.4203703703704 31.309722222222213)"/><use xlink:href="#K" transform="matrix(1,0,0,1,-1695,-1059.390642483451) translate(9.788888888889005 70.68749999999999)"/><use xlink:href="#L" transform="matrix(1,0,0,1,-1695,-1059.390642483451) translate(138.42962962962972 70.68749999999999)"/><use xlink:href="#M" transform="matrix(1,0,0,1,-1695,-1059.390642483451) translate(289.9611111111111 70.68749999999999)"/></g><path d="M-1580-754a6 6 0 0 1 6-6h148a6 6 0 0 1 6 6v68a6 6 0 0 1-6 6h-148a6 6 0 0 1-6-6z" stroke="#3a414a" fill-opacity="0"/><path d="M-1530.08-750h60.16v40h-60.16v-40z" fill="#456090"/><path d="M-1530.08-750h60.16v37.27h-60.16z" fill="#979ea8"/><path d="M-1513.4-744.98h6.42v28.1h-6.4v-28.1zM-1503.2-744.98h6.4v28.1h-6.4v-28.1zM-1493.03-744.98h6.4v28.1h-6.4v-28.1zM-1522.66-737.03v12.2l5.5-6.1-5.5-6.1zM-1482.85-737.03v12.2l5.5-6.1-5.5-6.1z" fill="#fff"/><g><use xlink:href="#N" transform="matrix(1,0,0,1,-1530.0801208470166,-710) translate(-0.36419753086419604 17.77777777777778)"/></g><path d="M-520-969.12h131.18V-940H-520z" fill="#fff" fill-opacity="0"/><g><use xlink:href="#O" transform="matrix(1,0,0,1,-515,-964.1239758167842) translate(0 14.4)"/></g><path d="M-1499.5-631.75h-1v-77.75h1z" stroke="#3a414a" stroke-width=".05" fill="#3a414a"/><path d="M-1499.5-709.5h-1v-.5h1z" fill="#3a414a"/><path d="M-1499.47-709.46h-1.06v-.56h1.06zm-1-.5v.45h.94v-.48z" stroke="#3a414a" stroke-width=".05" fill="#3a414a"/><path fill="#3a414a"/><path stroke="#3a414a" stroke-width=".05" fill="#3a414a"/><defs><path d="M230 0l2-204L168 0h-37L68-204 70 0H24v-248h70l56 185 57-185h69V0h-46" id="P"/><path d="M137-138c1-29-70-34-71-4 15 46 118 7 119 86 1 83-164 76-172 9l43-7c4 19 20 25 44 25 33 8 57-30 24-41C81-84 22-81 20-136c-2-80 154-74 161-7" id="Q"/><g id="a"><use transform="matrix(0.06172839506172839,0,0,0.06172839506172839,0,0)" xlink:href="#P"/><use transform="matrix(0.06172839506172839,0,0,0.06172839506172839,18.456790123456788,0)" xlink:href="#Q"/></g><path d="M169-182c-1-43-94-46-97-3 18 66 151 10 154 114 3 95-165 93-204 36-6-8-10-19-12-30l50-8c3 46 112 56 116 5-17-69-150-10-154-114-4-87 153-88 188-35 5 8 8 18 10 28" id="R"/><path d="M133-34C117-15 103 5 69 4 32 3 11-16 11-54c-1-60 55-63 116-61 1-26-3-47-28-47-18 1-26 9-28 27l-52-2c7-38 36-58 82-57s74 22 75 68l1 82c-1 14 12 18 25 15v27c-30 8-71 5-69-32zm-48 3c29 0 43-24 42-57-32 0-66-3-65 30 0 17 8 27 23 27" id="S"/><path d="M195-6C206 82 75 100 31 46c-4-6-6-13-8-21l49-6c3 16 16 24 34 25 40 0 42-37 40-79-11 22-30 35-61 35-53 0-70-43-70-97 0-56 18-96 73-97 30 0 46 14 59 34l2-30h47zm-90-29c32 0 41-27 41-63 0-35-9-62-40-62-32 0-39 29-40 63 0 36 9 62 39 62" id="T"/><g id="b"><use transform="matrix(0.06172839506172839,0,0,0.06172839506172839,0,0)" xlink:href="#R"/><use transform="matrix(0.06172839506172839,0,0,0.06172839506172839,14.814814814814813,0)" xlink:href="#S"/><use transform="matrix(0.06172839506172839,0,0,0.06172839506172839,27.160493827160494,0)" xlink:href="#T"/><use transform="matrix(0.06172839506172839,0,0,0.06172839506172839,40.67901234567901,0)" xlink:href="#S"/></g><path d="M140-251c80 0 125 45 125 126S219 4 139 4C58 4 15-44 15-125s44-126 125-126zm-1 214c52 0 73-35 73-88 0-50-21-86-72-86-52 0-73 35-73 86s22 88 72 88" id="U"/><path d="M135-150c-39-12-60 13-60 57V0H25l-1-190h47c2 13-1 29 3 40 6-28 27-53 61-41v41" id="V"/><path d="M190-63c-7 42-38 67-86 67-59 0-84-38-90-98-12-110 154-137 174-36l-49 2c-2-19-15-32-35-32-30 0-35 28-38 64-6 74 65 87 74 30" id="W"/><path d="M114-157C55-157 80-60 75 0H25v-261h50l-1 109c12-26 28-41 61-42 86-1 58 113 63 194h-50c-7-57 23-157-34-157" id="X"/><path d="M185-48c-13 30-37 53-82 52C43 2 14-33 14-96s30-98 90-98c62 0 83 45 84 108H66c0 31 8 55 39 56 18 0 30-7 34-22zm-45-69c5-46-57-63-70-21-2 6-4 13-4 21h74" id="Y"/><path d="M115-3C79 11 28 4 28-45v-112H4v-33h27l15-45h31v45h36v33H77v99c-1 23 16 31 38 25v30" id="Z"/><path d="M25-224v-37h50v37H25zM25 0v-190h50V0H25" id="aa"/><path d="M110-194c64 0 96 36 96 99 0 64-35 99-97 99-61 0-95-36-95-99 0-62 34-99 96-99zm-1 164c35 0 45-28 45-65 0-40-10-65-43-65-34 0-45 26-45 65 0 36 10 65 43 65" id="ab"/><path d="M135-194c87-1 58 113 63 194h-50c-7-57 23-157-34-157-59 0-34 97-39 157H25l-1-190h47c2 12-1 28 3 38 12-26 28-41 61-42" id="ac"/><g id="c"><use transform="matrix(0.06172839506172839,0,0,0.06172839506172839,0,0)" xlink:href="#U"/><use transform="matrix(0.06172839506172839,0,0,0.06172839506172839,17.28395061728395,0)" xlink:href="#V"/><use transform="matrix(0.06172839506172839,0,0,0.06172839506172839,25.925925925925924,0)" xlink:href="#W"/><use transform="matrix(0.06172839506172839,0,0,0.06172839506172839,38.2716049382716,0)" xlink:href="#X"/><use transform="matrix(0.06172839506172839,0,0,0.06172839506172839,51.79012345679012,0)" xlink:href="#Y"/><use transform="matrix(0.06172839506172839,0,0,0.06172839506172839,64.1358024691358,0)" xlink:href="#Q"/><use transform="matrix(0.06172839506172839,0,0,0.06172839506172839,76.48148148148148,0)" xlink:href="#Z"/><use transform="matrix(0.06172839506172839,0,0,0.06172839506172839,83.82716049382717,0)" xlink:href="#V"/><use transform="matrix(0.06172839506172839,0,0,0.06172839506172839,92.46913580246914,0)" xlink:href="#S"/><use transform="matrix(0.06172839506172839,0,0,0.06172839506172839,104.81481481481482,0)" xlink:href="#Z"/><use transform="matrix(0.06172839506172839,0,0,0.06172839506172839,112.16049382716051,0)" xlink:href="#aa"/><use transform="matrix(0.06172839506172839,0,0,0.06172839506172839,118.33333333333334,0)" xlink:href="#ab"/><use transform="matrix(0.06172839506172839,0,0,0.06172839506172839,131.85185185185185,0)" xlink:href="#ac"/></g><path fill="#4c535d" d="M23 0v-37h61v-169l-59 37v-38l62-41h46v211h57V0H23" id="ad"/><use transform="matrix(0.04938271604938272,0,0,0.04938271604938272,0,0)" xlink:href="#ad" id="d"/><path d="M67-125c0 53 21 87 73 88 37 1 54-22 65-47l45 17C233-25 199 4 140 4 58 4 20-42 15-125 8-235 124-281 211-232c18 10 29 29 36 50l-46 12c-8-25-30-41-62-41-52 0-71 34-72 86" id="ae"/><g id="e"><use transform="matrix(0.06172839506172839,0,0,0.06172839506172839,0,0)" xlink:href="#ae"/><use transform="matrix(0.06172839506172839,0,0,0.06172839506172839,15.987654320987653,0)" xlink:href="#S"/><use transform="matrix(0.06172839506172839,0,0,0.06172839506172839,28.333333333333332,0)" xlink:href="#V"/><use transform="matrix(0.06172839506172839,0,0,0.06172839506172839,36.9753086419753,0)" xlink:href="#T"/><use transform="matrix(0.06172839506172839,0,0,0.06172839506172839,50.49382716049382,0)" xlink:href="#ab"/></g><path d="M182-182c0 78-84 86-111 141h115V0H12c-6-101 99-100 120-180 1-22-12-31-33-32-23 0-32 14-35 34l-49-3c5-45 32-70 84-70 51 0 83 22 83 69" id="af"/><use transform="matrix(0.04938271604938272,0,0,0.04938271604938272,0,0)" xlink:href="#af" id="f"/><path d="M199 0l-22-63H83L61 0H9l90-248h61L250 0h-51zm-33-102l-36-108c-10 38-24 72-36 108h72" id="ag"/><path d="M135-194c52 0 70 43 70 98 0 56-19 99-73 100-30 1-46-15-58-35L72 0H24l1-261h50v104c11-23 29-37 60-37zM114-30c31 0 40-27 40-66 0-37-7-63-39-63s-41 28-41 65c0 36 8 64 40 64" id="ah"/><g id="g"><use transform="matrix(0.06172839506172839,0,0,0.06172839506172839,0,0)" xlink:href="#ag"/><use transform="matrix(0.06172839506172839,0,0,0.06172839506172839,15.987654320987653,0)" xlink:href="#ah"/><use transform="matrix(0.06172839506172839,0,0,0.06172839506172839,29.50617283950617,0)" xlink:href="#ab"/><use transform="matrix(0.06172839506172839,0,0,0.06172839506172839,43.02469135802469,0)" xlink:href="#ac"/><use transform="matrix(0.06172839506172839,0,0,0.06172839506172839,56.54320987654321,0)" xlink:href="#ab"/></g><path fill="#333" d="M115-3C79 11 28 4 28-45v-112H4v-33h27l15-45h31v45h36v33H77v99c-1 23 16 31 38 25v30" id="ai"/><path fill="#333" d="M190-63c-7 42-38 67-86 67-59 0-84-38-90-98-12-110 154-137 174-36l-49 2c-2-19-15-32-35-32-30 0-35 28-38 64-6 74 65 87 74 30" id="aj"/><path fill="#333" d="M135-194c53 0 70 44 70 98 0 56-19 98-73 100-31 1-45-17-59-34 3 33 2 69 2 105H25l-1-265h48c2 10 0 23 3 31 11-24 29-35 60-35zM114-30c33 0 39-31 40-66 0-38-9-64-40-64-56 0-55 130 0 130" id="ak"/><g id="h"><use transform="matrix(0.04938271604938272,0,0,0.04938271604938272,0,0)" xlink:href="#ai"/><use transform="matrix(0.04938271604938272,0,0,0.04938271604938272,5.8765432098765435,0)" xlink:href="#aj"/><use transform="matrix(0.04938271604938272,0,0,0.04938271604938272,15.753086419753087,0)" xlink:href="#ak"/></g><path d="M24-248c120-7 223 5 221 122C244-46 201 0 124 0H24v-248zM76-40c74 7 117-18 117-86 0-67-45-88-117-82v168" id="al"/><path d="M182-130c37 4 62 22 62 59C244 23 116-4 24 0v-248c84 5 203-23 205 63 0 31-19 50-47 55zM76-148c40-3 101 13 101-30 0-44-60-28-101-31v61zm0 110c48-3 116 14 116-37 0-48-69-32-116-35v72" id="am"/><g id="i"><use transform="matrix(0.06172839506172839,0,0,0.06172839506172839,0,0)" xlink:href="#al"/><use transform="matrix(0.06172839506172839,0,0,0.06172839506172839,15.987654320987653,0)" xlink:href="#am"/></g><path d="M136-208V0H84v-208H4v-40h212v40h-80" id="an"/><path d="M25 0v-261h50V0H25" id="ao"/><g id="j"><use transform="matrix(0.06172839506172839,0,0,0.06172839506172839,0,0)" xlink:href="#an"/><use transform="matrix(0.06172839506172839,0,0,0.06172839506172839,12.28395061728395,0)" xlink:href="#V"/><use transform="matrix(0.06172839506172839,0,0,0.06172839506172839,20.925925925925924,0)" xlink:href="#S"/><use transform="matrix(0.06172839506172839,0,0,0.06172839506172839,33.2716049382716,0)" xlink:href="#ac"/><use transform="matrix(0.06172839506172839,0,0,0.06172839506172839,46.79012345679012,0)" xlink:href="#Q"/><use transform="matrix(0.06172839506172839,0,0,0.06172839506172839,59.1358024691358,0)" xlink:href="#S"/><use transform="matrix(0.06172839506172839,0,0,0.06172839506172839,71.48148148148148,0)" xlink:href="#W"/><use transform="matrix(0.06172839506172839,0,0,0.06172839506172839,83.82716049382717,0)" xlink:href="#W"/><use transform="matrix(0.06172839506172839,0,0,0.06172839506172839,96.17283950617285,0)" xlink:href="#Z"/><use transform="matrix(0.06172839506172839,0,0,0.06172839506172839,103.51851851851853,0)" xlink:href="#aa"/><use transform="matrix(0.06172839506172839,0,0,0.06172839506172839,109.69135802469137,0)" xlink:href="#ab"/><use transform="matrix(0.06172839506172839,0,0,0.06172839506172839,123.20987654320989,0)" xlink:href="#ac"/><use transform="matrix(0.06172839506172839,0,0,0.06172839506172839,136.7283950617284,0)" xlink:href="#S"/><use transform="matrix(0.06172839506172839,0,0,0.06172839506172839,149.07407407407408,0)" xlink:href="#ao"/></g><path fill="#3a414a" d="M67-125c0 54 23 88 75 88 28 0 53-7 68-21v-34h-60v-39h108v91C232-14 192 4 140 4 58 4 20-42 15-125 8-236 126-280 215-234c19 10 29 26 37 47l-47 15c-11-23-29-39-63-39-53 1-75 33-75 86" id="ap"/><path fill="#3a414a" d="M185-48c-13 30-37 53-82 52C43 2 14-33 14-96s30-98 90-98c62 0 83 45 84 108H66c0 31 8 55 39 56 18 0 30-7 34-22zm-45-69c5-46-57-63-70-21-2 6-4 13-4 21h74" id="aq"/><path fill="#3a414a" d="M137-138c1-29-70-34-71-4 15 46 118 7 119 86 1 83-164 76-172 9l43-7c4 19 20 25 44 25 33 8 57-30 24-41C81-84 22-81 20-136c-2-80 154-74 161-7" id="ar"/><path fill="#3a414a" d="M115-3C79 11 28 4 28-45v-112H4v-33h27l15-45h31v45h36v33H77v99c-1 23 16 31 38 25v30" id="as"/><path fill="#3a414a" d="M25-224v-37h50v37H25zM25 0v-190h50V0H25" id="at"/><path fill="#3a414a" d="M110-194c64 0 96 36 96 99 0 64-35 99-97 99-61 0-95-36-95-99 0-62 34-99 96-99zm-1 164c35 0 45-28 45-65 0-40-10-65-43-65-34 0-45 26-45 65 0 36 10 65 43 65zM81-208v-5l45-51h45v8l-60 48H81" id="au"/><path fill="#3a414a" d="M135-194c87-1 58 113 63 194h-50c-7-57 23-157-34-157-59 0-34 97-39 157H25l-1-190h47c2 12-1 28 3 38 12-26 28-41 61-42" id="av"/><g id="k"><use transform="matrix(0.06172839506172839,0,0,0.06172839506172839,0,0)" xlink:href="#ap"/><use transform="matrix(0.06172839506172839,0,0,0.06172839506172839,17.28395061728395,0)" xlink:href="#aq"/><use transform="matrix(0.06172839506172839,0,0,0.06172839506172839,29.629629629629626,0)" xlink:href="#ar"/><use transform="matrix(0.06172839506172839,0,0,0.06172839506172839,41.9753086419753,0)" xlink:href="#as"/><use transform="matrix(0.06172839506172839,0,0,0.06172839506172839,49.32098765432098,0)" xlink:href="#at"/><use transform="matrix(0.06172839506172839,0,0,0.06172839506172839,55.49382716049382,0)" xlink:href="#au"/><use transform="matrix(0.06172839506172839,0,0,0.06172839506172839,69.01234567901234,0)" xlink:href="#av"/></g><path fill="#3a414a" d="M24 0v-248h195v40H76v63h132v40H76v65h150V0H24" id="aw"/><path fill="#3a414a" d="M220-157c-53 9-28 100-34 157h-49v-107c1-27-5-49-29-50C55-147 81-57 75 0H25l-1-190h47c2 12-1 28 3 38 10-53 101-56 108 0 13-22 24-43 59-42 82 1 51 116 57 194h-49v-107c-1-25-5-48-29-50" id="ax"/><path fill="#3a414a" d="M135-194c53 0 70 44 70 98 0 56-19 98-73 100-31 1-45-17-59-34 3 33 2 69 2 105H25l-1-265h48c2 10 0 23 3 31 11-24 29-35 60-35zM114-30c33 0 39-31 40-66 0-38-9-64-40-64-56 0-55 130 0 130" id="ay"/><path fill="#3a414a" d="M135-150c-39-12-60 13-60 57V0H25l-1-190h47c2 13-1 29 3 40 6-28 27-53 61-41v41" id="az"/><path fill="#3a414a" d="M133-34C117-15 103 5 69 4 32 3 11-16 11-54c-1-60 55-63 116-61 1-26-3-47-28-47-18 1-26 9-28 27l-52-2c7-38 36-58 82-57s74 22 75 68l1 82c-1 14 12 18 25 15v27c-30 8-71 5-69-32zm-48 3c29 0 43-24 42-57-32 0-66-3-65 30 0 17 8 27 23 27" id="aA"/><g id="l"><use transform="matrix(0.06172839506172839,0,0,0.06172839506172839,0,0)" xlink:href="#aw"/><use transform="matrix(0.06172839506172839,0,0,0.06172839506172839,14.814814814814813,0)" xlink:href="#ax"/><use transform="matrix(0.06172839506172839,0,0,0.06172839506172839,34.5679012345679,0)" xlink:href="#ay"/><use transform="matrix(0.06172839506172839,0,0,0.06172839506172839,48.08641975308642,0)" xlink:href="#az"/><use transform="matrix(0.06172839506172839,0,0,0.06172839506172839,56.72839506172839,0)" xlink:href="#aq"/><use transform="matrix(0.06172839506172839,0,0,0.06172839506172839,69.07407407407408,0)" xlink:href="#ar"/><use transform="matrix(0.06172839506172839,0,0,0.06172839506172839,81.41975308641976,0)" xlink:href="#aA"/></g><path fill="#3a414a" d="M182-130c37 4 62 22 62 59C244 23 116-4 24 0v-248c84 5 203-23 205 63 0 31-19 50-47 55zM76-148c40-3 101 13 101-30 0-44-60-28-101-31v61zm0 110c48-3 116 14 116-37 0-48-69-32-116-35v72" id="aB"/><path fill="#3a414a" d="M121-226c-27-7-43 5-38 36h38v33H83V0H34v-157H6v-33h28c-9-59 32-81 87-68v32" id="aC"/><path fill="#3a414a" d="M190-63c-7 42-38 67-86 67-59 0-84-38-90-98-12-110 154-137 174-36l-49 2c-2-19-15-32-35-32-30 0-35 28-38 64-6 74 65 87 74 30" id="aD"/><g id="m"><use transform="matrix(0.06172839506172839,0,0,0.06172839506172839,0,0)" xlink:href="#aB"/><use transform="matrix(0.06172839506172839,0,0,0.06172839506172839,15.987654320987653,0)" xlink:href="#aq"/><use transform="matrix(0.06172839506172839,0,0,0.06172839506172839,28.333333333333332,0)" xlink:href="#av"/><use transform="matrix(0.06172839506172839,0,0,0.06172839506172839,41.85185185185185,0)" xlink:href="#aq"/><use transform="matrix(0.06172839506172839,0,0,0.06172839506172839,54.197530864197525,0)" xlink:href="#aC"/><use transform="matrix(0.06172839506172839,0,0,0.06172839506172839,61.5432098765432,0)" xlink:href="#at"/><use transform="matrix(0.06172839506172839,0,0,0.06172839506172839,67.71604938271604,0)" xlink:href="#aD"/><use transform="matrix(0.06172839506172839,0,0,0.06172839506172839,80.06172839506172,0)" xlink:href="#at"/><use transform="matrix(0.06172839506172839,0,0,0.06172839506172839,86.23456790123456,0)" xlink:href="#aA"/><use transform="matrix(0.06172839506172839,0,0,0.06172839506172839,98.58024691358024,0)" xlink:href="#az"/><use transform="matrix(0.06172839506172839,0,0,0.06172839506172839,107.22222222222221,0)" xlink:href="#at"/><use transform="matrix(0.06172839506172839,0,0,0.06172839506172839,113.39506172839505,0)" xlink:href="#aA"/></g><path fill="#3a414a" d="M67-125c0 53 21 87 73 88 37 1 54-22 65-47l45 17C233-25 199 4 140 4 58 4 20-42 15-125 8-235 124-281 211-232c18 10 29 29 36 50l-46 12c-8-25-30-41-62-41-52 0-71 34-72 86" id="aE"/><path fill="#3a414a" d="M25 0v-261h50V0H25" id="aF"/><g id="n"><use transform="matrix(0.06172839506172839,0,0,0.06172839506172839,0,0)" xlink:href="#aE"/><use transform="matrix(0.06172839506172839,0,0,0.06172839506172839,15.987654320987653,0)" xlink:href="#aF"/><use transform="matrix(0.06172839506172839,0,0,0.06172839506172839,22.160493827160494,0)" xlink:href="#at"/><use transform="matrix(0.06172839506172839,0,0,0.06172839506172839,28.333333333333332,0)" xlink:href="#aq"/><use transform="matrix(0.06172839506172839,0,0,0.06172839506172839,40.67901234567901,0)" xlink:href="#av"/><use transform="matrix(0.06172839506172839,0,0,0.06172839506172839,54.19753086419753,0)" xlink:href="#as"/><use transform="matrix(0.06172839506172839,0,0,0.06172839506172839,61.54320987654321,0)" xlink:href="#aq"/></g><path fill="#3a414a" d="M140-251c80 0 125 45 125 126S219 4 139 4C58 4 15-44 15-125s44-126 125-126zm-1 214c52 0 73-35 73-88 0-50-21-86-72-86-52 0-73 35-73 86s22 88 72 88" id="aG"/><path fill="#3a414a" d="M88-194c31-1 46 15 58 34l-1-101h50l1 261h-48c-2-10 0-23-3-31C134-8 116 4 84 4 32 4 16-41 15-95c0-56 19-97 73-99zm17 164c33 0 40-30 41-66 1-37-9-64-41-64s-38 30-39 65c0 43 13 65 39 65" id="aH"/><g id="o"><use transform="matrix(0.06172839506172839,0,0,0.06172839506172839,0,0)" xlink:href="#aG"/><use transform="matrix(0.06172839506172839,0,0,0.06172839506172839,17.28395061728395,0)" xlink:href="#az"/><use transform="matrix(0.06172839506172839,0,0,0.06172839506172839,25.925925925925924,0)" xlink:href="#aH"/><use transform="matrix(0.06172839506172839,0,0,0.06172839506172839,39.44444444444444,0)" xlink:href="#aq"/><use transform="matrix(0.06172839506172839,0,0,0.06172839506172839,51.79012345679012,0)" xlink:href="#av"/><use transform="matrix(0.06172839506172839,0,0,0.06172839506172839,65.30864197530863,0)" xlink:href="#aA"/><use transform="matrix(0.06172839506172839,0,0,0.06172839506172839,77.65432098765432,0)" xlink:href="#av"/><use transform="matrix(0.06172839506172839,0,0,0.06172839506172839,91.17283950617283,0)" xlink:href="#as"/><use transform="matrix(0.06172839506172839,0,0,0.06172839506172839,98.51851851851852,0)" xlink:href="#aq"/></g><path fill="#3a414a" d="M136-208V0H84v-208H4v-40h212v40h-80" id="aI"/><path fill="#3a414a" d="M144 0l-44-69L55 0H2l70-98-66-92h53l41 62 40-62h54l-67 91 71 99h-54" id="aJ"/><g id="p"><use transform="matrix(0.06172839506172839,0,0,0.06172839506172839,0,0)" xlink:href="#at"/><use transform="matrix(0.06172839506172839,0,0,0.06172839506172839,6.172839506172839,0)" xlink:href="#aH"/><use transform="matrix(0.06172839506172839,0,0,0.06172839506172839,19.691358024691358,0)" xlink:href="#aI"/><use transform="matrix(0.06172839506172839,0,0,0.06172839506172839,31.975308641975307,0)" xlink:href="#az"/><use transform="matrix(0.06172839506172839,0,0,0.06172839506172839,40.617283950617285,0)" xlink:href="#aJ"/></g><path d="M240 0l2-218c-23 76-54 145-80 218h-23L58-218 59 0H30v-248h44l77 211c21-75 51-140 76-211h43V0h-30" id="aK"/><path d="M135-143c-3-34-86-38-87 0 15 53 115 12 119 90S17 21 10-45l28-5c4 36 97 45 98 0-10-56-113-15-118-90-4-57 82-63 122-42 12 7 21 19 24 35" id="aL"/><g id="q"><use transform="matrix(0.06172839506172839,0,0,0.06172839506172839,0,0)" xlink:href="#aK"/><use transform="matrix(0.06172839506172839,0,0,0.06172839506172839,18.456790123456788,0)" xlink:href="#aL"/></g><path d="M233-177c-1 41-23 64-60 70L243 0h-38l-65-103H63V0H30v-248c88 3 205-21 203 71zM63-129c60-2 137 13 137-47 0-61-80-42-137-45v92" id="aM"/><path d="M100-194c63 0 86 42 84 106H49c0 40 14 67 53 68 26 1 43-12 49-29l28 8c-11 28-37 45-77 45C44 4 14-33 15-96c1-61 26-98 85-98zm52 81c6-60-76-77-97-28-3 7-6 17-6 28h103" id="aN"/><path d="M108 0H70L1-190h34L89-25l56-165h34" id="aO"/><path d="M114-163C36-179 61-72 57 0H25l-1-190h30c1 12-1 29 2 39 6-27 23-49 58-41v29" id="aP"/><path d="M141-36C126-15 110 5 73 4 37 3 15-17 15-53c-1-64 63-63 125-63 3-35-9-54-41-54-24 1-41 7-42 31l-33-3c5-37 33-52 76-52 45 0 72 20 72 64v82c-1 20 7 32 28 27v20c-31 9-61-2-59-35zM48-53c0 20 12 33 32 33 41-3 63-29 60-74-43 2-92-5-92 41" id="aQ"/><g id="r"><use transform="matrix(0.06172839506172839,0,0,0.06172839506172839,0,0)" xlink:href="#aM"/><use transform="matrix(0.06172839506172839,0,0,0.06172839506172839,15.987654320987653,0)" xlink:href="#aN"/><use transform="matrix(0.06172839506172839,0,0,0.06172839506172839,28.333333333333332,0)" xlink:href="#aO"/><use transform="matrix(0.06172839506172839,0,0,0.06172839506172839,39.44444444444444,0)" xlink:href="#aN"/><use transform="matrix(0.06172839506172839,0,0,0.06172839506172839,51.79012345679012,0)" xlink:href="#aP"/><use transform="matrix(0.06172839506172839,0,0,0.06172839506172839,59.1358024691358,0)" xlink:href="#aL"/><use transform="matrix(0.06172839506172839,0,0,0.06172839506172839,70.24691358024691,0)" xlink:href="#aQ"/></g><path d="M128-127c34 4 56 21 59 58 7 91-148 94-172 28-4-9-6-17-7-26l51-5c1 24 16 35 40 36 23 0 39-12 38-36-1-31-31-36-65-34v-40c32 2 59-3 59-33 0-20-13-33-34-33s-33 13-35 32l-50-3c6-44 37-68 86-68 50 0 83 20 83 66 0 35-22 52-53 58" id="aR"/><use transform="matrix(0.04938271604938272,0,0,0.04938271604938272,0,0)" xlink:href="#aR" id="s"/><g id="t"><use transform="matrix(0.04938271604938272,0,0,0.04938271604938272,0,0)" xlink:href="#T"/><use transform="matrix(0.04938271604938272,0,0,0.04938271604938272,10.814814814814815,0)" xlink:href="#Y"/><use transform="matrix(0.04938271604938272,0,0,0.04938271604938272,20.69135802469136,0)" xlink:href="#Z"/></g><path d="M15-148v-39h180v39H15zm0 97v-39h180v39H15" id="aS"/><use transform="matrix(0.04938271604938272,0,0,0.04938271604938272,0,0)" xlink:href="#aS" id="u"/><path d="M88-194c31-1 46 15 58 34l-1-101h50l1 261h-48c-2-10 0-23-3-31C134-8 116 4 84 4 32 4 16-41 15-95c0-56 19-97 73-99zm17 164c33 0 40-30 41-66 1-37-9-64-41-64s-38 30-39 65c0 43 13 65 39 65" id="aT"/><path d="M144 0l-44-69L55 0H2l70-98-66-92h53l41 62 40-62h54l-67 91 71 99h-54" id="aU"/><g id="v"><use transform="matrix(0.04938271604938272,0,0,0.04938271604938272,0,0)" xlink:href="#aa"/><use transform="matrix(0.04938271604938272,0,0,0.04938271604938272,4.938271604938272,0)" xlink:href="#aT"/><use transform="matrix(0.04938271604938272,0,0,0.04938271604938272,15.753086419753087,0)" xlink:href="#Z"/><use transform="matrix(0.04938271604938272,0,0,0.04938271604938272,21.62962962962963,0)" xlink:href="#V"/><use transform="matrix(0.04938271604938272,0,0,0.04938271604938272,28.543209876543205,0)" xlink:href="#aU"/></g><g id="w"><use transform="matrix(0.06172839506172839,0,0,0.06172839506172839,0,0)" xlink:href="#al"/><use transform="matrix(0.06172839506172839,0,0,0.06172839506172839,15.987654320987653,0)" xlink:href="#S"/><use transform="matrix(0.06172839506172839,0,0,0.06172839506172839,28.333333333333332,0)" xlink:href="#Z"/><use transform="matrix(0.06172839506172839,0,0,0.06172839506172839,35.67901234567901,0)" xlink:href="#S"/><use transform="matrix(0.06172839506172839,0,0,0.06172839506172839,48.02469135802469,0)" xlink:href="#ah"/><use transform="matrix(0.06172839506172839,0,0,0.06172839506172839,61.54320987654321,0)" xlink:href="#S"/><use transform="matrix(0.06172839506172839,0,0,0.06172839506172839,73.88888888888889,0)" xlink:href="#Q"/><use transform="matrix(0.06172839506172839,0,0,0.06172839506172839,86.23456790123457,0)" xlink:href="#Y"/></g><path d="M128 0H69L1-190h53L99-40l48-150h52" id="aV"/><g id="x"><use transform="matrix(0.06172839506172839,0,0,0.06172839506172839,0,0)" xlink:href="#R"/><use transform="matrix(0.06172839506172839,0,0,0.06172839506172839,14.814814814814813,0)" xlink:href="#Y"/><use transform="matrix(0.06172839506172839,0,0,0.06172839506172839,27.160493827160494,0)" xlink:href="#V"/><use transform="matrix(0.06172839506172839,0,0,0.06172839506172839,35.80246913580247,0)" xlink:href="#aV"/><use transform="matrix(0.06172839506172839,0,0,0.06172839506172839,48.148148148148145,0)" xlink:href="#Y"/><use transform="matrix(0.06172839506172839,0,0,0.06172839506172839,60.49382716049382,0)" xlink:href="#V"/></g><g id="y"><use transform="matrix(0.06172839506172839,0,0,0.06172839506172839,0,0)" xlink:href="#am"/><use transform="matrix(0.06172839506172839,0,0,0.06172839506172839,15.987654320987653,0)" xlink:href="#S"/><use transform="matrix(0.06172839506172839,0,0,0.06172839506172839,28.333333333333332,0)" xlink:href="#ao"/><use transform="matrix(0.06172839506172839,0,0,0.06172839506172839,34.50617283950617,0)" xlink:href="#S"/><use transform="matrix(0.06172839506172839,0,0,0.06172839506172839,46.85185185185185,0)" xlink:href="#ac"/><use transform="matrix(0.06172839506172839,0,0,0.06172839506172839,60.37037037037037,0)" xlink:href="#W"/><use transform="matrix(0.06172839506172839,0,0,0.06172839506172839,72.71604938271605,0)" xlink:href="#aa"/><use transform="matrix(0.06172839506172839,0,0,0.06172839506172839,78.88888888888889,0)" xlink:href="#ac"/><use transform="matrix(0.06172839506172839,0,0,0.06172839506172839,92.4074074074074,0)" xlink:href="#T"/></g><path d="M121-226c-27-7-43 5-38 36h38v33H83V0H34v-157H6v-33h28c-9-59 32-81 87-68v32" id="aW"/><g id="z"><use transform="matrix(0.06172839506172839,0,0,0.06172839506172839,0,0)" xlink:href="#ae"/><use transform="matrix(0.06172839506172839,0,0,0.06172839506172839,15.987654320987653,0)" xlink:href="#ab"/><use transform="matrix(0.06172839506172839,0,0,0.06172839506172839,29.50617283950617,0)" xlink:href="#ac"/><use transform="matrix(0.06172839506172839,0,0,0.06172839506172839,43.02469135802469,0)" xlink:href="#aW"/><use transform="matrix(0.06172839506172839,0,0,0.06172839506172839,50.37037037037037,0)" xlink:href="#aa"/><use transform="matrix(0.06172839506172839,0,0,0.06172839506172839,56.54320987654321,0)" xlink:href="#T"/></g><g id="A"><use transform="matrix(0.06172839506172839,0,0,0.06172839506172839,0,0)" xlink:href="#R"/><use transform="matrix(0.06172839506172839,0,0,0.06172839506172839,14.814814814814813,0)" xlink:href="#Y"/><use transform="matrix(0.06172839506172839,0,0,0.06172839506172839,27.160493827160494,0)" xlink:href="#V"/><use transform="matrix(0.06172839506172839,0,0,0.06172839506172839,35.80246913580247,0)" xlink:href="#aV"/><use transform="matrix(0.06172839506172839,0,0,0.06172839506172839,48.148148148148145,0)" xlink:href="#Y"/><use transform="matrix(0.06172839506172839,0,0,0.06172839506172839,60.49382716049382,0)" xlink:href="#V"/></g><path fill="#333" d="M114-157C55-157 80-60 75 0H25v-261h50l-1 109c12-26 28-41 61-42 86-1 58 113 63 194h-50c-7-57 23-157-34-157" id="aX"/><g id="B"><use transform="matrix(0.04938271604938272,0,0,0.04938271604938272,0,0)" xlink:href="#aX"/><use transform="matrix(0.04938271604938272,0,0,0.04938271604938272,10.814814814814815,0)" xlink:href="#ai"/><use transform="matrix(0.04938271604938272,0,0,0.04938271604938272,16.691358024691358,0)" xlink:href="#ai"/><use transform="matrix(0.04938271604938272,0,0,0.04938271604938272,22.567901234567902,0)" xlink:href="#ak"/></g><path d="M12 0v-35l95-120H19v-35h142v35L67-36h103V0H12" id="aY"/><g id="C"><use transform="matrix(0.06172839506172839,0,0,0.06172839506172839,0,0)" xlink:href="#an"/><use transform="matrix(0.06172839506172839,0,0,0.06172839506172839,12.28395061728395,0)" xlink:href="#V"/><use transform="matrix(0.06172839506172839,0,0,0.06172839506172839,20.925925925925924,0)" xlink:href="#S"/><use transform="matrix(0.06172839506172839,0,0,0.06172839506172839,33.2716049382716,0)" xlink:href="#aY"/><use transform="matrix(0.06172839506172839,0,0,0.06172839506172839,44.38271604938271,0)" xlink:href="#S"/><use transform="matrix(0.06172839506172839,0,0,0.06172839506172839,56.728395061728385,0)" xlink:href="#ah"/><use transform="matrix(0.06172839506172839,0,0,0.06172839506172839,70.2469135802469,0)" xlink:href="#aa"/><use transform="matrix(0.06172839506172839,0,0,0.06172839506172839,76.41975308641973,0)" xlink:href="#ao"/><use transform="matrix(0.06172839506172839,0,0,0.06172839506172839,82.59259259259257,0)" xlink:href="#aa"/><use transform="matrix(0.06172839506172839,0,0,0.06172839506172839,88.7654320987654,0)" xlink:href="#aT"/><use transform="matrix(0.06172839506172839,0,0,0.06172839506172839,102.28395061728392,0)" xlink:href="#S"/><use transform="matrix(0.06172839506172839,0,0,0.06172839506172839,114.6296296296296,0)" xlink:href="#aT"/></g><path fill="#333" d="M133-34C117-15 103 5 69 4 32 3 11-16 11-54c-1-60 55-63 116-61 1-26-3-47-28-47-18 1-26 9-28 27l-52-2c7-38 36-58 82-57s74 22 75 68l1 82c-1 14 12 18 25 15v27c-30 8-71 5-69-32zm-48 3c29 0 43-24 42-57-32 0-66-3-65 30 0 17 8 27 23 27" id="aZ"/><path fill="#333" d="M220-157c-53 9-28 100-34 157h-49v-107c1-27-5-49-29-50C55-147 81-57 75 0H25l-1-190h47c2 12-1 28 3 38 10-53 101-56 108 0 13-22 24-43 59-42 82 1 51 116 57 194h-49v-107c-1-25-5-48-29-50" id="ba"/><path fill="#333" d="M84 4C32 4 15-41 15-95c0-55 18-99 73-99 29 0 47 12 58 34l2-30h48l-1 265h-49V-32C136-9 114 4 84 4zm21-34c32 0 41-29 41-66 0-36-9-64-40-64-33 0-39 30-40 65 0 43 13 65 39 65" id="bb"/><g id="D"><use transform="matrix(0.04938271604938272,0,0,0.04938271604938272,0,0)" xlink:href="#aZ"/><use transform="matrix(0.04938271604938272,0,0,0.04938271604938272,9.876543209876544,0)" xlink:href="#ba"/><use transform="matrix(0.04938271604938272,0,0,0.04938271604938272,25.679012345679016,0)" xlink:href="#bb"/><use transform="matrix(0.04938271604938272,0,0,0.04938271604938272,36.49382716049383,0)" xlink:href="#ak"/></g><path fill="#fff" d="M121-226c-27-7-43 5-38 36h38v33H83V0H34v-157H6v-33h28c-9-59 32-81 87-68v32" id="bc"/><path fill="#fff" d="M25-224v-37h50v37H25zM25 0v-190h50V0H25" id="bd"/><path fill="#fff" d="M25 0v-261h50V0H25" id="be"/><path fill="#fff" d="M185-48c-13 30-37 53-82 52C43 2 14-33 14-96s30-98 90-98c62 0 83 45 84 108H66c0 31 8 55 39 56 18 0 30-7 34-22zm-45-69c5-46-57-63-70-21-2 6-4 13-4 21h74" id="bf"/><g id="E"><use transform="matrix(0.05,0,0,0.05,0,0)" xlink:href="#bc"/><use transform="matrix(0.05,0,0,0.05,5.95,0)" xlink:href="#bd"/><use transform="matrix(0.05,0,0,0.05,10.95,0)" xlink:href="#be"/><use transform="matrix(0.05,0,0,0.05,15.949999999999998,0)" xlink:href="#bf"/></g><path fill="#fff" d="M190-63c-7 42-38 67-86 67-59 0-84-38-90-98-12-110 154-137 174-36l-49 2c-2-19-15-32-35-32-30 0-35 28-38 64-6 74 65 87 74 30" id="bg"/><path fill="#fff" d="M110-194c64 0 96 36 96 99 0 64-35 99-97 99-61 0-95-36-95-99 0-62 34-99 96-99zm-1 164c35 0 45-28 45-65 0-40-10-65-43-65-34 0-45 26-45 65 0 36 10 65 43 65" id="bh"/><path fill="#fff" d="M135-194c87-1 58 113 63 194h-50c-7-57 23-157-34-157-59 0-34 97-39 157H25l-1-190h47c2 12-1 28 3 38 12-26 28-41 61-42" id="bi"/><path fill="#fff" d="M195-6C206 82 75 100 31 46c-4-6-6-13-8-21l49-6c3 16 16 24 34 25 40 0 42-37 40-79-11 22-30 35-61 35-53 0-70-43-70-97 0-56 18-96 73-97 30 0 46 14 59 34l2-30h47zm-90-29c32 0 41-27 41-63 0-35-9-62-40-62-32 0-39 29-40 63 0 36 9 62 39 62" id="bj"/><path fill="#fff" d="M85 4C-2 5 27-109 22-190h50c7 57-23 150 33 157 60-5 35-97 40-157h50l1 190h-47c-2-12 1-28-3-38-12 25-28 42-61 42" id="bk"/><path fill="#fff" d="M135-150c-39-12-60 13-60 57V0H25l-1-190h47c2 13-1 29 3 40 6-28 27-53 61-41v41" id="bl"/><path fill="#fff" d="M133-34C117-15 103 5 69 4 32 3 11-16 11-54c-1-60 55-63 116-61 1-26-3-47-28-47-18 1-26 9-28 27l-52-2c7-38 36-58 82-57s74 22 75 68l1 82c-1 14 12 18 25 15v27c-30 8-71 5-69-32zm-48 3c29 0 43-24 42-57-32 0-66-3-65 30 0 17 8 27 23 27" id="bm"/><path fill="#fff" d="M115-3C79 11 28 4 28-45v-112H4v-33h27l15-45h31v45h36v33H77v99c-1 23 16 31 38 25v30" id="bn"/><g id="F"><use transform="matrix(0.05,0,0,0.05,0,0)" xlink:href="#bg"/><use transform="matrix(0.05,0,0,0.05,10,0)" xlink:href="#bh"/><use transform="matrix(0.05,0,0,0.05,20.950000000000003,0)" xlink:href="#bi"/><use transform="matrix(0.05,0,0,0.05,31.900000000000006,0)" xlink:href="#bc"/><use transform="matrix(0.05,0,0,0.05,37.85000000000001,0)" xlink:href="#bd"/><use transform="matrix(0.05,0,0,0.05,42.85000000000001,0)" xlink:href="#bj"/><use transform="matrix(0.05,0,0,0.05,53.80000000000001,0)" xlink:href="#bk"/><use transform="matrix(0.05,0,0,0.05,64.75000000000001,0)" xlink:href="#bl"/><use transform="matrix(0.05,0,0,0.05,71.75000000000001,0)" xlink:href="#bm"/><use transform="matrix(0.05,0,0,0.05,81.75000000000001,0)" xlink:href="#bn"/><use transform="matrix(0.05,0,0,0.05,87.70000000000002,0)" xlink:href="#bd"/><use transform="matrix(0.05,0,0,0.05,92.70000000000002,0)" xlink:href="#bh"/><use transform="matrix(0.05,0,0,0.05,103.65000000000003,0)" xlink:href="#bi"/></g><path d="M135-194c53 0 70 44 70 98 0 56-19 98-73 100-31 1-45-17-59-34 3 33 2 69 2 105H25l-1-265h48c2 10 0 23 3 31 11-24 29-35 60-35zM114-30c33 0 39-31 40-66 0-38-9-64-40-64-56 0-55 130 0 130" id="bo"/><g id="G"><use transform="matrix(0.05,0,0,0.05,0,0)" xlink:href="#ag"/><use transform="matrix(0.05,0,0,0.05,12.950000000000001,0)" xlink:href="#bo"/><use transform="matrix(0.05,0,0,0.05,23.900000000000002,0)" xlink:href="#bo"/><use transform="matrix(0.05,0,0,0.05,34.85,0)" xlink:href="#ao"/><use transform="matrix(0.05,0,0,0.05,39.85,0)" xlink:href="#aa"/><use transform="matrix(0.05,0,0,0.05,44.85,0)" xlink:href="#W"/><use transform="matrix(0.05,0,0,0.05,54.85,0)" xlink:href="#S"/><use transform="matrix(0.05,0,0,0.05,64.85,0)" xlink:href="#Z"/><use transform="matrix(0.05,0,0,0.05,70.8,0)" xlink:href="#aa"/><use transform="matrix(0.05,0,0,0.05,75.8,0)" xlink:href="#ab"/><use transform="matrix(0.05,0,0,0.05,86.75,0)" xlink:href="#ac"/></g><path d="M67-125c0 54 23 88 75 88 28 0 53-7 68-21v-34h-60v-39h108v91C232-14 192 4 140 4 58 4 20-42 15-125 8-236 126-280 215-234c19 10 29 26 37 47l-47 15c-11-23-29-39-63-39-53 1-75 33-75 86" id="bp"/><path d="M231 0h-52l-39-155L100 0H48L-1-190h46L77-45c9-52 24-97 36-145h53l37 145 32-145h46" id="bq"/><path d="M123 10C108 53 80 86 19 72V37c35 8 53-11 59-39L3-190h52l48 148c12-52 28-100 44-148h51" id="br"/><g id="H"><use transform="matrix(0.05,0,0,0.05,0,0)" xlink:href="#bp"/><use transform="matrix(0.05,0,0,0.05,14,0)" xlink:href="#S"/><use transform="matrix(0.05,0,0,0.05,24,0)" xlink:href="#Z"/><use transform="matrix(0.05,0,0,0.05,29.950000000000003,0)" xlink:href="#Y"/><use transform="matrix(0.05,0,0,0.05,39.95,0)" xlink:href="#bq"/><use transform="matrix(0.05,0,0,0.05,53.95,0)" xlink:href="#S"/><use transform="matrix(0.05,0,0,0.05,63.95,0)" xlink:href="#br"/></g><path fill="#fff" d="M199 0l-22-63H83L61 0H9l90-248h61L250 0h-51zm-33-102l-36-108c-10 38-24 72-36 108h72" id="bs"/><path fill="#fff" d="M135-194c53 0 70 44 70 98 0 56-19 98-73 100-31 1-45-17-59-34 3 33 2 69 2 105H25l-1-265h48c2 10 0 23 3 31 11-24 29-35 60-35zM114-30c33 0 39-31 40-66 0-38-9-64-40-64-56 0-55 130 0 130" id="bt"/><g id="I"><use transform="matrix(0.06234567901234567,0,0,0.06234567901234567,0,0)" xlink:href="#bs"/><use transform="matrix(0.06234567901234567,0,0,0.06234567901234567,16.147530864197527,0)" xlink:href="#bt"/><use transform="matrix(0.06234567901234567,0,0,0.06234567901234567,29.80123456790123,0)" xlink:href="#bt"/><use transform="matrix(0.06234567901234567,0,0,0.06234567901234567,43.45493827160493,0)" xlink:href="#be"/><use transform="matrix(0.06234567901234567,0,0,0.06234567901234567,49.6895061728395,0)" xlink:href="#bd"/><use transform="matrix(0.06234567901234567,0,0,0.06234567901234567,55.92407407407407,0)" xlink:href="#bg"/><use transform="matrix(0.06234567901234567,0,0,0.06234567901234567,68.39320987654321,0)" xlink:href="#bm"/><use transform="matrix(0.06234567901234567,0,0,0.06234567901234567,80.86234567901235,0)" xlink:href="#bn"/><use transform="matrix(0.06234567901234567,0,0,0.06234567901234567,88.28148148148148,0)" xlink:href="#bd"/><use transform="matrix(0.06234567901234567,0,0,0.06234567901234567,94.51604938271605,0)" xlink:href="#bh"/><use transform="matrix(0.06234567901234567,0,0,0.06234567901234567,108.16975308641975,0)" xlink:href="#bi"/></g><g id="J"><use transform="matrix(0.09938271604938267,0,0,0.09938271604938267,0,0)" xlink:href="#R"/><use transform="matrix(0.09938271604938267,0,0,0.09938271604938267,23.85185185185184,0)" xlink:href="#ag"/><use transform="matrix(0.09938271604938267,0,0,0.09938271604938267,49.59197530864195,0)" xlink:href="#bp"/><use transform="matrix(0.09938271604938267,0,0,0.09938271604938267,77.4191358024691,0)" xlink:href="#ag"/></g><path d="M24 0v-248h195v40H76v63h132v40H76v65h150V0H24" id="bu"/><path d="M24 0v-248h52V0H24" id="bv"/><path d="M175 0L67-191c6 58 2 128 3 191H24v-248h59L193-55c-6-58-2-129-3-193h46V0h-61" id="bw"/><g id="K"><use transform="matrix(0.08703703703703701,0,0,0.08703703703703701,0,0)" xlink:href="#al"/><use transform="matrix(0.08703703703703701,0,0,0.08703703703703701,22.542592592592584,0)" xlink:href="#bu"/><use transform="matrix(0.08703703703703701,0,0,0.08703703703703701,43.43148148148147,0)" xlink:href="#R"/><use transform="matrix(0.08703703703703701,0,0,0.08703703703703701,64.32037037037036,0)" xlink:href="#bv"/><use transform="matrix(0.08703703703703701,0,0,0.08703703703703701,73.02407407407405,0)" xlink:href="#bp"/><use transform="matrix(0.08703703703703701,0,0,0.08703703703703701,97.39444444444442,0)" xlink:href="#bw"/></g><path d="M24-248c93 1 206-16 204 79-1 75-69 88-152 82V0H24v-248zm52 121c47 0 100 7 100-41 0-47-54-39-100-39v80" id="bx"/><path d="M240-174c0 40-23 61-54 70L253 0h-59l-57-94H76V0H24v-248c93 4 217-23 216 74zM76-134c48-2 112 12 112-38 0-48-66-32-112-35v73" id="by"/><g id="L"><use transform="matrix(0.08703703703703701,0,0,0.08703703703703701,0,0)" xlink:href="#bx"/><use transform="matrix(0.08703703703703701,0,0,0.08703703703703701,18.538888888888884,0)" xlink:href="#ag"/><use transform="matrix(0.08703703703703701,0,0,0.08703703703703701,38.73148148148147,0)" xlink:href="#an"/><use transform="matrix(0.08703703703703701,0,0,0.08703703703703701,57.79259259259256,0)" xlink:href="#an"/><use transform="matrix(0.08703703703703701,0,0,0.08703703703703701,76.85370370370367,0)" xlink:href="#bu"/><use transform="matrix(0.08703703703703701,0,0,0.08703703703703701,97.74259259259256,0)" xlink:href="#by"/><use transform="matrix(0.08703703703703701,0,0,0.08703703703703701,120.28518518518514,0)" xlink:href="#bw"/></g><path d="M186 0v-106H76V0H24v-248h52v99h110v-99h50V0h-50" id="bz"/><g id="M"><use transform="matrix(0.08703703703703701,0,0,0.08703703703703701,0,0)" xlink:href="#U"/><use transform="matrix(0.08703703703703701,0,0,0.08703703703703701,24.370370370370363,0)" xlink:href="#by"/><use transform="matrix(0.08703703703703701,0,0,0.08703703703703701,46.91296296296295,0)" xlink:href="#ae"/><use transform="matrix(0.08703703703703701,0,0,0.08703703703703701,69.45555555555553,0)" xlink:href="#bz"/><use transform="matrix(0.08703703703703701,0,0,0.08703703703703701,91.99814814814812,0)" xlink:href="#bu"/><use transform="matrix(0.08703703703703701,0,0,0.08703703703703701,112.887037037037,0)" xlink:href="#R"/><use transform="matrix(0.08703703703703701,0,0,0.08703703703703701,133.7759259259259,0)" xlink:href="#an"/><use transform="matrix(0.08703703703703701,0,0,0.08703703703703701,152.837037037037,0)" xlink:href="#by"/><use transform="matrix(0.08703703703703701,0,0,0.08703703703703701,175.37962962962956,0)" xlink:href="#ag"/><use transform="matrix(0.08703703703703701,0,0,0.08703703703703701,195.5722222222221,0)" xlink:href="#an"/><use transform="matrix(0.08703703703703701,0,0,0.08703703703703701,214.63333333333324,0)" xlink:href="#bv"/><use transform="matrix(0.08703703703703701,0,0,0.08703703703703701,223.33703703703694,0)" xlink:href="#U"/><use transform="matrix(0.08703703703703701,0,0,0.08703703703703701,247.7074074074073,0)" xlink:href="#bw"/></g><path fill="#3a414a" d="M145-31C134-9 116 4 85 4 32 4 16-35 15-94c0-59 17-99 70-100 32-1 48 14 60 33 0-11-1-24 2-32h30l-1 268h-32zM93-21c41 0 51-33 51-76s-8-73-50-73c-40 0-46 35-46 75s5 74 45 74" id="bA"/><path fill="#3a414a" d="M84 4C-5 8 30-112 23-190h32v120c0 31 7 50 39 49 72-2 45-101 50-169h31l1 190h-30c-1-10 1-25-2-33-11 22-28 36-60 37" id="bB"/><path fill="#3a414a" d="M100-194c63 0 86 42 84 106H49c0 40 14 67 53 68 26 1 43-12 49-29l28 8c-11 28-37 45-77 45C44 4 14-33 15-96c1-61 26-98 85-98zm52 81c6-60-76-77-97-28-3 7-6 17-6 28h103" id="bC"/><g id="N"><use transform="matrix(0.06172839506172839,0,0,0.06172839506172839,0,0)" xlink:href="#bA"/><use transform="matrix(0.06172839506172839,0,0,0.06172839506172839,12.345679012345679,0)" xlink:href="#bB"/><use transform="matrix(0.06172839506172839,0,0,0.06172839506172839,24.691358024691358,0)" xlink:href="#bC"/><use transform="matrix(0.06172839506172839,0,0,0.06172839506172839,37.03703703703704,0)" xlink:href="#bB"/><use transform="matrix(0.06172839506172839,0,0,0.06172839506172839,49.382716049382715,0)" xlink:href="#bC"/></g><g id="O"><use transform="matrix(0.05,0,0,0.05,0,0)" xlink:href="#ag"/><use transform="matrix(0.05,0,0,0.05,12.950000000000001,0)" xlink:href="#bo"/><use transform="matrix(0.05,0,0,0.05,23.900000000000002,0)" xlink:href="#bo"/><use transform="matrix(0.05,0,0,0.05,34.85,0)" xlink:href="#ao"/><use transform="matrix(0.05,0,0,0.05,39.85,0)" xlink:href="#aa"/><use transform="matrix(0.05,0,0,0.05,44.85,0)" xlink:href="#W"/><use transform="matrix(0.05,0,0,0.05,54.85,0)" xlink:href="#S"/><use transform="matrix(0.05,0,0,0.05,64.85,0)" xlink:href="#Z"/><use transform="matrix(0.05,0,0,0.05,70.8,0)" xlink:href="#aa"/><use transform="matrix(0.05,0,0,0.05,75.8,0)" xlink:href="#ab"/><use transform="matrix(0.05,0,0,0.05,86.75,0)" xlink:href="#ac"/></g></defs></g></svg>