<svg xmlns="http://www.w3.org/2000/svg" xmlns:xlink="http://www.w3.org/1999/xlink" xmlns:lucid="lucid" width="1421" height="941"><g transform="translate(-279.5 -99.5)" lucid:page-tab-id="s5M5o5NS3C5I"><path d="M300 126a6 6 0 0 1 6-6h1368a6 6 0 0 1 6 6v888a6 6 0 0 1-6 6H306a6 6 0 0 1-6-6z" fill="#fff"/><path d="M316.02 120h10.02m5 0h10.04m5 0h10.03m5.02 0h10.02m5 0h10.04m5 0h10.03m5.02 0h10.02m5 0h10.03m5.02 0h10m5.02 0h10.02m5 0h10.03m5 0h10.04m5.02 0h10.02m5 0h10.03m5 0h10.03m5.02 0h10.02m5 0h10.03m5 0h10.03m5 0h10.04m5 0h10.03m5 0h10.03m5 0h10.04m5 0h10.03m5 0h10.03m5 0h10.04m5 0h10.03m5 0h10.03m5 0h10.03m5.02 0h10.02m5 0H762m5 0h10.03m5 0h10.04m5 0h10.03m5 0h10.03m5 0h10.03m5.02 0h10.02m5 0h10.03m5 0h10.03m5 0h10.04m5 0h10.03m5 0h10.03m5 0h10.04m5 0h10.03m5 0h10.03m5 0h10.03m5 0h10.03m5 0h10.03m5 0h10.03m5 0h10.03m5 0h10.03m5 0h10.03m5 0h10.02m5.02 0h10.02m5 0h10.03m5 0h10.02m5.02 0h10.02m5 0h10.03m5 0h10.02m5 0h10.04m5 0H1213m5 0h10.02m5 0h10.04m5 0h10.03m5 0h10.02m5 0h10.03m5 0h10.04m5 0h10.02m5 0h10.03m5 0h10.04m5 0h10.02m5 0h10.03m5 0h10.04m5 0h10.02m5 0h10.03m5 0h10.03m5 0h10.04m5 0h10.03m5 0h10.03m5 0h10.04m5 0h10.03m5 0h10.03m5 0h10.03m5.02 0h10.03m5 0h10.03m5 0h10.03m5.02 0h10.03m5 0h10.03m5 0h10.03m5.02 0h10.02m5.02 0h10.02m5 0h5.02l.94.07.9.22.88.35.8.5.72.6.6.72.5.8.37.88.23.9.07.95v5.02m0 5v10.05m0 5.02v10.02m0 5.02v10.03m0 5.02v10.02m0 5.02v10.03m0 5.02v10.02m0 5.02v10.03m0 5.02v10.02m0 5.02v10.04m0 5v10.04m0 5.02v10.04m0 5v10.05m0 5v10.05m0 5v10.05m0 5.02v10.03m0 5.02v10.03m0 5.02v10.03m0 5.02v10.03m0 5.02v10.03m0 5.02v10.03m0 5.02v10.03m0 5.02v10.04m0 5v10.05m0 5v10.04m0 5v10.05m0 5v10.04m0 5.02v10.03m0 5v10.04m0 5.02v10.03m0 5v10.04m0 5.02v10.03m0 5v10.04m0 5.02v10.04m0 5v10.05m0 5v10.05m0 5v10.05m0 5v10.05m0 5v10.05m0 5.02V718m0 5.02v10.03m0 5.02v10.03m0 5.02v10.03m0 5.02v10.03m0 5.02v10.03m0 5.02v10.03m0 5.02v10.04m0 5v10.05m0 5.02v10.04m0 5v10.05m0 5.02v10.04m0 5.02v10.03m0 5.03v10.03m0 5.02v10.03m0 5.03v10.03m0 5.02v10.03m0 5.03v10.03m0 5.02v10.03m0 5.03v10.04m0 5v5.03l-.07.94-.22.9-.35.88-.5.8-.6.72-.72.6-.8.5-.88.37-.9.23-.95.07h-5m-5.02 0h-10.02m-5.02 0h-10.02m-5 0h-10.03m-5.02 0h-10.02m-5 0h-10.04m-5 0h-10.03m-5.02 0h-10.02m-5 0h-10.04m-5 0h-10.03m-5.02 0h-10.02m-5 0h-10.03m-5.02 0h-10m-5.02 0h-10.02m-5 0h-10.03m-5 0h-10.04m-5.02 0h-10.02m-5 0h-10.03m-5 0h-10.03m-5.02 0h-10.02m-5 0h-10.03m-5 0h-10.03m-5 0h-10.04m-5 0h-10.03m-5 0h-10.03m-5 0h-10.04m-5 0h-10.03m-5 0h-10.03m-5 0h-10.03m-5 0h-10.04m-5 0H1218m-5 0h-10.03m-5 0h-10.04m-5 0h-10.03m-5 0h-10.03m-5 0h-10.03m-5.02 0h-10.02m-5 0h-10.03m-5 0h-10.03m-5.02 0h-10.02m-5 0h-10.03m-5 0h-10.03m-5 0h-10.04m-5 0h-10.03m-5 0h-10.03m-5 0H992.5m-5 0h-10.03m-5 0h-10.03m-5 0H947.4m-5 0h-10.03m-5 0h-10.03m-5 0H902.3m-5 0h-10.02m-5.02 0h-10.02m-5 0H857.2m-5 0h-10.02m-5 0h-10.04m-5 0H812.1m-5 0h-10.02m-5 0h-10.04m-5 0H767m-5 0h-10.02m-5 0h-10.03m-5.02 0H721.9m-5 0h-10.02m-5 0h-10.03m-5 0H676.8m-5 0h-10.02m-5 0h-10.03m-5 0H631.7m-5 0h-10.02m-5 0h-10.03m-5 0H586.6m-5.02 0h-10.02m-5 0h-10.03m-5 0H541.5m-5 0h-10.04m-5 0h-10.03m-5 0H496.4m-5 0h-10.04m-5 0h-10.03m-5 0H451.3m-5 0h-10.03m-5.03 0h-10.02m-5 0H406.2m-5 0h-10.03m-5.02 0h-10.03m-5 0H361.1m-5 0h-10.03m-5.02 0h-10.02m-5.02 0h-10.02m-5 0H306l-.94-.07-.9-.22-.88-.35-.8-.5-.72-.6-.6-.72-.5-.8-.37-.88-.23-.9-.07-.95v-5.02m0-5v-10.05m0-5v-10.05m0-5.02v-10.03m0-5.02V948.8m0-5.02v-10.03m0-5.02V918.7m0-5.02v-10.03m0-5.02V888.6m0-5.02v-10.03m0-5.02V858.5m0-5.02v-10.04m0-5v-10.05m0-5V813.3m0-5.02v-10.03m0-5.02v-10.03m0-5.02v-10.03m0-5.02v-10.03m0-5.02v-10.03m0-5.02v-10.03m0-5.02v-10.03m0-5.02V692.9m0-5v-10.04m0-5V662.8m0-5v-10.04m0-5V632.7m0-5v-10.04m0-5.02V602.6m0-5v-10.04m0-5.02V572.5m0-5v-10.04m0-5.02V542.4m0-5v-10.04m0-5.02V512.3m0-5v-10.05m0-5V482.2m0-5v-10.05m0-5V452.1m0-5.02v-10.03m0-5.02V422m0-5.02v-10.03m0-5.02V391.9m0-5.02v-10.03m0-5.02V361.8m0-5.02v-10.03m0-5.02V331.7m0-5.02v-10.04m0-5v-10.05m0-5.02v-10.04m0-5.02V271.5m0-5.02v-10.04m0-5.02V241.4m0-5.03v-10.03m0-5.02V211.3m0-5.03v-10.03m0-5.02V181.2m0-5.03v-10.03m0-5.02V151.1m0-5.03v-10.04m0-5V126l.07-.94.22-.9.35-.88.5-.8.6-.72.72-.6.8-.5.88-.37.9-.23.95-.07h5" stroke="#000" fill="none"/><path d="M810 406a6 6 0 0 1 6-6h418a6 6 0 0 1 6 6v408a6 6 0 0 1-6 6H816a6 6 0 0 1-6-6z" stroke="#08438c" stroke-width="2" fill="#f2f3f5"/><path d="M940.98 245.3a10 10 0 0 1 8.82-5.3h84a10 10 0 0 1 8.82 5.3l26.36 49.4a11.25 11.25 0 0 1 0 10.6l-26.36 49.4a10 10 0 0 1-8.82 5.3h-84a10 10 0 0 1-8.82-5.3l-26.36-49.4a11.25 11.25 0 0 1 0-10.6z" stroke="#3a414a" fill-opacity="0"/><use xlink:href="#a" transform="matrix(1,0,0,1,916.8005249343842,245) translate(48.492654320987654 38.40277777777778)"/><use xlink:href="#b" transform="matrix(1,0,0,1,916.8005249343842,245) translate(6.054382716049384 65.06944444444446)"/><path d="M1003.4 539.13h-3.4V523.4h-25.4v15.73h-3.4V521.7c0-.94.77-1.7 1.7-1.7h28.8c.93 0 1.7.76 1.7 1.7zM985.34 543.1h3.94v3.4h-3.94v-3.4z" stroke="#fff" stroke-opacity="0"/><path d="M987.3 536.88c-.44 0-.84-.15-1.15-.46l-14.4-13.46 2.32-2.5 13.23 12.38 13.23-12.38 2.33 2.5-14.4 13.46c-.32.3-.73.46-1.16.46z" stroke="#fff" stroke-opacity="0"/><path d="M987.3 600c-13.24 0-27.3-3.8-27.3-10.75v-51.93c0-.42.05-.77.16-1.2.6-2.52 3.07-4.63 7.33-6.38l1.25 3.16c-3.06 1.2-4.98 2.67-5.3 4v52.35c0 3.02 9.13 7.3 23.9 7.3 14.77 0 23.9-4.28 23.9-7.3v-51.93-.42c-.32-1.33-2.24-2.8-5.3-4l1.26-3.16c4.27 1.68 6.73 3.86 7.4 6.4.04.4.1.76.1 1.18v51.93c-.1 6.96-14.17 10.75-27.4 10.75z" stroke="#fff" stroke-opacity="0"/><path d="M987.3 546.53c-13.54 0-27.3-3.58-27.3-10.4h3.44c0 2.86 9.28 7.02 23.86 7.02s23.9-4.2 23.9-7.02h3.4c0 6.82-13.65 10.4-27.3 10.4z" stroke="#fff" stroke-opacity="0"/><path d="M982.23 528.75h10.5c13.5 0 20.23 2.68 20.23 8.03v52.58c0 5.35-6.72 8.03-20.23 8.03h-10.5c-13.5 0-20.24-2.7-20.24-8.04v-52.58c0-5.35 6.72-8.03 20.23-8.03z" stroke="#fff" stroke-opacity="0" stroke-width=".39" fill="#fff" fill-opacity="0"/><path d="M972.67 522.1h28.9v18.03h-28.9V522.1z" stroke="#fff" stroke-opacity="0" stroke-width=".34" fill="#fff" fill-opacity="0"/><use xlink:href="#c" transform="matrix(1,0,0,1,930,609) translate(-7.746913580246925 17.77777777777778)"/><path d="M992.3 503.62h-1V393.25h1zm0-131.7h-1V361h1z" stroke="#3a414a" stroke-width=".05" fill="#3a414a"/><path d="M992.3 361h-1v-.5h1z" fill="#3a414a"/><path d="M992.33 361.04h-1.05v-.56h1.05zm-1-.52v.47h.95v-.48z" stroke="#3a414a" stroke-width=".05" fill="#3a414a"/><path d="M991.8 518.38l-4.63-14.26h9.27z" fill="#3a414a"/><path d="M991.8 520l-5.32-16.38h10.64zm-3.95-15.38l3.95 12.14 3.95-12.14z" stroke="#3a414a" stroke-width=".05" fill="#3a414a"/><use xlink:href="#d" transform="matrix(1,0,0,1,971.0844755516681,371.9156597925245) translate(0 14.222222222222223)"/><path d="M599.84 645.3a10 10 0 0 1 8.82-5.3h84a10 10 0 0 1 8.83 5.3l26.34 49.4a11.25 11.25 0 0 1 0 10.6l-26.35 49.4a10 10 0 0 1-8.84 5.3h-84a10 10 0 0 1-8.82-5.3l-26.35-49.4a11.25 11.25 0 0 1 0-10.6z" stroke="#000" fill-opacity="0"/><use xlink:href="#e" transform="matrix(1,0,0,1,575.6624999999999,645) translate(27.59759259259259 59.02777777777778)"/><path d="M1309.18 645.3a10 10 0 0 1 8.82-5.3h84a10 10 0 0 1 8.82 5.3l26.36 49.4a11.25 11.25 0 0 1 0 10.6l-26.36 49.4a10 10 0 0 1-8.82 5.3h-84a10 10 0 0 1-8.82-5.3l-26.36-49.4a11.25 11.25 0 0 1 0-10.6z" stroke="#094fa4" fill-opacity="0"/><use xlink:href="#f" transform="matrix(1,0,0,1,1285,645) translate(24.5729012345679 59.02777777777778)"/><path d="M720 586a6 6 0 0 1 6-6h78a6 6 0 0 1 6 6v32.17a6 6 0 0 1-6 6h-78a6 6 0 0 1-6-6z" stroke="#000" stroke-opacity="0" fill="#fff" fill-opacity="0"/><use xlink:href="#g" transform="matrix(1,0,0,1,725,585) translate(9.753086419753089 22.15277777777778)"/><path d="M701.3 560.5h-44.62l-.88.07-.84.2-.8.33-.73.45-.65.56-.57.67-.44.73-.33.8-.2.84-.07.88V639h-1v-73.02l.08-1 .24-1 .4-.93.52-.87.67-.78.77-.66.87-.53.95-.38 1-.24 1-.08h44.65zm242.32 0h-196v-1h196z" stroke="#3a414a" stroke-width=".05" fill="#3a414a"/><path d="M651.16 639.5h-1v-.5h1z" fill="#3a414a"/><path d="M651.2 639.52h-1.06v-.56h1.05zm-1-.5v.46h.94V639z" stroke="#3a414a" stroke-width=".05" fill="#3a414a"/><path d="M958.38 560l-14.26 4.63v-9.26z" fill="#3a414a"/><path d="M960 560l-16.38 5.32v-10.64zm-15.38 3.95l12.14-3.95-12.14-3.95z" stroke="#3a414a" stroke-width=".05" fill="#3a414a"/><use xlink:href="#h" transform="matrix(1,0,0,1,701.2964289455526,549.3333333333334) translate(0 14.222222222222223)"/><path d="M1355.02 559.58l1 .24.93.4.87.52.78.66.66.78.53.87.38.94.24.98.08 1V639h-1v-72.98l-.07-.88-.2-.84-.33-.8-.45-.73-.56-.66-.67-.55-.73-.45-.8-.33-.84-.2-.88-.07h-33.08v-1h33.12zm-323.94.92v-1h243.5v1z" stroke="#3a414a" stroke-width=".05" fill="#3a414a"/><path d="M1360.5 639.5h-1v-.5h1z" fill="#3a414a"/><path d="M1360.53 639.52h-1.06v-.56h1.06zm-1-.5v.46h.94V639z" stroke="#3a414a" stroke-width=".05" fill="#3a414a"/><path d="M1030.58 564.63l-14.26-4.63 14.26-4.63z" fill="#3a414a"/><path d="M1031.08 565.32L1014.7 560l16.38-5.32zm-13.14-5.32l12.14 3.95v-7.9z" stroke="#3a414a" stroke-width=".05" fill="#3a414a"/><use xlink:href="#h" transform="matrix(1,0,0,1,1274.5822750801783,549.3333333333334) translate(0 14.222222222222223)"/><path d="M650.66 761v101.62" stroke="#000" fill="none"/><path d="M651.16 761h-1v-.5h1z" stroke="#000" stroke-width=".05"/><path d="M650.66 877.38l-4.63-14.26h9.27z" stroke="#000"/><path d="M710.66 988c0 6.63-26.86 12-60 12-33.13 0-60-5.37-60-12v-96c0-6.63 26.87-12 60-12 33.14 0 60 5.37 60 12z" stroke="#000" stroke-width="2" fill-opacity="0"/><path d="M710.66 892c0 6.63-26.86 12-60 12-33.13 0-60-5.37-60-12" stroke="#000" stroke-width="2" fill="none"/><use xlink:href="#i" transform="matrix(1,0,0,1,595.6624999999999,909) translate(7.5 47.34027777777778)"/><path d="M1360 761v101.62" stroke="#000" fill="none"/><path d="M1360.5 761h-1v-.5h1z" stroke="#000" stroke-width=".05"/><path d="M1360 877.38l-4.63-14.26h9.27z" stroke="#000"/><path d="M1420 988c0 6.63-26.86 12-60 12s-60-5.37-60-12v-96c0-6.63 26.86-12 60-12s60 5.37 60 12z" stroke="#000" stroke-width="2" fill-opacity="0"/><path d="M1420 892c0 6.63-26.86 12-60 12s-60-5.37-60-12" stroke="#000" stroke-width="2" fill="none"/><use xlink:href="#i" transform="matrix(1,0,0,1,1305,909) translate(7.5 47.34027777777778)"/><path d="M852.75 844.95a11.4 11.4 0 0 1 9.4-4.95h70.4a11.4 11.4 0 0 1 9.4 4.95l20.68 30.1a8.74 8.74 0 0 1 0 9.9l-20.68 30.1a11.4 11.4 0 0 1-9.4 4.95h-70.4a11.4 11.4 0 0 1-9.4-4.95l-20.68-30.1a8.74 8.74 0 0 1 0-9.9z" stroke="#000" fill-opacity="0"/><use xlink:href="#j" transform="matrix(1,0,0,1,833.675,845) translate(20.325987654320983 26.52777777777778)"/><use xlink:href="#k" transform="matrix(1,0,0,1,833.675,845) translate(31.498827160493825 53.19444444444445)"/><path d="M740.7 700.5h-10.54v-1h10.55zm122.92 0H782.1v-1h81.52z" stroke="#3a414a" stroke-width=".05" fill="#3a414a"/><path d="M730.18 700.5h-.54l.02-.5-.02-.5h.54z" fill="#3a414a"/><path d="M730.2 700.52h-.6l.04-.52-.03-.52h.6zm-.54-1l.03.48-.04.48h.5v-.96z" stroke="#3a414a" stroke-width=".05" fill="#3a414a"/><path d="M878.38 700l-14.26 4.63v-9.26z" fill="#3a414a"/><path d="M880 700l-16.38 5.32v-10.64zm-15.38 3.95l12.14-3.95-12.14-3.95z" stroke="#3a414a" stroke-width=".05" fill="#3a414a"/><use xlink:href="#l" transform="matrix(1,0,0,1,740.7110133022368,689.3333333333334) translate(0 14.222222222222223)"/><path d="M923.4 679.13H920V663.4h-25.4v15.73h-3.4V661.7c0-.94.77-1.7 1.7-1.7h28.8c.93 0 1.7.76 1.7 1.7zM905.34 683.1h3.94v3.4h-3.94v-3.4z" stroke="#fff" stroke-opacity="0"/><path d="M907.3 676.88c-.44 0-.84-.15-1.15-.46l-14.4-13.46 2.32-2.5 13.23 12.38 13.23-12.38 2.33 2.5-14.4 13.46c-.32.3-.73.46-1.16.46z" stroke="#fff" stroke-opacity="0"/><path d="M907.3 740c-13.24 0-27.3-3.8-27.3-10.75v-51.93c0-.42.05-.77.16-1.2.6-2.52 3.07-4.63 7.33-6.38l1.25 3.16c-3.06 1.2-4.98 2.67-5.3 4v52.35c0 3.02 9.13 7.3 23.9 7.3 14.77 0 23.9-4.28 23.9-7.3v-51.93-.42c-.32-1.33-2.24-2.8-5.3-4l1.26-3.16c4.27 1.68 6.73 3.86 7.4 6.4.04.4.1.76.1 1.18v51.93c-.1 6.96-14.17 10.75-27.4 10.75z" stroke="#fff" stroke-opacity="0"/><path d="M907.3 686.53c-13.54 0-27.3-3.58-27.3-10.4h3.44c0 2.86 9.28 7.02 23.86 7.02s23.9-4.2 23.9-7.02h3.4c0 6.82-13.65 10.4-27.3 10.4z" stroke="#fff" stroke-opacity="0"/><path d="M902.23 668.75h10.5c13.5 0 20.23 2.68 20.23 8.03v52.58c0 5.35-6.72 8.03-20.23 8.03h-10.5c-13.5 0-20.24-2.7-20.24-8.04v-52.58c0-5.35 6.72-8.03 20.23-8.03z" stroke="#fff" stroke-opacity="0" stroke-width=".39" fill="#fff" fill-opacity="0"/><path d="M892.67 662.1h28.9v18.03h-28.9V662.1z" stroke="#fff" stroke-opacity="0" stroke-width=".34" fill="#fff" fill-opacity="0"/><use xlink:href="#m" transform="matrix(1,0,0,1,850,749) translate(-9.012345679012341 17.77777777777778)"/><path d="M1088.7 679.13h-3.4V663.4h-25.4v15.73h-3.4V661.7c0-.94.77-1.7 1.7-1.7h28.8c.93 0 1.7.76 1.7 1.7zM1070.64 683.1h3.94v3.4h-3.94v-3.4z" stroke="#fff" stroke-opacity="0"/><path d="M1072.6 676.88c-.44 0-.84-.15-1.15-.46l-14.4-13.46 2.32-2.5 13.23 12.38 13.23-12.38 2.33 2.5-14.4 13.46c-.32.3-.72.46-1.16.46z" stroke="#fff" stroke-opacity="0"/><path d="M1072.6 740c-13.24 0-27.3-3.8-27.3-10.75v-51.93c0-.42.06-.77.16-1.2.6-2.52 3.07-4.63 7.33-6.38l1.25 3.16c-3.06 1.2-4.98 2.67-5.3 4v52.35c0 3.02 9.13 7.3 23.9 7.3 14.77 0 23.9-4.28 23.9-7.3v-51.93-.42c-.32-1.33-2.24-2.8-5.3-4l1.26-3.16c4.27 1.68 6.73 3.86 7.4 6.4.04.4.1.76.1 1.18v51.93c-.1 6.96-14.17 10.75-27.4 10.75z" stroke="#fff" stroke-opacity="0"/><path d="M1072.6 686.53c-13.54 0-27.3-3.58-27.3-10.4h3.44c0 2.86 9.28 7.02 23.86 7.02s23.9-4.2 23.9-7.02h3.4c0 6.82-13.65 10.4-27.3 10.4z" stroke="#fff" stroke-opacity="0"/><path d="M1067.53 668.75h10.5c13.5 0 20.23 2.68 20.23 8.03v52.58c0 5.35-6.72 8.03-20.23 8.03h-10.5c-13.5 0-20.23-2.7-20.23-8.04v-52.58c0-5.35 6.72-8.03 20.23-8.03z" stroke="#fff" stroke-opacity="0" stroke-width=".39" fill="#fff" fill-opacity="0"/><path d="M1057.97 662.1h28.9v18.03h-28.9V662.1z" stroke="#fff" stroke-opacity="0" stroke-width=".34" fill="#fff" fill-opacity="0"/><use xlink:href="#n" transform="matrix(1,0,0,1,1015.3000000000002,749) translate(-12.037037037037038 17.77777777777778)"/><path d="M1028.05 844.95a11.4 11.4 0 0 1 9.4-4.95h70.4a11.4 11.4 0 0 1 9.4 4.95l20.68 30.1a8.74 8.74 0 0 1 0 9.9l-20.68 30.1a11.4 11.4 0 0 1-9.4 4.95h-70.4a11.4 11.4 0 0 1-9.4-4.95l-20.68-30.1a8.74 8.74 0 0 1 0-9.9z" stroke="#000" fill-opacity="0"/><use xlink:href="#j" transform="matrix(1,0,0,1,1008.9750000000004,845) translate(20.325987654320983 26.52777777777778)"/><use xlink:href="#o" transform="matrix(1,0,0,1,1008.9750000000004,845) translate(28.474135802469135 53.19444444444445)"/><path d="M1169.8 700.5h-53.42v-1h53.43zm110.7 0h-69.3v-1h69.3z" stroke="#3a414a" stroke-width=".05" fill="#3a414a"/><path d="M1281 700l.02.5h-.53v-1h.52z" fill="#3a414a"/><path d="M1281.02 700l.03.52h-.6v-1.04h.6zm-.5-.48v.96h.48l-.03-.48.03-.48z" stroke="#3a414a" stroke-width=".05" fill="#3a414a"/><path d="M1115.88 704.63l-14.26-4.63 14.26-4.63z" fill="#3a414a"/><path d="M1116.38 705.32L1100 700l16.38-5.32zm-13.14-5.32l12.14 3.95v-7.9z" stroke="#3a414a" stroke-width=".05" fill="#3a414a"/><use xlink:href="#l" transform="matrix(1,0,0,1,1169.8083477026169,689.3333333333334) translate(0 14.222222222222223)"/><path d="M897.85 839h-1v-39.02h1zm0-60.36h-1V755.5h1z" stroke="#3a414a" stroke-width=".05" fill="#3a414a"/><path d="M897.85 839.5h-1v-.5h1z" fill="#3a414a"/><path d="M897.88 839.52h-1.05v-.56h1.04zm-1-.5v.46h.95V839z" stroke="#3a414a" stroke-width=".05" fill="#3a414a"/><path d="M902 755h-9.28l4.63-14.26z" fill="#3a414a"/><path d="M902.67 755.5h-10.64l5.32-16.38zm-9.27-1h7.9l-3.95-12.14z" stroke="#3a414a" stroke-width=".05" fill="#3a414a"/><use xlink:href="#p" transform="matrix(1,0,0,1,878.6586419753086,778.6433882725086) translate(0 14.222222222222223)"/><path d="M1073.15 839h-1v-28.8h1zm0-50.13h-1v-32.5h1z" stroke="#3a414a" stroke-width=".05" fill="#3a414a"/><path d="M1073.15 839.5h-1v-.5h1z" fill="#3a414a"/><path d="M1073.17 839.52h-1.05v-.56h1.06zm-1-.5v.46h.95V839z" stroke="#3a414a" stroke-width=".05" fill="#3a414a"/><path d="M1077.3 755.88H1068l4.63-14.26z" fill="#3a414a"/><path d="M1077.97 756.38h-10.64l5.32-16.38zm-9.27-1h7.9l-3.95-12.15z" stroke="#3a414a" stroke-width=".05" fill="#3a414a"/><use xlink:href="#p" transform="matrix(1,0,0,1,1053.9586419753089,788.8694550063374) translate(0 14.222222222222223)"/><path d="M812.35 406a6 6 0 0 1 6-6h133a6 6 0 0 1 6 6v28a6 6 0 0 1-6 6h-133a6 6 0 0 1-6-6z" stroke="#000" stroke-opacity="0" fill="#6f7681"/><use xlink:href="#q" transform="matrix(1,0,0,1,817.3500000000001,405) translate(7.882716049382722 21.430555555555557)"/><use xlink:href="#r" transform="matrix(1,0,0,1,817.3500000000001,405) translate(81.08024691358024 21.430555555555557)"/><path d="M897.35 921v13a6 6 0 0 1-6 6h-163.3" stroke="#000" fill="none"/><path d="M897.85 921h-1v-.5h1z" stroke="#000" stroke-width=".05"/><path d="M713.28 940l14.27-4.63v9.26z" stroke="#000"/><path d="M1072.65 921v13a6 6 0 0 0 6 6h203.97" stroke="#000" fill="none"/><path d="M1073.15 921h-1v-.5h1z" stroke="#000" stroke-width=".05"/><path d="M1297.38 940l-14.26 4.63v-9.26z" stroke="#000"/><path d="M1183.4 437.05h-3.4v-15.73h-25.4v15.73h-3.4v-17.43c0-.94.77-1.7 1.7-1.7h28.8c.93 0 1.7.76 1.7 1.7zM1165.34 441h3.94v3.4h-3.94V441z" stroke="#fff" stroke-opacity="0"/><path d="M1167.3 434.8c-.44 0-.84-.15-1.15-.46l-14.4-13.47 2.32-2.5 13.23 12.4 13.23-12.4 2.33 2.5-14.4 13.47c-.32.3-.73.46-1.16.46z" stroke="#fff" stroke-opacity="0"/><path d="M1167.3 497.92c-13.24 0-27.3-3.8-27.3-10.75v-51.93c0-.42.06-.77.16-1.2.6-2.52 3.07-4.63 7.33-6.4l1.25 3.17c-3.06 1.2-4.98 2.68-5.3 4.02v52.35c0 3.02 9.13 7.3 23.9 7.3 14.77 0 23.9-4.28 23.9-7.3v-51.93-.42c-.32-1.34-2.24-2.8-5.3-4l1.26-3.17c4.27 1.7 6.73 3.87 7.4 6.4.05.42.1.77.1 1.2v51.92c-.1 6.95-14.17 10.75-27.4 10.75z" stroke="#fff" stroke-opacity="0"/><path d="M1167.3 444.45c-13.54 0-27.3-3.58-27.3-10.4h3.44c0 2.86 9.28 7.02 23.86 7.02s23.9-4.2 23.9-7.02h3.4c0 6.82-13.65 10.4-27.3 10.4z" stroke="#fff" stroke-opacity="0"/><path d="M1162.23 426.67h10.5c13.5 0 20.23 2.68 20.23 8.03v52.57c0 5.36-6.72 8.03-20.23 8.03h-10.5c-13.5 0-20.24-2.67-20.24-8.03V434.7c0-5.35 6.72-8.03 20.23-8.03z" stroke="#fff" stroke-opacity="0" stroke-width=".39" fill="#fff" fill-opacity="0"/><path d="M1152.67 420h28.9v18.05h-28.9V420z" stroke="#fff" stroke-opacity="0" stroke-width=".34" fill="#fff" fill-opacity="0"/><use xlink:href="#s" transform="matrix(1,0,0,1,1110.0000000000002,506.9160104986879) translate(-9.629629629629633 17.77777777777778)"/><path d="M686.64 458.42h-70.87l-.88.06-.85.2-.8.34-.73.45-.65.56-.57.65-.45.74-.33.8-.2.84-.07.88V639h-1V463.9l.08-1 .24-1 .4-.94.52-.87.66-.78.77-.66.87-.54.94-.4 1-.23 1-.08h70.9zm436.98 0H728.07v-1h395.55z" stroke="#3a414a" stroke-width=".05" fill="#3a414a"/><path d="M610.25 639.5h-1v-.5h1z" fill="#3a414a"/><path d="M610.28 639.52h-1.05v-.56h1.05zm-1-.5v.46h.95V639z" stroke="#3a414a" stroke-width=".05" fill="#3a414a"/><path d="M1138.38 457.92l-14.26 4.63v-9.27z" fill="#3a414a"/><path d="M1140 457.92l-16.38 5.32V452.6zm-15.38 3.94l12.14-3.94-12.14-3.95z" stroke="#3a414a" stroke-width=".05" fill="#3a414a"/><use xlink:href="#d" transform="matrix(1,0,0,1,686.6401606729165,447.2493438320212) translate(0 14.222222222222223)"/><path d="M1529.18 645.3a10 10 0 0 1 8.82-5.3h84a10 10 0 0 1 8.82 5.3l26.36 49.4a11.25 11.25 0 0 1 0 10.6l-26.36 49.4a10 10 0 0 1-8.82 5.3h-84a10 10 0 0 1-8.82-5.3l-26.36-49.4a11.25 11.25 0 0 1 0-10.6z" stroke="#3a414a" fill="#d7faf5"/><use xlink:href="#t" transform="matrix(1,0,0,1,1505,645) translate(23.89388888888888 45.27777777777778)"/><use xlink:href="#u" transform="matrix(1,0,0,1,1505,645) translate(118.77043209876544 45.27777777777778)"/><use xlink:href="#v" transform="matrix(1,0,0,1,1505,645) translate(28.15314814814814 71.94444444444446)"/><path d="M349.18 765.3A10 10 0 0 1 358 760h84a10 10 0 0 1 8.82 5.3l26.36 49.4a11.25 11.25 0 0 1 0 10.6l-26.36 49.4A10 10 0 0 1 442 880h-84a10 10 0 0 1-8.82-5.3l-26.36-49.4a11.25 11.25 0 0 1 0-10.6z" stroke="#3a414a" fill="#d7faf5"/><use xlink:href="#w" transform="matrix(1,0,0,1,325,765) translate(2.319814814814814 59.02777777777778)"/><use xlink:href="#x" transform="matrix(1,0,0,1,325,765) translate(78.55438271604937 59.02777777777778)"/><path d="M349.18 525.3A10 10 0 0 1 358 520h84a10 10 0 0 1 8.82 5.3l26.36 49.4a11.25 11.25 0 0 1 0 10.6l-26.36 49.4A10 10 0 0 1 442 640h-84a10 10 0 0 1-8.82-5.3l-26.36-49.4a11.25 11.25 0 0 1 0-10.6z" stroke="#3a414a" fill="#d7faf5"/><use xlink:href="#y" transform="matrix(1,0,0,1,325,525) translate(10.930925925925942 59.02777777777778)"/><path d="M1440 700h42.5" stroke="#000" stroke-width="2" fill="none"/><path d="M1440.03 701h-1.08l.05-1-.05-1h1.08z" stroke="#000" stroke-width=".05"/><path d="M1497.76 700l-14.26 4.63v-9.26z" stroke="#000" stroke-width="2"/><path d="M1575.02 260l1 .23.93.4.87.52.78.66.66.8.53.86.38.94.24 1 .08 1V623.1h-1v-356.7l-.07-.87-.2-.84-.33-.8-.45-.72-.56-.66-.67-.56-.73-.45-.8-.32-.84-.2-.88-.07h-522.23v-1h522.27z" stroke="#000" stroke-width=".05"/><path d="M1051.77 260.9h-.25l-.53-1h.77z"/><path d="M1051.8 260.94h-.3l-.56-1.06h.85zm-.77-1l.5.94h.2v-.94z" stroke="#000" stroke-width=".05"/><path d="M1580 637.88l-4.63-14.26h9.27z"/><path d="M1580 639.5l-5.32-16.38h10.64zm-3.95-15.38l3.95 12.14 3.95-12.14z" stroke="#000" stroke-width=".05"/><path d="M929.7 264.4H526a6 6 0 0 0-6 6v72.72" stroke="#3a414a" fill="none"/><path d="M929.95 264.9h-.25v-1h.78z" stroke="#3a414a" stroke-width=".05" fill="#3a414a"/><path d="M520 357.88l-4.63-14.26h9.26z" stroke="#3a414a" fill="#3a414a"/><path d="M585.37 729.57H526a6 6 0 0 1-6-6v-266.7" stroke="#3a414a" fill="none"/><path d="M586.13 730.07h-.78v-1h.25z" stroke="#3a414a" stroke-width=".05" fill="#3a414a"/><path d="M520 442.12l4.63 14.26h-9.26z" stroke="#3a414a" fill="#3a414a"/><path d="M604.3 760.05V814a6 6 0 0 1-6 6H495.37" stroke="#000" fill="none"/><path d="M604.26 759.53l.53.22v.3h-1v-.76z" stroke="#000" stroke-width=".05"/><path d="M480.62 820l14.26-4.63v9.26z" stroke="#000"/><path d="M400 519V406a6 6 0 0 1 6-6h17.12" stroke="#3a414a" fill="none"/><path d="M400.5 519.5h-1v-.5h1z" stroke="#3a414a" stroke-width=".05" fill="#3a414a"/><path d="M437.88 400l-14.26 4.63v-9.26z" stroke="#3a414a" fill="#3a414a"/><path d="M1608 134.73c17.67 0 32 17.9 32 40s-14.33 40-32 40h-96c-17.67 0-32-17.9-32-40s14.33-40 32-40z" stroke="#3a414a" fill="#6f7681"/><use xlink:href="#z" transform="matrix(1,0,0,1,1485,139.73333333333346) translate(49.18518518518519 41.02083333333333)"/><path d="M1014.2 174.73h-16.4a6 6 0 0 0-6 6v42.4" stroke="#3a414a" fill="none"/><path d="M1014.7 174.72l.02.5h-.53v-1h.52zm3 .5h-2.93l-.07-.5.07-.5h2.93z" stroke="#3a414a" stroke-width=".05" fill="#3a414a"/><path d="M991.8 237.88l-4.63-14.26h9.27z" stroke="#3a414a" fill="#3a414a"/><path d="M1479 174.73h-327.92" stroke="#3a414a" fill="none"/><path d="M1479.5 174.73l.02.5h-.53v-1h.53z" stroke="#3a414a" stroke-width=".05" fill="#3a414a"/><path d="M1136.3 174.73l14.28-4.63v9.27z" stroke="#3a414a" fill="#3a414a"/><path d="M1074.58 224.73c-2.88 0-5.76-1-7.92-2.8l-48.6-40.6c-2.16-1.8-3.36-4.2-3.36-6.6 0-2.4 1.2-4.8 3.36-6.6l48.6-40.6c2.16-1.8 5.04-2.8 7.92-2.8s5.76 1 7.92 2.8l48.84 40.8c2.16 1.8 3.36 4 3.36 6.6 0 2.4-1.2 4.8-3.36 6.6l-48.84 40.4c-2.16 1.8-5.04 2.8-7.92 2.8" stroke="#000" stroke-opacity="0" fill="#7fba00"/><path d="M1085.93 161.9c-3.36 2.13-7.28 3.18-11.2 3.18-5.57 0-11.08-2.1-14.7-6.05-6.2-6.75-4.65-16.44 3.44-21.62 3.36-2.15 7.3-3.17 11.23-3.17 5.54 0 11.05 2.1 14.67 6.05 6.2 6.78 4.66 16.44-3.44 21.62" stroke="#000" stroke-opacity="0" fill="#fff"/><path d="M1082.5 127.52c-2.16-1.75-5.06-2.8-7.88-2.8-2.9 0-5.8 1.05-7.96 2.8l-48.65 40.6c-2.14 1.83-3.3 4.2-3.3 6.6 0 2.4 1.16 4.78 3.3 6.6l27.6 23 51.97-64.22-15.08-12.58z" stroke="#000" stroke-opacity="0" fill="#fff" fill-opacity=".15"/><path d="M1074.58 215.93l15.8-13.22h-11.25v-39.67h-9.36v39.68h-11l15.8 13.23z" stroke="#000" stroke-opacity="0" fill="#fff"/><path d="M1108.9 191.7V173l-7.8 6.52-20.2-16.88-6.8 5.67 20.23 16.9-7.8 6.5h22.37z" stroke="#000" stroke-opacity="0" fill="#fff"/><path d="M1040.3 191.76h22.34l-7.78-6.5 20.8-17.35-6.8-5.66-20.8 17.36-7.77-6.5v18.66z" stroke="#000" stroke-opacity="0" fill="#fff"/><path d="M1084.44 160.28c-2.9 1.84-6.34 2.75-9.74 2.75-4.8 0-9.58-1.82-12.72-5.24-5.38-5.87-4.04-14.27 2.98-18.76 2.92-1.88 6.34-2.76 9.74-2.76 4.8 0 9.58 1.82 12.72 5.24 5.38 5.86 4.04 14.26-2.98 18.76" stroke="#000" stroke-opacity="0" fill="#59b4d9"/><path d="M1081.5 152c1.16 1.27 3.3 1.5 4.82.55.1-.07.15-.1.2-.18 1.57.92 2.62 1.52 3.23 1.84.17-.35.32-.72.43-1.12-.63-.4-1.5-.94-2.75-1.8.4-.9.3-1.94-.47-2.77-1.07-1.14-2.96-1.44-4.44-.73-1.63-1.22-3.43-2.6-5.32-4.18 5.87-2.66 10.05-2.27 10.05-2.27-.7-.74-1.48-1.4-2.32-1.96-2.47-.33-6.3-.3-10.72 1.66-1.44-1.3-2.95-2.66-4.46-4.13-.73.18-1.42.44-2.12.7 1.13 1.56 2.64 3.08 4.33 4.6h.03c-1.43.84-3.03 1.95-4.48 3.24-.17.16-.35.32-.52.5-.87-.18-1.8-.13-2.64.15-1.45-2.64-1.34-4.75-1.1-5.8-.64.52-1.22 1.1-1.75 1.72-.4 1.3-.47 3.17.63 5.4-1.28 1.42-1.34 3.42 0 4.9.12.14.23.25.38.35-.6 1.68-.86 3.3-.95 4.7.14.17.14.3.32.47.75.83 1.7 1.52 2.64 2.15-.1-1.5.04-3.66 1.12-6.1.75.06 1.54-.06 2.23-.3.4.3.84.62 1.3.9 1.58 1.05 3.14 1.86 4.68 2.5-.08.66.12 1.32.6 1.88 1.1 1.18 3.1 1.38 4.5.48.28-.18.5-.4.68-.64 2.5.46 4.7.55 6.32.55.23 0 1.4-1.3 2.06-2.12-1 .18-3.92.5-7.9-.44-.1-.36-.3-.73-.58-1.05-1-1.1-2.85-1.34-4.24-.6-1.37-.63-2.82-1.4-4.33-2.4l-.87-.6c.93-1.2 1.02-2.75.2-4.05.18-.16.38-.3.55-.46 1.5-1.15 2.9-2.08 4.2-2.8l-.15-.15c.06.03.1.08.15.13 2 1.54 4.12 3 6.12 4.3-.52.94-.43 2.1.38 2.97z" stroke="#000" stroke-opacity="0" fill="#fff"/><path d="M1120 130h239.1v40H1120z" fill="#fff" fill-opacity="0"/><use xlink:href="#A" transform="matrix(1,0,0,1,1125,135.00000000000006) translate(0 14.4)"/><use xlink:href="#B" transform="matrix(1,0,0,1,1125,135.00000000000006) translate(102.7 14.4)"/><path d="M1500 352c0 4.42-35.82 8-80 8s-80-3.58-80-8v-64c0-4.42 35.82-8 80-8s80 3.58 80 8z" stroke="#000" stroke-width="2" fill-opacity="0"/><path d="M1500 288c0 4.42-35.82 8-80 8s-80-3.58-80-8" stroke="#000" stroke-width="2" fill="none"/><use xlink:href="#i" transform="matrix(1,0,0,1,1345,301) translate(27.5 31.27777777777778)"/><path d="M1165.25 300.5h-93.95v-1h93.95zm157.37-.12h-78.06v-1h78.06z" stroke="#000" stroke-width=".05"/><path d="M1071.3 300.5h-.52l.02-.5-.02-.5h.53z"/><path d="M1071.34 300.52h-.6l.04-.52-.03-.52h.6zm-.54-1l.03.48-.03.48h.5v-.96z" stroke="#000" stroke-width=".05"/><path d="M1337.38 299.88l-14.26 4.63v-9.26z"/><path d="M1339 299.88l-16.38 5.32v-10.65zm-15.38 3.94l12.14-3.94-12.14-3.95z" stroke="#000" stroke-width=".05"/><use xlink:href="#C" transform="matrix(1,0,0,1,1165.2462383497802,289.27122152129004) translate(0 14.222222222222223)"/><path d="M311.8 130h600v100h-600z" stroke="#000" fill-opacity="0"/><use xlink:href="#D" transform="matrix(1,0,0,1,316.80052493438416,135.00000000000006) translate(243.4203703703704 28.622222222222213)"/><use xlink:href="#E" transform="matrix(1,0,0,1,316.80052493438416,135.00000000000006) translate(19.397222222222354 67.99999999999999)"/><use xlink:href="#F" transform="matrix(1,0,0,1,316.80052493438416,135.00000000000006) translate(148.03796296296306 67.99999999999999)"/><use xlink:href="#G" transform="matrix(1,0,0,1,316.80052493438416,135.00000000000006) translate(299.56944444444446 67.99999999999999)"/><path d="M440 366a6 6 0 0 1 6-6h148a6 6 0 0 1 6 6v68a6 6 0 0 1-6 6H446a6 6 0 0 1-6-6z" stroke="#3a414a" fill-opacity="0"/><path d="M489.92 370h60.16v40h-60.16v-40z" fill="#456090"/><path d="M489.92 370h60.16v37.27h-60.16z" fill="#979ea8"/><path d="M506.6 375.02h6.42v28.1h-6.4v-28.1zM516.8 375.02h6.4v28.1h-6.4v-28.1zM526.97 375.02h6.4v28.1h-6.4v-28.1zM497.34 382.97v12.2l5.5-6.1-5.5-6.1zM537.15 382.97v12.2l5.5-6.1-5.5-6.1z" fill="#fff"/><use xlink:href="#H" transform="matrix(1,0,0,1,489.9198791529834,410) translate(-0.36419753086419604 17.77777777777778)"/><path d="M1540 637.42a6 6 0 0 1 6-6h68a6 6 0 0 1 6 6v48a6 6 0 0 1-6 6h-68a6 6 0 0 1-6-6z" stroke="#000" stroke-opacity="0" fill="#fff" fill-opacity="0"/><use xlink:href="#I" transform="matrix(1,0,0,1,1545,636.4173228346456) translate(28.209876543209877 28.930555555555557)"/><path d="M360 766a6 6 0 0 1 6-6h68a6 6 0 0 1 6 6v48a6 6 0 0 1-6 6h-68a6 6 0 0 1-6-6z" stroke="#000" stroke-opacity="0" fill="#fff" fill-opacity="0"/><use xlink:href="#J" transform="matrix(1,0,0,1,365,765) translate(28.209876543209877 28.930555555555557)"/><path d="M360 526a6 6 0 0 1 6-6h68a6 6 0 0 1 6 6v48a6 6 0 0 1-6 6h-68a6 6 0 0 1-6-6z" stroke="#000" stroke-opacity="0" fill="#fff" fill-opacity="0"/><use xlink:href="#K" transform="matrix(1,0,0,1,365,525) translate(28.209876543209877 28.930555555555557)"/><path d="M520 369.5V311.38" stroke="#3a414a" fill="none"/><path d="M520.5 370h-1v-.5h1z" stroke="#3a414a" stroke-width=".05" fill="#3a414a"/><path d="M520 296.62l4.63 14.26h-9.26z" stroke="#3a414a" fill="#3a414a"/><path d="M1053.87 335.63h107.48a6 6 0 0 1 6 6v59.9" stroke="#3a414a" fill="none"/><path d="M1053.88 336.13h-.78l.53-1h.25z" stroke="#3a414a" stroke-width=".05" fill="#3a414a"/><path d="M1167.35 416.3l-4.63-14.27h9.26z" stroke="#3a414a" fill="#3a414a"/><path d="M1040.1 668.76H714.8v-1h325.3z" stroke="#3a414a" stroke-width=".05" fill="#3a414a"/><path d="M714.82 668.76h-.25l-.53-1h.78z" fill="#3a414a"/><path d="M714.84 668.8h-.3l-.55-1.06h.84zm-.76-1l.5.94h.2v-.95z" stroke="#3a414a" stroke-width=".05" fill="#3a414a"/><path d="M1054.87 668.26l-14.26 4.64v-9.27z" fill="#3a414a"/><path d="M1056.5 668.26l-16.4 5.33v-10.66zm-15.4 3.95l12.16-3.94-12.15-3.94z" stroke="#3a414a" stroke-width=".05" fill="#3a414a"/><defs><path d="M169-182c-1-43-94-46-97-3 18 66 151 10 154 114 3 95-165 93-204 36-6-8-10-19-12-30l50-8c3 46 112 56 116 5-17-69-150-10-154-114-4-87 153-88 188-35 5 8 8 18 10 28" id="L"/><path d="M133-34C117-15 103 5 69 4 32 3 11-16 11-54c-1-60 55-63 116-61 1-26-3-47-28-47-18 1-26 9-28 27l-52-2c7-38 36-58 82-57s74 22 75 68l1 82c-1 14 12 18 25 15v27c-30 8-71 5-69-32zm-48 3c29 0 43-24 42-57-32 0-66-3-65 30 0 17 8 27 23 27" id="M"/><path d="M195-6C206 82 75 100 31 46c-4-6-6-13-8-21l49-6c3 16 16 24 34 25 40 0 42-37 40-79-11 22-30 35-61 35-53 0-70-43-70-97 0-56 18-96 73-97 30 0 46 14 59 34l2-30h47zm-90-29c32 0 41-27 41-63 0-35-9-62-40-62-32 0-39 29-40 63 0 36 9 62 39 62" id="N"/><g id="a"><use transform="matrix(0.06172839506172839,0,0,0.06172839506172839,0,0)" xlink:href="#L"/><use transform="matrix(0.06172839506172839,0,0,0.06172839506172839,14.814814814814813,0)" xlink:href="#M"/><use transform="matrix(0.06172839506172839,0,0,0.06172839506172839,27.160493827160494,0)" xlink:href="#N"/><use transform="matrix(0.06172839506172839,0,0,0.06172839506172839,40.67901234567901,0)" xlink:href="#M"/></g><path d="M67-125c0 53 21 87 73 88 37 1 54-22 65-47l45 17C233-25 199 4 140 4 58 4 20-42 15-125 8-235 124-281 211-232c18 10 29 29 36 50l-46 12c-8-25-30-41-62-41-52 0-71 34-72 86" id="O"/><path d="M110-194c64 0 96 36 96 99 0 64-35 99-97 99-61 0-95-36-95-99 0-62 34-99 96-99zm-1 164c35 0 45-28 45-65 0-40-10-65-43-65-34 0-45 26-45 65 0 36 10 65 43 65" id="P"/><path d="M135-150c-39-12-60 13-60 57V0H25l-1-190h47c2 13-1 29 3 40 6-28 27-53 61-41v41" id="Q"/><path d="M185-48c-13 30-37 53-82 52C43 2 14-33 14-96s30-98 90-98c62 0 83 45 84 108H66c0 31 8 55 39 56 18 0 30-7 34-22zm-45-69c5-46-57-63-70-21-2 6-4 13-4 21h74" id="R"/><path d="M135-194c53 0 70 44 70 98 0 56-19 98-73 100-31 1-45-17-59-34 3 33 2 69 2 105H25l-1-265h48c2 10 0 23 3 31 11-24 29-35 60-35zM114-30c33 0 39-31 40-66 0-38-9-64-40-64-56 0-55 130 0 130" id="S"/><path d="M114-157C55-157 80-60 75 0H25v-261h50l-1 109c12-26 28-41 61-42 86-1 58 113 63 194h-50c-7-57 23-157-34-157" id="T"/><path d="M123 10C108 53 80 86 19 72V37c35 8 53-11 59-39L3-190h52l48 148c12-52 28-100 44-148h51" id="U"/><g id="b"><use transform="matrix(0.06172839506172839,0,0,0.06172839506172839,0,0)" xlink:href="#O"/><use transform="matrix(0.06172839506172839,0,0,0.06172839506172839,15.987654320987653,0)" xlink:href="#P"/><use transform="matrix(0.06172839506172839,0,0,0.06172839506172839,29.50617283950617,0)" xlink:href="#Q"/><use transform="matrix(0.06172839506172839,0,0,0.06172839506172839,38.148148148148145,0)" xlink:href="#R"/><use transform="matrix(0.06172839506172839,0,0,0.06172839506172839,50.49382716049382,0)" xlink:href="#P"/><use transform="matrix(0.06172839506172839,0,0,0.06172839506172839,64.01234567901234,0)" xlink:href="#N"/><use transform="matrix(0.06172839506172839,0,0,0.06172839506172839,77.53086419753086,0)" xlink:href="#Q"/><use transform="matrix(0.06172839506172839,0,0,0.06172839506172839,86.17283950617283,0)" xlink:href="#M"/><use transform="matrix(0.06172839506172839,0,0,0.06172839506172839,98.51851851851852,0)" xlink:href="#S"/><use transform="matrix(0.06172839506172839,0,0,0.06172839506172839,112.03703703703704,0)" xlink:href="#T"/><use transform="matrix(0.06172839506172839,0,0,0.06172839506172839,125.55555555555556,0)" xlink:href="#U"/></g><path fill="#3a414a" d="M135-194c53 0 70 44 70 98 0 56-19 98-73 100-31 1-45-17-59-34 3 33 2 69 2 105H25l-1-265h48c2 10 0 23 3 31 11-24 29-35 60-35zM114-30c33 0 39-31 40-66 0-38-9-64-40-64-56 0-55 130 0 130" id="V"/><path fill="#3a414a" d="M133-34C117-15 103 5 69 4 32 3 11-16 11-54c-1-60 55-63 116-61 1-26-3-47-28-47-18 1-26 9-28 27l-52-2c7-38 36-58 82-57s74 22 75 68l1 82c-1 14 12 18 25 15v27c-30 8-71 5-69-32zm-48 3c29 0 43-24 42-57-32 0-66-3-65 30 0 17 8 27 23 27" id="W"/><path fill="#3a414a" d="M195-6C206 82 75 100 31 46c-4-6-6-13-8-21l49-6c3 16 16 24 34 25 40 0 42-37 40-79-11 22-30 35-61 35-53 0-70-43-70-97 0-56 18-96 73-97 30 0 46 14 59 34l2-30h47zm-90-29c32 0 41-27 41-63 0-35-9-62-40-62-32 0-39 29-40 63 0 36 9 62 39 62" id="X"/><path fill="#3a414a" d="M110-194c64 0 96 36 96 99 0 64-35 99-97 99-61 0-95-36-95-99 0-62 34-99 96-99zm-1 164c35 0 45-28 45-65 0-40-10-65-43-65-34 0-45 26-45 65 0 36 10 65 43 65" id="Y"/><path fill="#3a414a" d="M14-72v-43h91v43H14" id="Z"/><path fill="#3a414a" d="M185-48c-13 30-37 53-82 52C43 2 14-33 14-96s30-98 90-98c62 0 83 45 84 108H66c0 31 8 55 39 56 18 0 30-7 34-22zm-45-69c5-46-57-63-70-21-2 6-4 13-4 21h74" id="aa"/><path fill="#3a414a" d="M128 0H69L1-190h53L99-40l48-150h52" id="ab"/><path fill="#3a414a" d="M135-194c87-1 58 113 63 194h-50c-7-57 23-157-34-157-59 0-34 97-39 157H25l-1-190h47c2 12-1 28 3 38 12-26 28-41 61-42" id="ac"/><path fill="#3a414a" d="M115-3C79 11 28 4 28-45v-112H4v-33h27l15-45h31v45h36v33H77v99c-1 23 16 31 38 25v30" id="ad"/><path fill="#3a414a" d="M137-138c1-29-70-34-71-4 15 46 118 7 119 86 1 83-164 76-172 9l43-7c4 19 20 25 44 25 33 8 57-30 24-41C81-84 22-81 20-136c-2-80 154-74 161-7" id="ae"/><g id="c"><use transform="matrix(0.06172839506172839,0,0,0.06172839506172839,0,0)" xlink:href="#V"/><use transform="matrix(0.06172839506172839,0,0,0.06172839506172839,13.518518518518517,0)" xlink:href="#W"/><use transform="matrix(0.06172839506172839,0,0,0.06172839506172839,25.864197530864196,0)" xlink:href="#X"/><use transform="matrix(0.06172839506172839,0,0,0.06172839506172839,39.382716049382715,0)" xlink:href="#Y"/><use transform="matrix(0.06172839506172839,0,0,0.06172839506172839,52.901234567901234,0)" xlink:href="#Z"/><use transform="matrix(0.06172839506172839,0,0,0.06172839506172839,60.24691358024691,0)" xlink:href="#aa"/><use transform="matrix(0.06172839506172839,0,0,0.06172839506172839,72.5925925925926,0)" xlink:href="#ab"/><use transform="matrix(0.06172839506172839,0,0,0.06172839506172839,84.93827160493828,0)" xlink:href="#aa"/><use transform="matrix(0.06172839506172839,0,0,0.06172839506172839,97.28395061728396,0)" xlink:href="#ac"/><use transform="matrix(0.06172839506172839,0,0,0.06172839506172839,110.80246913580248,0)" xlink:href="#ad"/><use transform="matrix(0.06172839506172839,0,0,0.06172839506172839,118.14814814814817,0)" xlink:href="#ae"/></g><path fill="#333" d="M231 0h-52l-39-155L100 0H48L-1-190h46L77-45c9-52 24-97 36-145h53l37 145 32-145h46" id="af"/><path fill="#333" d="M135-150c-39-12-60 13-60 57V0H25l-1-190h47c2 13-1 29 3 40 6-28 27-53 61-41v41" id="ag"/><path fill="#333" d="M25-224v-37h50v37H25zM25 0v-190h50V0H25" id="ah"/><path fill="#333" d="M115-3C79 11 28 4 28-45v-112H4v-33h27l15-45h31v45h36v33H77v99c-1 23 16 31 38 25v30" id="ai"/><path fill="#333" d="M185-48c-13 30-37 53-82 52C43 2 14-33 14-96s30-98 90-98c62 0 83 45 84 108H66c0 31 8 55 39 56 18 0 30-7 34-22zm-45-69c5-46-57-63-70-21-2 6-4 13-4 21h74" id="aj"/><g id="d"><use transform="matrix(0.04938271604938272,0,0,0.04938271604938272,0,0)" xlink:href="#af"/><use transform="matrix(0.04938271604938272,0,0,0.04938271604938272,13.827160493827162,0)" xlink:href="#ag"/><use transform="matrix(0.04938271604938272,0,0,0.04938271604938272,20.74074074074074,0)" xlink:href="#ah"/><use transform="matrix(0.04938271604938272,0,0,0.04938271604938272,25.679012345679016,0)" xlink:href="#ai"/><use transform="matrix(0.04938271604938272,0,0,0.04938271604938272,31.555555555555557,0)" xlink:href="#aj"/></g><path d="M230 0l2-204L168 0h-37L68-204 70 0H24v-248h70l56 185 57-185h69V0h-46" id="ak"/><path d="M137-138c1-29-70-34-71-4 15 46 118 7 119 86 1 83-164 76-172 9l43-7c4 19 20 25 44 25 33 8 57-30 24-41C81-84 22-81 20-136c-2-80 154-74 161-7" id="al"/><g id="e"><use transform="matrix(0.06172839506172839,0,0,0.06172839506172839,0,0)" xlink:href="#ak"/><use transform="matrix(0.06172839506172839,0,0,0.06172839506172839,18.456790123456788,0)" xlink:href="#al"/><use transform="matrix(0.06172839506172839,0,0,0.06172839506172839,30.80246913580247,0)" xlink:href="#O"/><use transform="matrix(0.06172839506172839,0,0,0.06172839506172839,46.79012345679012,0)" xlink:href="#M"/><use transform="matrix(0.06172839506172839,0,0,0.06172839506172839,59.1358024691358,0)" xlink:href="#Q"/><use transform="matrix(0.06172839506172839,0,0,0.06172839506172839,67.77777777777777,0)" xlink:href="#N"/><use transform="matrix(0.06172839506172839,0,0,0.06172839506172839,81.29629629629629,0)" xlink:href="#P"/></g><path d="M199 0l-22-63H83L61 0H9l90-248h61L250 0h-51zm-33-102l-36-108c-10 38-24 72-36 108h72" id="am"/><path d="M135-194c52 0 70 43 70 98 0 56-19 99-73 100-30 1-46-15-58-35L72 0H24l1-261h50v104c11-23 29-37 60-37zM114-30c31 0 40-27 40-66 0-37-7-63-39-63s-41 28-41 65c0 36 8 64 40 64" id="an"/><path d="M135-194c87-1 58 113 63 194h-50c-7-57 23-157-34-157-59 0-34 97-39 157H25l-1-190h47c2 12-1 28 3 38 12-26 28-41 61-42" id="ao"/><g id="f"><use transform="matrix(0.06172839506172839,0,0,0.06172839506172839,0,0)" xlink:href="#ak"/><use transform="matrix(0.06172839506172839,0,0,0.06172839506172839,18.456790123456788,0)" xlink:href="#al"/><use transform="matrix(0.06172839506172839,0,0,0.06172839506172839,30.80246913580247,0)" xlink:href="#am"/><use transform="matrix(0.06172839506172839,0,0,0.06172839506172839,46.79012345679012,0)" xlink:href="#an"/><use transform="matrix(0.06172839506172839,0,0,0.06172839506172839,60.30864197530864,0)" xlink:href="#P"/><use transform="matrix(0.06172839506172839,0,0,0.06172839506172839,73.82716049382715,0)" xlink:href="#ao"/><use transform="matrix(0.06172839506172839,0,0,0.06172839506172839,87.34567901234567,0)" xlink:href="#P"/></g><path fill="#3a414a" d="M205 0l-28-72H64L36 0H1l101-248h38L239 0h-34zm-38-99l-47-123c-12 45-31 82-46 123h93" id="ap"/><path fill="#3a414a" d="M135-143c-3-34-86-38-87 0 15 53 115 12 119 90S17 21 10-45l28-5c4 36 97 45 98 0-10-56-113-15-118-90-4-57 82-63 122-42 12 7 21 19 24 35" id="aq"/><path fill="#3a414a" d="M179-190L93 31C79 59 56 82 12 73V49c39 6 53-20 64-50L1-190h34L92-34l54-156h33" id="ar"/><path fill="#3a414a" d="M117-194c89-4 53 116 60 194h-32v-121c0-31-8-49-39-48C34-167 62-67 57 0H25l-1-190h30c1 10-1 24 2 32 11-22 29-35 61-36" id="as"/><path fill="#3a414a" d="M96-169c-40 0-48 33-48 73s9 75 48 75c24 0 41-14 43-38l32 2c-6 37-31 61-74 61-59 0-76-41-82-99-10-93 101-131 147-64 4 7 5 14 7 22l-32 3c-4-21-16-35-41-35" id="at"/><g id="g"><use transform="matrix(0.06172839506172839,0,0,0.06172839506172839,0,0)" xlink:href="#ap"/><use transform="matrix(0.06172839506172839,0,0,0.06172839506172839,14.814814814814813,0)" xlink:href="#aq"/><use transform="matrix(0.06172839506172839,0,0,0.06172839506172839,25.925925925925924,0)" xlink:href="#ar"/><use transform="matrix(0.06172839506172839,0,0,0.06172839506172839,37.03703703703704,0)" xlink:href="#as"/><use transform="matrix(0.06172839506172839,0,0,0.06172839506172839,49.382716049382715,0)" xlink:href="#at"/></g><path fill="#333" d="M25 0v-261h50V0H25" id="au"/><path fill="#333" d="M137-138c1-29-70-34-71-4 15 46 118 7 119 86 1 83-164 76-172 9l43-7c4 19 20 25 44 25 33 8 57-30 24-41C81-84 22-81 20-136c-2-80 154-74 161-7" id="av"/><path fill="#333" d="M135-194c87-1 58 113 63 194h-50c-7-57 23-157-34-157-59 0-34 97-39 157H25l-1-190h47c2 12-1 28 3 38 12-26 28-41 61-42" id="aw"/><g id="h"><use transform="matrix(0.04938271604938272,0,0,0.04938271604938272,0,0)" xlink:href="#au"/><use transform="matrix(0.04938271604938272,0,0,0.04938271604938272,4.938271604938272,0)" xlink:href="#ah"/><use transform="matrix(0.04938271604938272,0,0,0.04938271604938272,9.876543209876544,0)" xlink:href="#av"/><use transform="matrix(0.04938271604938272,0,0,0.04938271604938272,19.75308641975309,0)" xlink:href="#ai"/><use transform="matrix(0.04938271604938272,0,0,0.04938271604938272,25.629629629629633,0)" xlink:href="#aj"/><use transform="matrix(0.04938271604938272,0,0,0.04938271604938272,35.50617283950618,0)" xlink:href="#aw"/></g><path d="M30-248c118-7 216 8 213 122C240-48 200 0 122 0H30v-248zM63-27c89 8 146-16 146-99s-60-101-146-95v194" id="ax"/><path d="M141-36C126-15 110 5 73 4 37 3 15-17 15-53c-1-64 63-63 125-63 3-35-9-54-41-54-24 1-41 7-42 31l-33-3c5-37 33-52 76-52 45 0 72 20 72 64v82c-1 20 7 32 28 27v20c-31 9-61-2-59-35zM48-53c0 20 12 33 32 33 41-3 63-29 60-74-43 2-92-5-92 41" id="ay"/><path d="M59-47c-2 24 18 29 38 22v24C64 9 27 4 27-40v-127H5v-23h24l9-43h21v43h35v23H59v120" id="az"/><path d="M115-194c53 0 69 39 70 98 0 66-23 100-70 100C84 3 66-7 56-30L54 0H23l1-261h32v101c10-23 28-34 59-34zm-8 174c40 0 45-34 45-75 0-40-5-75-45-74-42 0-51 32-51 76 0 43 10 73 51 73" id="aA"/><path d="M135-143c-3-34-86-38-87 0 15 53 115 12 119 90S17 21 10-45l28-5c4 36 97 45 98 0-10-56-113-15-118-90-4-57 82-63 122-42 12 7 21 19 24 35" id="aB"/><path d="M100-194c63 0 86 42 84 106H49c0 40 14 67 53 68 26 1 43-12 49-29l28 8c-11 28-37 45-77 45C44 4 14-33 15-96c1-61 26-98 85-98zm52 81c6-60-76-77-97-28-3 7-6 17-6 28h103" id="aC"/><g id="i"><use transform="matrix(0.06172839506172839,0,0,0.06172839506172839,0,0)" xlink:href="#ax"/><use transform="matrix(0.06172839506172839,0,0,0.06172839506172839,15.987654320987653,0)" xlink:href="#ay"/><use transform="matrix(0.06172839506172839,0,0,0.06172839506172839,28.333333333333332,0)" xlink:href="#az"/><use transform="matrix(0.06172839506172839,0,0,0.06172839506172839,34.50617283950617,0)" xlink:href="#ay"/><use transform="matrix(0.06172839506172839,0,0,0.06172839506172839,46.85185185185185,0)" xlink:href="#aA"/><use transform="matrix(0.06172839506172839,0,0,0.06172839506172839,59.197530864197525,0)" xlink:href="#ay"/><use transform="matrix(0.06172839506172839,0,0,0.06172839506172839,71.5432098765432,0)" xlink:href="#aB"/><use transform="matrix(0.06172839506172839,0,0,0.06172839506172839,82.65432098765432,0)" xlink:href="#aC"/></g><path d="M240-174c0 40-23 61-54 70L253 0h-59l-57-94H76V0H24v-248c93 4 217-23 216 74zM76-134c48-2 112 12 112-38 0-48-66-32-112-35v73" id="aD"/><path d="M128 0H69L1-190h53L99-40l48-150h52" id="aE"/><g id="j"><use transform="matrix(0.06172839506172839,0,0,0.06172839506172839,0,0)" xlink:href="#aD"/><use transform="matrix(0.06172839506172839,0,0,0.06172839506172839,15.987654320987653,0)" xlink:href="#R"/><use transform="matrix(0.06172839506172839,0,0,0.06172839506172839,28.333333333333332,0)" xlink:href="#aE"/><use transform="matrix(0.06172839506172839,0,0,0.06172839506172839,40.67901234567901,0)" xlink:href="#R"/><use transform="matrix(0.06172839506172839,0,0,0.06172839506172839,53.02469135802469,0)" xlink:href="#Q"/><use transform="matrix(0.06172839506172839,0,0,0.06172839506172839,61.666666666666664,0)" xlink:href="#al"/><use transform="matrix(0.06172839506172839,0,0,0.06172839506172839,74.01234567901234,0)" xlink:href="#M"/></g><g id="k"><use transform="matrix(0.06172839506172839,0,0,0.06172839506172839,0,0)" xlink:href="#O"/><use transform="matrix(0.06172839506172839,0,0,0.06172839506172839,15.987654320987653,0)" xlink:href="#M"/><use transform="matrix(0.06172839506172839,0,0,0.06172839506172839,28.333333333333332,0)" xlink:href="#Q"/><use transform="matrix(0.06172839506172839,0,0,0.06172839506172839,36.9753086419753,0)" xlink:href="#N"/><use transform="matrix(0.06172839506172839,0,0,0.06172839506172839,50.49382716049382,0)" xlink:href="#P"/></g><path fill="#333" d="M88-194c31-1 46 15 58 34l-1-101h50l1 261h-48c-2-10 0-23-3-31C134-8 116 4 84 4 32 4 16-41 15-95c0-56 19-97 73-99zm17 164c33 0 40-30 41-66 1-37-9-64-41-64s-38 30-39 65c0 43 13 65 39 65" id="aF"/><g id="l"><use transform="matrix(0.04938271604938272,0,0,0.04938271604938272,0,0)" xlink:href="#av"/><use transform="matrix(0.04938271604938272,0,0,0.04938271604938272,9.876543209876544,0)" xlink:href="#aj"/><use transform="matrix(0.04938271604938272,0,0,0.04938271604938272,19.75308641975309,0)" xlink:href="#aw"/><use transform="matrix(0.04938271604938272,0,0,0.04938271604938272,30.567901234567906,0)" xlink:href="#aF"/></g><path fill="#3a414a" d="M136-208V0H84v-208H4v-40h212v40h-80" id="aG"/><path fill="#3a414a" d="M24-248c93 1 206-16 204 79-1 75-69 88-152 82V0H24v-248zm52 121c47 0 100 7 100-41 0-47-54-39-100-39v80" id="aH"/><path fill="#3a414a" d="M240-174c0 40-23 61-54 70L253 0h-59l-57-94H76V0H24v-248c93 4 217-23 216 74zM76-134c48-2 112 12 112-38 0-48-66-32-112-35v73" id="aI"/><path fill="#3a414a" d="M67-125c0 53 21 87 73 88 37 1 54-22 65-47l45 17C233-25 199 4 140 4 58 4 20-42 15-125 8-235 124-281 211-232c18 10 29 29 36 50l-46 12c-8-25-30-41-62-41-52 0-71 34-72 86" id="aJ"/><path fill="#3a414a" d="M135-150c-39-12-60 13-60 57V0H25l-1-190h47c2 13-1 29 3 40 6-28 27-53 61-41v41" id="aK"/><g id="m"><use transform="matrix(0.06172839506172839,0,0,0.06172839506172839,0,0)" xlink:href="#aG"/><use transform="matrix(0.06172839506172839,0,0,0.06172839506172839,13.518518518518517,0)" xlink:href="#aH"/><use transform="matrix(0.06172839506172839,0,0,0.06172839506172839,28.33333333333333,0)" xlink:href="#aI"/><use transform="matrix(0.06172839506172839,0,0,0.06172839506172839,44.32098765432098,0)" xlink:href="#ab"/><use transform="matrix(0.06172839506172839,0,0,0.06172839506172839,56.66666666666666,0)" xlink:href="#ae"/><use transform="matrix(0.06172839506172839,0,0,0.06172839506172839,69.01234567901234,0)" xlink:href="#aJ"/><use transform="matrix(0.06172839506172839,0,0,0.06172839506172839,85,0)" xlink:href="#W"/><use transform="matrix(0.06172839506172839,0,0,0.06172839506172839,97.34567901234568,0)" xlink:href="#aK"/><use transform="matrix(0.06172839506172839,0,0,0.06172839506172839,105.98765432098766,0)" xlink:href="#X"/><use transform="matrix(0.06172839506172839,0,0,0.06172839506172839,119.50617283950618,0)" xlink:href="#Y"/></g><path fill="#3a414a" d="M199 0l-22-63H83L61 0H9l90-248h61L250 0h-51zm-33-102l-36-108c-10 38-24 72-36 108h72" id="aL"/><path fill="#3a414a" d="M135-194c52 0 70 43 70 98 0 56-19 99-73 100-30 1-46-15-58-35L72 0H24l1-261h50v104c11-23 29-37 60-37zM114-30c31 0 40-27 40-66 0-37-7-63-39-63s-41 28-41 65c0 36 8 64 40 64" id="aM"/><g id="n"><use transform="matrix(0.06172839506172839,0,0,0.06172839506172839,0,0)" xlink:href="#aG"/><use transform="matrix(0.06172839506172839,0,0,0.06172839506172839,13.518518518518517,0)" xlink:href="#aH"/><use transform="matrix(0.06172839506172839,0,0,0.06172839506172839,28.33333333333333,0)" xlink:href="#aI"/><use transform="matrix(0.06172839506172839,0,0,0.06172839506172839,44.32098765432098,0)" xlink:href="#ab"/><use transform="matrix(0.06172839506172839,0,0,0.06172839506172839,56.66666666666666,0)" xlink:href="#ae"/><use transform="matrix(0.06172839506172839,0,0,0.06172839506172839,69.01234567901234,0)" xlink:href="#aL"/><use transform="matrix(0.06172839506172839,0,0,0.06172839506172839,85,0)" xlink:href="#aM"/><use transform="matrix(0.06172839506172839,0,0,0.06172839506172839,98.51851851851852,0)" xlink:href="#Y"/><use transform="matrix(0.06172839506172839,0,0,0.06172839506172839,112.03703703703704,0)" xlink:href="#ac"/><use transform="matrix(0.06172839506172839,0,0,0.06172839506172839,125.55555555555556,0)" xlink:href="#Y"/></g><g id="o"><use transform="matrix(0.06172839506172839,0,0,0.06172839506172839,0,0)" xlink:href="#am"/><use transform="matrix(0.06172839506172839,0,0,0.06172839506172839,15.987654320987653,0)" xlink:href="#an"/><use transform="matrix(0.06172839506172839,0,0,0.06172839506172839,29.50617283950617,0)" xlink:href="#P"/><use transform="matrix(0.06172839506172839,0,0,0.06172839506172839,43.02469135802469,0)" xlink:href="#ao"/><use transform="matrix(0.06172839506172839,0,0,0.06172839506172839,56.54320987654321,0)" xlink:href="#P"/></g><path fill="#333" d="M135-194c53 0 70 44 70 98 0 56-19 98-73 100-31 1-45-17-59-34 3 33 2 69 2 105H25l-1-265h48c2 10 0 23 3 31 11-24 29-35 60-35zM114-30c33 0 39-31 40-66 0-38-9-64-40-64-56 0-55 130 0 130" id="aN"/><path fill="#333" d="M110-194c64 0 96 36 96 99 0 64-35 99-97 99-61 0-95-36-95-99 0-62 34-99 96-99zm-1 164c35 0 45-28 45-65 0-40-10-65-43-65-34 0-45 26-45 65 0 36 10 65 43 65" id="aO"/><g id="p"><use transform="matrix(0.04938271604938272,0,0,0.04938271604938272,0,0)" xlink:href="#aN"/><use transform="matrix(0.04938271604938272,0,0,0.04938271604938272,10.814814814814815,0)" xlink:href="#aO"/><use transform="matrix(0.04938271604938272,0,0,0.04938271604938272,21.62962962962963,0)" xlink:href="#aO"/><use transform="matrix(0.04938271604938272,0,0,0.04938271604938272,32.44444444444444,0)" xlink:href="#au"/></g><path fill="#fff" d="M24 0v-248h195v40H76v63h132v40H76v65h150V0H24" id="aP"/><path fill="#fff" d="M128 0H69L1-190h53L99-40l48-150h52" id="aQ"/><path fill="#fff" d="M185-48c-13 30-37 53-82 52C43 2 14-33 14-96s30-98 90-98c62 0 83 45 84 108H66c0 31 8 55 39 56 18 0 30-7 34-22zm-45-69c5-46-57-63-70-21-2 6-4 13-4 21h74" id="aR"/><path fill="#fff" d="M135-194c87-1 58 113 63 194h-50c-7-57 23-157-34-157-59 0-34 97-39 157H25l-1-190h47c2 12-1 28 3 38 12-26 28-41 61-42" id="aS"/><path fill="#fff" d="M115-3C79 11 28 4 28-45v-112H4v-33h27l15-45h31v45h36v33H77v99c-1 23 16 31 38 25v30" id="aT"/><g id="q"><use transform="matrix(0.06790123456790123,0,0,0.06790123456790123,0,0)" xlink:href="#aP"/><use transform="matrix(0.06790123456790123,0,0,0.06790123456790123,16.296296296296294,0)" xlink:href="#aQ"/><use transform="matrix(0.06790123456790123,0,0,0.06790123456790123,29.87654320987654,0)" xlink:href="#aR"/><use transform="matrix(0.06790123456790123,0,0,0.06790123456790123,43.456790123456784,0)" xlink:href="#aS"/><use transform="matrix(0.06790123456790123,0,0,0.06790123456790123,58.32716049382715,0)" xlink:href="#aT"/></g><path fill="#fff" d="M182-130c37 4 62 22 62 59C244 23 116-4 24 0v-248c84 5 203-23 205 63 0 31-19 50-47 55zM76-148c40-3 101 13 101-30 0-44-60-28-101-31v61zm0 110c48-3 116 14 116-37 0-48-69-32-116-35v72" id="aU"/><path fill="#fff" d="M85 4C-2 5 27-109 22-190h50c7 57-23 150 33 157 60-5 35-97 40-157h50l1 190h-47c-2-12 1-28-3-38-12 25-28 42-61 42" id="aV"/><path fill="#fff" d="M137-138c1-29-70-34-71-4 15 46 118 7 119 86 1 83-164 76-172 9l43-7c4 19 20 25 44 25 33 8 57-30 24-41C81-84 22-81 20-136c-2-80 154-74 161-7" id="aW"/><g id="r"><use transform="matrix(0.06790123456790123,0,0,0.06790123456790123,0,0)" xlink:href="#aU"/><use transform="matrix(0.06790123456790123,0,0,0.06790123456790123,17.586419753086417,0)" xlink:href="#aV"/><use transform="matrix(0.06790123456790123,0,0,0.06790123456790123,32.456790123456784,0)" xlink:href="#aW"/></g><g id="s"><use transform="matrix(0.06172839506172839,0,0,0.06172839506172839,0,0)" xlink:href="#aG"/><use transform="matrix(0.06172839506172839,0,0,0.06172839506172839,13.518518518518517,0)" xlink:href="#aH"/><use transform="matrix(0.06172839506172839,0,0,0.06172839506172839,28.33333333333333,0)" xlink:href="#aI"/><use transform="matrix(0.06172839506172839,0,0,0.06172839506172839,44.32098765432098,0)" xlink:href="#aa"/><use transform="matrix(0.06172839506172839,0,0,0.06172839506172839,56.66666666666666,0)" xlink:href="#ae"/><use transform="matrix(0.06172839506172839,0,0,0.06172839506172839,69.01234567901234,0)" xlink:href="#V"/><use transform="matrix(0.06172839506172839,0,0,0.06172839506172839,82.53086419753086,0)" xlink:href="#Y"/><use transform="matrix(0.06172839506172839,0,0,0.06172839506172839,96.04938271604938,0)" xlink:href="#ac"/><use transform="matrix(0.06172839506172839,0,0,0.06172839506172839,109.5679012345679,0)" xlink:href="#ae"/><use transform="matrix(0.06172839506172839,0,0,0.06172839506172839,121.91358024691358,0)" xlink:href="#aa"/></g><path d="M25-224v-37h50v37H25zM25 0v-190h50V0H25" id="aX"/><path d="M115-3C79 11 28 4 28-45v-112H4v-33h27l15-45h31v45h36v33H77v99c-1 23 16 31 38 25v30" id="aY"/><g id="t"><use transform="matrix(0.06172839506172839,0,0,0.06172839506172839,0,0)" xlink:href="#aD"/><use transform="matrix(0.06172839506172839,0,0,0.06172839506172839,15.987654320987653,0)" xlink:href="#R"/><use transform="matrix(0.06172839506172839,0,0,0.06172839506172839,28.333333333333332,0)" xlink:href="#N"/><use transform="matrix(0.06172839506172839,0,0,0.06172839506172839,41.85185185185185,0)" xlink:href="#aX"/><use transform="matrix(0.06172839506172839,0,0,0.06172839506172839,48.02469135802469,0)" xlink:href="#al"/><use transform="matrix(0.06172839506172839,0,0,0.06172839506172839,60.37037037037037,0)" xlink:href="#aY"/><use transform="matrix(0.06172839506172839,0,0,0.06172839506172839,67.71604938271605,0)" xlink:href="#R"/><use transform="matrix(0.06172839506172839,0,0,0.06172839506172839,80.06172839506173,0)" xlink:href="#Q"/></g><path d="M14-72v-43h91v43H14" id="aZ"/><use transform="matrix(0.06172839506172839,0,0,0.06172839506172839,0,0)" xlink:href="#aZ" id="u"/><path d="M24-248c120-7 223 5 221 122C244-46 201 0 124 0H24v-248zM76-40c74 7 117-18 117-86 0-67-45-88-117-82v168" id="ba"/><path d="M190-63c-7 42-38 67-86 67-59 0-84-38-90-98-12-110 154-137 174-36l-49 2c-2-19-15-32-35-32-30 0-35 28-38 64-6 74 65 87 74 30" id="bb"/><g id="v"><use transform="matrix(0.06172839506172839,0,0,0.06172839506172839,0,0)" xlink:href="#ba"/><use transform="matrix(0.06172839506172839,0,0,0.06172839506172839,15.987654320987653,0)" xlink:href="#aX"/><use transform="matrix(0.06172839506172839,0,0,0.06172839506172839,22.160493827160494,0)" xlink:href="#al"/><use transform="matrix(0.06172839506172839,0,0,0.06172839506172839,34.50617283950617,0)" xlink:href="#bb"/><use transform="matrix(0.06172839506172839,0,0,0.06172839506172839,46.85185185185185,0)" xlink:href="#P"/><use transform="matrix(0.06172839506172839,0,0,0.06172839506172839,60.37037037037037,0)" xlink:href="#aE"/><use transform="matrix(0.06172839506172839,0,0,0.06172839506172839,72.71604938271605,0)" xlink:href="#R"/><use transform="matrix(0.06172839506172839,0,0,0.06172839506172839,85.06172839506173,0)" xlink:href="#Q"/></g><path d="M121-226c-27-7-43 5-38 36h38v33H83V0H34v-157H6v-33h28c-9-59 32-81 87-68v32" id="bc"/><g id="w"><use transform="matrix(0.06172839506172839,0,0,0.06172839506172839,0,0)" xlink:href="#O"/><use transform="matrix(0.06172839506172839,0,0,0.06172839506172839,15.987654320987653,0)" xlink:href="#P"/><use transform="matrix(0.06172839506172839,0,0,0.06172839506172839,29.50617283950617,0)" xlink:href="#ao"/><use transform="matrix(0.06172839506172839,0,0,0.06172839506172839,43.02469135802469,0)" xlink:href="#bc"/><use transform="matrix(0.06172839506172839,0,0,0.06172839506172839,50.37037037037037,0)" xlink:href="#aX"/><use transform="matrix(0.06172839506172839,0,0,0.06172839506172839,56.54320987654321,0)" xlink:href="#N"/></g><g id="x"><use transform="matrix(0.06172839506172839,0,0,0.06172839506172839,0,0)" xlink:href="#L"/><use transform="matrix(0.06172839506172839,0,0,0.06172839506172839,14.814814814814813,0)" xlink:href="#R"/><use transform="matrix(0.06172839506172839,0,0,0.06172839506172839,27.160493827160494,0)" xlink:href="#Q"/><use transform="matrix(0.06172839506172839,0,0,0.06172839506172839,35.80246913580247,0)" xlink:href="#aE"/><use transform="matrix(0.06172839506172839,0,0,0.06172839506172839,48.148148148148145,0)" xlink:href="#R"/><use transform="matrix(0.06172839506172839,0,0,0.06172839506172839,60.49382716049382,0)" xlink:href="#Q"/></g><path d="M136-208V0H84v-208H4v-40h212v40h-80" id="bd"/><path d="M12 0v-35l95-120H19v-35h142v35L67-36h103V0H12" id="be"/><path d="M25 0v-261h50V0H25" id="bf"/><path d="M88-194c31-1 46 15 58 34l-1-101h50l1 261h-48c-2-10 0-23-3-31C134-8 116 4 84 4 32 4 16-41 15-95c0-56 19-97 73-99zm17 164c33 0 40-30 41-66 1-37-9-64-41-64s-38 30-39 65c0 43 13 65 39 65" id="bg"/><g id="y"><use transform="matrix(0.06172839506172839,0,0,0.06172839506172839,0,0)" xlink:href="#bd"/><use transform="matrix(0.06172839506172839,0,0,0.06172839506172839,12.28395061728395,0)" xlink:href="#Q"/><use transform="matrix(0.06172839506172839,0,0,0.06172839506172839,20.925925925925924,0)" xlink:href="#M"/><use transform="matrix(0.06172839506172839,0,0,0.06172839506172839,33.2716049382716,0)" xlink:href="#be"/><use transform="matrix(0.06172839506172839,0,0,0.06172839506172839,44.38271604938271,0)" xlink:href="#M"/><use transform="matrix(0.06172839506172839,0,0,0.06172839506172839,56.728395061728385,0)" xlink:href="#an"/><use transform="matrix(0.06172839506172839,0,0,0.06172839506172839,70.2469135802469,0)" xlink:href="#aX"/><use transform="matrix(0.06172839506172839,0,0,0.06172839506172839,76.41975308641973,0)" xlink:href="#bf"/><use transform="matrix(0.06172839506172839,0,0,0.06172839506172839,82.59259259259257,0)" xlink:href="#aX"/><use transform="matrix(0.06172839506172839,0,0,0.06172839506172839,88.7654320987654,0)" xlink:href="#bg"/><use transform="matrix(0.06172839506172839,0,0,0.06172839506172839,102.28395061728392,0)" xlink:href="#M"/><use transform="matrix(0.06172839506172839,0,0,0.06172839506172839,114.6296296296296,0)" xlink:href="#bg"/></g><path fill="#fff" d="M199 0l-22-63H83L61 0H9l90-248h61L250 0h-51zm-33-102l-36-108c-10 38-24 72-36 108h72" id="bh"/><path fill="#fff" d="M135-194c53 0 70 44 70 98 0 56-19 98-73 100-31 1-45-17-59-34 3 33 2 69 2 105H25l-1-265h48c2 10 0 23 3 31 11-24 29-35 60-35zM114-30c33 0 39-31 40-66 0-38-9-64-40-64-56 0-55 130 0 130" id="bi"/><g id="z"><use transform="matrix(0.07407407407407407,0,0,0.07407407407407407,0,0)" xlink:href="#bh"/><use transform="matrix(0.07407407407407407,0,0,0.07407407407407407,19.185185185185183,0)" xlink:href="#bi"/><use transform="matrix(0.07407407407407407,0,0,0.07407407407407407,35.407407407407405,0)" xlink:href="#bi"/></g><g id="A"><use transform="matrix(0.05,0,0,0.05,0,0)" xlink:href="#am"/><use transform="matrix(0.05,0,0,0.05,12.950000000000001,0)" xlink:href="#S"/><use transform="matrix(0.05,0,0,0.05,23.900000000000002,0)" xlink:href="#S"/><use transform="matrix(0.05,0,0,0.05,34.85,0)" xlink:href="#bf"/><use transform="matrix(0.05,0,0,0.05,39.85,0)" xlink:href="#aX"/><use transform="matrix(0.05,0,0,0.05,44.85,0)" xlink:href="#bb"/><use transform="matrix(0.05,0,0,0.05,54.85,0)" xlink:href="#M"/><use transform="matrix(0.05,0,0,0.05,64.85,0)" xlink:href="#aY"/><use transform="matrix(0.05,0,0,0.05,70.8,0)" xlink:href="#aX"/><use transform="matrix(0.05,0,0,0.05,75.8,0)" xlink:href="#P"/><use transform="matrix(0.05,0,0,0.05,86.75,0)" xlink:href="#ao"/></g><path d="M67-125c0 54 23 88 75 88 28 0 53-7 68-21v-34h-60v-39h108v91C232-14 192 4 140 4 58 4 20-42 15-125 8-236 126-280 215-234c19 10 29 26 37 47l-47 15c-11-23-29-39-63-39-53 1-75 33-75 86" id="bj"/><path d="M231 0h-52l-39-155L100 0H48L-1-190h46L77-45c9-52 24-97 36-145h53l37 145 32-145h46" id="bk"/><g id="B"><use transform="matrix(0.05,0,0,0.05,0,0)" xlink:href="#bj"/><use transform="matrix(0.05,0,0,0.05,14,0)" xlink:href="#M"/><use transform="matrix(0.05,0,0,0.05,24,0)" xlink:href="#aY"/><use transform="matrix(0.05,0,0,0.05,29.950000000000003,0)" xlink:href="#R"/><use transform="matrix(0.05,0,0,0.05,39.95,0)" xlink:href="#bk"/><use transform="matrix(0.05,0,0,0.05,53.95,0)" xlink:href="#M"/><use transform="matrix(0.05,0,0,0.05,63.95,0)" xlink:href="#U"/></g><path fill="#333" d="M195-6C206 82 75 100 31 46c-4-6-6-13-8-21l49-6c3 16 16 24 34 25 40 0 42-37 40-79-11 22-30 35-61 35-53 0-70-43-70-97 0-56 18-96 73-97 30 0 46 14 59 34l2-30h47zm-90-29c32 0 41-27 41-63 0-35-9-62-40-62-32 0-39 29-40 63 0 36 9 62 39 62" id="bl"/><path fill="#333" d="M15-148v-39h180v39H15zm0 97v-39h180v39H15" id="bm"/><path fill="#333" d="M24 0v-248h52V0H24" id="bn"/><path fill="#333" d="M136-208V0H84v-208H4v-40h212v40h-80" id="bo"/><path fill="#333" d="M144 0l-44-69L55 0H2l70-98-66-92h53l41 62 40-62h54l-67 91 71 99h-54" id="bp"/><g id="C"><use transform="matrix(0.04938271604938272,0,0,0.04938271604938272,0,0)" xlink:href="#bl"/><use transform="matrix(0.04938271604938272,0,0,0.04938271604938272,10.814814814814815,0)" xlink:href="#aj"/><use transform="matrix(0.04938271604938272,0,0,0.04938271604938272,20.69135802469136,0)" xlink:href="#ai"/><use transform="matrix(0.04938271604938272,0,0,0.04938271604938272,26.567901234567902,0)" xlink:href="#bm"/><use transform="matrix(0.04938271604938272,0,0,0.04938271604938272,36.93827160493828,0)" xlink:href="#bn"/><use transform="matrix(0.04938271604938272,0,0,0.04938271604938272,41.87654320987655,0)" xlink:href="#aF"/><use transform="matrix(0.04938271604938272,0,0,0.04938271604938272,52.691358024691375,0)" xlink:href="#bo"/><use transform="matrix(0.04938271604938272,0,0,0.04938271604938272,62.51851851851853,0)" xlink:href="#ag"/><use transform="matrix(0.04938271604938272,0,0,0.04938271604938272,69.43209876543212,0)" xlink:href="#bp"/></g><g id="D"><use transform="matrix(0.09938271604938267,0,0,0.09938271604938267,0,0)" xlink:href="#L"/><use transform="matrix(0.09938271604938267,0,0,0.09938271604938267,23.85185185185184,0)" xlink:href="#am"/><use transform="matrix(0.09938271604938267,0,0,0.09938271604938267,49.59197530864195,0)" xlink:href="#bj"/><use transform="matrix(0.09938271604938267,0,0,0.09938271604938267,77.4191358024691,0)" xlink:href="#am"/></g><path d="M24 0v-248h195v40H76v63h132v40H76v65h150V0H24" id="bq"/><path d="M24 0v-248h52V0H24" id="br"/><path d="M175 0L67-191c6 58 2 128 3 191H24v-248h59L193-55c-6-58-2-129-3-193h46V0h-61" id="bs"/><g id="E"><use transform="matrix(0.08703703703703701,0,0,0.08703703703703701,0,0)" xlink:href="#ba"/><use transform="matrix(0.08703703703703701,0,0,0.08703703703703701,22.542592592592584,0)" xlink:href="#bq"/><use transform="matrix(0.08703703703703701,0,0,0.08703703703703701,43.43148148148147,0)" xlink:href="#L"/><use transform="matrix(0.08703703703703701,0,0,0.08703703703703701,64.32037037037036,0)" xlink:href="#br"/><use transform="matrix(0.08703703703703701,0,0,0.08703703703703701,73.02407407407405,0)" xlink:href="#bj"/><use transform="matrix(0.08703703703703701,0,0,0.08703703703703701,97.39444444444442,0)" xlink:href="#bs"/></g><path d="M24-248c93 1 206-16 204 79-1 75-69 88-152 82V0H24v-248zm52 121c47 0 100 7 100-41 0-47-54-39-100-39v80" id="bt"/><g id="F"><use transform="matrix(0.08703703703703701,0,0,0.08703703703703701,0,0)" xlink:href="#bt"/><use transform="matrix(0.08703703703703701,0,0,0.08703703703703701,18.538888888888884,0)" xlink:href="#am"/><use transform="matrix(0.08703703703703701,0,0,0.08703703703703701,38.73148148148147,0)" xlink:href="#bd"/><use transform="matrix(0.08703703703703701,0,0,0.08703703703703701,57.79259259259256,0)" xlink:href="#bd"/><use transform="matrix(0.08703703703703701,0,0,0.08703703703703701,76.85370370370367,0)" xlink:href="#bq"/><use transform="matrix(0.08703703703703701,0,0,0.08703703703703701,97.74259259259256,0)" xlink:href="#aD"/><use transform="matrix(0.08703703703703701,0,0,0.08703703703703701,120.28518518518514,0)" xlink:href="#bs"/></g><path d="M186 0v-106H76V0H24v-248h52v99h110v-99h50V0h-50" id="bu"/><path d="M140-251c80 0 125 45 125 126S219 4 139 4C58 4 15-44 15-125s44-126 125-126zm-1 214c52 0 73-35 73-88 0-50-21-86-72-86-52 0-73 35-73 86s22 88 72 88" id="bv"/><path d="M146-102V0H94v-102L6-248h54l60 105 60-105h54" id="bw"/><g id="G"><use transform="matrix(0.08703703703703701,0,0,0.08703703703703701,0,0)" xlink:href="#O"/><use transform="matrix(0.08703703703703701,0,0,0.08703703703703701,22.542592592592584,0)" xlink:href="#bu"/><use transform="matrix(0.08703703703703701,0,0,0.08703703703703701,45.08518518518517,0)" xlink:href="#bv"/><use transform="matrix(0.08703703703703701,0,0,0.08703703703703701,69.45555555555553,0)" xlink:href="#aD"/><use transform="matrix(0.08703703703703701,0,0,0.08703703703703701,91.99814814814812,0)" xlink:href="#bq"/><use transform="matrix(0.08703703703703701,0,0,0.08703703703703701,112.887037037037,0)" xlink:href="#bv"/><use transform="matrix(0.08703703703703701,0,0,0.08703703703703701,137.25740740740736,0)" xlink:href="#bj"/><use transform="matrix(0.08703703703703701,0,0,0.08703703703703701,161.6277777777777,0)" xlink:href="#aD"/><use transform="matrix(0.08703703703703701,0,0,0.08703703703703701,184.17037037037028,0)" xlink:href="#am"/><use transform="matrix(0.08703703703703701,0,0,0.08703703703703701,206.71296296296285,0)" xlink:href="#bt"/><use transform="matrix(0.08703703703703701,0,0,0.08703703703703701,227.6018518518518,0)" xlink:href="#bu"/><use transform="matrix(0.08703703703703701,0,0,0.08703703703703701,250.14444444444433,0)" xlink:href="#bw"/></g><path fill="#3a414a" d="M145-31C134-9 116 4 85 4 32 4 16-35 15-94c0-59 17-99 70-100 32-1 48 14 60 33 0-11-1-24 2-32h30l-1 268h-32zM93-21c41 0 51-33 51-76s-8-73-50-73c-40 0-46 35-46 75s5 74 45 74" id="bx"/><path fill="#3a414a" d="M84 4C-5 8 30-112 23-190h32v120c0 31 7 50 39 49 72-2 45-101 50-169h31l1 190h-30c-1-10 1-25-2-33-11 22-28 36-60 37" id="by"/><path fill="#3a414a" d="M100-194c63 0 86 42 84 106H49c0 40 14 67 53 68 26 1 43-12 49-29l28 8c-11 28-37 45-77 45C44 4 14-33 15-96c1-61 26-98 85-98zm52 81c6-60-76-77-97-28-3 7-6 17-6 28h103" id="bz"/><g id="H"><use transform="matrix(0.06172839506172839,0,0,0.06172839506172839,0,0)" xlink:href="#bx"/><use transform="matrix(0.06172839506172839,0,0,0.06172839506172839,12.345679012345679,0)" xlink:href="#by"/><use transform="matrix(0.06172839506172839,0,0,0.06172839506172839,24.691358024691358,0)" xlink:href="#bz"/><use transform="matrix(0.06172839506172839,0,0,0.06172839506172839,37.03703703703704,0)" xlink:href="#by"/><use transform="matrix(0.06172839506172839,0,0,0.06172839506172839,49.382716049382715,0)" xlink:href="#bz"/></g><path fill="#3a414a" d="M23 0v-37h61v-169l-59 37v-38l62-41h46v211h57V0H23" id="bA"/><use transform="matrix(0.06790123456790123,0,0,0.06790123456790123,0,0)" xlink:href="#bA" id="I"/><path fill="#3a414a" d="M182-182c0 78-84 86-111 141h115V0H12c-6-101 99-100 120-180 1-22-12-31-33-32-23 0-32 14-35 34l-49-3c5-45 32-70 84-70 51 0 83 22 83 69" id="bB"/><use transform="matrix(0.06790123456790123,0,0,0.06790123456790123,0,0)" xlink:href="#bB" id="J"/><path fill="#3a414a" d="M128-127c34 4 56 21 59 58 7 91-148 94-172 28-4-9-6-17-7-26l51-5c1 24 16 35 40 36 23 0 39-12 38-36-1-31-31-36-65-34v-40c32 2 59-3 59-33 0-20-13-33-34-33s-33 13-35 32l-50-3c6-44 37-68 86-68 50 0 83 20 83 66 0 35-22 52-53 58" id="bC"/><use transform="matrix(0.06790123456790123,0,0,0.06790123456790123,0,0)" xlink:href="#bC" id="K"/></defs></g></svg>