<svg xmlns="http://www.w3.org/2000/svg" xmlns:xlink="http://www.w3.org/1999/xlink" xmlns:lucid="lucid" width="1861" height="2701"><g transform="translate(200.5 920.5)" lucid:page-tab-id="OMMePRuEoSgK"><path d="M1020 616a6 6 0 0 1 6-6h608a6 6 0 0 1 6 6v248a6 6 0 0 1-6 6h-608a6 6 0 0 1-6-6z" stroke="#3a414a" fill-opacity="0"/><use xlink:href="#a" transform="matrix(1,0,0,1,1025,615) translate(284.6604938271605 127.15277777777777)"/><path d="M280 106a6 6 0 0 1 6-6h148a6 6 0 0 1 6 6v108a6 6 0 0 1-6 6H286a6 6 0 0 1-6-6z" stroke="#3a414a" fill="#fff"/><use xlink:href="#b" transform="matrix(1,0,0,1,292,112) translate(45.19135802469136 53.77777777777778)"/><path d="M1100 106a6 6 0 0 1 6-6h148a6 6 0 0 1 6 6v108a6 6 0 0 1-6 6h-148a6 6 0 0 1-6-6z" stroke="#3a414a" fill="#fff"/><use xlink:href="#c" transform="matrix(1,0,0,1,1112,112) translate(45.19135802469136 53.77777777777778)"/><path d="M441 160h642.12" stroke="#3a414a" fill="none"/><path d="M441 160.5h-.5v-1h.5z" stroke="#3a414a" stroke-width=".05" fill="#3a414a"/><path d="M1097.88 160l-14.26 4.63v-9.26z" stroke="#3a414a" fill="#3a414a"/><path d="M1099 184.53H456.9" stroke="#3a414a" fill="none"/><path d="M1099.5 185.03h-.5v-1h.5z" stroke="#3a414a" stroke-width=".05" fill="#3a414a"/><path d="M442.12 184.53l14.26-4.63v9.27z" stroke="#3a414a" fill="#3a414a"/><g stroke="#000" stroke-width="2"><path d="M653.8 220c-6.63 0-12-26.86-12-60s5.37-60 12-60h96c6.62 0 12 26.86 12 60s-5.38 60-12 60z" fill-opacity="0"/><path d="M749.8 220c-6.63 0-12-26.86-12-60s5.37-60 12-60" fill="none"/></g><path d="M280 326a6 6 0 0 1 6-6h148a6 6 0 0 1 6 6v148a6 6 0 0 1-6 6H286a6 6 0 0 1-6-6z" stroke="#3a414a" fill="#fff"/><use xlink:href="#d" transform="matrix(1,0,0,1,292,332) translate(27.907407407407412 73.02777777777777)"/><path d="M1100 326a6 6 0 0 1 6-6h148a6 6 0 0 1 6 6v148a6 6 0 0 1-6 6h-148a6 6 0 0 1-6-6z" stroke="#3a414a" fill="#fff"/><use xlink:href="#d" transform="matrix(1,0,0,1,1112,332) translate(27.907407407407412 73.02777777777777)"/><path d="M441 347.73h642.1" stroke="#3a414a" fill="none"/><path d="M441 348.23h-.5v-1h.5z" stroke="#3a414a" stroke-width=".05" fill="#3a414a"/><path d="M1097.88 347.73l-14.27 4.64.02-9.27z" stroke="#3a414a" fill="#3a414a"/><g stroke="#000" stroke-width="2"><path d="M676.44 390c-6.62 0-12-17.9-12-40s5.38-40 12-40h96c6.63 0 12 17.9 12 40s-5.37 40-12 40z" fill-opacity="0"/><path d="M772.44 390c-6.62 0-12-17.9-12-40s5.38-40 12-40" fill="none"/></g><g stroke="#000" stroke-width="2"><path d="M672 480c-6.63 0-12-17.9-12-40s5.37-40 12-40h96c6.63 0 12 17.9 12 40s-5.37 40-12 40z" fill-opacity="0"/><path d="M768 480c-6.63 0-12-17.9-12-40s5.37-40 12-40" fill="none"/></g><path d="M1099 444.8H456.9" stroke="#3a414a" fill="none"/><path d="M1099.5 445.3h-.5v-1h.5z" stroke="#3a414a" stroke-width=".05" fill="#3a414a"/><path d="M442.12 444.8l14.26-4.63v9.26z" stroke="#3a414a" fill="#3a414a"/><path d="M600 46a6 6 0 0 1 6-6h228a6 6 0 0 1 6 6v48a6 6 0 0 1-6 6H606a6 6 0 0 1-6-6z" stroke="#000" stroke-opacity="0" fill="#fff" fill-opacity="0"/><use xlink:href="#e" transform="matrix(1,0,0,1,605,45) translate(71.23456790123457 30.27777777777778)"/><path d="M600 506a6 6 0 0 1 6-6h228a6 6 0 0 1 6 6v48a6 6 0 0 1-6 6H606a6 6 0 0 1-6-6z" stroke="#000" stroke-opacity="0" fill="#fff" fill-opacity="0"/><use xlink:href="#f" transform="matrix(1,0,0,1,605,505) translate(63.82716049382715 30.27777777777778)"/><path d="M640 566a6 6 0 0 1 6-6h148a6 6 0 0 1 6 6v148a6 6 0 0 1-6 6H646a6 6 0 0 1-6-6z" stroke="#3a414a" fill="#fff"/><use xlink:href="#g" transform="matrix(1,0,0,1,645,565) translate(46.60493827160494 78.71527777777777)"/><path d="M664.44 320h111.12v36.67H664.44z" fill="#fff" fill-opacity="0"/><use xlink:href="#h" transform="matrix(1,0,0,1,669.4444444444445,325) translate(0 17.77777777777778)"/><use xlink:href="#i" transform="matrix(1,0,0,1,669.4444444444445,325) translate(53.02469135802469 17.77777777777778)"/><path d="M660 421.67h111.1v36.66H660z" fill="#fff" fill-opacity="0"/><use xlink:href="#h" transform="matrix(1,0,0,1,665,426.66666666666663) translate(0 17.77777777777778)"/><use xlink:href="#j" transform="matrix(1,0,0,1,665,426.66666666666663) translate(53.02469135802469 17.77777777777778)"/><path d="M482.22 306a6 6 0 0 1 6-6h128a6 6 0 0 1 6 6v48a6 6 0 0 1-6 6h-128a6 6 0 0 1-6-6z" stroke="#000" stroke-opacity="0" fill="#fff" fill-opacity="0"/><use xlink:href="#k" transform="matrix(1,0,0,1,487.22222222222223,305) translate(25.555555555555557 30.27777777777778)"/><path d="M320 806a6 6 0 0 1 6-6h148a6 6 0 0 1 6 6v148a6 6 0 0 1-6 6H326a6 6 0 0 1-6-6z" stroke="#3a414a" fill="#fff"/><use xlink:href="#l" transform="matrix(1,0,0,1,325,805) translate(22.62345679012345 78.71527777777777)"/><path d="M1060 686a6 6 0 0 1 6-6h148a6 6 0 0 1 6 6v148a6 6 0 0 1-6 6h-148a6 6 0 0 1-6-6z" stroke="#3a414a" fill="#fff"/><use xlink:href="#m" transform="matrix(1,0,0,1,1065,685) translate(9.012345679012341 78.71527777777777)"/><use xlink:href="#n" transform="matrix(1,0,0,1,1065,685) translate(116.2962962962963 78.71527777777777)"/><path d="M1040 986a6 6 0 0 1 6-6h148a6 6 0 0 1 6 6v148a6 6 0 0 1-6 6h-148a6 6 0 0 1-6-6z" stroke="#3a414a" fill="#fff"/><use xlink:href="#o" transform="matrix(1,0,0,1,1045,985) translate(10.864197530864189 78.71527777777777)"/><use xlink:href="#p" transform="matrix(1,0,0,1,1045,985) translate(114.44444444444444 78.71527777777777)"/><path d="M743.4 859.13H740V843.4h-25.4v15.73h-3.4V841.7c0-.94.77-1.7 1.7-1.7h28.8c.93 0 1.7.76 1.7 1.7zM725.34 863.1h3.94v3.4h-3.94v-3.4z" stroke="#fff" stroke-opacity="0" fill="#3f8624"/><path d="M727.3 856.88c-.44 0-.84-.15-1.15-.46l-14.4-13.46 2.32-2.5 13.23 12.38 13.23-12.38 2.33 2.5-14.4 13.46c-.32.3-.73.46-1.16.46z" stroke="#fff" stroke-opacity="0" fill="#3f8624"/><path d="M727.3 920c-13.24 0-27.3-3.8-27.3-10.75v-51.93c0-.42.05-.77.16-1.2.6-2.52 3.07-4.63 7.33-6.38l1.25 3.16c-3.06 1.2-4.98 2.67-5.3 4v52.35c0 3.02 9.13 7.3 23.9 7.3 14.77 0 23.9-4.28 23.9-7.3v-51.93-.42c-.32-1.33-2.24-2.8-5.3-4l1.26-3.16c4.27 1.68 6.73 3.86 7.4 6.4.04.4.1.76.1 1.18v51.93c-.1 6.96-14.17 10.75-27.4 10.75z" stroke="#fff" stroke-opacity="0" fill="#3f8624"/><path d="M727.3 866.53c-13.54 0-27.3-3.58-27.3-10.4h3.44c0 2.86 9.28 7.02 23.86 7.02s23.9-4.2 23.9-7.02h3.4c0 6.82-13.65 10.4-27.3 10.4z" stroke="#fff" stroke-opacity="0" fill="#3f8624"/><path d="M722.23 848.75h10.5c13.5 0 20.23 2.68 20.23 8.03v52.58c0 5.35-6.72 8.03-20.23 8.03h-10.5c-13.5 0-20.24-2.7-20.24-8.04v-52.58c0-5.35 6.72-8.03 20.23-8.03z" stroke="#fff" stroke-opacity="0" stroke-width=".39" fill="#fff" fill-opacity="0"/><path d="M712.67 842.1h28.9v18.03h-28.9V842.1z" stroke="#fff" stroke-opacity="0" stroke-width=".34" fill="#fff" fill-opacity="0"/><use xlink:href="#q" transform="matrix(1,0,0,1,670,929) translate(15.18518518518519 17.77777777777778)"/><use xlink:href="#r" transform="matrix(1,0,0,1,670,929) translate(52.96296296296297 17.77777777777778)"/><path d="M588.18 880.5H481v-1h107.18zm95.44 0H615.7v-1h67.92z" stroke="#3a414a" stroke-width=".05" fill="#3a414a"/><path d="M481 880.5h-.5v-1h.5z" fill="#3a414a"/><path d="M481.04 880.52h-.56v-1.04h.56zm-.52-1v.96h.47v-.96z" stroke="#3a414a" stroke-width=".05" fill="#3a414a"/><path d="M698.38 880l-14.26 4.63v-9.26z" fill="#3a414a"/><path d="M700 880l-16.38 5.32v-10.64zm-15.38 3.95l12.14-3.95-12.14-3.95z" stroke="#3a414a" stroke-width=".05" fill="#3a414a"/><use xlink:href="#s" transform="matrix(1,0,0,1,588.1807718479633,869.3333333333334) translate(0 14.222222222222223)"/><path d="M887.6 874.02l-.08 1-.24 1-.4.93-.52.87-.66.78-.78.66-.87.53-.94.38-.98.24-1 .08H771.08v-1h110l.88-.07.84-.2.8-.33.73-.45.66-.56.55-.67.45-.73.33-.8.2-.84.07-.88v-86.4h1zM1019 740.5H893.12l-.88.07-.84.2-.8.33-.73.45-.66.56-.55.67-.45.73-.33.8-.2.84-.07.88v20.2h-1V746l.08-1 .24-1 .4-.93.52-.87.66-.78.78-.66.87-.53.94-.38.98-.24 1-.08H1019z" stroke="#3a414a" stroke-width=".05" fill="#3a414a"/><path d="M1019.5 740.5h-.5v-1h.5z" fill="#3a414a"/><path d="M1019.52 740.52h-.56v-1.04h.56zm-.5-1v.96h.46v-.96z" stroke="#3a414a" stroke-width=".05" fill="#3a414a"/><path d="M770.58 884.63L756.32 880l14.26-4.63z" fill="#3a414a"/><path d="M771.08 885.32L754.7 880l16.38-5.32zM757.94 880l12.14 3.95v-7.9z" stroke="#3a414a" stroke-width=".05" fill="#3a414a"/><use xlink:href="#t" transform="matrix(1,0,0,1,871.3469385802468,766.2320209973758) translate(0 14.222222222222223)"/><path d="M887.6 1043.98l.07.88.2.84.33.8.45.73.56.66.67.55.73.45.8.33.84.2.88.07H1019v1H893.08l-1-.08-1-.24-.93-.4-.87-.52-.78-.66-.66-.78-.53-.87-.38-.94-.24-.98-.08-1v-15.12h1zm-5.48-152.13l1 .23.93.4.87.53.78.67.66.78.53.87.38.94.24 1 .08 1v109.3h-1V898.3l-.07-.9-.2-.83-.33-.8-.45-.74-.56-.65-.67-.56-.73-.45-.8-.33-.84-.2-.88-.07h-110v-1h110.04z" stroke="#3a414a" stroke-width=".05" fill="#3a414a"/><path d="M1019.5 1050.5h-.5v-1h.5z" fill="#3a414a"/><path d="M1019.52 1050.53h-.56v-1.06h.56zm-.5-1v.94h.46v-.94z" stroke="#3a414a" stroke-width=".05" fill="#3a414a"/><path d="M770.58 896.9l-14.26-4.63 14.26-4.64z" fill="#3a414a"/><path d="M771.08 897.6l-16.38-5.33 16.38-5.33zm-13.14-5.33l12.14 3.94v-7.88z" stroke="#3a414a" stroke-width=".05" fill="#3a414a"/><use xlink:href="#t" transform="matrix(1,0,0,1,871.3469385802468,1007.5653543307093) translate(0 14.222222222222223)"/><path d="M1240 686a6 6 0 0 1 6-6h148a6 6 0 0 1 6 6v148a6 6 0 0 1-6 6h-148a6 6 0 0 1-6-6z" stroke="#3a414a" fill="#fff"/><use xlink:href="#m" transform="matrix(1,0,0,1,1245,685) translate(9.012345679012341 78.71527777777777)"/><use xlink:href="#u" transform="matrix(1,0,0,1,1245,685) translate(116.2962962962963 78.71527777777777)"/><path d="M1420 686a6 6 0 0 1 6-6h148a6 6 0 0 1 6 6v148a6 6 0 0 1-6 6h-148a6 6 0 0 1-6-6z" stroke="#3a414a" fill="#fff"/><use xlink:href="#v" transform="matrix(1,0,0,1,1425,685) translate(9.012345679012341 78.71527777777777)"/><use xlink:href="#w" transform="matrix(1,0,0,1,1425,685) translate(116.2962962962963 78.71527777777777)"/><path d="M1220 986a6 6 0 0 1 6-6h148a6 6 0 0 1 6 6v148a6 6 0 0 1-6 6h-148a6 6 0 0 1-6-6z" stroke="#3a414a" fill="#fff"/><use xlink:href="#o" transform="matrix(1,0,0,1,1225,985) translate(10.864197530864189 78.71527777777777)"/><use xlink:href="#p" transform="matrix(1,0,0,1,1225,985) translate(114.44444444444444 78.71527777777777)"/><path d="M1420 986a6 6 0 0 1 6-6h148a6 6 0 0 1 6 6v148a6 6 0 0 1-6 6h-148a6 6 0 0 1-6-6z" stroke="#3a414a" fill="#fff"/><use xlink:href="#o" transform="matrix(1,0,0,1,1425,985) translate(10.864197530864189 78.71527777777777)"/><use xlink:href="#p" transform="matrix(1,0,0,1,1425,985) translate(114.44444444444444 78.71527777777777)"/><path d="M1020 926a6 6 0 0 1 6-6h608a6 6 0 0 1 6 6v248a6 6 0 0 1-6 6h-608a6 6 0 0 1-6-6z" stroke="#3a414a" fill-opacity="0"/><use xlink:href="#a" transform="matrix(1,0,0,1,1025,925) translate(284.6604938271605 127.15277777777777)"/><path d="M1147.35 895c16.57 0 30 13.43 30 30s-13.43 30-30 30h-60c-16.57 0-30-13.43-30-30s13.43-30 30-30z" stroke="#3a414a" fill="#6db1ff"/><use xlink:href="#x" transform="matrix(1,0,0,1,1062.3500000000001,900) translate(24.16666666666667 30.27777777777778)"/><path d="M1147.35 580c16.57 0 30 13.43 30 30s-13.43 30-30 30h-60c-16.57 0-30-13.43-30-30s13.43-30 30-30z" stroke="#3a414a" fill="#54c45e"/><use xlink:href="#y" transform="matrix(1,0,0,1,1062.3500000000001,585) translate(24.16666666666667 30.27777777777778)"/><path d="M240-274a6 6 0 0 1 6-6h148a6 6 0 0 1 6 6v108a6 6 0 0 1-6 6H246a6 6 0 0 1-6-6z" stroke="#3a414a" fill="#fff"/><use xlink:href="#b" transform="matrix(1,0,0,1,252,-268) translate(45.19135802469136 53.77777777777778)"/><path d="M1060-274a6 6 0 0 1 6-6h148a6 6 0 0 1 6 6v108a6 6 0 0 1-6 6h-148a6 6 0 0 1-6-6z" stroke="#3a414a" fill="#fff"/><use xlink:href="#c" transform="matrix(1,0,0,1,1072,-268) translate(45.19135802469136 53.77777777777778)"/><path d="M401-220h206.56" stroke="#3a414a" fill="none"/><path d="M401-219.5h-.5v-1h.5z" stroke="#3a414a" stroke-width=".05" fill="#3a414a"/><path d="M622.33-220l-14.27 4.63v-9.26z" stroke="#3a414a" fill="#3a414a"/><path d="M1059-220H801.32" stroke="#3a414a" fill="none"/><path d="M1059.5-219.5h-.5v-1h.5z" stroke="#3a414a" stroke-width=".05" fill="#3a414a"/><path d="M786.56-220l14.27-4.63v9.26z" stroke="#3a414a" fill="#3a414a"/><g stroke="#000" stroke-width="2"><path d="M472-180c-6.63 0-12-17.9-12-40s5.37-40 12-40h96c6.63 0 12 17.9 12 40s-5.37 40-12 40z" fill-opacity="0"/><path d="M568-180c-6.63 0-12-17.9-12-40s5.37-40 12-40" fill="none"/></g><path d="M595.56-334a6 6 0 0 1 6-6h228a6 6 0 0 1 6 6v48a6 6 0 0 1-6 6h-228a6 6 0 0 1-6-6z" stroke="#000" stroke-opacity="0" fill="#fff" fill-opacity="0"/><use xlink:href="#z" transform="matrix(1,0,0,1,600.5555555555555,-335) translate(65.03086419753086 30.27777777777778)"/><path d="M624.44-274a6 6 0 0 1 6-6h148a6 6 0 0 1 6 6v108a6 6 0 0 1-6 6h-148a6 6 0 0 1-6-6z" stroke="#3a414a" fill="#c3f7c8"/><use xlink:href="#A" transform="matrix(1,0,0,1,636.4444444444445,-268) translate(19.851851851851848 53.77777777777778)"/><use xlink:href="#B" transform="matrix(1,0,0,1,636.4444444444445,-268) translate(80.34567901234567 53.77777777777778)"/><g stroke="#000" stroke-width="2"><path d="M874.22-180c-6.62 0-12-17.9-12-40s5.38-40 12-40h96c6.63 0 12 17.9 12 40s-5.37 40-12 40z" fill-opacity="0"/><path d="M970.22-180c-6.62 0-12-17.9-12-40s5.38-40 12-40" fill="none"/></g><path d="M240-734a6 6 0 0 1 6-6h105.35a6 6 0 0 1 6 6v98a6 6 0 0 1-6 6H246a6 6 0 0 1-6-6z" stroke="#3a414a" fill="#fff"/><use xlink:href="#b" transform="matrix(1,0,0,1,252,-728) translate(24.19135802469136 47.34027777777778)"/><path d="M1102.65-734a6 6 0 0 1 6-6H1214a6 6 0 0 1 6 6v98a6 6 0 0 1-6 6h-105.35a6 6 0 0 1-6-6z" stroke="#3a414a" fill="#fff"/><use xlink:href="#c" transform="matrix(1,0,0,1,1114.65,-728) translate(24.19135802469136 47.34027777777778)"/><path d="M1039.25-684.5h-94.5l-.34.03-.3.07-.28.12-.27.16-.24.2-.2.25-.16.26-.12.28-.07.3-.06.8-.12.45-.18.43-.25.4-.3.36-.36.3-.4.25-.45.2-.46.1-.46.03H798.68v-1H939.7l.33-.03.3-.07.3-.12.27-.16.24-.2.2-.25.16-.26.12-.28.08-.3.06-.8.1-.45.2-.43.23-.4.3-.36.36-.3.4-.25.43-.2.45-.1.45-.03h94.55zm62.4 0h-30.9v-1h30.9z" stroke="#3a414a" stroke-width=".05" fill="#3a414a"/><path d="M1102.15-684.5h-.5v-1h.5z" fill="#3a414a"/><path d="M1102.17-684.48h-.56v-1.04h.58zm-.5-1v.96h.45v-.96z" stroke="#3a414a" stroke-width=".05" fill="#3a414a"/><path d="M798.18-675.37L783.9-680l14.28-4.63z" fill="#3a414a"/><path d="M798.68-674.68l-16.4-5.32 16.4-5.32zM785.53-680l12.15 3.95v-7.9z" stroke="#3a414a" stroke-width=".05" fill="#3a414a"/><use xlink:href="#t" transform="matrix(1,0,0,1,1039.2483166167876,-695.6666666666666) translate(0 14.222222222222223)"/><path d="M488.87-685.47l.45.12.44.18.4.24.36.3.3.37.25.4.18.43.1.46.07.78.08.32.12.3.16.25.2.24.24.22.27.16.28.12.3.07.34.03h114.14v1H493.38l-.45-.03-.46-.12-.44-.18-.4-.24-.36-.3-.3-.37-.25-.4-.18-.43-.1-.46-.07-.78-.07-.32-.12-.3-.17-.25-.2-.24-.23-.22-.26-.16-.3-.12-.3-.07-.32-.03h-86.42v-1h86.46zm-130.52.97v-1h16.1v1z" stroke="#3a414a" stroke-width=".05" fill="#3a414a"/><path d="M358.36-684.5h-.5v-1h.5z" fill="#3a414a"/><path d="M358.4-684.48h-.57v-1.04h.56zm-.52-1v.96h.46v-.96z" stroke="#3a414a" stroke-width=".05" fill="#3a414a"/><path d="M622.33-680l-14.27 4.63v-9.26z" fill="#3a414a"/><path d="M623.94-680l-16.38 5.32v-10.64zm-15.38 3.95L620.7-680l-12.14-3.95z" stroke="#3a414a" stroke-width=".05" fill="#3a414a"/><use xlink:href="#s" transform="matrix(1,0,0,1,374.45240768192434,-695.6666666666666) translate(0 14.222222222222223)"/><g stroke="#000" stroke-width="2"><path d="M451.73-650c-6.48 0-11.73-13.43-11.73-30s5.25-30 11.73-30h93.88c6.5 0 11.75 13.43 11.75 30s-5.25 30-11.74 30z" fill="#dfe3e8"/><path d="M545.6-650c-6.47 0-11.72-13.43-11.72-30s5.25-30 11.74-30" fill="none"/></g><path d="M595.56-794a6 6 0 0 1 6-6h228a6 6 0 0 1 6 6v48a6 6 0 0 1-6 6h-228a6 6 0 0 1-6-6z" stroke="#000" stroke-opacity="0" fill="#fff" fill-opacity="0"/><use xlink:href="#z" transform="matrix(1,0,0,1,600.5555555555555,-795) translate(65.03086419753086 30.27777777777778)"/><path d="M624.44-724a6 6 0 0 1 6-6H775.8a6 6 0 0 1 6 6v88a6 6 0 0 1-6 6H630.43a6 6 0 0 1-6-6z" stroke="#3a414a" fill="#c3f7c8"/><use xlink:href="#A" transform="matrix(1,0,0,1,636.4444444444445,-718) translate(18.851851851851848 41.52777777777778)"/><use xlink:href="#B" transform="matrix(1,0,0,1,636.4444444444445,-718) translate(79.34567901234567 41.52777777777778)"/><g stroke="#000" stroke-width="2"><path d="M888.5-655c-6.5 0-11.74-13.43-11.74-30s5.25-30 11.73-30h93.87c6.48 0 11.74 13.43 11.74 30s-5.25 30-11.73 30z" fill="#dfe3e8"/><path d="M982.37-655c-6.48 0-11.73-13.43-11.73-30s5.25-30 11.73-30" fill="none"/></g><path d="M867.05-480h-68.37" stroke="#3a414a" fill="none"/><path d="M867.55-480.02l.02.52h-.53v-1h.55z" stroke="#3a414a" stroke-width=".05" fill="#3a414a"/><path d="M783.9-480l14.28-4.63v9.26z" stroke="#3a414a" fill="#3a414a"/><path d="M299.18-486.02l.06.88.2.84.34.8.45.73.56.66.64.55.74.45.8.33.83.2.9.07h300.2v1H304.66l-1-.08-.98-.24-.95-.4-.87-.52-.77-.66-.66-.78-.54-.87-.4-.94-.23-.98-.07-1v-84.78h1zm0-106.08h-1V-629h1z" stroke="#3a414a" stroke-width=".05" fill="#3a414a"/><path d="M299.18-629h-1v-.5h1z" fill="#3a414a"/><path d="M299.2-628.96h-1.05v-.56h1.05zm-1-.5v.45h.95v-.48z" stroke="#3a414a" stroke-width=".05" fill="#3a414a"/><path d="M619.68-480l-14.27 4.63v-9.26z" fill="#3a414a"/><path d="M621.3-480l-16.4 5.32v-10.64zm-15.4 3.95l12.16-3.95-12.15-3.95z" stroke="#3a414a" stroke-width=".05" fill="#3a414a"/><use xlink:href="#t" transform="matrix(1,0,0,1,282.9219135802469,-592.0964485327831) translate(0 14.222222222222223)"/><g stroke="#000" stroke-width="2"><path d="M449.35-450c-6.63 0-12-13.43-12-30s5.37-30 12-30h96c6.63 0 12 13.43 12 30s-5.37 30-12 30z" fill="#dfe3e8"/><path d="M545.35-450c-6.63 0-12-13.43-12-30s5.37-30 12-30" fill="none"/></g><path d="M581.8-574a6 6 0 0 1 6-6h228a6 6 0 0 1 6 6v48a6 6 0 0 1-6 6h-228a6 6 0 0 1-6-6z" stroke="#000" stroke-opacity="0" fill="#fff" fill-opacity="0"/><use xlink:href="#z" transform="matrix(1,0,0,1,586.7944444444445,-575) translate(65.03086419753086 30.27777777777778)"/><path d="M621.8-534a6 6 0 0 1 6-6h148a6 6 0 0 1 6 6v108a6 6 0 0 1-6 6h-148a6 6 0 0 1-6-6z" stroke="#3a414a" fill="#c3f7c8"/><use xlink:href="#A" transform="matrix(1,0,0,1,633.7944444444445,-528) translate(19.851851851851848 53.77777777777778)"/><use xlink:href="#B" transform="matrix(1,0,0,1,633.7944444444445,-528) translate(80.34567901234567 53.77777777777778)"/><g stroke="#000" stroke-width="2"><path d="M880.3-450c-6.5 0-11.75-13.43-11.75-30s5.25-30 11.74-30h93.87c6.48 0 11.73 13.43 11.73 30s-5.25 30-11.73 30z" fill="#ced4db"/><path d="M974.17-450c-6.5 0-11.74-13.43-11.74-30s5.25-30 11.74-30" fill="none"/></g><path d="M217.35-894a6 6 0 0 1 6-6h228a6 6 0 0 1 6 6v48a6 6 0 0 1-6 6h-228a6 6 0 0 1-6-6z" stroke="#000" stroke-opacity="0" fill="#fff" fill-opacity="0"/><use xlink:href="#C" transform="matrix(1,0,0,1,222.3499999999999,-895) translate(23.209876543209873 30.27777777777778)"/><use xlink:href="#D" transform="matrix(1,0,0,1,222.3499999999999,-895) translate(115.61728395061728 30.27777777777778)"/><path d="M151.32-680c0 22.1-17.9 40-40 40s-40-17.9-40-40 17.9-40 40-40 40 17.9 40 40z" stroke="#3a414a" fill="#fff7a1"/><use xlink:href="#E" transform="matrix(1,0,0,1,76.32500000000005,-715) translate(27.592592592592595 39.65277777777778)"/><path d="M175.44-679.5h-23.12v-1h23.12zm47.68-5h-7.24v-1h7.24z" stroke="#3a414a" stroke-width=".05" fill="#3a414a"/><path d="M152.34-679.5h-.55l.03-.5-.02-.5h.54z" fill="#3a414a"/><path d="M152.36-679.48h-.6l.04-.5-.02-.54h.58zm-.53-1l.02.5-.03.46h.5v-.96z" stroke="#3a414a" stroke-width=".05" fill="#3a414a"/><path d="M237.88-685l-14.26 4.63v-9.26z" fill="#3a414a"/><path d="M239.5-685l-16.38 5.32v-10.64zm-15.38 3.95l12.14-3.95-12.14-3.95z" stroke="#3a414a" stroke-width=".05" fill="#3a414a"/><use xlink:href="#F" transform="matrix(1,0,0,1,175.44045870769975,-693.1666666666666) translate(0 14.222222222222223)"/><path d="M723.55-440c0 11.05-10.54 20-23.55 20-13 0-23.55-8.95-23.55-20S687-460 700-460c13 0 23.55 8.95 23.55 20z" stroke="#3a414a" fill="#fff7a1"/><use xlink:href="#G" transform="matrix(1,0,0,1,681.4527777777778,-455) translate(-5.413580246913575 18.11111111111111)"/><path d="M-180 76a6 6 0 0 1 6-6h108a6 6 0 0 1 6 6v228a6 6 0 0 1-6 6h-108a6 6 0 0 1-6-6z" stroke="#3a414a" fill="#dedeff"/><use xlink:href="#H" transform="matrix(1,0,0,1,-168,82) translate(19.080246913580247 112.27777777777777)"/><path d="M-60 126a6 6 0 0 1 6-6h88a6 6 0 0 1 6 6v148a6 6 0 0 1-6 6h-88a6 6 0 0 1-6-6z" stroke="#3a414a" fill="#fff"/><use xlink:href="#I" transform="matrix(1,0,0,1,-60,120) translate(21.702530864197534 82.77777777777777)"/><path d="M40 126a6 6 0 0 1 6-6h108a6 6 0 0 1 6 6v68a6 6 0 0 1-6 6H46a6 6 0 0 1-6-6z" stroke="#3a414a" fill="#fff"/><use xlink:href="#J" transform="matrix(1,0,0,1,40,120) translate(18.677839506172838 45.27777777777778)"/><path d="M40 206a6 6 0 0 1 6-6h108a6 6 0 0 1 6 6v68a6 6 0 0 1-6 6H46a6 6 0 0 1-6-6z" stroke="#3a414a" fill="#fff"/><use xlink:href="#K" transform="matrix(1,0,0,1,40,200) translate(10.035864197530858 45.27777777777778)"/><path d="M160 146a6 6 0 0 1 6-6h88a6 6 0 0 1 6 6v28a6 6 0 0 1-6 6h-88a6 6 0 0 1-6-6z" stroke="#3a414a" fill="#fff"/><use xlink:href="#L" transform="matrix(1,0,0,1,160,140) translate(16.085246913580242 25.27777777777778)"/><path d="M740-655c0 8.28-15.66 15-35 15-19.3 0-34.98-6.72-34.98-15 0-8.28 15.67-15 35-15 19.32 0 34.98 6.72 34.98 15z" stroke="#3a414a" fill="#fff7a1"/><use xlink:href="#M" transform="matrix(1,0,0,1,675.0208333333334,-665) translate(2.098765432098766 14.222222222222221)"/><path d="M792.88-632.9h-10.65v-1h10.65zm31.96 0h-21.3v-1h21.3zm31.97 0h-21.3v-1h21.3zm31.97 0h-21.3v-1h21.3zm29.3 0h-18.65v-1h18.65zm91.4-.25h-19.2v-1h19.2zm28.78 0h-19.2v-1h19.2zm28.8 0h-19.2v-1h19.2zm19.17 0h-9.6v-1h9.6zm-105.54 0h-14.4v-1h14.4z" stroke="#979ea8" stroke-width=".05" fill="#979ea8"/><path d="M782.24-632.9h-.75l.1-.15.33-.84h.3z" fill="#979ea8"/><path d="M782.27-632.86h-.82l.12-.2.35-.85h.35zm-.32-1l-.34.82-.07.13h.7v-.96z" stroke="#979ea8" stroke-width=".05" fill="#979ea8"/><path d="M1101-633.65L1086.7-629v-9.28z" fill="#979ea8"/><path d="M1102.6-633.65l-16.38 5.32v-10.64zm-15.38 3.95l12.15-3.95-12.14-3.95z" stroke="#979ea8" stroke-width=".05" fill="#979ea8"/><use xlink:href="#N" transform="matrix(1,0,0,1,918.0697313813924,-644.185047297172) translate(0 14.222222222222223)"/><path d="M1040 666a6 6 0 0 1 6-6h548a6 6 0 0 1 6 6v188a6 6 0 0 1-6 6h-548a6 6 0 0 1-6-6z" stroke="#3a414a" fill-opacity="0"/><use xlink:href="#O" transform="matrix(1,0,0,1,1045,665) translate(254.6604938271605 100.90277777777777)"/><path d="M1117.04-479.5H987.4v-1h129.64zm44.8-6.48l-.1 1-.23 1-.38.93-.53.87-.68.78-.77.66-.87.53-.95.38-1 .24-.98.08h-10.8v-1h10.76l.88-.07.84-.2.8-.33.74-.45.65-.56.57-.67.45-.73.33-.8.2-.84.08-.88V-629h1z" stroke="#3a414a" stroke-width=".05" fill="#3a414a"/><path d="M1161.83-629h-1v-.5h1z" fill="#3a414a"/><path d="M1161.85-628.96h-1.05v-.56h1.05zm-1-.5v.45h.95v-.48z" stroke="#3a414a" stroke-width=".05" fill="#3a414a"/><path d="M987.4-479.5h-.54l.04-.48-.02-.52h.53z" fill="#3a414a"/><path d="M987.44-479.48h-.6l.04-.5-.02-.54h.58zm-.53-1l.03.5-.04.46h.5v-.96z" stroke="#3a414a" stroke-width=".05" fill="#3a414a"/><use xlink:href="#s" transform="matrix(1,0,0,1,1117.040900153677,-490.6666666666666) translate(0 14.222222222222223)"/><path d="M1160-614a6 6 0 0 1 6-6h168a6 6 0 0 1 6 6v48a6 6 0 0 1-6 6h-168a6 6 0 0 1-6-6z" fill="#fff" fill-opacity="0"/><use xlink:href="#P" transform="matrix(1,0,0,1,1165,-615) translate(0 12.444444444444446)"/><use xlink:href="#Q" transform="matrix(1,0,0,1,1165,-615) translate(36.25308641975309 12.444444444444446)"/><use xlink:href="#R" transform="matrix(1,0,0,1,1165,-615) translate(0 31.111111111111118)"/><use xlink:href="#S" transform="matrix(1,0,0,1,1165,-615) translate(37.11728395061729 31.111111111111118)"/><use xlink:href="#T" transform="matrix(1,0,0,1,1165,-615) translate(50.080246913580254 31.111111111111118)"/><use xlink:href="#U" transform="matrix(1,0,0,1,1165,-615) translate(97.61111111111111 31.111111111111118)"/><path d="M502.22 1446a6 6 0 0 1 6-6h108a6 6 0 0 1 6 6v308a6 6 0 0 1-6 6h-108a6 6 0 0 1-6-6z" stroke="#3a414a" fill="#fff"/><use xlink:href="#V" transform="matrix(1,0,0,1,507.2222222222222,1445) translate(21.327160493827165 158.24652777777777)"/><path d="M640 1446a6 6 0 0 1 6-6h48a6 6 0 0 1 6 6v28a6 6 0 0 1-6 6h-48a6 6 0 0 1-6-6z" stroke="#3a414a" fill="#fff"/><use xlink:href="#W" transform="matrix(1,0,0,1,645,1445) translate(11.419753086419753 19.65277777777778)"/><path d="M640 1486a6 6 0 0 1 6-6h48a6 6 0 0 1 6 6v28a6 6 0 0 1-6 6h-48a6 6 0 0 1-6-6z" stroke="#3a414a" fill="#fff"/><use xlink:href="#X" transform="matrix(1,0,0,1,645,1485) translate(11.419753086419753 19.65277777777778)"/><path d="M640 1526a6 6 0 0 1 6-6h48a6 6 0 0 1 6 6v28a6 6 0 0 1-6 6h-48a6 6 0 0 1-6-6z" stroke="#3a414a" fill="#fff"/><use xlink:href="#Y" transform="matrix(1,0,0,1,645,1525) translate(11.419753086419753 19.65277777777778)"/><path d="M640 1566a6 6 0 0 1 6-6h48a6 6 0 0 1 6 6v28a6 6 0 0 1-6 6h-48a6 6 0 0 1-6-6z" stroke="#3a414a" fill="#fff"/><use xlink:href="#Z" transform="matrix(1,0,0,1,645,1565) translate(11.419753086419753 19.65277777777778)"/><path d="M640 1606a6 6 0 0 1 6-6h48a6 6 0 0 1 6 6v28a6 6 0 0 1-6 6h-48a6 6 0 0 1-6-6z" stroke="#3a414a" fill="#fff"/><use xlink:href="#aa" transform="matrix(1,0,0,1,645,1605) translate(11.419753086419753 19.65277777777778)"/><path d="M640 1646a6 6 0 0 1 6-6h48a6 6 0 0 1 6 6v28a6 6 0 0 1-6 6h-48a6 6 0 0 1-6-6z" stroke="#3a414a" fill="#fff"/><use xlink:href="#ab" transform="matrix(1,0,0,1,645,1645) translate(11.419753086419753 19.65277777777778)"/><path d="M640 1686a6 6 0 0 1 6-6h48a6 6 0 0 1 6 6v28a6 6 0 0 1-6 6h-48a6 6 0 0 1-6-6z" stroke="#3a414a" fill="#fff"/><use xlink:href="#ac" transform="matrix(1,0,0,1,645,1685) translate(11.419753086419753 19.65277777777778)"/><path d="M640 1726a6 6 0 0 1 6-6h48a6 6 0 0 1 6 6v28a6 6 0 0 1-6 6h-48a6 6 0 0 1-6-6z" stroke="#3a414a" fill="#fff"/><use xlink:href="#ad" transform="matrix(1,0,0,1,645,1725) translate(11.419753086419753 19.65277777777778)"/><path d="M701 1460h142.62" stroke="#3a414a" fill="none"/><path d="M701 1460.5h-.5v-1h.5z" stroke="#3a414a" stroke-width=".05" fill="#3a414a"/><path d="M858.38 1460l-14.26 4.63v-9.27z" stroke="#3a414a" fill="#3a414a"/><path d="M883.75 1440.23h-19.7c-.85 0-1.55.47-1.55 1.06v29c0 .6.7 1.06 1.56 1.06h34.12c.86 0 1.53-.47 1.53-1.06v-19.2c0-.6-.66-1.06-1.52-1.06h-11.35c-.85 0-1.52-.47-1.52-1.06v-7.7-.02c0-.56-.7-1.03-1.55-1.03z" stroke="#000" stroke-opacity="0" fill="#fff"/><path d="M883.04 1441.58v7.3c0 1.48 1.74 2.65 3.9 2.7h10.72V1470h-33.1v-28.44h18.48m.72-1.58H863.8c-.86 0-1.58.47-1.58 1.07v29.46c0 .6.72 1.07 1.6 1.07h34.6c.86 0 1.58-.47 1.58-1.07v-19.5c0-.6-.72-1.08-1.6-1.08h-11.47c-.87 0-1.6-.47-1.6-1.07v-7.8c0-.6-.67-1.08-1.57-1.08z" stroke="#000" stroke-opacity="0" fill="url(#ae)"/><path d="M899.4 1450.16l-14.6-9.93v8.1c0 1 1.2 1.82 2.67 1.83z" stroke="#000" stroke-opacity="0" fill="#0078d4"/><path d="M869.8 1454.38h22.6c1.04 0 1.56.35 1.56 1.06v.23c0 .7-.52 1.06-1.55 1.06h-22.6c-1.02 0-1.53-.35-1.53-1.06v-.23c0-.7.5-1.06 1.54-1.06zM869.8 1458.6h22.6c1.04 0 1.56.37 1.56 1.07v.24c0 .7-.52 1.07-1.55 1.07h-22.6c-1.02 0-1.53-.36-1.53-1.06v-.23c0-.7.5-1.06 1.54-1.06zM869.82 1462.82h13.1c1.04 0 1.55.35 1.55 1.06v.23c0 .72-.5 1.07-1.55 1.07h-13.1c-1.04 0-1.55-.35-1.55-1.06v-.22c0-.7.5-1.07 1.55-1.07z" stroke="#000" stroke-opacity="0" fill="#5ea0ef"/><path d="M900 1450.2a6 6 0 0 1 6-6h73.9a6 6 0 0 1 6 6v19.6a6 6 0 0 1-6 6H906a6 6 0 0 1-6-6z" fill="#fff" fill-opacity="0"/><use xlink:href="#af" transform="matrix(1,0,0,1,905,1449.2) translate(0 14.4)"/><use xlink:href="#ag" transform="matrix(1,0,0,1,905,1449.2) translate(42.95 14.4)"/><use xlink:href="#ah" transform="matrix(1,0,0,1,905,1449.2) translate(53.900000000000006 14.4)"/><path d="M701 1500h142.62M701 1500h-.5" stroke="#3a414a" fill="none"/><path d="M858.38 1500l-14.26 4.63v-9.27z" stroke="#3a414a" fill="#3a414a"/><path d="M883.75 1480.23h-19.7c-.85 0-1.55.47-1.55 1.06v29c0 .6.7 1.06 1.56 1.06h34.12c.86 0 1.53-.47 1.53-1.06v-19.2c0-.6-.66-1.06-1.52-1.06h-11.35c-.85 0-1.52-.47-1.52-1.06v-7.7-.02c0-.56-.7-1.03-1.55-1.03z" stroke="#000" stroke-opacity="0" fill="#fff"/><path d="M883.04 1481.58v7.3c0 1.48 1.74 2.65 3.9 2.7h10.72V1510h-33.1v-28.44h18.48m.72-1.58H863.8c-.86 0-1.58.47-1.58 1.07v29.46c0 .6.72 1.07 1.6 1.07h34.6c.86 0 1.58-.47 1.58-1.07v-19.5c0-.6-.72-1.08-1.6-1.08h-11.47c-.87 0-1.6-.47-1.6-1.07v-7.8c0-.6-.67-1.08-1.57-1.08z" stroke="#000" stroke-opacity="0" fill="url(#ai)"/><path d="M899.4 1490.16l-14.6-9.93v8.1c0 1 1.2 1.82 2.67 1.83z" stroke="#000" stroke-opacity="0" fill="#0078d4"/><path d="M869.8 1494.38h22.6c1.04 0 1.56.35 1.56 1.06v.23c0 .7-.52 1.06-1.55 1.06h-22.6c-1.02 0-1.53-.35-1.53-1.06v-.23c0-.7.5-1.06 1.54-1.06zM869.8 1498.6h22.6c1.04 0 1.56.37 1.56 1.07v.24c0 .7-.52 1.07-1.55 1.07h-22.6c-1.02 0-1.53-.36-1.53-1.06v-.23c0-.7.5-1.06 1.54-1.06zM869.82 1502.82h13.1c1.04 0 1.55.35 1.55 1.06v.23c0 .72-.5 1.07-1.55 1.07h-13.1c-1.04 0-1.55-.35-1.55-1.06v-.22c0-.7.5-1.07 1.55-1.07z" stroke="#000" stroke-opacity="0" fill="#5ea0ef"/><path d="M900 1490.2a6 6 0 0 1 6-6h73.9a6 6 0 0 1 6 6v41.2a6 6 0 0 1-6 6H906a6 6 0 0 1-6-6z" fill="#fff" fill-opacity="0"/><use xlink:href="#af" transform="matrix(1,0,0,1,905,1489.2) translate(0 14.4)"/><use xlink:href="#ag" transform="matrix(1,0,0,1,905,1489.2) translate(42.95 14.4)"/><use xlink:href="#aj" transform="matrix(1,0,0,1,905,1489.2) translate(53.900000000000006 14.4)"/><path d="M701 1535.8h142.62M701 1535.8h-.5" stroke="#3a414a" fill="none"/><path d="M858.38 1535.8l-14.26 4.63v-9.27z" stroke="#3a414a" fill="#3a414a"/><path d="M883.75 1516.04h-19.7c-.85 0-1.55.46-1.55 1.05v29c0 .6.7 1.06 1.56 1.06h34.12c.86 0 1.53-.47 1.53-1.06v-19.2c0-.6-.66-1.06-1.52-1.06h-11.35c-.85 0-1.52-.47-1.52-1.06v-7.7-.02c0-.56-.7-1.02-1.55-1.02z" stroke="#000" stroke-opacity="0" fill="#fff"/><path d="M883.04 1517.38v7.3c0 1.48 1.74 2.65 3.9 2.7h10.72v18.44h-33.1v-28.44h18.48m.72-1.58H863.8c-.86 0-1.58.47-1.58 1.07v29.46c0 .6.72 1.07 1.6 1.07h34.6c.86 0 1.58-.47 1.58-1.07v-19.5c0-.6-.72-1.08-1.6-1.08h-11.47c-.87 0-1.6-.47-1.6-1.07v-7.8c0-.6-.67-1.08-1.57-1.08z" stroke="#000" stroke-opacity="0" fill="url(#ak)"/><path d="M899.4 1525.96l-14.6-9.92v8.08c0 1 1.2 1.83 2.67 1.84z" stroke="#000" stroke-opacity="0" fill="#0078d4"/><path d="M869.8 1530.18h22.6c1.04 0 1.56.35 1.56 1.06v.23c0 .7-.52 1.06-1.55 1.06h-22.6c-1.02 0-1.53-.35-1.53-1.06v-.23c0-.7.5-1.06 1.54-1.06zM869.8 1534.4h22.6c1.04 0 1.56.37 1.56 1.07v.24c0 .7-.52 1.07-1.55 1.07h-22.6c-1.02 0-1.53-.36-1.53-1.06v-.23c0-.7.5-1.06 1.54-1.06zM869.82 1538.62h13.1c1.04 0 1.55.35 1.55 1.06v.23c0 .72-.5 1.07-1.55 1.07h-13.1c-1.04 0-1.55-.35-1.55-1.06v-.23c0-.7.5-1.06 1.55-1.06z" stroke="#000" stroke-opacity="0" fill="#5ea0ef"/><path d="M900 1526a6 6 0 0 1 6-6h73.9a6 6 0 0 1 6 6v19.6a6 6 0 0 1-6 6H906a6 6 0 0 1-6-6z" fill="#fff" fill-opacity="0"/><use xlink:href="#af" transform="matrix(1,0,0,1,904.9999999999999,1525) translate(0 14.4)"/><use xlink:href="#ag" transform="matrix(1,0,0,1,904.9999999999999,1525) translate(42.95 14.4)"/><use xlink:href="#al" transform="matrix(1,0,0,1,904.9999999999999,1525) translate(53.900000000000006 14.4)"/><path d="M701 1575.8h142.62M701 1575.8h-.5" stroke="#3a414a" fill="none"/><path d="M858.38 1575.8l-14.26 4.63v-9.27z" stroke="#3a414a" fill="#3a414a"/><path d="M883.75 1556.04h-19.7c-.85 0-1.55.46-1.55 1.05v29c0 .6.7 1.06 1.56 1.06h34.12c.86 0 1.53-.47 1.53-1.06v-19.2c0-.6-.66-1.06-1.52-1.06h-11.35c-.85 0-1.52-.47-1.52-1.06v-7.7-.02c0-.56-.7-1.02-1.55-1.02z" stroke="#000" stroke-opacity="0" fill="#fff"/><path d="M883.04 1557.38v7.3c0 1.48 1.74 2.65 3.9 2.7h10.72v18.44h-33.1v-28.44h18.48m.72-1.58H863.8c-.86 0-1.58.47-1.58 1.07v29.46c0 .6.72 1.07 1.6 1.07h34.6c.86 0 1.58-.47 1.58-1.07v-19.5c0-.6-.72-1.08-1.6-1.08h-11.47c-.87 0-1.6-.47-1.6-1.07v-7.8c0-.6-.67-1.08-1.57-1.08z" stroke="#000" stroke-opacity="0" fill="url(#am)"/><path d="M899.4 1565.96l-14.6-9.92v8.08c0 1 1.2 1.83 2.67 1.84z" stroke="#000" stroke-opacity="0" fill="#0078d4"/><path d="M869.8 1570.18h22.6c1.04 0 1.56.35 1.56 1.06v.23c0 .7-.52 1.06-1.55 1.06h-22.6c-1.02 0-1.53-.35-1.53-1.06v-.23c0-.7.5-1.06 1.54-1.06zM869.8 1574.4h22.6c1.04 0 1.56.37 1.56 1.07v.24c0 .7-.52 1.07-1.55 1.07h-22.6c-1.02 0-1.53-.36-1.53-1.06v-.23c0-.7.5-1.06 1.54-1.06zM869.82 1578.62h13.1c1.04 0 1.55.35 1.55 1.06v.23c0 .72-.5 1.07-1.55 1.07h-13.1c-1.04 0-1.55-.35-1.55-1.06v-.23c0-.7.5-1.06 1.55-1.06z" stroke="#000" stroke-opacity="0" fill="#5ea0ef"/><path d="M900 1566a6 6 0 0 1 6-6h73.9a6 6 0 0 1 6 6v19.6a6 6 0 0 1-6 6H906a6 6 0 0 1-6-6z" fill="#fff" fill-opacity="0"/><use xlink:href="#af" transform="matrix(1,0,0,1,904.9999999999999,1565) translate(0 14.4)"/><use xlink:href="#ag" transform="matrix(1,0,0,1,904.9999999999999,1565) translate(42.95 14.4)"/><use xlink:href="#ah" transform="matrix(1,0,0,1,904.9999999999999,1565) translate(53.900000000000006 14.4)"/><path d="M701 1622.1h142.62M701 1622.1h-.5" stroke="#3a414a" fill="none"/><path d="M858.38 1622.1l-14.26 4.63v-9.27z" stroke="#3a414a" fill="#3a414a"/><path d="M883.75 1602.34h-19.7c-.85 0-1.55.46-1.55 1.05v29c0 .6.7 1.06 1.56 1.06h34.12c.86 0 1.53-.47 1.53-1.06v-19.2c0-.6-.66-1.06-1.52-1.06h-11.35c-.85 0-1.52-.47-1.52-1.06v-7.7-.02c0-.56-.7-1.02-1.55-1.02z" stroke="#000" stroke-opacity="0" fill="#fff"/><path d="M883.04 1603.68v7.3c0 1.48 1.74 2.65 3.9 2.7h10.72v18.44h-33.1v-28.44h18.48m.72-1.58H863.8c-.86 0-1.58.47-1.58 1.07v29.46c0 .6.72 1.07 1.6 1.07h34.6c.86 0 1.58-.47 1.58-1.07v-19.5c0-.6-.72-1.08-1.6-1.08h-11.47c-.87 0-1.6-.47-1.6-1.07v-7.8c0-.6-.67-1.08-1.57-1.08z" stroke="#000" stroke-opacity="0" fill="url(#an)"/><path d="M899.4 1612.26l-14.6-9.92v8.08c0 1 1.2 1.83 2.67 1.84z" stroke="#000" stroke-opacity="0" fill="#0078d4"/><path d="M869.8 1616.48h22.6c1.04 0 1.56.35 1.56 1.06v.23c0 .7-.52 1.06-1.55 1.06h-22.6c-1.02 0-1.53-.35-1.53-1.06v-.23c0-.7.5-1.06 1.54-1.06zM869.8 1620.7h22.6c1.04 0 1.56.37 1.56 1.07v.24c0 .7-.52 1.07-1.55 1.07h-22.6c-1.02 0-1.53-.36-1.53-1.06v-.23c0-.7.5-1.06 1.54-1.06zM869.82 1624.9h13.1c1.04 0 1.55.37 1.55 1.07v.24c0 .72-.5 1.07-1.55 1.07h-13.1c-1.04 0-1.55-.35-1.55-1.06v-.23c0-.7.5-1.06 1.55-1.06z" stroke="#000" stroke-opacity="0" fill="#5ea0ef"/><path d="M900 1612.3a6 6 0 0 1 6-6h73.9a6 6 0 0 1 6 6v19.6a6 6 0 0 1-6 6H906a6 6 0 0 1-6-6z" fill="#fff" fill-opacity="0"/><use xlink:href="#af" transform="matrix(1,0,0,1,904.9999999999999,1611.3) translate(0 14.4)"/><use xlink:href="#ag" transform="matrix(1,0,0,1,904.9999999999999,1611.3) translate(42.95 14.4)"/><use xlink:href="#ah" transform="matrix(1,0,0,1,904.9999999999999,1611.3) translate(53.900000000000006 14.4)"/><path d="M701 1657.9h142.62M701 1657.9h-.5" stroke="#3a414a" fill="none"/><path d="M858.38 1657.9l-14.26 4.63v-9.26z" stroke="#3a414a" fill="#3a414a"/><path d="M883.75 1638.13h-19.7c-.85 0-1.55.47-1.55 1.06v29c0 .6.7 1.06 1.56 1.06h34.12c.86 0 1.53-.47 1.53-1.06V1649c0-.6-.66-1.06-1.52-1.06h-11.35c-.85 0-1.52-.47-1.52-1.06v-7.7-.02c0-.56-.7-1.03-1.55-1.03z" stroke="#000" stroke-opacity="0" fill="#fff"/><path d="M883.04 1639.48v7.3c0 1.5 1.74 2.65 3.9 2.7h10.72v18.44h-33.1v-28.44h18.48m.72-1.58H863.8c-.86 0-1.58.47-1.58 1.07v29.46c0 .6.72 1.07 1.6 1.07h34.6c.86 0 1.58-.47 1.58-1.07v-19.5c0-.6-.72-1.08-1.6-1.08h-11.47c-.87 0-1.6-.47-1.6-1.07v-7.8c0-.6-.67-1.08-1.57-1.08z" stroke="#000" stroke-opacity="0" fill="url(#ao)"/><path d="M899.4 1648.06l-14.6-9.92v8.08c0 1 1.2 1.83 2.67 1.84z" stroke="#000" stroke-opacity="0" fill="#0078d4"/><path d="M869.8 1652.28h22.6c1.04 0 1.56.35 1.56 1.06v.23c0 .7-.52 1.06-1.55 1.06h-22.6c-1.02 0-1.53-.35-1.53-1.06v-.23c0-.7.5-1.06 1.54-1.06zM869.8 1656.5h22.6c1.04 0 1.56.37 1.56 1.07v.24c0 .7-.52 1.07-1.55 1.07h-22.6c-1.02 0-1.53-.36-1.53-1.06v-.23c0-.7.5-1.06 1.54-1.06zM869.82 1660.7h13.1c1.04 0 1.55.37 1.55 1.08v.23c0 .72-.5 1.07-1.55 1.07h-13.1c-1.04 0-1.55-.35-1.55-1.06v-.22c0-.7.5-1.07 1.55-1.07z" stroke="#000" stroke-opacity="0" fill="#5ea0ef"/><path d="M900 1648.1a6 6 0 0 1 6-6h73.9a6 6 0 0 1 6 6v19.6a6 6 0 0 1-6 6H906a6 6 0 0 1-6-6z" fill="#fff" fill-opacity="0"/><g><use xlink:href="#af" transform="matrix(1,0,0,1,904.9999999999999,1647.1) translate(0 14.4)"/><use xlink:href="#ag" transform="matrix(1,0,0,1,904.9999999999999,1647.1) translate(42.95 14.4)"/><use xlink:href="#ah" transform="matrix(1,0,0,1,904.9999999999999,1647.1) translate(53.900000000000006 14.4)"/></g><path d="M701 1702.1h142.62M701 1702.1h-.5" stroke="#3a414a" fill="none"/><path d="M858.38 1702.1l-14.26 4.63v-9.27z" stroke="#3a414a" fill="#3a414a"/><path d="M883.75 1682.34h-19.7c-.85 0-1.55.46-1.55 1.05v29c0 .6.7 1.06 1.56 1.06h34.12c.86 0 1.53-.47 1.53-1.06v-19.2c0-.6-.66-1.06-1.52-1.06h-11.35c-.85 0-1.52-.47-1.52-1.06v-7.7-.02c0-.56-.7-1.02-1.55-1.02z" stroke="#000" stroke-opacity="0" fill="#fff"/><path d="M883.04 1683.68v7.3c0 1.48 1.74 2.65 3.9 2.7h10.72v18.44h-33.1v-28.44h18.48m.72-1.58H863.8c-.86 0-1.58.47-1.58 1.07v29.46c0 .6.72 1.07 1.6 1.07h34.6c.86 0 1.58-.47 1.58-1.07v-19.5c0-.6-.72-1.08-1.6-1.08h-11.47c-.87 0-1.6-.47-1.6-1.07v-7.8c0-.6-.67-1.08-1.57-1.08z" stroke="#000" stroke-opacity="0" fill="url(#ap)"/><path d="M899.4 1692.26l-14.6-9.92v8.08c0 1 1.2 1.83 2.67 1.84z" stroke="#000" stroke-opacity="0" fill="#0078d4"/><path d="M869.8 1696.48h22.6c1.04 0 1.56.35 1.56 1.06v.23c0 .7-.52 1.06-1.55 1.06h-22.6c-1.02 0-1.53-.35-1.53-1.06v-.23c0-.7.5-1.06 1.54-1.06zM869.8 1700.7h22.6c1.04 0 1.56.37 1.56 1.07v.24c0 .7-.52 1.07-1.55 1.07h-22.6c-1.02 0-1.53-.36-1.53-1.06v-.23c0-.7.5-1.06 1.54-1.06zM869.82 1704.9h13.1c1.04 0 1.55.37 1.55 1.07v.24c0 .72-.5 1.07-1.55 1.07h-13.1c-1.04 0-1.55-.35-1.55-1.06v-.23c0-.7.5-1.06 1.55-1.06z" stroke="#000" stroke-opacity="0" fill="#5ea0ef"/><path d="M900 1692.3a6 6 0 0 1 6-6h73.9a6 6 0 0 1 6 6v19.6a6 6 0 0 1-6 6H906a6 6 0 0 1-6-6z" fill="#fff" fill-opacity="0"/><g><use xlink:href="#af" transform="matrix(1,0,0,1,904.9999999999999,1691.3) translate(0 14.4)"/><use xlink:href="#ag" transform="matrix(1,0,0,1,904.9999999999999,1691.3) translate(42.95 14.4)"/><use xlink:href="#ah" transform="matrix(1,0,0,1,904.9999999999999,1691.3) translate(53.900000000000006 14.4)"/></g><path d="M700.5 1737.9h142.62M700.5 1737.9h-.5" stroke="#3a414a" fill="none"/><path d="M857.88 1737.9l-14.26 4.63v-9.26z" stroke="#3a414a" fill="#3a414a"/><path d="M883.25 1718.13h-19.7c-.85 0-1.55.47-1.55 1.06v29c0 .6.7 1.06 1.56 1.06h34.12c.86 0 1.53-.47 1.53-1.06V1729c0-.6-.66-1.06-1.52-1.06h-11.35c-.85 0-1.52-.47-1.52-1.06v-7.7-.02c0-.56-.7-1.03-1.55-1.03z" stroke="#000" stroke-opacity="0" fill="#fff"/><path d="M882.54 1719.48v7.3c0 1.5 1.74 2.65 3.9 2.7h10.72v18.44h-33.1v-28.44h18.48m.72-1.58H863.3c-.86 0-1.58.47-1.58 1.07v29.46c0 .6.72 1.07 1.6 1.07h34.6c.86 0 1.58-.47 1.58-1.07v-19.5c0-.6-.72-1.08-1.6-1.08h-11.47c-.87 0-1.6-.47-1.6-1.07v-7.8c0-.6-.67-1.08-1.57-1.08z" stroke="#000" stroke-opacity="0" fill="url(#aq)"/><path d="M898.9 1728.06l-14.6-9.92v8.08c0 1 1.2 1.83 2.67 1.84z" stroke="#000" stroke-opacity="0" fill="#0078d4"/><path d="M869.3 1732.28h22.6c1.04 0 1.56.35 1.56 1.06v.23c0 .7-.52 1.06-1.55 1.06h-22.6c-1.02 0-1.53-.35-1.53-1.06v-.23c0-.7.5-1.06 1.54-1.06zM869.3 1736.5h22.6c1.04 0 1.56.37 1.56 1.07v.24c0 .7-.52 1.07-1.55 1.07h-22.6c-1.02 0-1.53-.36-1.53-1.06v-.23c0-.7.5-1.06 1.54-1.06zM869.32 1740.7h13.1c1.04 0 1.55.37 1.55 1.08v.23c0 .72-.5 1.07-1.55 1.07h-13.1c-1.04 0-1.55-.35-1.55-1.06v-.22c0-.7.5-1.07 1.55-1.07z" stroke="#000" stroke-opacity="0" fill="#5ea0ef"/><path d="M899.5 1728.1a6 6 0 0 1 6-6h73.9a6 6 0 0 1 6 6v19.6a6 6 0 0 1-6 6h-73.9a6 6 0 0 1-6-6z" fill="#fff" fill-opacity="0"/><g><use xlink:href="#af" transform="matrix(1,0,0,1,904.5000499999968,1727.1) translate(0 14.4)"/><use xlink:href="#ag" transform="matrix(1,0,0,1,904.5000499999968,1727.1) translate(42.95 14.4)"/><use xlink:href="#ar" transform="matrix(1,0,0,1,904.5000499999968,1727.1) translate(53.900000000000006 14.4)"/></g><path d="M240-794a6 6 0 0 1 6-6h228a6 6 0 0 1 6 6v42.67a6 6 0 0 1-6 6H246a6 6 0 0 1-6-6z" fill="#fff" fill-opacity="0"/><g><use xlink:href="#as" transform="matrix(1,0,0,1,245,-795) translate(0 12.444444444444446)"/><use xlink:href="#at" transform="matrix(1,0,0,1,245,-795) translate(54.31481481481482 12.444444444444446)"/><use xlink:href="#R" transform="matrix(1,0,0,1,245,-795) translate(169.03703703703704 12.444444444444446)"/><use xlink:href="#au" transform="matrix(1,0,0,1,245,-795) translate(206.15432098765433 12.444444444444446)"/><use xlink:href="#T" transform="matrix(1,0,0,1,245,-795) translate(0 31.111111111111118)"/><use xlink:href="#av" transform="matrix(1,0,0,1,245,-795) translate(47.53086419753087 31.111111111111118)"/><use xlink:href="#aw" transform="matrix(1,0,0,1,245,-795) translate(73.41358024691358 31.111111111111118)"/><use xlink:href="#U" transform="matrix(1,0,0,1,245,-795) translate(120.94444444444446 31.111111111111118)"/></g><path d="M200-624a6 6 0 0 1 6-6h112.87a6 6 0 0 1 6 6v18a6 6 0 0 1-6 6H206a6 6 0 0 1-6-6z" fill="#fff" fill-opacity="0"/><g><use xlink:href="#ax" transform="matrix(1,0,0,1,205,-625) translate(0 12.444444444444446)"/></g><defs><path fill="#3a414a" d="M127-220V0H93v-220H8v-28h204v28h-85" id="ay"/><path fill="#3a414a" d="M100-194c63 0 86 42 84 106H49c0 40 14 67 53 68 26 1 43-12 49-29l28 8c-11 28-37 45-77 45C44 4 14-33 15-96c1-61 26-98 85-98zm52 81c6-60-76-77-97-28-3 7-6 17-6 28h103" id="az"/><path fill="#3a414a" d="M141 0L90-78 38 0H4l68-98-65-92h35l48 74 47-74h35l-64 92 68 98h-35" id="aA"/><path fill="#3a414a" d="M59-47c-2 24 18 29 38 22v24C64 9 27 4 27-40v-127H5v-23h24l9-43h21v43h35v23H59v120" id="aB"/><g id="a"><use transform="matrix(0.06172839506172839,0,0,0.06172839506172839,0,0)" xlink:href="#ay"/><use transform="matrix(0.06172839506172839,0,0,0.06172839506172839,11.049382716049381,0)" xlink:href="#az"/><use transform="matrix(0.06172839506172839,0,0,0.06172839506172839,23.39506172839506,0)" xlink:href="#aA"/><use transform="matrix(0.06172839506172839,0,0,0.06172839506172839,34.50617283950617,0)" xlink:href="#aB"/></g><path fill="#3a414a" d="M240 0l2-218c-23 76-54 145-80 218h-23L58-218 59 0H30v-248h44l77 211c21-75 51-140 76-211h43V0h-30" id="aC"/><path fill="#3a414a" d="M185-189c-5-48-123-54-124 2 14 75 158 14 163 119 3 78-121 87-175 55-17-10-28-26-33-46l33-7c5 56 141 63 141-1 0-78-155-14-162-118-5-82 145-84 179-34 5 7 8 16 11 25" id="aD"/><path fill="#3a414a" d="M27 0v-27h64v-190l-56 39v-29l58-41h29v221h61V0H27" id="aE"/><g id="b"><use transform="matrix(0.06172839506172839,0,0,0.06172839506172839,0,0)" xlink:href="#aC"/><use transform="matrix(0.06172839506172839,0,0,0.06172839506172839,18.456790123456788,0)" xlink:href="#aD"/><use transform="matrix(0.06172839506172839,0,0,0.06172839506172839,33.2716049382716,0)" xlink:href="#aE"/></g><path fill="#3a414a" d="M101-251c82-7 93 87 43 132L82-64C71-53 59-42 53-27h129V0H18c2-99 128-94 128-182 0-28-16-43-45-43s-46 15-49 41l-32-3c6-41 34-60 81-64" id="aF"/><g id="c"><use transform="matrix(0.06172839506172839,0,0,0.06172839506172839,0,0)" xlink:href="#aC"/><use transform="matrix(0.06172839506172839,0,0,0.06172839506172839,18.456790123456788,0)" xlink:href="#aD"/><use transform="matrix(0.06172839506172839,0,0,0.06172839506172839,33.2716049382716,0)" xlink:href="#aF"/></g><path fill="#3a414a" d="M30-248c87 1 191-15 191 75 0 78-77 80-158 76V0H30v-248zm33 125c57 0 124 11 124-50 0-59-68-47-124-48v98" id="aG"/><path fill="#3a414a" d="M114-163C36-179 61-72 57 0H25l-1-190h30c1 12-1 29 2 39 6-27 23-49 58-41v29" id="aH"/><path fill="#3a414a" d="M100-194c62-1 85 37 85 99 1 63-27 99-86 99S16-35 15-95c0-66 28-99 85-99zM99-20c44 1 53-31 53-75 0-43-8-75-51-75s-53 32-53 75 10 74 51 75" id="aI"/><path fill="#3a414a" d="M96-169c-40 0-48 33-48 73s9 75 48 75c24 0 41-14 43-38l32 2c-6 37-31 61-74 61-59 0-76-41-82-99-10-93 101-131 147-64 4 7 5 14 7 22l-32 3c-4-21-16-35-41-35" id="aJ"/><path fill="#3a414a" d="M135-143c-3-34-86-38-87 0 15 53 115 12 119 90S17 21 10-45l28-5c4 36 97 45 98 0-10-56-113-15-118-90-4-57 82-63 122-42 12 7 21 19 24 35" id="aK"/><g id="d"><use transform="matrix(0.06172839506172839,0,0,0.06172839506172839,0,0)" xlink:href="#aG"/><use transform="matrix(0.06172839506172839,0,0,0.06172839506172839,14.814814814814813,0)" xlink:href="#aH"/><use transform="matrix(0.06172839506172839,0,0,0.06172839506172839,22.160493827160494,0)" xlink:href="#aI"/><use transform="matrix(0.06172839506172839,0,0,0.06172839506172839,34.50617283950617,0)" xlink:href="#aJ"/><use transform="matrix(0.06172839506172839,0,0,0.06172839506172839,45.61728395061728,0)" xlink:href="#az"/><use transform="matrix(0.06172839506172839,0,0,0.06172839506172839,57.962962962962955,0)" xlink:href="#aK"/><use transform="matrix(0.06172839506172839,0,0,0.06172839506172839,69.07407407407406,0)" xlink:href="#aK"/></g><path fill="#3a414a" d="M24-231v-30h32v30H24zM24 0v-190h32V0H24" id="aL"/><path fill="#3a414a" d="M117-194c89-4 53 116 60 194h-32v-121c0-31-8-49-39-48C34-167 62-67 57 0H25l-1-190h30c1 10-1 24 2 32 11-22 29-35 61-36" id="aM"/><g id="e"><use transform="matrix(0.06172839506172839,0,0,0.06172839506172839,0,0)" xlink:href="#aD"/><use transform="matrix(0.06172839506172839,0,0,0.06172839506172839,14.814814814814813,0)" xlink:href="#aL"/><use transform="matrix(0.06172839506172839,0,0,0.06172839506172839,19.691358024691354,0)" xlink:href="#aM"/><use transform="matrix(0.06172839506172839,0,0,0.06172839506172839,32.03703703703703,0)" xlink:href="#aJ"/><use transform="matrix(0.06172839506172839,0,0,0.06172839506172839,43.14814814814814,0)" xlink:href="#aH"/><use transform="matrix(0.06172839506172839,0,0,0.06172839506172839,50.493827160493815,0)" xlink:href="#aI"/><use transform="matrix(0.06172839506172839,0,0,0.06172839506172839,62.83950617283949,0)" xlink:href="#aM"/><use transform="matrix(0.06172839506172839,0,0,0.06172839506172839,75.18518518518518,0)" xlink:href="#aI"/></g><path fill="#3a414a" d="M205 0l-28-72H64L36 0H1l101-248h38L239 0h-34zm-38-99l-47-123c-12 45-31 82-46 123h93" id="aN"/><g id="f"><use transform="matrix(0.06172839506172839,0,0,0.06172839506172839,0,0)" xlink:href="#aN"/><use transform="matrix(0.06172839506172839,0,0,0.06172839506172839,14.814814814814813,0)" xlink:href="#aD"/><use transform="matrix(0.06172839506172839,0,0,0.06172839506172839,29.629629629629626,0)" xlink:href="#aL"/><use transform="matrix(0.06172839506172839,0,0,0.06172839506172839,34.50617283950617,0)" xlink:href="#aM"/><use transform="matrix(0.06172839506172839,0,0,0.06172839506172839,46.85185185185185,0)" xlink:href="#aJ"/><use transform="matrix(0.06172839506172839,0,0,0.06172839506172839,57.96296296296296,0)" xlink:href="#aH"/><use transform="matrix(0.06172839506172839,0,0,0.06172839506172839,65.30864197530865,0)" xlink:href="#aI"/><use transform="matrix(0.06172839506172839,0,0,0.06172839506172839,77.65432098765433,0)" xlink:href="#aM"/><use transform="matrix(0.06172839506172839,0,0,0.06172839506172839,90.00000000000001,0)" xlink:href="#aI"/></g><path fill="#3a414a" d="M194 0L95-120 63-95V0H30v-248h33v124l119-124h40L117-140 236 0h-42" id="aO"/><path fill="#3a414a" d="M141-36C126-15 110 5 73 4 37 3 15-17 15-53c-1-64 63-63 125-63 3-35-9-54-41-54-24 1-41 7-42 31l-33-3c5-37 33-52 76-52 45 0 72 20 72 64v82c-1 20 7 32 28 27v20c-31 9-61-2-59-35zM48-53c0 20 12 33 32 33 41-3 63-29 60-74-43 2-92-5-92 41" id="aP"/><path fill="#3a414a" d="M101-234c-31-9-42 10-38 44h38v23H63V0H32v-167H5v-23h27c-7-52 17-82 69-68v24" id="aQ"/><path fill="#3a414a" d="M143 0L79-87 56-68V0H24v-261h32v163l83-92h37l-77 82L181 0h-38" id="aR"/><g id="g"><use transform="matrix(0.06172839506172839,0,0,0.06172839506172839,0,0)" xlink:href="#aO"/><use transform="matrix(0.06172839506172839,0,0,0.06172839506172839,14.814814814814813,0)" xlink:href="#aP"/><use transform="matrix(0.06172839506172839,0,0,0.06172839506172839,27.160493827160494,0)" xlink:href="#aQ"/><use transform="matrix(0.06172839506172839,0,0,0.06172839506172839,33.333333333333336,0)" xlink:href="#aR"/><use transform="matrix(0.06172839506172839,0,0,0.06172839506172839,44.44444444444444,0)" xlink:href="#aP"/></g><path fill="#3a414a" d="M115-194c55 1 70 41 70 98S169 2 115 4C84 4 66-9 55-30l1 105H24l-1-265h31l2 30c10-21 28-34 59-34zm-8 174c40 0 45-34 45-75s-6-73-45-74c-42 0-51 32-51 76 0 43 10 73 51 73" id="aS"/><g id="h"><use transform="matrix(0.06172839506172839,0,0,0.06172839506172839,0,0)" xlink:href="#aB"/><use transform="matrix(0.06172839506172839,0,0,0.06172839506172839,6.172839506172839,0)" xlink:href="#aI"/><use transform="matrix(0.06172839506172839,0,0,0.06172839506172839,18.51851851851852,0)" xlink:href="#aS"/><use transform="matrix(0.06172839506172839,0,0,0.06172839506172839,30.864197530864196,0)" xlink:href="#aL"/><use transform="matrix(0.06172839506172839,0,0,0.06172839506172839,35.74074074074074,0)" xlink:href="#aJ"/></g><path fill="#3a414a" d="M233-177c-1 41-23 64-60 70L243 0h-38l-65-103H63V0H30v-248c88 3 205-21 203 71zM63-129c60-2 137 13 137-47 0-61-80-42-137-45v92" id="aT"/><path fill="#3a414a" d="M30 0v-248h187v28H63v79h144v27H63v87h162V0H30" id="aU"/><path fill="#3a414a" d="M140-251c81 0 123 46 123 126C263-53 228-8 163 1c7 30 30 48 69 40v23c-55 16-95-15-103-61C56-3 17-48 17-125c0-80 42-126 123-126zm0 227c63 0 89-41 89-101s-29-99-89-99c-61 0-89 39-89 99S79-25 140-24" id="aV"/><g id="i"><use transform="matrix(0.06172839506172839,0,0,0.06172839506172839,0,0)" xlink:href="#aT"/><use transform="matrix(0.06172839506172839,0,0,0.06172839506172839,15.987654320987653,0)" xlink:href="#aU"/><use transform="matrix(0.06172839506172839,0,0,0.06172839506172839,30.80246913580247,0)" xlink:href="#aV"/></g><g id="j"><use transform="matrix(0.06172839506172839,0,0,0.06172839506172839,0,0)" xlink:href="#aT"/><use transform="matrix(0.06172839506172839,0,0,0.06172839506172839,15.987654320987653,0)" xlink:href="#aU"/><use transform="matrix(0.06172839506172839,0,0,0.06172839506172839,30.80246913580247,0)" xlink:href="#aD"/></g><path fill="#3a414a" d="M24 0v-261h32V0H24" id="aW"/><path fill="#3a414a" d="M179-190L93 31C79 59 56 82 12 73V49c39 6 53-20 64-50L1-190h34L92-34l54-156h33" id="aX"/><g id="k"><use transform="matrix(0.06172839506172839,0,0,0.06172839506172839,0,0)" xlink:href="#aG"/><use transform="matrix(0.06172839506172839,0,0,0.06172839506172839,14.814814814814813,0)" xlink:href="#az"/><use transform="matrix(0.06172839506172839,0,0,0.06172839506172839,27.160493827160494,0)" xlink:href="#aS"/><use transform="matrix(0.06172839506172839,0,0,0.06172839506172839,39.50617283950617,0)" xlink:href="#aW"/><use transform="matrix(0.06172839506172839,0,0,0.06172839506172839,44.382716049382715,0)" xlink:href="#aX"/><use transform="matrix(0.06172839506172839,0,0,0.06172839506172839,55.49382716049382,0)" xlink:href="#ay"/><use transform="matrix(0.06172839506172839,0,0,0.06172839506172839,66.5432098765432,0)" xlink:href="#aI"/></g><path fill="#3a414a" d="M84 4C-5 8 30-112 23-190h32v120c0 31 7 50 39 49 72-2 45-101 50-169h31l1 190h-30c-1-10 1-25-2-33-11 22-28 36-60 37" id="aY"/><path fill="#3a414a" d="M115-194c53 0 69 39 70 98 0 66-23 100-70 100C84 3 66-7 56-30L54 0H23l1-261h32v101c10-23 28-34 59-34zm-8 174c40 0 45-34 45-75 0-40-5-75-45-74-42 0-51 32-51 76 0 43 10 73 51 73" id="aZ"/><path fill="#3a414a" d="M85-194c31 0 48 13 60 33l-1-100h32l1 261h-30c-2-10 0-23-3-31C134-8 116 4 85 4 32 4 16-35 15-94c0-66 23-100 70-100zm9 24c-40 0-46 34-46 75 0 40 6 74 45 74 42 0 51-32 51-76 0-42-9-74-50-73" id="ba"/><g id="l"><use transform="matrix(0.06172839506172839,0,0,0.06172839506172839,0,0)" xlink:href="#aG"/><use transform="matrix(0.06172839506172839,0,0,0.06172839506172839,14.814814814814813,0)" xlink:href="#aY"/><use transform="matrix(0.06172839506172839,0,0,0.06172839506172839,27.160493827160494,0)" xlink:href="#aZ"/><use transform="matrix(0.06172839506172839,0,0,0.06172839506172839,39.50617283950617,0)" xlink:href="#aW"/><use transform="matrix(0.06172839506172839,0,0,0.06172839506172839,44.382716049382715,0)" xlink:href="#aL"/><use transform="matrix(0.06172839506172839,0,0,0.06172839506172839,49.25925925925926,0)" xlink:href="#aJ"/><use transform="matrix(0.06172839506172839,0,0,0.06172839506172839,60.37037037037037,0)" xlink:href="#aP"/><use transform="matrix(0.06172839506172839,0,0,0.06172839506172839,72.71604938271605,0)" xlink:href="#ba"/><use transform="matrix(0.06172839506172839,0,0,0.06172839506172839,85.06172839506173,0)" xlink:href="#aI"/><use transform="matrix(0.06172839506172839,0,0,0.06172839506172839,97.40740740740742,0)" xlink:href="#aH"/></g><path fill="#3a414a" d="M16-82v-28h88v28H16" id="bb"/><g id="m"><use transform="matrix(0.06172839506172839,0,0,0.06172839506172839,0,0)" xlink:href="#aC"/><use transform="matrix(0.06172839506172839,0,0,0.06172839506172839,18.456790123456788,0)" xlink:href="#aK"/><use transform="matrix(0.06172839506172839,0,0,0.06172839506172839,29.5679012345679,0)" xlink:href="#bb"/><use transform="matrix(0.06172839506172839,0,0,0.06172839506172839,36.913580246913575,0)" xlink:href="#aN"/><use transform="matrix(0.06172839506172839,0,0,0.06172839506172839,51.72839506172839,0)" xlink:href="#aZ"/><use transform="matrix(0.06172839506172839,0,0,0.06172839506172839,64.07407407407408,0)" xlink:href="#aI"/><use transform="matrix(0.06172839506172839,0,0,0.06172839506172839,76.41975308641976,0)" xlink:href="#aM"/><use transform="matrix(0.06172839506172839,0,0,0.06172839506172839,88.76543209876544,0)" xlink:href="#aI"/></g><path fill="#3a414a" d="M134-131c28 9 52 24 51 62-1 50-34 73-85 73S17-19 16-69c0-36 21-54 49-61-75-25-45-126 34-121 46 3 78 18 79 63 0 33-17 51-44 57zm-34-11c31 1 46-15 46-44 0-28-17-43-47-42-29 0-46 13-45 42 1 28 16 44 46 44zm1 122c35 0 51-18 51-52 0-30-18-46-53-46-33 0-51 17-51 47 0 34 19 51 53 51" id="bc"/><g id="n"><use transform="matrix(0.06172839506172839,0,0,0.06172839506172839,0,0)" xlink:href="#bc"/><use transform="matrix(0.06172839506172839,0,0,0.06172839506172839,12.345679012345679,0)" xlink:href="#aE"/></g><path fill="#3a414a" d="M-5 72V49h209v23H-5" id="bd"/><path fill="#3a414a" d="M177-190C167-65 218 103 67 71c-23-6-38-20-44-43l32-5c15 47 100 32 89-28v-30C133-14 115 1 83 1 29 1 15-40 15-95c0-56 16-97 71-98 29-1 48 16 59 35 1-10 0-23 2-32h30zM94-22c36 0 50-32 50-73 0-42-14-75-50-75-39 0-46 34-46 75s6 73 46 73" id="be"/><g id="o"><use transform="matrix(0.06172839506172839,0,0,0.06172839506172839,0,0)" xlink:href="#aC"/><use transform="matrix(0.06172839506172839,0,0,0.06172839506172839,18.456790123456788,0)" xlink:href="#aK"/><use transform="matrix(0.06172839506172839,0,0,0.06172839506172839,29.5679012345679,0)" xlink:href="#bd"/><use transform="matrix(0.06172839506172839,0,0,0.06172839506172839,41.913580246913575,0)" xlink:href="#aJ"/><use transform="matrix(0.06172839506172839,0,0,0.06172839506172839,53.02469135802468,0)" xlink:href="#aP"/><use transform="matrix(0.06172839506172839,0,0,0.06172839506172839,65.37037037037037,0)" xlink:href="#aH"/><use transform="matrix(0.06172839506172839,0,0,0.06172839506172839,72.71604938271605,0)" xlink:href="#be"/><use transform="matrix(0.06172839506172839,0,0,0.06172839506172839,85.06172839506173,0)" xlink:href="#aI"/></g><path fill="#3a414a" d="M110-160c48 1 74 30 74 79 0 53-28 85-80 85-65 0-83-55-86-122-5-90 50-162 133-122 14 7 22 21 27 39l-31 6c-5-40-67-38-82-6-9 19-15 44-15 74 11-20 30-34 60-33zm-7 138c34 0 49-23 49-58s-16-56-50-56c-29 0-50 16-49 49 1 36 15 65 50 65" id="bf"/><g id="p"><use transform="matrix(0.06172839506172839,0,0,0.06172839506172839,0,0)" xlink:href="#bc"/><use transform="matrix(0.06172839506172839,0,0,0.06172839506172839,12.345679012345679,0)" xlink:href="#bf"/></g><path fill="#3a414a" d="M33 0v-248h34V0H33" id="bg"/><g id="q"><use transform="matrix(0.06172839506172839,0,0,0.06172839506172839,0,0)" xlink:href="#bg"/><use transform="matrix(0.06172839506172839,0,0,0.06172839506172839,6.172839506172839,0)" xlink:href="#aI"/><use transform="matrix(0.06172839506172839,0,0,0.06172839506172839,18.51851851851852,0)" xlink:href="#ay"/></g><g id="r"><use transform="matrix(0.06172839506172839,0,0,0.06172839506172839,0,0)" xlink:href="#aB"/><use transform="matrix(0.06172839506172839,0,0,0.06172839506172839,6.172839506172839,0)" xlink:href="#aI"/><use transform="matrix(0.06172839506172839,0,0,0.06172839506172839,18.51851851851852,0)" xlink:href="#aS"/><use transform="matrix(0.06172839506172839,0,0,0.06172839506172839,30.864197530864196,0)" xlink:href="#aL"/><use transform="matrix(0.06172839506172839,0,0,0.06172839506172839,35.74074074074074,0)" xlink:href="#aJ"/></g><path fill="#333" d="M135-194c53 0 70 44 70 98 0 56-19 98-73 100-31 1-45-17-59-34 3 33 2 69 2 105H25l-1-265h48c2 10 0 23 3 31 11-24 29-35 60-35zM114-30c33 0 39-31 40-66 0-38-9-64-40-64-56 0-55 130 0 130" id="bh"/><path fill="#333" d="M85 4C-2 5 27-109 22-190h50c7 57-23 150 33 157 60-5 35-97 40-157h50l1 190h-47c-2-12 1-28-3-38-12 25-28 42-61 42" id="bi"/><path fill="#333" d="M115-3C79 11 28 4 28-45v-112H4v-33h27l15-45h31v45h36v33H77v99c-1 23 16 31 38 25v30" id="bj"/><g id="s"><use transform="matrix(0.04938271604938272,0,0,0.04938271604938272,0,0)" xlink:href="#bh"/><use transform="matrix(0.04938271604938272,0,0,0.04938271604938272,10.814814814814815,0)" xlink:href="#bi"/><use transform="matrix(0.04938271604938272,0,0,0.04938271604938272,21.62962962962963,0)" xlink:href="#bj"/></g><path fill="#333" d="M25 0v-261h50V0H25" id="bk"/><g id="t"><use transform="matrix(0.04938271604938272,0,0,0.04938271604938272,0,0)" xlink:href="#bh"/><use transform="matrix(0.04938271604938272,0,0,0.04938271604938272,10.814814814814815,0)" xlink:href="#bi"/><use transform="matrix(0.04938271604938272,0,0,0.04938271604938272,21.62962962962963,0)" xlink:href="#bk"/><use transform="matrix(0.04938271604938272,0,0,0.04938271604938272,26.567901234567902,0)" xlink:href="#bk"/></g><g id="u"><use transform="matrix(0.06172839506172839,0,0,0.06172839506172839,0,0)" xlink:href="#bc"/><use transform="matrix(0.06172839506172839,0,0,0.06172839506172839,12.345679012345679,0)" xlink:href="#aF"/></g><g id="v"><use transform="matrix(0.06172839506172839,0,0,0.06172839506172839,0,0)" xlink:href="#aC"/><use transform="matrix(0.06172839506172839,0,0,0.06172839506172839,18.456790123456788,0)" xlink:href="#aK"/><use transform="matrix(0.06172839506172839,0,0,0.06172839506172839,29.5679012345679,0)" xlink:href="#bb"/><use transform="matrix(0.06172839506172839,0,0,0.06172839506172839,36.913580246913575,0)" xlink:href="#aN"/><use transform="matrix(0.06172839506172839,0,0,0.06172839506172839,51.72839506172839,0)" xlink:href="#aM"/><use transform="matrix(0.06172839506172839,0,0,0.06172839506172839,64.07407407407408,0)" xlink:href="#aI"/><use transform="matrix(0.06172839506172839,0,0,0.06172839506172839,76.41975308641976,0)" xlink:href="#aM"/><use transform="matrix(0.06172839506172839,0,0,0.06172839506172839,88.76543209876544,0)" xlink:href="#aI"/></g><path fill="#3a414a" d="M126-127c33 6 58 20 58 59 0 88-139 92-164 29-3-8-5-16-6-25l32-3c6 27 21 44 54 44 32 0 52-15 52-46 0-38-36-46-79-43v-28c39 1 72-4 72-42 0-27-17-43-46-43-28 0-47 15-49 41l-32-3c6-42 35-63 81-64 48-1 79 21 79 65 0 36-21 52-52 59" id="bl"/><g id="w"><use transform="matrix(0.06172839506172839,0,0,0.06172839506172839,0,0)" xlink:href="#bc"/><use transform="matrix(0.06172839506172839,0,0,0.06172839506172839,12.345679012345679,0)" xlink:href="#bl"/></g><path fill="#3a414a" d="M143 4C61 4 22-44 18-125c-5-107 100-154 193-111 17 8 29 25 37 43l-32 9c-13-25-37-40-76-40-61 0-88 39-88 99 0 61 29 100 91 101 35 0 62-11 79-27v-45h-74v-28h105v86C228-13 192 4 143 4" id="bm"/><path fill="#3a414a" d="M101-251c68 0 85 55 85 127S166 4 100 4C33 4 14-52 14-124c0-73 17-127 87-127zm-1 229c47 0 54-49 54-102s-4-102-53-102c-51 0-55 48-55 102 0 53 5 102 54 102" id="bn"/><g id="x"><use transform="matrix(0.06172839506172839,0,0,0.06172839506172839,0,0)" xlink:href="#bm"/><use transform="matrix(0.06172839506172839,0,0,0.06172839506172839,17.28395061728395,0)" xlink:href="#aH"/><use transform="matrix(0.06172839506172839,0,0,0.06172839506172839,24.629629629629626,0)" xlink:href="#aS"/><use transform="matrix(0.06172839506172839,0,0,0.06172839506172839,36.9753086419753,0)" xlink:href="#bn"/><use transform="matrix(0.06172839506172839,0,0,0.06172839506172839,49.32098765432098,0)" xlink:href="#aF"/></g><g id="y"><use transform="matrix(0.06172839506172839,0,0,0.06172839506172839,0,0)" xlink:href="#bm"/><use transform="matrix(0.06172839506172839,0,0,0.06172839506172839,17.28395061728395,0)" xlink:href="#aH"/><use transform="matrix(0.06172839506172839,0,0,0.06172839506172839,24.629629629629626,0)" xlink:href="#aS"/><use transform="matrix(0.06172839506172839,0,0,0.06172839506172839,36.9753086419753,0)" xlink:href="#bn"/><use transform="matrix(0.06172839506172839,0,0,0.06172839506172839,49.32098765432098,0)" xlink:href="#aE"/></g><path fill="#3a414a" d="M34 0v-190h32V0H34zM24-211c8-23 27-35 38-54h36v5l-58 49H24" id="bo"/><g id="z"><use transform="matrix(0.06172839506172839,0,0,0.06172839506172839,0,0)" xlink:href="#aN"/><use transform="matrix(0.06172839506172839,0,0,0.06172839506172839,14.814814814814813,0)" xlink:href="#aK"/><use transform="matrix(0.06172839506172839,0,0,0.06172839506172839,25.925925925925924,0)" xlink:href="#bo"/><use transform="matrix(0.06172839506172839,0,0,0.06172839506172839,32.098765432098766,0)" xlink:href="#aM"/><use transform="matrix(0.06172839506172839,0,0,0.06172839506172839,44.44444444444444,0)" xlink:href="#aJ"/><use transform="matrix(0.06172839506172839,0,0,0.06172839506172839,55.55555555555556,0)" xlink:href="#aH"/><use transform="matrix(0.06172839506172839,0,0,0.06172839506172839,62.901234567901234,0)" xlink:href="#aI"/><use transform="matrix(0.06172839506172839,0,0,0.06172839506172839,75.24691358024691,0)" xlink:href="#aM"/><use transform="matrix(0.06172839506172839,0,0,0.06172839506172839,87.5925925925926,0)" xlink:href="#aI"/></g><path fill="#3a414a" d="M108 0H70L1-190h34L89-25l56-165h34" id="bp"/><g id="A"><use transform="matrix(0.06172839506172839,0,0,0.06172839506172839,0,0)" xlink:href="#az"/><use transform="matrix(0.06172839506172839,0,0,0.06172839506172839,12.345679012345679,0)" xlink:href="#bp"/><use transform="matrix(0.06172839506172839,0,0,0.06172839506172839,23.45679012345679,0)" xlink:href="#az"/><use transform="matrix(0.06172839506172839,0,0,0.06172839506172839,35.80246913580247,0)" xlink:href="#aM"/><use transform="matrix(0.06172839506172839,0,0,0.06172839506172839,48.148148148148145,0)" xlink:href="#aB"/></g><g id="B"><use transform="matrix(0.06172839506172839,0,0,0.06172839506172839,0,0)" xlink:href="#aZ"/><use transform="matrix(0.06172839506172839,0,0,0.06172839506172839,12.345679012345679,0)" xlink:href="#aY"/><use transform="matrix(0.06172839506172839,0,0,0.06172839506172839,24.691358024691358,0)" xlink:href="#aK"/></g><path fill="#3a414a" d="M33-154v-36h34v36H33zM33 0v-36h34V0H33" id="bq"/><g id="C"><use transform="matrix(0.06172839506172839,0,0,0.06172839506172839,0,0)" xlink:href="#aT"/><use transform="matrix(0.06172839506172839,0,0,0.06172839506172839,15.987654320987653,0)" xlink:href="#az"/><use transform="matrix(0.06172839506172839,0,0,0.06172839506172839,28.333333333333332,0)" xlink:href="#aS"/><use transform="matrix(0.06172839506172839,0,0,0.06172839506172839,40.67901234567901,0)" xlink:href="#aW"/><use transform="matrix(0.06172839506172839,0,0,0.06172839506172839,45.55555555555556,0)" xlink:href="#aX"/><use transform="matrix(0.06172839506172839,0,0,0.06172839506172839,56.66666666666667,0)" xlink:href="#ay"/><use transform="matrix(0.06172839506172839,0,0,0.06172839506172839,67.71604938271605,0)" xlink:href="#aI"/><use transform="matrix(0.06172839506172839,0,0,0.06172839506172839,80.06172839506173,0)" xlink:href="#bq"/></g><g id="D"><use transform="matrix(0.06172839506172839,0,0,0.06172839506172839,0,0)" xlink:href="#ay"/><use transform="matrix(0.06172839506172839,0,0,0.06172839506172839,11.049382716049381,0)" xlink:href="#aI"/><use transform="matrix(0.06172839506172839,0,0,0.06172839506172839,23.39506172839506,0)" xlink:href="#aS"/><use transform="matrix(0.06172839506172839,0,0,0.06172839506172839,35.74074074074074,0)" xlink:href="#aL"/><use transform="matrix(0.06172839506172839,0,0,0.06172839506172839,40.617283950617285,0)" xlink:href="#aJ"/><use transform="matrix(0.06172839506172839,0,0,0.06172839506172839,51.72839506172839,0)" xlink:href="#aT"/><use transform="matrix(0.06172839506172839,0,0,0.06172839506172839,67.71604938271605,0)" xlink:href="#az"/><use transform="matrix(0.06172839506172839,0,0,0.06172839506172839,80.06172839506173,0)" xlink:href="#aK"/></g><use transform="matrix(0.06172839506172839,0,0,0.06172839506172839,0,0)" xlink:href="#aN" id="E"/><path fill="#333" d="M137-138c1-29-70-34-71-4 15 46 118 7 119 86 1 83-164 76-172 9l43-7c4 19 20 25 44 25 33 8 57-30 24-41C81-84 22-81 20-136c-2-80 154-74 161-7" id="br"/><path fill="#333" d="M123 10C108 53 80 86 19 72V37c35 8 53-11 59-39L3-190h52l48 148c12-52 28-100 44-148h51" id="bs"/><path fill="#333" d="M135-194c87-1 58 113 63 194h-50c-7-57 23-157-34-157-59 0-34 97-39 157H25l-1-190h47c2 12-1 28 3 38 12-26 28-41 61-42" id="bt"/><path fill="#333" d="M190-63c-7 42-38 67-86 67-59 0-84-38-90-98-12-110 154-137 174-36l-49 2c-2-19-15-32-35-32-30 0-35 28-38 64-6 74 65 87 74 30" id="bu"/><g id="F"><use transform="matrix(0.04938271604938272,0,0,0.04938271604938272,0,0)" xlink:href="#br"/><use transform="matrix(0.04938271604938272,0,0,0.04938271604938272,9.876543209876544,0)" xlink:href="#bs"/><use transform="matrix(0.04938271604938272,0,0,0.04938271604938272,19.75308641975309,0)" xlink:href="#bt"/><use transform="matrix(0.04938271604938272,0,0,0.04938271604938272,30.567901234567906,0)" xlink:href="#bu"/></g><path fill="#3a414a" d="M136-208V0H84v-208H4v-40h212v40h-80" id="bv"/><path fill="#3a414a" d="M110-194c64 0 96 36 96 99 0 64-35 99-97 99-61 0-95-36-95-99 0-62 34-99 96-99zm-1 164c35 0 45-28 45-65 0-40-10-65-43-65-34 0-45 26-45 65 0 36 10 65 43 65" id="bw"/><path fill="#3a414a" d="M135-194c53 0 70 44 70 98 0 56-19 98-73 100-31 1-45-17-59-34 3 33 2 69 2 105H25l-1-265h48c2 10 0 23 3 31 11-24 29-35 60-35zM114-30c33 0 39-31 40-66 0-38-9-64-40-64-56 0-55 130 0 130" id="bx"/><path fill="#3a414a" d="M25-224v-37h50v37H25zM25 0v-190h50V0H25" id="by"/><path fill="#3a414a" d="M190-63c-7 42-38 67-86 67-59 0-84-38-90-98-12-110 154-137 174-36l-49 2c-2-19-15-32-35-32-30 0-35 28-38 64-6 74 65 87 74 30" id="bz"/><path fill="#3a414a" d="M182-182c0 78-84 86-111 141h115V0H12c-6-101 99-100 120-180 1-22-12-31-33-32-23 0-32 14-35 34l-49-3c5-45 32-70 84-70 51 0 83 22 83 69" id="bA"/><g id="G"><use transform="matrix(0.04320987654320987,0,0,0.04320987654320987,0,0)" xlink:href="#bv"/><use transform="matrix(0.04320987654320987,0,0,0.04320987654320987,8.296296296296294,0)" xlink:href="#bw"/><use transform="matrix(0.04320987654320987,0,0,0.04320987654320987,17.759259259259252,0)" xlink:href="#bx"/><use transform="matrix(0.04320987654320987,0,0,0.04320987654320987,27.222222222222218,0)" xlink:href="#by"/><use transform="matrix(0.04320987654320987,0,0,0.04320987654320987,31.5432098765432,0)" xlink:href="#bz"/><use transform="matrix(0.04320987654320987,0,0,0.04320987654320987,40.185185185185176,0)" xlink:href="#bA"/></g><path fill="#3a414a" d="M197 0v-115H63V0H30v-248h33v105h134v-105h34V0h-34" id="bB"/><g id="H"><use transform="matrix(0.06172839506172839,0,0,0.06172839506172839,0,0)" xlink:href="#bB"/><use transform="matrix(0.06172839506172839,0,0,0.06172839506172839,15.987654320987653,0)" xlink:href="#ay"/><use transform="matrix(0.06172839506172839,0,0,0.06172839506172839,29.50617283950617,0)" xlink:href="#ay"/><use transform="matrix(0.06172839506172839,0,0,0.06172839506172839,43.02469135802469,0)" xlink:href="#aG"/></g><path fill="#3a414a" d="M212-179c-10-28-35-45-73-45-59 0-87 40-87 99 0 60 29 101 89 101 43 0 62-24 78-52l27 14C228-24 195 4 139 4 59 4 22-46 18-125c-6-104 99-153 187-111 19 9 31 26 39 46" id="bC"/><g id="I"><use transform="matrix(0.06172839506172839,0,0,0.06172839506172839,0,0)" xlink:href="#bC"/><use transform="matrix(0.06172839506172839,0,0,0.06172839506172839,15.987654320987653,0)" xlink:href="#aW"/><use transform="matrix(0.06172839506172839,0,0,0.06172839506172839,20.864197530864196,0)" xlink:href="#aL"/><use transform="matrix(0.06172839506172839,0,0,0.06172839506172839,25.74074074074074,0)" xlink:href="#az"/><use transform="matrix(0.06172839506172839,0,0,0.06172839506172839,38.08641975308642,0)" xlink:href="#aM"/><use transform="matrix(0.06172839506172839,0,0,0.06172839506172839,50.432098765432094,0)" xlink:href="#aB"/></g><path fill="#3a414a" d="M145-31C134-9 116 4 85 4 32 4 16-35 15-94c0-59 17-99 70-100 32-1 48 14 60 33 0-11-1-24 2-32h30l-1 268h-32zM93-21c41 0 51-33 51-76s-8-73-50-73c-40 0-46 35-46 75s5 74 45 74" id="bD"/><g id="J"><use transform="matrix(0.06172839506172839,0,0,0.06172839506172839,0,0)" xlink:href="#aT"/><use transform="matrix(0.06172839506172839,0,0,0.06172839506172839,15.987654320987653,0)" xlink:href="#az"/><use transform="matrix(0.06172839506172839,0,0,0.06172839506172839,28.333333333333332,0)" xlink:href="#bD"/><use transform="matrix(0.06172839506172839,0,0,0.06172839506172839,40.67901234567901,0)" xlink:href="#aY"/><use transform="matrix(0.06172839506172839,0,0,0.06172839506172839,53.02469135802469,0)" xlink:href="#az"/><use transform="matrix(0.06172839506172839,0,0,0.06172839506172839,65.37037037037037,0)" xlink:href="#aK"/><use transform="matrix(0.06172839506172839,0,0,0.06172839506172839,76.48148148148148,0)" xlink:href="#aB"/></g><g id="K"><use transform="matrix(0.06172839506172839,0,0,0.06172839506172839,0,0)" xlink:href="#aT"/><use transform="matrix(0.06172839506172839,0,0,0.06172839506172839,15.987654320987653,0)" xlink:href="#az"/><use transform="matrix(0.06172839506172839,0,0,0.06172839506172839,28.333333333333332,0)" xlink:href="#aK"/><use transform="matrix(0.06172839506172839,0,0,0.06172839506172839,39.44444444444444,0)" xlink:href="#aS"/><use transform="matrix(0.06172839506172839,0,0,0.06172839506172839,51.79012345679012,0)" xlink:href="#aI"/><use transform="matrix(0.06172839506172839,0,0,0.06172839506172839,64.1358024691358,0)" xlink:href="#aM"/><use transform="matrix(0.06172839506172839,0,0,0.06172839506172839,76.48148148148148,0)" xlink:href="#aK"/><use transform="matrix(0.06172839506172839,0,0,0.06172839506172839,87.5925925925926,0)" xlink:href="#az"/></g><g id="L"><use transform="matrix(0.06172839506172839,0,0,0.06172839506172839,0,0)" xlink:href="#aD"/><use transform="matrix(0.06172839506172839,0,0,0.06172839506172839,14.814814814814813,0)" xlink:href="#az"/><use transform="matrix(0.06172839506172839,0,0,0.06172839506172839,27.160493827160494,0)" xlink:href="#aK"/><use transform="matrix(0.06172839506172839,0,0,0.06172839506172839,38.27160493827161,0)" xlink:href="#aL"/><use transform="matrix(0.06172839506172839,0,0,0.06172839506172839,43.14814814814815,0)" xlink:href="#aI"/><use transform="matrix(0.06172839506172839,0,0,0.06172839506172839,55.49382716049383,0)" xlink:href="#aM"/></g><path fill="#3a414a" d="M23 0v-37h61v-169l-59 37v-38l62-41h46v211h57V0H23" id="bE"/><g id="M"><use transform="matrix(0.049382716049382706,0,0,0.049382716049382706,0,0)" xlink:href="#bv"/><use transform="matrix(0.049382716049382706,0,0,0.049382716049382706,9.481481481481481,0)" xlink:href="#bw"/><use transform="matrix(0.049382716049382706,0,0,0.049382716049382706,20.296296296296294,0)" xlink:href="#bx"/><use transform="matrix(0.049382716049382706,0,0,0.049382716049382706,31.111111111111104,0)" xlink:href="#by"/><use transform="matrix(0.049382716049382706,0,0,0.049382716049382706,36.04938271604938,0)" xlink:href="#bz"/><use transform="matrix(0.049382716049382706,0,0,0.049382716049382706,45.925925925925924,0)" xlink:href="#bE"/></g><path fill="#979ea8" d="M135-194c87-1 58 113 63 194h-50c-7-57 23-157-34-157-59 0-34 97-39 157H25l-1-190h47c2 12-1 28 3 38 12-26 28-41 61-42" id="bF"/><path fill="#979ea8" d="M110-194c64 0 96 36 96 99 0 64-35 99-97 99-61 0-95-36-95-99 0-62 34-99 96-99zm-1 164c35 0 45-28 45-65 0-40-10-65-43-65-34 0-45 26-45 65 0 36 10 65 43 65" id="bG"/><path fill="#979ea8" d="M115-3C79 11 28 4 28-45v-112H4v-33h27l15-45h31v45h36v33H77v99c-1 23 16 31 38 25v30" id="bH"/><path fill="#979ea8" d="M25-224v-37h50v37H25zM25 0v-190h50V0H25" id="bI"/><path fill="#979ea8" d="M121-226c-27-7-43 5-38 36h38v33H83V0H34v-157H6v-33h28c-9-59 32-81 87-68v32" id="bJ"/><path fill="#979ea8" d="M123 10C108 53 80 86 19 72V37c35 8 53-11 59-39L3-190h52l48 148c12-52 28-100 44-148h51" id="bK"/><g id="N"><use transform="matrix(0.04938271604938272,0,0,0.04938271604938272,0,0)" xlink:href="#bF"/><use transform="matrix(0.04938271604938272,0,0,0.04938271604938272,10.814814814814815,0)" xlink:href="#bG"/><use transform="matrix(0.04938271604938272,0,0,0.04938271604938272,21.62962962962963,0)" xlink:href="#bH"/><use transform="matrix(0.04938271604938272,0,0,0.04938271604938272,27.506172839506174,0)" xlink:href="#bI"/><use transform="matrix(0.04938271604938272,0,0,0.04938271604938272,32.44444444444444,0)" xlink:href="#bJ"/><use transform="matrix(0.04938271604938272,0,0,0.04938271604938272,38.32098765432099,0)" xlink:href="#bK"/></g><g id="O"><use transform="matrix(0.06172839506172839,0,0,0.06172839506172839,0,0)" xlink:href="#ay"/><use transform="matrix(0.06172839506172839,0,0,0.06172839506172839,11.049382716049381,0)" xlink:href="#az"/><use transform="matrix(0.06172839506172839,0,0,0.06172839506172839,23.39506172839506,0)" xlink:href="#aA"/><use transform="matrix(0.06172839506172839,0,0,0.06172839506172839,34.50617283950617,0)" xlink:href="#aB"/></g><path fill="#333" d="M70-104c-4 71 81 81 132 50l8-40h-60l7-37h108L246-31C216-10 181 3 130 3 60 2 18-32 18-102c-1-106 79-169 188-144 33 8 53 31 63 63l-50 14c-6-26-25-42-56-42-62 0-89 43-93 107" id="bL"/><path fill="#333" d="M6 0l48-248h195l-8 40H98l-12 63h132l-7 40H79L66-40h150l-8 40H6" id="bM"/><path fill="#333" d="M157-208L117 0H65l40-208H25l8-40h212l-8 40h-80" id="bN"/><g id="P"><use transform="matrix(0.04320987654320988,0,0,0.04320987654320988,0,0)" xlink:href="#bL"/><use transform="matrix(0.04320987654320988,0,0,0.04320987654320988,12.098765432098766,0)" xlink:href="#bM"/><use transform="matrix(0.04320987654320988,0,0,0.04320987654320988,22.46913580246914,0)" xlink:href="#bN"/></g><path fill="#333" d="M150-105c8-23 8-54-22-51-68 7-54 98-72 156H6l50-261h50L85-158c15-20 33-36 66-36 95 0 34 128 28 194h-49" id="bO"/><path fill="#333" d="M114-194c63-2 87 48 72 110H63c-3 28 1 55 31 54 21-1 32-13 37-29l44 13C160-14 137 4 91 4 41 4 11-22 11-73c0-71 33-119 103-121zm30 77c14-47-50-61-67-22-3 6-6 13-8 22h75" id="bP"/><path fill="#333" d="M166-52c-4 17 5 29 24 23l-3 27c-30 11-74 1-67-34C105-15 91 4 56 4 23 4 3-15 2-49c0-64 63-67 128-67 10-22 3-53-29-45-13 3-22 10-25 24l-46-5c5-64 156-77 153 0-1 33-11 60-17 90zM97-88c-44-9-64 57-19 57 31 0 42-28 47-57H97" id="bQ"/><path fill="#333" d="M132-28C118-9 101 4 69 4 30 4 10-23 10-62c0-70 24-129 92-132 31-1 47 14 56 35l19-102h49L179 0h-49zM62-69c0 22 7 39 29 39 45-2 54-45 57-90 2-27-10-40-33-40-44 0-53 48-53 91" id="bR"/><path fill="#333" d="M84-151c13-25 34-51 72-40l-8 41C67-170 71-64 56 0H6l36-190h47" id="bS"/><path fill="#333" d="M8 0l10-54h51L59 0H8" id="bT"/><path fill="#333" d="M156-122c2-23-7-37-28-37-47 0-58 44-58 89 0 24 12 40 36 40 43 0 47-49 50-92zM-8 75l50-265h48c0 10-3 24-3 30 22-50 127-45 121 29-6 73-21 135-92 135-29 0-46-14-55-35L41 75H-8" id="bU"/><path fill="#333" d="M6 0l51-261h49L55 0H6" id="bV"/><path fill="#333" d="M100 10C77 47 50 87-15 72l7-35c37 9 51-18 65-41L20-190h51L89-44l73-146h53" id="bW"/><path fill="#333" d="M72-63c-8 23 5 39 32 30L98-1C54 14 12-6 23-64l18-93H15l7-33h28l24-45h31l-8 45h35l-6 33H90" id="bX"/><path fill="#333" d="M124-194c51 0 84 22 84 74C207-44 167 4 94 4 43 4 11-23 11-74c0-74 41-120 113-120zM99-30c46 0 58-42 58-86 0-27-11-44-37-44-44 0-55 40-57 84-1 27 10 45 36 46" id="bY"/><path fill="#333" d="M69-54C61-12 54 32 29 56H-4C11 41 25 23 31 0H8l10-54h51" id="bZ"/><g id="Q"><use transform="matrix(0.04320987654320988,0,0,0.04320987654320988,0,0)" xlink:href="#bO"/><use transform="matrix(0.04320987654320988,0,0,0.04320987654320988,9.462962962962964,0)" xlink:href="#bP"/><use transform="matrix(0.04320987654320988,0,0,0.04320987654320988,18.10493827160494,0)" xlink:href="#bQ"/><use transform="matrix(0.04320987654320988,0,0,0.04320987654320988,26.746913580246915,0)" xlink:href="#bR"/><use transform="matrix(0.04320987654320988,0,0,0.04320987654320988,36.20987654320988,0)" xlink:href="#bP"/><use transform="matrix(0.04320987654320988,0,0,0.04320987654320988,44.851851851851855,0)" xlink:href="#bS"/><use transform="matrix(0.04320987654320988,0,0,0.04320987654320988,50.037037037037045,0)" xlink:href="#bT"/><use transform="matrix(0.04320987654320988,0,0,0.04320987654320988,54.35802469135802,0)" xlink:href="#bS"/><use transform="matrix(0.04320987654320988,0,0,0.04320987654320988,60.407407407407405,0)" xlink:href="#bP"/><use transform="matrix(0.04320987654320988,0,0,0.04320987654320988,69.04938271604938,0)" xlink:href="#bU"/><use transform="matrix(0.04320987654320988,0,0,0.04320987654320988,78.51234567901234,0)" xlink:href="#bV"/><use transform="matrix(0.04320987654320988,0,0,0.04320987654320988,82.83333333333333,0)" xlink:href="#bW"/><use transform="matrix(0.04320987654320988,0,0,0.04320987654320988,91.4753086419753,0)" xlink:href="#bX"/><use transform="matrix(0.04320987654320988,0,0,0.04320987654320988,96.61728395061728,0)" xlink:href="#bY"/><use transform="matrix(0.04320987654320988,0,0,0.04320987654320988,106.08024691358024,0)" xlink:href="#bZ"/></g><path fill="#333" d="M51-54c-9 22 5 41 31 30L79-1C43 14 10-4 19-52l22-115H19l5-23h22l19-43h21l-9 43h35l-4 23H73" id="ca"/><path fill="#333" d="M30-147c31-64 166-65 159 27C183-49 158 1 86 4 9 8 1-88 30-147zM88-20c53 0 68-48 68-100 0-31-11-51-44-50-52 1-68 46-68 97 0 32 13 53 44 53" id="cb"/><path fill="#333" d="M67-162c32-53 139-36 121 50C175-51 163 2 97 4 68 4 52-11 42-31 38 6 28 39 22 75H-9l50-265h29c-1 10 0 20-3 28zm89 36c0-26-10-43-35-43-54 0-67 50-69 103-1 29 14 45 42 46 53 0 62-58 62-106" id="cc"/><path fill="#333" d="M50-231l6-30h32l-6 30H50zM6 0l37-190h31L37 0H6" id="cd"/><path fill="#333" d="M44-68c0 29 11 47 38 47 30 0 42-19 51-41l28 9C148-21 126 4 82 4 31 4 10-29 12-85c3-77 74-140 146-93 12 8 15 23 18 40l-31 5c-1-22-13-36-36-36-52 0-65 49-65 101" id="ce"/><g id="R"><use transform="matrix(0.04320987654320988,0,0,0.04320987654320988,0,0)" xlink:href="#ca"/><use transform="matrix(0.04320987654320988,0,0,0.04320987654320988,4.320987654320988,0)" xlink:href="#cb"/><use transform="matrix(0.04320987654320988,0,0,0.04320987654320988,12.962962962962964,0)" xlink:href="#cc"/><use transform="matrix(0.04320987654320988,0,0,0.04320987654320988,21.604938271604944,0)" xlink:href="#cd"/><use transform="matrix(0.04320987654320988,0,0,0.04320987654320988,25.018518518518526,0)" xlink:href="#ce"/></g><path fill="#333" d="M165-48c-4 18 1 34 23 27l-3 20c-29 8-62 0-52-35h-2C116-14 99 4 63 4 30 4 8-16 8-49c0-68 71-67 138-67 10-26 0-56-31-54-26 1-42 9-47 31l-32-5c8-67 160-71 144 15-5 28-9 54-15 81zM42-50c3 52 80 24 89-6 7-12 7-24 11-38-47 1-103-4-100 44" id="cf"/><use transform="matrix(0.04320987654320988,0,0,0.04320987654320988,0,0)" xlink:href="#cf" id="S"/><path fill="#333" d="M133-28C103 26-5 8 13-77c13-62 24-115 90-117 29-1 46 15 56 35l19-102h32L160 0h-30zM45-64c-2 27 10 43 35 43 54-1 69-50 69-103 0-29-15-46-42-46-53-1-58 58-62 106" id="cg"/><path fill="#333" d="M67-158c22-48 132-52 116 29L158 0h-32l25-140c3-38-53-32-70-12C52-117 51-52 38 0H6l36-190h30" id="ch"/><path fill="#333" d="M111-194c62-3 86 47 72 106H45c-7 38 6 69 45 68 27-1 43-14 53-32l24 11C152-15 129 4 87 4 38 3 12-23 12-71c0-70 32-119 99-123zm44 81c14-66-71-72-95-28-4 8-8 17-11 28h106" id="ci"/><g id="T"><use transform="matrix(0.04320987654320988,0,0,0.04320987654320988,0,0)" xlink:href="#cg"/><use transform="matrix(0.04320987654320988,0,0,0.04320987654320988,8.641975308641976,0)" xlink:href="#cb"/><use transform="matrix(0.04320987654320988,0,0,0.04320987654320988,17.283950617283953,0)" xlink:href="#ch"/><use transform="matrix(0.04320987654320988,0,0,0.04320987654320988,25.925925925925927,0)" xlink:href="#cg"/><use transform="matrix(0.04320987654320988,0,0,0.04320987654320988,34.567901234567906,0)" xlink:href="#ci"/></g><path fill="#333" d="M66-151c12-25 30-51 66-40l-6 26C45-176 58-65 38 0H6l36-190h30" id="cj"/><path fill="#333" d="M55-144c13 50 104 24 104 88C159 21 15 23 1-39l26-10c6 40 102 42 102-4-13-50-104-23-104-87 0-71 143-71 148-8l-29 4c-5-35-85-37-89 0" id="ck"/><g id="U"><use transform="matrix(0.04320987654320988,0,0,0.04320987654320988,0,0)" xlink:href="#cj"/><use transform="matrix(0.04320987654320988,0,0,0.04320987654320988,5.1419753086419755,0)" xlink:href="#ci"/><use transform="matrix(0.04320987654320988,0,0,0.04320987654320988,13.783950617283953,0)" xlink:href="#ck"/><use transform="matrix(0.04320987654320988,0,0,0.04320987654320988,21.56172839506173,0)" xlink:href="#cc"/><use transform="matrix(0.04320987654320988,0,0,0.04320987654320988,30.203703703703713,0)" xlink:href="#cb"/><use transform="matrix(0.04320987654320988,0,0,0.04320987654320988,38.845679012345684,0)" xlink:href="#ch"/><use transform="matrix(0.04320987654320988,0,0,0.04320987654320988,47.48765432098766,0)" xlink:href="#cg"/><use transform="matrix(0.04320987654320988,0,0,0.04320987654320988,56.12962962962963,0)" xlink:href="#ci"/><use transform="matrix(0.04320987654320988,0,0,0.04320987654320988,64.77160493827161,0)" xlink:href="#cj"/></g><path fill="#3a414a" d="M140-251c81 0 123 46 123 126C263-46 219 4 140 4 59 4 17-45 17-125s42-126 123-126zm0 227c63 0 89-41 89-101s-29-99-89-99c-61 0-89 39-89 99S79-25 140-24" id="cl"/><g id="V"><use transform="matrix(0.06172839506172839,0,0,0.06172839506172839,0,0)" xlink:href="#ay"/><use transform="matrix(0.06172839506172839,0,0,0.06172839506172839,13.08641975308642,0)" xlink:href="#cl"/><use transform="matrix(0.06172839506172839,0,0,0.06172839506172839,30.370370370370367,0)" xlink:href="#aG"/><use transform="matrix(0.06172839506172839,0,0,0.06172839506172839,45.185185185185176,0)" xlink:href="#bg"/><use transform="matrix(0.06172839506172839,0,0,0.06172839506172839,51.35802469135802,0)" xlink:href="#bC"/></g><g id="W"><use transform="matrix(0.06172839506172839,0,0,0.06172839506172839,0,0)" xlink:href="#aG"/><use transform="matrix(0.06172839506172839,0,0,0.06172839506172839,14.814814814814813,0)" xlink:href="#bn"/></g><g id="X"><use transform="matrix(0.06172839506172839,0,0,0.06172839506172839,0,0)" xlink:href="#aG"/><use transform="matrix(0.06172839506172839,0,0,0.06172839506172839,14.814814814814813,0)" xlink:href="#aE"/></g><g id="Y"><use transform="matrix(0.06172839506172839,0,0,0.06172839506172839,0,0)" xlink:href="#aG"/><use transform="matrix(0.06172839506172839,0,0,0.06172839506172839,14.814814814814813,0)" xlink:href="#aF"/></g><g id="Z"><use transform="matrix(0.06172839506172839,0,0,0.06172839506172839,0,0)" xlink:href="#aG"/><use transform="matrix(0.06172839506172839,0,0,0.06172839506172839,14.814814814814813,0)" xlink:href="#bl"/></g><path fill="#3a414a" d="M155-56V0h-30v-56H8v-25l114-167h33v167h35v25h-35zm-30-156c-27 46-58 90-88 131h88v-131" id="cm"/><g id="aa"><use transform="matrix(0.06172839506172839,0,0,0.06172839506172839,0,0)" xlink:href="#aG"/><use transform="matrix(0.06172839506172839,0,0,0.06172839506172839,14.814814814814813,0)" xlink:href="#cm"/></g><path fill="#3a414a" d="M54-142c48-35 137-8 131 61C196 18 31 33 14-55l32-4c7 23 22 37 52 37 35-1 51-22 54-58 4-55-73-65-99-34H22l8-134h141v27H59" id="cn"/><g id="ab"><use transform="matrix(0.06172839506172839,0,0,0.06172839506172839,0,0)" xlink:href="#aG"/><use transform="matrix(0.06172839506172839,0,0,0.06172839506172839,14.814814814814813,0)" xlink:href="#cn"/></g><g id="ac"><use transform="matrix(0.06172839506172839,0,0,0.06172839506172839,0,0)" xlink:href="#aG"/><use transform="matrix(0.06172839506172839,0,0,0.06172839506172839,14.814814814814813,0)" xlink:href="#bf"/></g><path fill="#3a414a" d="M64 0c3-98 48-159 88-221H18v-27h164v26C143-157 98-101 97 0H64" id="co"/><g id="ad"><use transform="matrix(0.06172839506172839,0,0,0.06172839506172839,0,0)" xlink:href="#aG"/><use transform="matrix(0.06172839506172839,0,0,0.06172839506172839,14.814814814814813,0)" xlink:href="#co"/></g><linearGradient gradientUnits="userSpaceOnUse" id="ae" x1="881.11" y1="1471.6" x2="881.11" y2="1440"><stop offset="0%" stop-color="#0078d4"/><stop offset="81.7%" stop-color="#5ea0ef"/></linearGradient><path d="M63-220v92h138v28H63V0H30v-248h175v28H63" id="cp"/><path d="M33 0v-248h34V0H33" id="cq"/><path d="M30 0v-248h33v221h125V0H30" id="cr"/><path d="M30 0v-248h187v28H63v79h144v27H63v87h162V0H30" id="cs"/><g id="af"><use transform="matrix(0.05,0,0,0.05,0,0)" xlink:href="#cp"/><use transform="matrix(0.05,0,0,0.05,10.950000000000001,0)" xlink:href="#cq"/><use transform="matrix(0.05,0,0,0.05,15.950000000000001,0)" xlink:href="#cr"/><use transform="matrix(0.05,0,0,0.05,25.950000000000003,0)" xlink:href="#cs"/></g><path d="M16-82v-28h88v28H16" id="ct"/><use transform="matrix(0.05,0,0,0.05,0,0)" xlink:href="#ct" id="ag"/><path d="M30-248c87 1 191-15 191 75 0 78-77 80-158 76V0H30v-248zm33 125c57 0 124 11 124-50 0-59-68-47-124-48v98" id="cu"/><path d="M101-251c68 0 85 55 85 127S166 4 100 4C33 4 14-52 14-124c0-73 17-127 87-127zm-1 229c47 0 54-49 54-102s-4-102-53-102c-51 0-55 48-55 102 0 53 5 102 54 102" id="cv"/><g id="ah"><use transform="matrix(0.05,0,0,0.05,0,0)" xlink:href="#cu"/><use transform="matrix(0.05,0,0,0.05,12,0)" xlink:href="#cv"/></g><linearGradient gradientUnits="userSpaceOnUse" id="ai" x1="881.11" y1="1511.6" x2="881.11" y2="1480"><stop offset="0%" stop-color="#0078d4"/><stop offset="81.7%" stop-color="#5ea0ef"/></linearGradient><path d="M27 0v-27h64v-190l-56 39v-29l58-41h29v221h61V0H27" id="cw"/><g id="aj"><use transform="matrix(0.05,0,0,0.05,0,0)" xlink:href="#cu"/><use transform="matrix(0.05,0,0,0.05,12,0)" xlink:href="#cw"/></g><linearGradient gradientUnits="userSpaceOnUse" id="ak" x1="881.11" y1="1547.4" x2="881.11" y2="1515.8"><stop offset="0%" stop-color="#0078d4"/><stop offset="81.7%" stop-color="#5ea0ef"/></linearGradient><path d="M101-251c82-7 93 87 43 132L82-64C71-53 59-42 53-27h129V0H18c2-99 128-94 128-182 0-28-16-43-45-43s-46 15-49 41l-32-3c6-41 34-60 81-64" id="cx"/><g id="al"><use transform="matrix(0.05,0,0,0.05,0,0)" xlink:href="#cu"/><use transform="matrix(0.05,0,0,0.05,12,0)" xlink:href="#cx"/></g><linearGradient gradientUnits="userSpaceOnUse" id="am" x1="881.11" y1="1587.4" x2="881.11" y2="1555.8"><stop offset="0%" stop-color="#0078d4"/><stop offset="81.7%" stop-color="#5ea0ef"/></linearGradient><linearGradient gradientUnits="userSpaceOnUse" id="an" x1="881.11" y1="1633.7" x2="881.11" y2="1602.1"><stop offset="0%" stop-color="#0078d4"/><stop offset="81.7%" stop-color="#5ea0ef"/></linearGradient><linearGradient gradientUnits="userSpaceOnUse" id="ao" x1="881.11" y1="1669.5" x2="881.11" y2="1637.9"><stop offset="0%" stop-color="#0078d4"/><stop offset="81.7%" stop-color="#5ea0ef"/></linearGradient><linearGradient gradientUnits="userSpaceOnUse" id="ap" x1="881.11" y1="1713.7" x2="881.11" y2="1682.1"><stop offset="0%" stop-color="#0078d4"/><stop offset="81.7%" stop-color="#5ea0ef"/></linearGradient><linearGradient gradientUnits="userSpaceOnUse" id="aq" x1="880.61" y1="1749.5" x2="880.61" y2="1717.9"><stop offset="0%" stop-color="#0078d4"/><stop offset="81.7%" stop-color="#5ea0ef"/></linearGradient><path d="M64 0c3-98 48-159 88-221H18v-27h164v26C143-157 98-101 97 0H64" id="cy"/><g id="ar"><use transform="matrix(0.05,0,0,0.05,0,0)" xlink:href="#cu"/><use transform="matrix(0.05,0,0,0.05,12,0)" xlink:href="#cy"/></g><path fill="#333" d="M253 0h-61l-6-196c-25 68-54 131-82 196H42L26-248h50l7 204 86-204h55l8 204 82-204h51" id="cz"/><path fill="#333" d="M258-177c0 46-32 67-71 75L235 0h-57l-41-94H76L58 0H6l48-248c89 2 204-19 204 71zm-53 3c0-46-63-30-107-33l-14 73c51-2 120 13 121-40" id="cA"/><path fill="#333" d="M6 0l48-248h52L58 0H6" id="cB"/><g id="as"><use transform="matrix(0.04320987654320988,0,0,0.04320987654320988,0,0)" xlink:href="#cz"/><use transform="matrix(0.04320987654320988,0,0,0.04320987654320988,14.648148148148149,0)" xlink:href="#cA"/><use transform="matrix(0.04320987654320988,0,0,0.04320987654320988,25.839506172839503,0)" xlink:href="#cB"/><use transform="matrix(0.04320987654320988,0,0,0.04320987654320988,30.160493827160494,0)" xlink:href="#bN"/><use transform="matrix(0.04320987654320988,0,0,0.04320987654320988,39.623456790123456,0)" xlink:href="#bM"/></g><g id="at"><use transform="matrix(0.04320987654320988,0,0,0.04320987654320988,0,0)" xlink:href="#bO"/><use transform="matrix(0.04320987654320988,0,0,0.04320987654320988,9.462962962962964,0)" xlink:href="#bP"/><use transform="matrix(0.04320987654320988,0,0,0.04320987654320988,18.10493827160494,0)" xlink:href="#bQ"/><use transform="matrix(0.04320987654320988,0,0,0.04320987654320988,26.746913580246915,0)" xlink:href="#bR"/><use transform="matrix(0.04320987654320988,0,0,0.04320987654320988,36.20987654320988,0)" xlink:href="#bP"/><use transform="matrix(0.04320987654320988,0,0,0.04320987654320988,44.851851851851855,0)" xlink:href="#bS"/><use transform="matrix(0.04320987654320988,0,0,0.04320987654320988,50.037037037037045,0)" xlink:href="#bT"/><use transform="matrix(0.04320987654320988,0,0,0.04320987654320988,54.35802469135802,0)" xlink:href="#bS"/><use transform="matrix(0.04320987654320988,0,0,0.04320987654320988,60.407407407407405,0)" xlink:href="#bP"/><use transform="matrix(0.04320987654320988,0,0,0.04320987654320988,69.04938271604938,0)" xlink:href="#bU"/><use transform="matrix(0.04320987654320988,0,0,0.04320987654320988,78.51234567901234,0)" xlink:href="#bV"/><use transform="matrix(0.04320987654320988,0,0,0.04320987654320988,82.83333333333333,0)" xlink:href="#bW"/><use transform="matrix(0.04320987654320988,0,0,0.04320987654320988,91.4753086419753,0)" xlink:href="#bX"/><use transform="matrix(0.04320987654320988,0,0,0.04320987654320988,96.61728395061728,0)" xlink:href="#bY"/><use transform="matrix(0.04320987654320988,0,0,0.04320987654320988,106.08024691358024,0)" xlink:href="#bZ"/></g><use transform="matrix(0.04320987654320988,0,0,0.04320987654320988,0,0)" xlink:href="#cf" id="au"/><path fill="#333" d="M248-111c6-24 9-61-24-58-72 9-57 108-77 169h-31l26-142c3-37-50-30-64-10C52-115 50-51 37 0H6l36-190h30c-1 10-6 24-4 32 13-43 101-52 105 5 13-22 29-41 61-41 90 0 28 129 23 194h-31" id="cC"/><g id="av"><use transform="matrix(0.04320987654320988,0,0,0.04320987654320988,0,0)" xlink:href="#cC"/><use transform="matrix(0.04320987654320988,0,0,0.04320987654320988,12.919753086419755,0)" xlink:href="#ci"/></g><path fill="#333" d="M68-162c25-46 127-43 121 31C183-60 169 1 98 4 69 5 53-11 43-31L36 0H5l52-261h31zm88 36c2-27-9-43-34-43-55 0-70 51-70 103 0 29 15 45 43 46 52 0 58-58 61-106" id="cD"/><g id="aw"><use transform="matrix(0.04320987654320988,0,0,0.04320987654320988,0,0)" xlink:href="#cg"/><use transform="matrix(0.04320987654320988,0,0,0.04320987654320988,8.641975308641976,0)" xlink:href="#ci"/><use transform="matrix(0.04320987654320988,0,0,0.04320987654320988,17.283950617283953,0)" xlink:href="#cD"/><use transform="matrix(0.04320987654320988,0,0,0.04320987654320988,25.925925925925927,0)" xlink:href="#ci"/><use transform="matrix(0.04320987654320988,0,0,0.04320987654320988,34.567901234567906,0)" xlink:href="#ch"/></g><path fill="#333" d="M67 3c-93-2-31-127-26-193h32L48-50c-3 39 53 32 70 12 30-34 30-101 43-152h32L157 0h-30c1-10 6-24 4-33-14 20-29 37-64 36" id="cE"/><path fill="#333" d="M23-150v-26h175v26H23zm0 90v-26h175v26H23" id="cF"/><path fill="#333" d="M123-251c66 0 92 69 53 113C138-94 73-75 39-27h128l-5 27H-2c17-92 123-93 159-163 14-28-1-64-36-62-29 2-46 17-54 41l-30-6c13-36 37-61 86-61" id="cG"/><path fill="#333" d="M16-82c0-90 25-169 113-169 48 0 68 33 68 82C197-79 170 4 84 4 37 4 16-31 16-82zm30 5c0 32 11 55 40 55 69 0 76-79 80-149 2-32-10-55-39-55-69 0-81 81-81 149" id="cH"/><g id="ax"><use transform="matrix(0.04320987654320988,0,0,0.04320987654320988,0,0)" xlink:href="#ca"/><use transform="matrix(0.04320987654320988,0,0,0.04320987654320988,4.320987654320988,0)" xlink:href="#cd"/><use transform="matrix(0.04320987654320988,0,0,0.04320987654320988,7.734567901234569,0)" xlink:href="#cC"/><use transform="matrix(0.04320987654320988,0,0,0.04320987654320988,20.654320987654323,0)" xlink:href="#ci"/><use transform="matrix(0.04320987654320988,0,0,0.04320987654320988,29.296296296296298,0)" xlink:href="#cb"/><use transform="matrix(0.04320987654320988,0,0,0.04320987654320988,37.93827160493827,0)" xlink:href="#cE"/><use transform="matrix(0.04320987654320988,0,0,0.04320987654320988,46.58024691358024,0)" xlink:href="#ca"/><use transform="matrix(0.04320987654320988,0,0,0.04320987654320988,50.90123456790123,0)" xlink:href="#cF"/><use transform="matrix(0.04320987654320988,0,0,0.04320987654320988,59.97530864197532,0)" xlink:href="#cG"/><use transform="matrix(0.04320987654320988,0,0,0.04320987654320988,68.61728395061729,0)" xlink:href="#cH"/></g></defs></g></svg>